%TF.GenerationSoftware,KiCad,Pcbnew,9.0.5*%
%TF.CreationDate,2025-10-08T15:34:32+02:00*%
%TF.ProjectId,Zamkonator,5a616d6b-6f6e-4617-946f-722e6b696361,rev?*%
%TF.SameCoordinates,Original*%
%TF.FileFunction,Soldermask,Bot*%
%TF.FilePolarity,Negative*%
%FSLAX46Y46*%
G04 Gerber Fmt 4.6, Leading zero omitted, Abs format (unit mm)*
G04 Created by KiCad (PCBNEW 9.0.5) date 2025-10-08 15:34:32*
%MOMM*%
%LPD*%
G01*
G04 APERTURE LIST*
G04 Aperture macros list*
%AMRoundRect*
0 Rectangle with rounded corners*
0 $1 Rounding radius*
0 $2 $3 $4 $5 $6 $7 $8 $9 X,Y pos of 4 corners*
0 Add a 4 corners polygon primitive as box body*
4,1,4,$2,$3,$4,$5,$6,$7,$8,$9,$2,$3,0*
0 Add four circle primitives for the rounded corners*
1,1,$1+$1,$2,$3*
1,1,$1+$1,$4,$5*
1,1,$1+$1,$6,$7*
1,1,$1+$1,$8,$9*
0 Add four rect primitives between the rounded corners*
20,1,$1+$1,$2,$3,$4,$5,0*
20,1,$1+$1,$4,$5,$6,$7,0*
20,1,$1+$1,$6,$7,$8,$9,0*
20,1,$1+$1,$8,$9,$2,$3,0*%
G04 Aperture macros list end*
%ADD10C,3.000000*%
%ADD11C,2.500000*%
%ADD12C,3.250000*%
%ADD13R,1.500000X1.500000*%
%ADD14C,1.500000*%
%ADD15C,1.600000*%
%ADD16C,2.029000*%
%ADD17C,1.800000*%
%ADD18R,1.700000X1.700000*%
%ADD19C,1.700000*%
%ADD20RoundRect,0.250000X-0.725000X0.600000X-0.725000X-0.600000X0.725000X-0.600000X0.725000X0.600000X0*%
%ADD21O,1.950000X1.700000*%
%ADD22C,0.800000*%
%ADD23C,6.400000*%
%ADD24O,1.700000X1.700000*%
%ADD25C,1.200000*%
%ADD26C,3.200000*%
%ADD27RoundRect,0.237500X-0.237500X0.250000X-0.237500X-0.250000X0.237500X-0.250000X0.237500X0.250000X0*%
%ADD28RoundRect,0.237500X0.237500X-0.250000X0.237500X0.250000X-0.237500X0.250000X-0.237500X-0.250000X0*%
%ADD29RoundRect,0.250000X-0.650000X1.500000X-0.650000X-1.500000X0.650000X-1.500000X0.650000X1.500000X0*%
G04 APERTURE END LIST*
D10*
%TO.C,K1*%
X58300000Y-48450000D03*
D11*
X64350000Y-46500000D03*
D10*
X64350000Y-34300000D03*
X52300000Y-34250000D03*
D11*
X52350000Y-46500000D03*
%TD*%
D12*
%TO.C,RJ1*%
X109900000Y-53200000D03*
X109900000Y-41800000D03*
D13*
X101010000Y-53215000D03*
D14*
X103550000Y-51945000D03*
X101010000Y-50675000D03*
X103550000Y-49405000D03*
X101010000Y-48135000D03*
X103550000Y-46865000D03*
X101010000Y-45595000D03*
X103550000Y-44325000D03*
X101010000Y-43055000D03*
X103550000Y-41785000D03*
D15*
X113990000Y-54129000D03*
X113990000Y-51589000D03*
X113990000Y-43411000D03*
X113990000Y-40871000D03*
D16*
X106852000Y-55247000D03*
X106852000Y-39753000D03*
%TD*%
D17*
%TO.C,J7*%
X47435000Y-39250000D03*
X42435000Y-42750000D03*
X47435000Y-46250000D03*
X42435000Y-49750000D03*
X47435000Y-53250000D03*
X42435000Y-56750000D03*
%TD*%
D18*
%TO.C,J9*%
X57912000Y-65786000D03*
D19*
X57912000Y-63246000D03*
X60452000Y-65786000D03*
X60452000Y-63246000D03*
%TD*%
D20*
%TO.C,J1*%
X47335000Y-73250000D03*
D21*
X47335000Y-75750000D03*
X47335000Y-78250000D03*
X47335000Y-80750000D03*
X47335000Y-83250000D03*
X47335000Y-85750000D03*
X47335000Y-88250000D03*
X47335000Y-90750000D03*
%TD*%
D22*
%TO.C,H3*%
X42700000Y-98500000D03*
X43402944Y-96802944D03*
X43402944Y-100197056D03*
X45100000Y-96100000D03*
D23*
X45100000Y-98500000D03*
D22*
X45100000Y-100900000D03*
X46797056Y-96802944D03*
X46797056Y-100197056D03*
X47500000Y-98500000D03*
%TD*%
D18*
%TO.C,J3*%
X93100000Y-101000000D03*
D24*
X95640000Y-101000000D03*
X98180000Y-101000000D03*
X100720000Y-101000000D03*
X103260000Y-101000000D03*
X105800000Y-101000000D03*
%TD*%
D17*
%TO.C,J8*%
X47445000Y-63512500D03*
X42445000Y-67012500D03*
%TD*%
D25*
%TO.C,J2*%
X57150000Y-99700000D03*
X65150000Y-99700000D03*
%TD*%
D22*
%TO.C,H4*%
X42700000Y-31500000D03*
X43402944Y-29802944D03*
X43402944Y-33197056D03*
X45100000Y-29100000D03*
D23*
X45100000Y-31500000D03*
D22*
X45100000Y-33900000D03*
X46797056Y-29802944D03*
X46797056Y-33197056D03*
X47500000Y-31500000D03*
%TD*%
D26*
%TO.C,H2*%
X112100000Y-98500000D03*
%TD*%
%TO.C,H1*%
X112100000Y-31500000D03*
%TD*%
D18*
%TO.C,J5*%
X74925000Y-41100000D03*
D24*
X74925000Y-43640000D03*
X74925000Y-46180000D03*
X74925000Y-48720000D03*
%TD*%
D18*
%TO.C,J6*%
X74925000Y-84200000D03*
D24*
X74925000Y-86740000D03*
X74925000Y-89280000D03*
%TD*%
D18*
%TO.C,J4*%
X52070000Y-52324000D03*
D19*
X52070000Y-54864000D03*
X52070000Y-57404000D03*
%TD*%
D14*
%TO.C,TP20*%
X71350000Y-47500000D03*
%TD*%
D27*
%TO.C,R34*%
X72200000Y-87587500D03*
X72200000Y-89412500D03*
%TD*%
D14*
%TO.C,TP5*%
X104370000Y-70150000D03*
%TD*%
%TO.C,TP8*%
X71120000Y-81788000D03*
%TD*%
D10*
%TO.C,TP13*%
X56500000Y-34300000D03*
%TD*%
%TO.C,TP12*%
X60300000Y-38100000D03*
%TD*%
D14*
%TO.C,TP11*%
X71882000Y-84328000D03*
%TD*%
%TO.C,TP15*%
X99850000Y-79250000D03*
%TD*%
%TO.C,TP3*%
X94488000Y-98298000D03*
%TD*%
%TO.C,TP7*%
X92100000Y-90000000D03*
%TD*%
%TO.C,TP4*%
X62484000Y-62738000D03*
%TD*%
D10*
%TO.C,TP2*%
X64008000Y-67818000D03*
%TD*%
%TO.C,TP14*%
X58100000Y-43500000D03*
%TD*%
D14*
%TO.C,TP9*%
X62738000Y-71374000D03*
%TD*%
%TO.C,TP16*%
X102500000Y-79200000D03*
%TD*%
%TO.C,TP23*%
X104600000Y-29750000D03*
%TD*%
D10*
%TO.C,TP1*%
X86600000Y-57000000D03*
%TD*%
D14*
%TO.C,TP22*%
X74600000Y-57250000D03*
%TD*%
D28*
%TO.C,R35*%
X77500000Y-89212500D03*
X77500000Y-87387500D03*
%TD*%
D29*
%TO.C,D17*%
X52070000Y-60873000D03*
X52070000Y-65873000D03*
%TD*%
D14*
%TO.C,TP19*%
X81788000Y-42672000D03*
%TD*%
%TO.C,TP10*%
X62992000Y-75438000D03*
%TD*%
D10*
%TO.C,TP6*%
X64770000Y-52070000D03*
%TD*%
M02*
