%TF.GenerationSoftware,KiCad,Pcbnew,9.0.5*%
%TF.CreationDate,2025-10-08T15:34:32+02:00*%
%TF.ProjectId,Zamkonator,5a616d6b-6f6e-4617-946f-722e6b696361,rev?*%
%TF.SameCoordinates,Original*%
%TF.FileFunction,Copper,L2,Bot*%
%TF.FilePolarity,Positive*%
%FSLAX46Y46*%
G04 Gerber Fmt 4.6, Leading zero omitted, Abs format (unit mm)*
G04 Created by KiCad (PCBNEW 9.0.5) date 2025-10-08 15:34:32*
%MOMM*%
%LPD*%
G01*
G04 APERTURE LIST*
G04 Aperture macros list*
%AMRoundRect*
0 Rectangle with rounded corners*
0 $1 Rounding radius*
0 $2 $3 $4 $5 $6 $7 $8 $9 X,Y pos of 4 corners*
0 Add a 4 corners polygon primitive as box body*
4,1,4,$2,$3,$4,$5,$6,$7,$8,$9,$2,$3,0*
0 Add four circle primitives for the rounded corners*
1,1,$1+$1,$2,$3*
1,1,$1+$1,$4,$5*
1,1,$1+$1,$6,$7*
1,1,$1+$1,$8,$9*
0 Add four rect primitives between the rounded corners*
20,1,$1+$1,$2,$3,$4,$5,0*
20,1,$1+$1,$4,$5,$6,$7,0*
20,1,$1+$1,$6,$7,$8,$9,0*
20,1,$1+$1,$8,$9,$2,$3,0*%
G04 Aperture macros list end*
%TA.AperFunction,ComponentPad*%
%ADD10C,3.000000*%
%TD*%
%TA.AperFunction,ComponentPad*%
%ADD11C,2.500000*%
%TD*%
%TA.AperFunction,ComponentPad*%
%ADD12R,1.500000X1.500000*%
%TD*%
%TA.AperFunction,ComponentPad*%
%ADD13C,1.500000*%
%TD*%
%TA.AperFunction,ComponentPad*%
%ADD14C,1.600000*%
%TD*%
%TA.AperFunction,ComponentPad*%
%ADD15C,2.029000*%
%TD*%
%TA.AperFunction,ComponentPad*%
%ADD16C,1.800000*%
%TD*%
%TA.AperFunction,ComponentPad*%
%ADD17R,1.700000X1.700000*%
%TD*%
%TA.AperFunction,ComponentPad*%
%ADD18C,1.700000*%
%TD*%
%TA.AperFunction,ComponentPad*%
%ADD19RoundRect,0.250000X-0.725000X0.600000X-0.725000X-0.600000X0.725000X-0.600000X0.725000X0.600000X0*%
%TD*%
%TA.AperFunction,ComponentPad*%
%ADD20O,1.950000X1.700000*%
%TD*%
%TA.AperFunction,ComponentPad*%
%ADD21C,0.800000*%
%TD*%
%TA.AperFunction,ComponentPad*%
%ADD22C,6.400000*%
%TD*%
%TA.AperFunction,ComponentPad*%
%ADD23O,1.700000X1.700000*%
%TD*%
%TA.AperFunction,HeatsinkPad*%
%ADD24C,0.500000*%
%TD*%
%TA.AperFunction,HeatsinkPad*%
%ADD25R,2.600000X2.600000*%
%TD*%
%TA.AperFunction,HeatsinkPad*%
%ADD26C,0.800000*%
%TD*%
%TA.AperFunction,SMDPad,CuDef*%
%ADD27C,1.500000*%
%TD*%
%TA.AperFunction,SMDPad,CuDef*%
%ADD28RoundRect,0.237500X-0.237500X0.250000X-0.237500X-0.250000X0.237500X-0.250000X0.237500X0.250000X0*%
%TD*%
%TA.AperFunction,SMDPad,CuDef*%
%ADD29C,3.000000*%
%TD*%
%TA.AperFunction,SMDPad,CuDef*%
%ADD30RoundRect,0.237500X0.237500X-0.250000X0.237500X0.250000X-0.237500X0.250000X-0.237500X-0.250000X0*%
%TD*%
%TA.AperFunction,SMDPad,CuDef*%
%ADD31RoundRect,0.250000X-0.650000X1.500000X-0.650000X-1.500000X0.650000X-1.500000X0.650000X1.500000X0*%
%TD*%
%TA.AperFunction,ViaPad*%
%ADD32C,0.800000*%
%TD*%
%TA.AperFunction,Conductor*%
%ADD33C,0.200000*%
%TD*%
%TA.AperFunction,Conductor*%
%ADD34C,0.300000*%
%TD*%
%TA.AperFunction,Conductor*%
%ADD35C,0.250000*%
%TD*%
%TA.AperFunction,Conductor*%
%ADD36C,0.500000*%
%TD*%
%TA.AperFunction,Conductor*%
%ADD37C,0.400000*%
%TD*%
%TA.AperFunction,Conductor*%
%ADD38C,0.800000*%
%TD*%
G04 APERTURE END LIST*
D10*
%TO.P,K1,1*%
%TO.N,/R_C*%
X58300000Y-48450000D03*
D11*
%TO.P,K1,2*%
%TO.N,+3.3V*%
X64350000Y-46500000D03*
D10*
%TO.P,K1,3*%
%TO.N,/R_NO*%
X64350000Y-34300000D03*
%TO.P,K1,4*%
%TO.N,/R_NC*%
X52300000Y-34250000D03*
D11*
%TO.P,K1,5*%
%TO.N,Net-(D10-A)*%
X52350000Y-46500000D03*
%TD*%
D12*
%TO.P,RJ1,1,1*%
%TO.N,Net-(U1-MDI+1)*%
X101010000Y-53215000D03*
D13*
%TO.P,RJ1,2,2*%
%TO.N,Net-(U1-MDI-1)*%
X103550000Y-51945000D03*
%TO.P,RJ1,3,3*%
%TO.N,Net-(C3-Pad1)*%
X101010000Y-50675000D03*
%TO.P,RJ1,4,4*%
X103550000Y-49405000D03*
%TO.P,RJ1,5,5*%
%TO.N,Net-(U1-MDI+0)*%
X101010000Y-48135000D03*
%TO.P,RJ1,6,6*%
%TO.N,Net-(U1-MDI-0)*%
X103550000Y-46865000D03*
%TO.P,RJ1,7,7*%
%TO.N,GND*%
X101010000Y-45595000D03*
%TO.P,RJ1,8,8*%
%TO.N,unconnected-(RJ1-Pad8)*%
X103550000Y-44325000D03*
%TO.P,RJ1,9,9*%
%TO.N,/Ethenet PHY/POE+*%
X101010000Y-43055000D03*
%TO.P,RJ1,10,10*%
%TO.N,/Ethenet PHY/POE-*%
X103550000Y-41785000D03*
D14*
%TO.P,RJ1,11,11*%
%TO.N,Net-(R2-Pad1)*%
X113990000Y-54129000D03*
%TO.P,RJ1,12,12*%
%TO.N,GND*%
X113990000Y-51589000D03*
%TO.P,RJ1,13,13*%
%TO.N,Net-(R1-Pad1)*%
X113990000Y-43411000D03*
%TO.P,RJ1,14,14*%
%TO.N,GND*%
X113990000Y-40871000D03*
D15*
%TO.P,RJ1,GND1,GND*%
X106852000Y-55247000D03*
%TO.P,RJ1,GND2,GND*%
X106852000Y-39753000D03*
%TD*%
D16*
%TO.P,J7,1,Pin_1*%
%TO.N,/R_NC*%
X47435000Y-39250000D03*
%TO.P,J7,2,Pin_2*%
%TO.N,/R_NO*%
X42435000Y-42750000D03*
%TO.P,J7,3,Pin_3*%
%TO.N,/R_C*%
X47435000Y-46250000D03*
%TO.P,J7,4,Pin_4*%
%TO.N,GND2*%
X42435000Y-49750000D03*
%TO.P,J7,5,Pin_5*%
X47435000Y-53250000D03*
%TO.P,J7,6,Pin_6*%
%TO.N,/EXT_PWR*%
X42435000Y-56750000D03*
%TD*%
D17*
%TO.P,J9,1,Pin_1*%
%TO.N,/EXT_PWR*%
X57912000Y-65786000D03*
D18*
%TO.P,J9,2,Pin_2*%
%TO.N,GND2*%
X57912000Y-63246000D03*
%TO.P,J9,3,Pin_3*%
%TO.N,+12V*%
X60452000Y-65786000D03*
%TO.P,J9,4,Pin_4*%
%TO.N,GND*%
X60452000Y-63246000D03*
%TD*%
D19*
%TO.P,J1,1,Pin_1*%
%TO.N,GND2*%
X47335000Y-73250000D03*
D20*
%TO.P,J1,2,Pin_2*%
%TO.N,/READER_DAT0*%
X47335000Y-75750000D03*
%TO.P,J1,3,Pin_3*%
%TO.N,/EXT_PWR*%
X47335000Y-78250000D03*
%TO.P,J1,4,Pin_4*%
%TO.N,/READER_DAT1*%
X47335000Y-80750000D03*
%TO.P,J1,5,Pin_5*%
%TO.N,/READER_BUZZER*%
X47335000Y-83250000D03*
%TO.P,J1,6,Pin_6*%
%TO.N,/READER_LED*%
X47335000Y-85750000D03*
%TO.P,J1,7,Pin_7*%
%TO.N,unconnected-(J1-Pin_7-Pad7)*%
X47335000Y-88250000D03*
%TO.P,J1,8,Pin_8*%
%TO.N,unconnected-(J1-Pin_8-Pad8)*%
X47335000Y-90750000D03*
%TD*%
D21*
%TO.P,H3,1,1*%
%TO.N,GND2*%
X42700000Y-98500000D03*
X43402944Y-96802944D03*
X43402944Y-100197056D03*
X45100000Y-96100000D03*
D22*
X45100000Y-98500000D03*
D21*
X45100000Y-100900000D03*
X46797056Y-96802944D03*
X46797056Y-100197056D03*
X47500000Y-98500000D03*
%TD*%
D17*
%TO.P,J3,1,Pin_1*%
%TO.N,GND*%
X93100000Y-101000000D03*
D23*
%TO.P,J3,2,Pin_2*%
%TO.N,/ESP_EN*%
X95640000Y-101000000D03*
%TO.P,J3,3,Pin_3*%
%TO.N,/ESP_IO0*%
X98180000Y-101000000D03*
%TO.P,J3,4,Pin_4*%
%TO.N,/ESP_TX*%
X100720000Y-101000000D03*
%TO.P,J3,5,Pin_5*%
%TO.N,/ESP_RX*%
X103260000Y-101000000D03*
%TO.P,J3,6,Pin_6*%
%TO.N,+3.3V*%
X105800000Y-101000000D03*
%TD*%
D16*
%TO.P,J8,1,Pin_1*%
%TO.N,/AUX_INP_GND*%
X47445000Y-63512500D03*
%TO.P,J8,2,Pin_2*%
%TO.N,GND2*%
X42445000Y-67012500D03*
%TD*%
D21*
%TO.P,H4,1,1*%
%TO.N,GND2*%
X42700000Y-31500000D03*
X43402944Y-29802944D03*
X43402944Y-33197056D03*
X45100000Y-29100000D03*
D22*
X45100000Y-31500000D03*
D21*
X45100000Y-33900000D03*
X46797056Y-29802944D03*
X46797056Y-33197056D03*
X47500000Y-31500000D03*
%TD*%
D24*
%TO.P,U2,21,VNEG*%
%TO.N,/RT9400_VB2*%
X86020000Y-37156165D03*
X83920000Y-37156165D03*
D25*
X84970000Y-38206165D03*
D24*
X86020000Y-39256165D03*
X83920000Y-39256165D03*
%TD*%
D26*
%TO.P,U6,39,GND*%
%TO.N,GND*%
X100782500Y-82045000D03*
X99257500Y-82045000D03*
X101545000Y-82807500D03*
X100020000Y-82807500D03*
X98495000Y-82807500D03*
X100782500Y-83570000D03*
X99257500Y-83570000D03*
X101545000Y-84332500D03*
X100020000Y-84332500D03*
X98495000Y-84332500D03*
X100782500Y-85095000D03*
X99257500Y-85095000D03*
%TD*%
D17*
%TO.P,J5,1,Pin_1*%
%TO.N,unconnected-(J5-Pin_1-Pad1)*%
X74925000Y-41100000D03*
D23*
%TO.P,J5,2,Pin_2*%
%TO.N,unconnected-(J5-Pin_2-Pad2)*%
X74925000Y-43640000D03*
%TO.P,J5,3,Pin_3*%
%TO.N,/RT9400_VB1*%
X74925000Y-46180000D03*
%TO.P,J5,4,Pin_4*%
%TO.N,/RT9400_VB2*%
X74925000Y-48720000D03*
%TD*%
D17*
%TO.P,J6,1,Pin_1*%
%TO.N,GND*%
X74925000Y-84200000D03*
D23*
%TO.P,J6,2,Pin_2*%
%TO.N,+12V*%
X74925000Y-86740000D03*
%TO.P,J6,3,Pin_3*%
%TO.N,Net-(J6-Pin_3)*%
X74925000Y-89280000D03*
%TD*%
D17*
%TO.P,J4,1,Pin_1*%
%TO.N,/EXT_PWR*%
X52070000Y-52324000D03*
D18*
%TO.P,J4,2,Pin_2*%
%TO.N,/R_C*%
X52070000Y-54864000D03*
%TO.P,J4,3,Pin_3*%
%TO.N,GND2*%
X52070000Y-57404000D03*
%TD*%
D27*
%TO.P,TP20,1,1*%
%TO.N,Net-(U2-EROUT)*%
X71350000Y-47500000D03*
%TD*%
D28*
%TO.P,R34,1*%
%TO.N,+12V*%
X72200000Y-87587500D03*
%TO.P,R34,2*%
%TO.N,Net-(J6-Pin_3)*%
X72200000Y-89412500D03*
%TD*%
D27*
%TO.P,TP5,1,1*%
%TO.N,/Ethenet PHY/PHY_AVDD*%
X104370000Y-70150000D03*
%TD*%
%TO.P,TP8,1,1*%
%TO.N,/BUZ_CTL*%
X71120000Y-81788000D03*
%TD*%
D29*
%TO.P,TP13,1,1*%
%TO.N,/R_NC*%
X56500000Y-34300000D03*
%TD*%
%TO.P,TP12,1,1*%
%TO.N,/R_NO*%
X60300000Y-38100000D03*
%TD*%
D27*
%TO.P,TP11,1,1*%
%TO.N,/LED_CTL*%
X71882000Y-84328000D03*
%TD*%
%TO.P,TP15,1,1*%
%TO.N,/EMAC_MDC*%
X99850000Y-79250000D03*
%TD*%
%TO.P,TP3,1,1*%
%TO.N,/ESP_EN*%
X94488000Y-98298000D03*
%TD*%
%TO.P,TP7,1,1*%
%TO.N,/CLK_EN*%
X92100000Y-90000000D03*
%TD*%
%TO.P,TP4,1,1*%
%TO.N,/RELAY_CTL*%
X62484000Y-62738000D03*
%TD*%
D29*
%TO.P,TP2,1,1*%
%TO.N,+12V*%
X64008000Y-67818000D03*
%TD*%
%TO.P,TP14,1,1*%
%TO.N,/R_C*%
X58100000Y-43500000D03*
%TD*%
D27*
%TO.P,TP9,1,1*%
%TO.N,/DAT0_INV*%
X62738000Y-71374000D03*
%TD*%
%TO.P,TP16,1,1*%
%TO.N,/EMAC_MDIO*%
X102500000Y-79200000D03*
%TD*%
%TO.P,TP23,1,1*%
%TO.N,VSS*%
X104600000Y-29750000D03*
%TD*%
D29*
%TO.P,TP1,1,1*%
%TO.N,GND*%
X86600000Y-57000000D03*
%TD*%
D27*
%TO.P,TP22,1,1*%
%TO.N,Net-(U4-REF)*%
X74600000Y-57250000D03*
%TD*%
D30*
%TO.P,R35,1*%
%TO.N,Net-(J6-Pin_3)*%
X77500000Y-89212500D03*
%TO.P,R35,2*%
%TO.N,GND*%
X77500000Y-87387500D03*
%TD*%
D31*
%TO.P,D17,1,K*%
%TO.N,/EXT_PWR*%
X52070000Y-60873000D03*
%TO.P,D17,2,A*%
%TO.N,GND2*%
X52070000Y-65873000D03*
%TD*%
D27*
%TO.P,TP19,1,1*%
%TO.N,/PoE PSU/VT15*%
X81788000Y-42672000D03*
%TD*%
%TO.P,TP10,1,1*%
%TO.N,/DAT1_INV*%
X62992000Y-75438000D03*
%TD*%
D29*
%TO.P,TP6,1,1*%
%TO.N,+3.3V*%
X64770000Y-52070000D03*
%TD*%
D32*
%TO.N,GND*%
X77978000Y-92964000D03*
X79100000Y-72250000D03*
X87630000Y-91948000D03*
X60198000Y-80518000D03*
X99100000Y-62812500D03*
X78994000Y-87122000D03*
X77470000Y-80010000D03*
X100457000Y-97028000D03*
X85852000Y-78740000D03*
X99187000Y-43815000D03*
X82100000Y-57500000D03*
X65786000Y-83058000D03*
X105918000Y-80010000D03*
X92100000Y-55750000D03*
X89350000Y-59250000D03*
X96774000Y-86614000D03*
X72136000Y-96266000D03*
X75184000Y-67310000D03*
X99100000Y-55750000D03*
X76500000Y-57900000D03*
X66294000Y-92964000D03*
X86868000Y-81280000D03*
X105850000Y-73250000D03*
X106426000Y-62865000D03*
X66294000Y-57912000D03*
X66802000Y-90678000D03*
X90932000Y-69850000D03*
X95377000Y-45339000D03*
X64008000Y-86868000D03*
X78740000Y-68580000D03*
X81407000Y-100330000D03*
X70100000Y-62250000D03*
X60198000Y-92202000D03*
X88900000Y-98552000D03*
X60452000Y-77724000D03*
X81280000Y-78486000D03*
X84131686Y-89211686D03*
X59690000Y-55118000D03*
X94234000Y-84836000D03*
X69596000Y-75692000D03*
X61722000Y-59944000D03*
X106299000Y-97155000D03*
X79756000Y-76708000D03*
X67350000Y-61000000D03*
X93726000Y-71628000D03*
X92964000Y-62230000D03*
X83693000Y-96647000D03*
X99060000Y-87376000D03*
X74930000Y-76646000D03*
X91186000Y-80264000D03*
X67310000Y-69596000D03*
X107950000Y-66040000D03*
X66837500Y-77750000D03*
X77724000Y-62738000D03*
X76708000Y-82042000D03*
X103378000Y-89408000D03*
X108712000Y-57658000D03*
X70866000Y-69342000D03*
X62992000Y-96774000D03*
X83820000Y-84836000D03*
X84850000Y-65250000D03*
%TO.N,/Ethenet PHY/PHY_AVDD*%
X103600994Y-67548082D03*
X93457680Y-58402369D03*
X102100000Y-58250000D03*
X104324349Y-63659791D03*
%TO.N,VSS*%
X92964000Y-33274000D03*
X80100000Y-33500000D03*
X84226418Y-35099207D03*
X78100000Y-30500000D03*
X87100000Y-29500000D03*
X77300000Y-50100000D03*
X92710000Y-28702000D03*
X74100000Y-35900000D03*
X80100000Y-44500000D03*
X78100000Y-34500000D03*
X90170000Y-37846000D03*
X87884000Y-33528000D03*
X102100000Y-29500000D03*
X74350000Y-30000000D03*
X77900000Y-46100000D03*
%TO.N,/PoE PSU/VT15*%
X87630000Y-41910000D03*
X81788000Y-42672000D03*
%TO.N,+3.3V*%
X93865115Y-60762411D03*
X66548000Y-64770000D03*
X101300000Y-66310521D03*
%TO.N,/ESP_EN*%
X95640000Y-97418000D03*
%TO.N,/CLK_EN*%
X98663883Y-66929803D03*
X92100000Y-91500000D03*
%TO.N,Net-(D3-A)*%
X85344000Y-42418000D03*
X88412536Y-39366142D03*
%TO.N,Net-(C3-Pad1)*%
X98100000Y-45750000D03*
%TO.N,/RELAY_CTL*%
X62484000Y-62738000D03*
X62738000Y-65024000D03*
%TO.N,/ESP_TX*%
X103632000Y-94488000D03*
%TO.N,/ESP_RX*%
X102108000Y-94488000D03*
%TO.N,/ESP_IO0*%
X102350000Y-60250000D03*
X90850000Y-91694000D03*
%TO.N,Net-(U2-EROUT)*%
X69600000Y-48500000D03*
%TO.N,Net-(U2-HSO)*%
X86841665Y-35409500D03*
X81788000Y-37592000D03*
%TO.N,Net-(U4-REF)*%
X70100000Y-58500000D03*
%TO.N,/BUZ_CTL*%
X66675000Y-80892250D03*
%TO.N,/LED_CTL*%
X70001000Y-82804000D03*
%TO.N,/RT9400_VB2*%
X77400000Y-38000000D03*
X91694000Y-34544000D03*
%TO.N,/EMAC_MDIO*%
X102100000Y-74000000D03*
X94850000Y-91250000D03*
%TO.N,/DAT1_INV*%
X91186000Y-74149998D03*
X62992000Y-75438000D03*
%TO.N,/DAT0_INV*%
X62738000Y-71374000D03*
X91400000Y-72898000D03*
%TO.N,/EMAC_MDC*%
X93350000Y-91250000D03*
X99850000Y-66425000D03*
%TO.N,/EMAC_RXD1*%
X95600000Y-62500000D03*
X94600000Y-77250000D03*
%TO.N,/EMAC_TXD0*%
X94900000Y-73124000D03*
X96350000Y-78750000D03*
%TO.N,/EMAC_TXD1*%
X98806000Y-77978000D03*
X98493999Y-73133949D03*
%TO.N,/EMAC_TX_EN*%
X105600000Y-91500000D03*
X101100000Y-91500000D03*
X100549999Y-73439949D03*
X101350000Y-78000000D03*
%TO.N,/EMAC_CRS_DV*%
X102575000Y-63565272D03*
X103600000Y-77500000D03*
%TO.N,/EMAC_RXD0*%
X95602636Y-61061241D03*
X95850000Y-77250000D03*
%TO.N,GND2*%
X47752000Y-60833000D03*
X49530000Y-80772000D03*
X49276000Y-76200000D03*
X55626000Y-65786000D03*
X55880000Y-71120000D03*
X54737000Y-60325000D03*
X48006000Y-94488000D03*
X43434000Y-82296000D03*
X56134000Y-79248000D03*
X49276000Y-84582000D03*
%TO.N,/ESP32/IO15*%
X70866000Y-90678000D03*
X85598000Y-89916000D03*
%TO.N,/ESP32/IO13*%
X67056000Y-88392000D03*
X87884000Y-79756000D03*
%TO.N,/ESP32/IO14*%
X62484000Y-90678000D03*
X91186000Y-76962000D03*
%TO.N,/ESP32/IO2*%
X87122000Y-90424000D03*
X68580000Y-93726000D03*
%TO.N,/STATUS_LED_RED*%
X51308000Y-91186000D03*
X65786000Y-72898000D03*
%TO.N,/STATUS_LED_GREEN*%
X66040000Y-74849998D03*
X58674000Y-75184000D03*
%TO.N,/SDA*%
X81407000Y-75946000D03*
X70104000Y-79248000D03*
X89662000Y-75946000D03*
%TO.N,/I2C_INT*%
X70104000Y-77216000D03*
X99822000Y-94488000D03*
%TO.N,/SCL*%
X86614000Y-77978000D03*
X69787772Y-80196686D03*
%TD*%
D33*
%TO.N,/Ethenet PHY/PHY_AVDD*%
X104370000Y-70150000D02*
X104370000Y-68317088D01*
X103600994Y-67548082D02*
X104324349Y-66824727D01*
X104370000Y-68317088D02*
X103600994Y-67548082D01*
X93880531Y-58402369D02*
X93885019Y-58397881D01*
X93885019Y-58397881D02*
X94952119Y-58397881D01*
X94952119Y-58397881D02*
X95100000Y-58250000D01*
X93457680Y-58402369D02*
X93880531Y-58402369D01*
X104324349Y-66824727D02*
X104324349Y-63659791D01*
X95100000Y-58250000D02*
X102100000Y-58250000D01*
D34*
%TO.N,/PoE PSU/VT15*%
X86118000Y-43422000D02*
X82538000Y-43422000D01*
X82538000Y-43422000D02*
X81788000Y-42672000D01*
X87630000Y-41910000D02*
X86118000Y-43422000D01*
D35*
%TO.N,+12V*%
X64008000Y-67818000D02*
X61976000Y-65786000D01*
D33*
X73347500Y-86740000D02*
X74925000Y-86740000D01*
D35*
X61976000Y-65786000D02*
X60452000Y-65786000D01*
D33*
X72500000Y-87587500D02*
X73347500Y-86740000D01*
%TO.N,+3.3V*%
X66548000Y-64770000D02*
X64350000Y-62572000D01*
X95893000Y-60360241D02*
X97350000Y-61817241D01*
X93865115Y-60762411D02*
X94267285Y-60360241D01*
X64350000Y-62572000D02*
X64350000Y-46500000D01*
X97350000Y-64500000D02*
X98100000Y-65250000D01*
X94267285Y-60360241D02*
X95893000Y-60360241D01*
X97350000Y-61817241D02*
X97350000Y-64500000D01*
X98100000Y-65250000D02*
X100239479Y-65250000D01*
X100239479Y-65250000D02*
X101300000Y-66310521D01*
%TO.N,/ESP_EN*%
X95640000Y-101000000D02*
X95640000Y-98298000D01*
X95640000Y-98298000D02*
X95640000Y-97418000D01*
X95640000Y-98298000D02*
X94488000Y-98298000D01*
%TO.N,/CLK_EN*%
X97794000Y-87306000D02*
X96100000Y-89000000D01*
X97794000Y-67603257D02*
X97794000Y-87306000D01*
X92100000Y-90000000D02*
X92100000Y-91500000D01*
X93100000Y-89000000D02*
X92100000Y-90000000D01*
X98663883Y-66929803D02*
X98467454Y-66929803D01*
X98467454Y-66929803D02*
X97794000Y-67603257D01*
X96100000Y-89000000D02*
X93100000Y-89000000D01*
D36*
%TO.N,Net-(D3-A)*%
X85344000Y-42418000D02*
X88395858Y-39366142D01*
X88395858Y-39366142D02*
X88412536Y-39366142D01*
D33*
%TO.N,Net-(C3-Pad1)*%
X98100000Y-47765000D02*
X101010000Y-50675000D01*
X98100000Y-45750000D02*
X98100000Y-47765000D01*
%TO.N,/RELAY_CTL*%
X62484000Y-62738000D02*
X62484000Y-64770000D01*
X62484000Y-64770000D02*
X62738000Y-65024000D01*
%TO.N,Net-(J6-Pin_3)*%
X72500000Y-89412500D02*
X72632500Y-89280000D01*
X74925000Y-89280000D02*
X77432500Y-89280000D01*
X72632500Y-89280000D02*
X74925000Y-89280000D01*
%TO.N,/ESP_TX*%
X103632000Y-94488000D02*
X103378000Y-94742000D01*
X103378000Y-98342000D02*
X100720000Y-101000000D01*
X103378000Y-94742000D02*
X103378000Y-98342000D01*
%TO.N,/ESP_RX*%
X103922364Y-93787000D02*
X102809000Y-93787000D01*
X102809000Y-93787000D02*
X102108000Y-94488000D01*
X104333000Y-94197636D02*
X103922364Y-93787000D01*
X104333000Y-99927000D02*
X104333000Y-94197636D01*
X103260000Y-101000000D02*
X104333000Y-99927000D01*
%TO.N,/ESP_IO0*%
X100898881Y-58798881D02*
X102350000Y-60250000D01*
X92100000Y-86462000D02*
X92100000Y-60750000D01*
X90850000Y-91694000D02*
X90932000Y-91612000D01*
X92100000Y-60750000D02*
X94051119Y-58798881D01*
X90932000Y-91612000D02*
X90932000Y-87630000D01*
X90932000Y-87630000D02*
X92100000Y-86462000D01*
X94051119Y-58798881D02*
X100898881Y-58798881D01*
D35*
%TO.N,Net-(U2-EROUT)*%
X70600000Y-47500000D02*
X69600000Y-48500000D01*
X71350000Y-47500000D02*
X70600000Y-47500000D01*
D33*
%TO.N,Net-(U2-HSO)*%
X83579793Y-35800207D02*
X86450958Y-35800207D01*
X86450958Y-35800207D02*
X86841665Y-35409500D01*
X81788000Y-37592000D02*
X83579793Y-35800207D01*
D35*
%TO.N,Net-(U4-REF)*%
X73350000Y-58500000D02*
X70100000Y-58500000D01*
X74600000Y-57250000D02*
X73350000Y-58500000D01*
D33*
%TO.N,/BUZ_CTL*%
X67570750Y-81788000D02*
X66675000Y-80892250D01*
X71120000Y-81788000D02*
X67570750Y-81788000D01*
%TO.N,/LED_CTL*%
X71882000Y-84328000D02*
X70358000Y-82804000D01*
X70358000Y-82804000D02*
X70001000Y-82804000D01*
D34*
%TO.N,/RT9400_VB2*%
X86541835Y-37156165D02*
X86020000Y-37156165D01*
X89154000Y-34544000D02*
X86541835Y-37156165D01*
X91694000Y-34544000D02*
X89154000Y-34544000D01*
D36*
X76750000Y-38650000D02*
X84526165Y-38650000D01*
X76226000Y-47419000D02*
X74925000Y-48720000D01*
X76226000Y-39174000D02*
X76226000Y-47419000D01*
X76750000Y-38650000D02*
X76226000Y-39174000D01*
X77400000Y-38000000D02*
X76750000Y-38650000D01*
D33*
%TO.N,/EMAC_MDIO*%
X103100000Y-86000000D02*
X97850000Y-91250000D01*
X102500000Y-79200000D02*
X103100000Y-79800000D01*
X97850000Y-91250000D02*
X94850000Y-91250000D01*
X103100000Y-79800000D02*
X103100000Y-86000000D01*
X102100000Y-74000000D02*
X102500000Y-74400000D01*
X102500000Y-74400000D02*
X102500000Y-79200000D01*
%TO.N,/DAT1_INV*%
X91186000Y-74149998D02*
X64280002Y-74149998D01*
X64280002Y-74149998D02*
X62992000Y-75438000D01*
%TO.N,/DAT0_INV*%
X89876000Y-71374000D02*
X91400000Y-72898000D01*
X62738000Y-71374000D02*
X89876000Y-71374000D01*
%TO.N,/EMAC_MDC*%
X102699000Y-82099000D02*
X99850000Y-79250000D01*
X94600000Y-90000000D02*
X98350000Y-90000000D01*
X98350000Y-90000000D02*
X102699000Y-85651000D01*
X99850000Y-79250000D02*
X99850000Y-66425000D01*
X93350000Y-91250000D02*
X94600000Y-90000000D01*
X102699000Y-85651000D02*
X102699000Y-82099000D01*
%TO.N,/EMAC_RXD1*%
X95600000Y-62500000D02*
X95600000Y-76250000D01*
X95600000Y-76250000D02*
X94600000Y-77250000D01*
%TO.N,/EMAC_TXD0*%
X93899000Y-74701000D02*
X93899000Y-77540364D01*
X94900000Y-73700000D02*
X93899000Y-74701000D01*
X94900000Y-73124000D02*
X94900000Y-73700000D01*
X93899000Y-77540364D02*
X95108636Y-78750000D01*
X95108636Y-78750000D02*
X96350000Y-78750000D01*
%TO.N,/EMAC_TXD1*%
X98850000Y-73489950D02*
X98850000Y-77934000D01*
X98493999Y-73133949D02*
X98850000Y-73489950D01*
X98850000Y-77934000D02*
X98806000Y-77978000D01*
%TO.N,/EMAC_TX_EN*%
X100549999Y-73999999D02*
X100850000Y-74300000D01*
X100549999Y-73439949D02*
X100549999Y-73999999D01*
X100850000Y-77500000D02*
X101350000Y-78000000D01*
X100850000Y-74300000D02*
X100850000Y-77500000D01*
X105600000Y-91500000D02*
X101100000Y-91500000D01*
%TO.N,/EMAC_CRS_DV*%
X102901000Y-67551000D02*
X102901000Y-76801000D01*
X102901000Y-76801000D02*
X103600000Y-77500000D01*
X102575000Y-63565272D02*
X102575000Y-65129462D01*
X102526087Y-67176087D02*
X102901000Y-67551000D01*
X102526087Y-65178375D02*
X102526087Y-67176087D01*
X102575000Y-65129462D02*
X102526087Y-65178375D01*
%TO.N,/EMAC_RXD0*%
X95602636Y-61061241D02*
X96600000Y-62058605D01*
X96600000Y-62058605D02*
X96600000Y-76500000D01*
X96600000Y-76500000D02*
X95850000Y-77250000D01*
%TO.N,/EXT_PWR*%
X56761000Y-64635000D02*
X57912000Y-65786000D01*
X52070000Y-52324000D02*
X56761000Y-57015000D01*
D37*
X44831000Y-75746000D02*
X44831000Y-59146000D01*
D33*
X56761000Y-57015000D02*
X56761000Y-64635000D01*
D38*
X47644000Y-56750000D02*
X52070000Y-52324000D01*
D37*
X47335000Y-78250000D02*
X44831000Y-75746000D01*
D38*
X47117000Y-56750000D02*
X47947000Y-56750000D01*
X47117000Y-56750000D02*
X47644000Y-56750000D01*
D37*
X44831000Y-59146000D02*
X42435000Y-56750000D01*
D38*
X47947000Y-56750000D02*
X52070000Y-60873000D01*
X42435000Y-56750000D02*
X47117000Y-56750000D01*
D33*
%TO.N,/ESP32/IO15*%
X84836000Y-90678000D02*
X70866000Y-90678000D01*
X85598000Y-89916000D02*
X84836000Y-90678000D01*
%TO.N,/ESP32/IO13*%
X76985866Y-88129000D02*
X74448240Y-88129000D01*
X87884000Y-79756000D02*
X87884000Y-83058000D01*
X74185240Y-88392000D02*
X67056000Y-88392000D01*
X82766000Y-88176000D02*
X77032866Y-88176000D01*
X87884000Y-83058000D02*
X82766000Y-88176000D01*
X74448240Y-88129000D02*
X74185240Y-88392000D01*
X77032866Y-88176000D02*
X76985866Y-88129000D01*
%TO.N,/ESP32/IO14*%
X88900000Y-76962000D02*
X80273000Y-85589000D01*
X67573000Y-85589000D02*
X62484000Y-90678000D01*
X91186000Y-76962000D02*
X88900000Y-76962000D01*
X80273000Y-85589000D02*
X67573000Y-85589000D01*
%TO.N,/ESP32/IO2*%
X68580000Y-93726000D02*
X83820000Y-93726000D01*
X83820000Y-93726000D02*
X87122000Y-90424000D01*
D38*
%TO.N,/R_C*%
X56322000Y-44196000D02*
X49489000Y-44196000D01*
X58100000Y-45974000D02*
X56322000Y-44196000D01*
X58100000Y-43500000D02*
X58100000Y-45974000D01*
X58100000Y-45974000D02*
X58100000Y-48400000D01*
X49489000Y-44196000D02*
X47435000Y-46250000D01*
%TO.N,/R_NO*%
X55650000Y-42750000D02*
X42435000Y-42750000D01*
X64100000Y-34300000D02*
X62027000Y-36373000D01*
X62027000Y-36373000D02*
X60300000Y-38100000D01*
X62027000Y-36373000D02*
X55650000Y-42750000D01*
%TO.N,/R_NC*%
X56500000Y-34300000D02*
X52100000Y-34300000D01*
X56500000Y-34300000D02*
X52350000Y-34300000D01*
D33*
%TO.N,/STATUS_LED_RED*%
X57912000Y-87888000D02*
X57912000Y-74422000D01*
X57912000Y-74422000D02*
X59436000Y-72898000D01*
X54614000Y-91186000D02*
X57912000Y-87888000D01*
X51308000Y-91186000D02*
X54614000Y-91186000D01*
X59436000Y-72898000D02*
X65786000Y-72898000D01*
%TO.N,/STATUS_LED_GREEN*%
X59979000Y-76489000D02*
X64400998Y-76489000D01*
X58674000Y-75184000D02*
X59979000Y-76489000D01*
X64400998Y-76489000D02*
X66040000Y-74849998D01*
%TO.N,/SDA*%
X81407000Y-75946000D02*
X73406000Y-75946000D01*
X89662000Y-75946000D02*
X81407000Y-75946000D01*
X73406000Y-75946000D02*
X70104000Y-79248000D01*
%TO.N,/I2C_INT*%
X65302636Y-94488000D02*
X61783000Y-90968364D01*
X61783000Y-90968364D02*
X61783000Y-84792886D01*
X99822000Y-94488000D02*
X65302636Y-94488000D01*
X61783000Y-84792886D02*
X69359886Y-77216000D01*
X69359886Y-77216000D02*
X70104000Y-77216000D01*
%TO.N,/SCL*%
X70146678Y-80196686D02*
X72873364Y-77470000D01*
X72873364Y-77470000D02*
X86106000Y-77470000D01*
X86106000Y-77470000D02*
X86614000Y-77978000D01*
X69787772Y-80196686D02*
X70146678Y-80196686D01*
%TD*%
%TA.AperFunction,Conductor*%
%TO.N,GND*%
G36*
X105348818Y-39148319D02*
G01*
X105395311Y-39201975D01*
X105405415Y-39272249D01*
X105400530Y-39293254D01*
X105366990Y-39396476D01*
X105329500Y-39633180D01*
X105329500Y-39872819D01*
X105366990Y-40109523D01*
X105441044Y-40337436D01*
X105441045Y-40337438D01*
X105549842Y-40550965D01*
X105610851Y-40634937D01*
X105610852Y-40634937D01*
X106123015Y-40122773D01*
X106129757Y-40139047D01*
X106218949Y-40272532D01*
X106332468Y-40386051D01*
X106465953Y-40475243D01*
X106482225Y-40481983D01*
X105970061Y-40994147D01*
X105970061Y-40994148D01*
X106054032Y-41055156D01*
X106267561Y-41163954D01*
X106267563Y-41163955D01*
X106495476Y-41238009D01*
X106732180Y-41275500D01*
X106971820Y-41275500D01*
X107208523Y-41238009D01*
X107436436Y-41163955D01*
X107436438Y-41163954D01*
X107649967Y-41055156D01*
X107733937Y-40994148D01*
X107733937Y-40994146D01*
X107221774Y-40481983D01*
X107238047Y-40475243D01*
X107371532Y-40386051D01*
X107485051Y-40272532D01*
X107574243Y-40139047D01*
X107580983Y-40122774D01*
X108093146Y-40634937D01*
X108093148Y-40634937D01*
X108154156Y-40550967D01*
X108262954Y-40337438D01*
X108262955Y-40337436D01*
X108337009Y-40109523D01*
X108374500Y-39872819D01*
X108374500Y-39633180D01*
X108337009Y-39396476D01*
X108303470Y-39293254D01*
X108301442Y-39222286D01*
X108338104Y-39161488D01*
X108401816Y-39130163D01*
X108423303Y-39128317D01*
X114862237Y-39128317D01*
X114930358Y-39148319D01*
X114976851Y-39201975D01*
X114988226Y-39252667D01*
X114994546Y-39735137D01*
X114975438Y-39803514D01*
X114922396Y-39850705D01*
X114852260Y-39861729D01*
X114794496Y-39838723D01*
X114675545Y-39752300D01*
X114492099Y-39658829D01*
X114492093Y-39658826D01*
X114296294Y-39595208D01*
X114296298Y-39595208D01*
X114092939Y-39563000D01*
X113887061Y-39563000D01*
X113683703Y-39595208D01*
X113487906Y-39658826D01*
X113487900Y-39658829D01*
X113304452Y-39752301D01*
X113261626Y-39783415D01*
X113824227Y-40346016D01*
X113777708Y-40358482D01*
X113652292Y-40430890D01*
X113549890Y-40533292D01*
X113477482Y-40658708D01*
X113465017Y-40705226D01*
X112902416Y-40142625D01*
X112871301Y-40185452D01*
X112777829Y-40368900D01*
X112777826Y-40368906D01*
X112714208Y-40564703D01*
X112682000Y-40768061D01*
X112682000Y-40973938D01*
X112714208Y-41177296D01*
X112777826Y-41373093D01*
X112777829Y-41373099D01*
X112871297Y-41556540D01*
X112871298Y-41556541D01*
X112902416Y-41599372D01*
X113465016Y-41036771D01*
X113477482Y-41083292D01*
X113549890Y-41208708D01*
X113652292Y-41311110D01*
X113777708Y-41383518D01*
X113824225Y-41395982D01*
X113261626Y-41958581D01*
X113261626Y-41958583D01*
X113304454Y-41989699D01*
X113380511Y-42028453D01*
X113432126Y-42077202D01*
X113449192Y-42146117D01*
X113426291Y-42213318D01*
X113380511Y-42252987D01*
X113304193Y-42291872D01*
X113137567Y-42412934D01*
X113137564Y-42412936D01*
X112991936Y-42558564D01*
X112991934Y-42558567D01*
X112870873Y-42725193D01*
X112777367Y-42908708D01*
X112777364Y-42908714D01*
X112713721Y-43104587D01*
X112713720Y-43104590D01*
X112713720Y-43104592D01*
X112681500Y-43308019D01*
X112681500Y-43513981D01*
X112713720Y-43717408D01*
X112713721Y-43717412D01*
X112764878Y-43874858D01*
X112777366Y-43913290D01*
X112870871Y-44096803D01*
X112991932Y-44263430D01*
X112991934Y-44263432D01*
X112991936Y-44263435D01*
X113137564Y-44409063D01*
X113137567Y-44409065D01*
X113137570Y-44409068D01*
X113304197Y-44530129D01*
X113487710Y-44623634D01*
X113683592Y-44687280D01*
X113887019Y-44719500D01*
X113887022Y-44719500D01*
X114092978Y-44719500D01*
X114092981Y-44719500D01*
X114296408Y-44687280D01*
X114492290Y-44623634D01*
X114675803Y-44530129D01*
X114842430Y-44409068D01*
X114842438Y-44409059D01*
X114846197Y-44405851D01*
X114847030Y-44406826D01*
X114904136Y-44375632D01*
X114974952Y-44380685D01*
X115031795Y-44423222D01*
X115056617Y-44489738D01*
X115056929Y-44497098D01*
X115138521Y-50725364D01*
X115138455Y-50725364D01*
X115138532Y-50726039D01*
X115139112Y-50770354D01*
X115111384Y-50826665D01*
X115107702Y-50830506D01*
X114514982Y-51423226D01*
X114502518Y-51376708D01*
X114430110Y-51251292D01*
X114327708Y-51148890D01*
X114202292Y-51076482D01*
X114155772Y-51064016D01*
X114718372Y-50501416D01*
X114675541Y-50470298D01*
X114675540Y-50470297D01*
X114492099Y-50376829D01*
X114492093Y-50376826D01*
X114296294Y-50313208D01*
X114296298Y-50313208D01*
X114092939Y-50281000D01*
X113887061Y-50281000D01*
X113683703Y-50313208D01*
X113487906Y-50376826D01*
X113487900Y-50376829D01*
X113304452Y-50470301D01*
X113261625Y-50501416D01*
X113824226Y-51064017D01*
X113777708Y-51076482D01*
X113652292Y-51148890D01*
X113549890Y-51251292D01*
X113477482Y-51376708D01*
X113465017Y-51423226D01*
X112902416Y-50860625D01*
X112871301Y-50903452D01*
X112777829Y-51086900D01*
X112777826Y-51086906D01*
X112714208Y-51282703D01*
X112682000Y-51486061D01*
X112682000Y-51691938D01*
X112714208Y-51895296D01*
X112777826Y-52091093D01*
X112777829Y-52091099D01*
X112871297Y-52274540D01*
X112871298Y-52274541D01*
X112902416Y-52317372D01*
X113465016Y-51754771D01*
X113477482Y-51801292D01*
X113549890Y-51926708D01*
X113652292Y-52029110D01*
X113777708Y-52101518D01*
X113824226Y-52113982D01*
X113261626Y-52676582D01*
X113261626Y-52676583D01*
X113304454Y-52707699D01*
X113380511Y-52746453D01*
X113432126Y-52795202D01*
X113449192Y-52864117D01*
X113426291Y-52931318D01*
X113380511Y-52970987D01*
X113304193Y-53009872D01*
X113137567Y-53130934D01*
X113137564Y-53130936D01*
X112991936Y-53276564D01*
X112991934Y-53276567D01*
X112870873Y-53443193D01*
X112777367Y-53626708D01*
X112777364Y-53626714D01*
X112713721Y-53822587D01*
X112713720Y-53822590D01*
X112713720Y-53822592D01*
X112681500Y-54026019D01*
X112681500Y-54231981D01*
X112713720Y-54435408D01*
X112713721Y-54435412D01*
X112771731Y-54613949D01*
X112777366Y-54631290D01*
X112870871Y-54814803D01*
X112991932Y-54981430D01*
X112991934Y-54981432D01*
X112991936Y-54981435D01*
X113137564Y-55127063D01*
X113137567Y-55127065D01*
X113137570Y-55127068D01*
X113304197Y-55248129D01*
X113487710Y-55341634D01*
X113683592Y-55405280D01*
X113887019Y-55437500D01*
X113887022Y-55437500D01*
X114092978Y-55437500D01*
X114092981Y-55437500D01*
X114296408Y-55405280D01*
X114492290Y-55341634D01*
X114675803Y-55248129D01*
X114842430Y-55127068D01*
X114980441Y-54989056D01*
X115042751Y-54955033D01*
X115113567Y-54960097D01*
X115170403Y-55002644D01*
X115195214Y-55069164D01*
X115195524Y-55076502D01*
X115261627Y-60122349D01*
X115242519Y-60190726D01*
X115189477Y-60237918D01*
X115135638Y-60250000D01*
X108910000Y-60250000D01*
X108910000Y-101973500D01*
X108889998Y-102041621D01*
X108836342Y-102088114D01*
X108784000Y-102099500D01*
X106925901Y-102099500D01*
X106857780Y-102079498D01*
X106811287Y-102025842D01*
X106801183Y-101955568D01*
X106830677Y-101890988D01*
X106835738Y-101885551D01*
X106836197Y-101885012D01*
X106836206Y-101885004D01*
X106961894Y-101712009D01*
X107058972Y-101521483D01*
X107125049Y-101318116D01*
X107158500Y-101106916D01*
X107158500Y-100893084D01*
X107125049Y-100681884D01*
X107058972Y-100478517D01*
X106961894Y-100287991D01*
X106836206Y-100114996D01*
X106836203Y-100114993D01*
X106836201Y-100114990D01*
X106685009Y-99963798D01*
X106685006Y-99963796D01*
X106685004Y-99963794D01*
X106512009Y-99838106D01*
X106321483Y-99741028D01*
X106321480Y-99741027D01*
X106321478Y-99741026D01*
X106118120Y-99674952D01*
X106118123Y-99674952D01*
X106056696Y-99665223D01*
X105906916Y-99641500D01*
X105693084Y-99641500D01*
X105481884Y-99674951D01*
X105481878Y-99674952D01*
X105278521Y-99741026D01*
X105278509Y-99741031D01*
X105124702Y-99819400D01*
X105054926Y-99832504D01*
X104989141Y-99805804D01*
X104948235Y-99747776D01*
X104941500Y-99707133D01*
X104941500Y-94117526D01*
X104915870Y-94021872D01*
X104915870Y-94021871D01*
X104900034Y-93962770D01*
X104900033Y-93962769D01*
X104900032Y-93962763D01*
X104819922Y-93824009D01*
X104819920Y-93824007D01*
X104819916Y-93824002D01*
X104295997Y-93300083D01*
X104295987Y-93300075D01*
X104157241Y-93219970D01*
X104157238Y-93219969D01*
X104157237Y-93219968D01*
X104157235Y-93219967D01*
X104157234Y-93219967D01*
X104079855Y-93199234D01*
X104002475Y-93178500D01*
X102728889Y-93178500D01*
X102645955Y-93200722D01*
X102574130Y-93219967D01*
X102574123Y-93219970D01*
X102435376Y-93300075D01*
X102435370Y-93300080D01*
X102314113Y-93421337D01*
X102192854Y-93542596D01*
X102130544Y-93576620D01*
X102103761Y-93579500D01*
X102018518Y-93579500D01*
X101887771Y-93605507D01*
X101843000Y-93614413D01*
X101842999Y-93614413D01*
X101842996Y-93614414D01*
X101677662Y-93682899D01*
X101528869Y-93782319D01*
X101528862Y-93782324D01*
X101402324Y-93908862D01*
X101402319Y-93908869D01*
X101302899Y-94057662D01*
X101234414Y-94222996D01*
X101199500Y-94398518D01*
X101199500Y-94398521D01*
X101199500Y-94577479D01*
X101234413Y-94753000D01*
X101302898Y-94918336D01*
X101402322Y-95067135D01*
X101528865Y-95193678D01*
X101677664Y-95293102D01*
X101843000Y-95361587D01*
X102018521Y-95396500D01*
X102018522Y-95396500D01*
X102197478Y-95396500D01*
X102197479Y-95396500D01*
X102373000Y-95361587D01*
X102538336Y-95293102D01*
X102573500Y-95269605D01*
X102641250Y-95248392D01*
X102709717Y-95267175D01*
X102757161Y-95319992D01*
X102769500Y-95374372D01*
X102769500Y-98037760D01*
X102749498Y-98105881D01*
X102732595Y-98126855D01*
X101203198Y-99656251D01*
X101140886Y-99690277D01*
X101075169Y-99686990D01*
X101038117Y-99674951D01*
X100976696Y-99665223D01*
X100826916Y-99641500D01*
X100613084Y-99641500D01*
X100401884Y-99674951D01*
X100401878Y-99674952D01*
X100198521Y-99741026D01*
X100198515Y-99741029D01*
X100007987Y-99838108D01*
X99834993Y-99963796D01*
X99834990Y-99963798D01*
X99683798Y-100114990D01*
X99683796Y-100114993D01*
X99558108Y-100287987D01*
X99557434Y-100289088D01*
X99557068Y-100289418D01*
X99555196Y-100291996D01*
X99554654Y-100291602D01*
X99504787Y-100336721D01*
X99434745Y-100348328D01*
X99369547Y-100320226D01*
X99344976Y-100291870D01*
X99344804Y-100291996D01*
X99343341Y-100289982D01*
X99342566Y-100289088D01*
X99341896Y-100287996D01*
X99341894Y-100287991D01*
X99216206Y-100114996D01*
X99216203Y-100114993D01*
X99216201Y-100114990D01*
X99065009Y-99963798D01*
X99065006Y-99963796D01*
X99065004Y-99963794D01*
X98892009Y-99838106D01*
X98701483Y-99741028D01*
X98701480Y-99741027D01*
X98701478Y-99741026D01*
X98498120Y-99674952D01*
X98498123Y-99674952D01*
X98436696Y-99665223D01*
X98286916Y-99641500D01*
X98073084Y-99641500D01*
X97861884Y-99674951D01*
X97861878Y-99674952D01*
X97658521Y-99741026D01*
X97658515Y-99741029D01*
X97467987Y-99838108D01*
X97294993Y-99963796D01*
X97294990Y-99963798D01*
X97143798Y-100114990D01*
X97143796Y-100114993D01*
X97018108Y-100287987D01*
X97017434Y-100289088D01*
X97017068Y-100289418D01*
X97015196Y-100291996D01*
X97014654Y-100291602D01*
X96964787Y-100336721D01*
X96894745Y-100348328D01*
X96829547Y-100320226D01*
X96804976Y-100291870D01*
X96804804Y-100291996D01*
X96803341Y-100289982D01*
X96802566Y-100289088D01*
X96801896Y-100287996D01*
X96801894Y-100287991D01*
X96676206Y-100114996D01*
X96676203Y-100114993D01*
X96676201Y-100114990D01*
X96525009Y-99963798D01*
X96525006Y-99963796D01*
X96525004Y-99963794D01*
X96430392Y-99895054D01*
X96352011Y-99838107D01*
X96317295Y-99820418D01*
X96265681Y-99771669D01*
X96248500Y-99708152D01*
X96248500Y-98146503D01*
X96268502Y-98078382D01*
X96285405Y-98057408D01*
X96305053Y-98037760D01*
X96345678Y-97997135D01*
X96445102Y-97848336D01*
X96513587Y-97683000D01*
X96548500Y-97507479D01*
X96548500Y-97328521D01*
X96513587Y-97153000D01*
X96445102Y-96987664D01*
X96345678Y-96838865D01*
X96219135Y-96712322D01*
X96070336Y-96612898D01*
X95953429Y-96564473D01*
X95905003Y-96544414D01*
X95905001Y-96544413D01*
X95905000Y-96544413D01*
X95816645Y-96526838D01*
X95729481Y-96509500D01*
X95729479Y-96509500D01*
X95550521Y-96509500D01*
X95550518Y-96509500D01*
X95419771Y-96535507D01*
X95375000Y-96544413D01*
X95374999Y-96544413D01*
X95374996Y-96544414D01*
X95209662Y-96612899D01*
X95060869Y-96712319D01*
X95060862Y-96712324D01*
X94934324Y-96838862D01*
X94934319Y-96838869D01*
X94834897Y-96987665D01*
X94832273Y-96992574D01*
X94782517Y-97043219D01*
X94713280Y-97058924D01*
X94701451Y-97057619D01*
X94587046Y-97039500D01*
X94388954Y-97039500D01*
X94193300Y-97070488D01*
X94193297Y-97070488D01*
X94193296Y-97070489D01*
X94004903Y-97131702D01*
X94004901Y-97131703D01*
X93828398Y-97221636D01*
X93668139Y-97338071D01*
X93528071Y-97478139D01*
X93411636Y-97638398D01*
X93321703Y-97814901D01*
X93321702Y-97814903D01*
X93262493Y-97997130D01*
X93260488Y-98003300D01*
X93229500Y-98198954D01*
X93229500Y-98397046D01*
X93260488Y-98592700D01*
X93321702Y-98781097D01*
X93411634Y-98957598D01*
X93411636Y-98957601D01*
X93528071Y-99117860D01*
X93668139Y-99257928D01*
X93668142Y-99257930D01*
X93828402Y-99374366D01*
X93886040Y-99403734D01*
X93937654Y-99452481D01*
X93954720Y-99521396D01*
X93931819Y-99588598D01*
X93876222Y-99632750D01*
X93828836Y-99642000D01*
X93354000Y-99642000D01*
X93354000Y-100569297D01*
X93292993Y-100534075D01*
X93165826Y-100500000D01*
X93034174Y-100500000D01*
X92907007Y-100534075D01*
X92846000Y-100569297D01*
X92846000Y-99642000D01*
X92201402Y-99642000D01*
X92140906Y-99648505D01*
X92004035Y-99699555D01*
X92004034Y-99699555D01*
X91887095Y-99787095D01*
X91799555Y-99904034D01*
X91799555Y-99904035D01*
X91748505Y-100040906D01*
X91742000Y-100101402D01*
X91742000Y-100746000D01*
X92669297Y-100746000D01*
X92634075Y-100807007D01*
X92600000Y-100934174D01*
X92600000Y-101065826D01*
X92634075Y-101192993D01*
X92669297Y-101254000D01*
X91742000Y-101254000D01*
X91742000Y-101898597D01*
X91748606Y-101960030D01*
X91736001Y-102029899D01*
X91687623Y-102081861D01*
X91623328Y-102099500D01*
X49402000Y-102099500D01*
X49333879Y-102079498D01*
X49287386Y-102025842D01*
X49276000Y-101973500D01*
X49276000Y-99616230D01*
X56299500Y-99616230D01*
X56299500Y-99783769D01*
X56310309Y-99838107D01*
X56332184Y-99948082D01*
X56396297Y-100102863D01*
X56396298Y-100102864D01*
X56489373Y-100242161D01*
X56489378Y-100242167D01*
X56607832Y-100360621D01*
X56607838Y-100360626D01*
X56747137Y-100453703D01*
X56901918Y-100517816D01*
X57066233Y-100550500D01*
X57066234Y-100550500D01*
X57233766Y-100550500D01*
X57233767Y-100550500D01*
X57398082Y-100517816D01*
X57552863Y-100453703D01*
X57692162Y-100360626D01*
X57810626Y-100242162D01*
X57903703Y-100102863D01*
X57967816Y-99948082D01*
X58000500Y-99783767D01*
X58000500Y-99616233D01*
X58000499Y-99616230D01*
X64299500Y-99616230D01*
X64299500Y-99783769D01*
X64310309Y-99838107D01*
X64332184Y-99948082D01*
X64396297Y-100102863D01*
X64396298Y-100102864D01*
X64489373Y-100242161D01*
X64489378Y-100242167D01*
X64607832Y-100360621D01*
X64607838Y-100360626D01*
X64747137Y-100453703D01*
X64901918Y-100517816D01*
X65066233Y-100550500D01*
X65066234Y-100550500D01*
X65233766Y-100550500D01*
X65233767Y-100550500D01*
X65398082Y-100517816D01*
X65552863Y-100453703D01*
X65692162Y-100360626D01*
X65810626Y-100242162D01*
X65903703Y-100102863D01*
X65918492Y-100067160D01*
X65925674Y-100049823D01*
X65925676Y-100049816D01*
X65961306Y-99963798D01*
X65967816Y-99948082D01*
X66000500Y-99783767D01*
X66000500Y-99616233D01*
X65967816Y-99451918D01*
X65903703Y-99297137D01*
X65810626Y-99157838D01*
X65810621Y-99157832D01*
X65692167Y-99039378D01*
X65692161Y-99039373D01*
X65622512Y-98992835D01*
X65552863Y-98946297D01*
X65443420Y-98900964D01*
X65398085Y-98882185D01*
X65398083Y-98882184D01*
X65398082Y-98882184D01*
X65315368Y-98865731D01*
X65233769Y-98849500D01*
X65233767Y-98849500D01*
X65066233Y-98849500D01*
X65066230Y-98849500D01*
X64943830Y-98873847D01*
X64901918Y-98882184D01*
X64901917Y-98882184D01*
X64901914Y-98882185D01*
X64747135Y-98946298D01*
X64607838Y-99039373D01*
X64607832Y-99039378D01*
X64489378Y-99157832D01*
X64489373Y-99157838D01*
X64396298Y-99297135D01*
X64332185Y-99451914D01*
X64332184Y-99451917D01*
X64332184Y-99451918D01*
X64323847Y-99493830D01*
X64299500Y-99616230D01*
X58000499Y-99616230D01*
X57967816Y-99451918D01*
X57903703Y-99297137D01*
X57810626Y-99157838D01*
X57810621Y-99157832D01*
X57692167Y-99039378D01*
X57692161Y-99039373D01*
X57622512Y-98992835D01*
X57552863Y-98946297D01*
X57443420Y-98900964D01*
X57398085Y-98882185D01*
X57398083Y-98882184D01*
X57398082Y-98882184D01*
X57315368Y-98865731D01*
X57233769Y-98849500D01*
X57233767Y-98849500D01*
X57066233Y-98849500D01*
X57066230Y-98849500D01*
X56943830Y-98873847D01*
X56901918Y-98882184D01*
X56901917Y-98882184D01*
X56901914Y-98882185D01*
X56747135Y-98946298D01*
X56607838Y-99039373D01*
X56607832Y-99039378D01*
X56489378Y-99157832D01*
X56489373Y-99157838D01*
X56396298Y-99297135D01*
X56332185Y-99451914D01*
X56332184Y-99451917D01*
X56332184Y-99451918D01*
X56323847Y-99493830D01*
X56299500Y-99616230D01*
X49276000Y-99616230D01*
X49276000Y-87502000D01*
X49296002Y-87433879D01*
X49349658Y-87387386D01*
X49402000Y-87376000D01*
X57177500Y-87376000D01*
X57186325Y-87378591D01*
X57195432Y-87377282D01*
X57219857Y-87388437D01*
X57245621Y-87396002D01*
X57251645Y-87402955D01*
X57260012Y-87406776D01*
X57274526Y-87429361D01*
X57292114Y-87449658D01*
X57294438Y-87460344D01*
X57298396Y-87466502D01*
X57303500Y-87502000D01*
X57303500Y-87583761D01*
X57283498Y-87651882D01*
X57266595Y-87672856D01*
X54398856Y-90540595D01*
X54336544Y-90574621D01*
X54309761Y-90577500D01*
X52036503Y-90577500D01*
X51968382Y-90557498D01*
X51947408Y-90540595D01*
X51887137Y-90480324D01*
X51887135Y-90480322D01*
X51738336Y-90380898D01*
X51621429Y-90332473D01*
X51573003Y-90312414D01*
X51573001Y-90312413D01*
X51573000Y-90312413D01*
X51483950Y-90294700D01*
X51397481Y-90277500D01*
X51397479Y-90277500D01*
X51218521Y-90277500D01*
X51218518Y-90277500D01*
X51087771Y-90303507D01*
X51043000Y-90312413D01*
X51042999Y-90312413D01*
X51042996Y-90312414D01*
X50877662Y-90380899D01*
X50728869Y-90480319D01*
X50728862Y-90480324D01*
X50602324Y-90606862D01*
X50602319Y-90606869D01*
X50502899Y-90755662D01*
X50434414Y-90920996D01*
X50399500Y-91096518D01*
X50399500Y-91275481D01*
X50407408Y-91315236D01*
X50426361Y-91410522D01*
X50434414Y-91451003D01*
X50447709Y-91483100D01*
X50502898Y-91616336D01*
X50602322Y-91765135D01*
X50728865Y-91891678D01*
X50877664Y-91991102D01*
X51043000Y-92059587D01*
X51218521Y-92094500D01*
X51218522Y-92094500D01*
X51397478Y-92094500D01*
X51397479Y-92094500D01*
X51573000Y-92059587D01*
X51738336Y-91991102D01*
X51887135Y-91891678D01*
X51947408Y-91831405D01*
X52009720Y-91797379D01*
X52036503Y-91794500D01*
X54694109Y-91794500D01*
X54694110Y-91794500D01*
X54694111Y-91794500D01*
X54804207Y-91765000D01*
X54848873Y-91753032D01*
X54987627Y-91672922D01*
X58398921Y-88261628D01*
X58479032Y-88122873D01*
X58491538Y-88076200D01*
X58507034Y-88018371D01*
X58520499Y-87968113D01*
X58520500Y-87968111D01*
X58520500Y-87452323D01*
X58540502Y-87384202D01*
X58544705Y-87378972D01*
X58544691Y-87376000D01*
X58544692Y-87376000D01*
X58520501Y-82270449D01*
X58520500Y-82269852D01*
X58520500Y-76218500D01*
X58523091Y-76209674D01*
X58521782Y-76200568D01*
X58532937Y-76176142D01*
X58540502Y-76150379D01*
X58547455Y-76144354D01*
X58551276Y-76135988D01*
X58573861Y-76121473D01*
X58594158Y-76103886D01*
X58604844Y-76101561D01*
X58611002Y-76097604D01*
X58646500Y-76092500D01*
X58669761Y-76092500D01*
X58737882Y-76112502D01*
X58758851Y-76129400D01*
X59605373Y-76975922D01*
X59605374Y-76975923D01*
X59605376Y-76975924D01*
X59720016Y-77042111D01*
X59720018Y-77042112D01*
X59744124Y-77056030D01*
X59744128Y-77056032D01*
X59898889Y-77097500D01*
X59898890Y-77097500D01*
X59898891Y-77097500D01*
X64481107Y-77097500D01*
X64481108Y-77097500D01*
X64481109Y-77097500D01*
X64585607Y-77069500D01*
X64635871Y-77056032D01*
X64774625Y-76975922D01*
X65955144Y-75795403D01*
X66017456Y-75761378D01*
X66044239Y-75758498D01*
X66129478Y-75758498D01*
X66129479Y-75758498D01*
X66305000Y-75723585D01*
X66470336Y-75655100D01*
X66619135Y-75555676D01*
X66745678Y-75429133D01*
X66845102Y-75280334D01*
X66913587Y-75114998D01*
X66948500Y-74939477D01*
X66948500Y-74884498D01*
X66968502Y-74816377D01*
X67022158Y-74769884D01*
X67074500Y-74758498D01*
X90457497Y-74758498D01*
X90525618Y-74778500D01*
X90546591Y-74795402D01*
X90606865Y-74855676D01*
X90755664Y-74955100D01*
X90921000Y-75023585D01*
X91096521Y-75058498D01*
X91096522Y-75058498D01*
X91275478Y-75058498D01*
X91275479Y-75058498D01*
X91340919Y-75045481D01*
X91411632Y-75051809D01*
X91467699Y-75095363D01*
X91491319Y-75162315D01*
X91491500Y-75169060D01*
X91491500Y-75942937D01*
X91471498Y-76011058D01*
X91417842Y-76057551D01*
X91347568Y-76067655D01*
X91340919Y-76066516D01*
X91275484Y-76053500D01*
X91275479Y-76053500D01*
X91096521Y-76053500D01*
X91096518Y-76053500D01*
X90965771Y-76079507D01*
X90921000Y-76088413D01*
X90920999Y-76088413D01*
X90920996Y-76088414D01*
X90755660Y-76156899D01*
X90755479Y-76156997D01*
X90755372Y-76157019D01*
X90749946Y-76159267D01*
X90749519Y-76158237D01*
X90685973Y-76171466D01*
X90619677Y-76146061D01*
X90577641Y-76088847D01*
X90571716Y-76041669D01*
X90570500Y-76041669D01*
X90570500Y-75856522D01*
X90570499Y-75856518D01*
X90568628Y-75847111D01*
X90535587Y-75681000D01*
X90467102Y-75515664D01*
X90367678Y-75366865D01*
X90241135Y-75240322D01*
X90092336Y-75140898D01*
X89966460Y-75088758D01*
X89927003Y-75072414D01*
X89927001Y-75072413D01*
X89927000Y-75072413D01*
X89823416Y-75051809D01*
X89751481Y-75037500D01*
X89751479Y-75037500D01*
X89572521Y-75037500D01*
X89572518Y-75037500D01*
X89441771Y-75063507D01*
X89397000Y-75072413D01*
X89396999Y-75072413D01*
X89396996Y-75072414D01*
X89231662Y-75140899D01*
X89082869Y-75240319D01*
X89082862Y-75240324D01*
X89022592Y-75300595D01*
X88960280Y-75334621D01*
X88933497Y-75337500D01*
X82135503Y-75337500D01*
X82067382Y-75317498D01*
X82046408Y-75300595D01*
X81986137Y-75240324D01*
X81986135Y-75240322D01*
X81837336Y-75140898D01*
X81711460Y-75088758D01*
X81672003Y-75072414D01*
X81672001Y-75072413D01*
X81672000Y-75072413D01*
X81568416Y-75051809D01*
X81496481Y-75037500D01*
X81496479Y-75037500D01*
X81317521Y-75037500D01*
X81317518Y-75037500D01*
X81186771Y-75063507D01*
X81142000Y-75072413D01*
X81141999Y-75072413D01*
X81141996Y-75072414D01*
X80976662Y-75140899D01*
X80827869Y-75240319D01*
X80827862Y-75240324D01*
X80767592Y-75300595D01*
X80705280Y-75334621D01*
X80678497Y-75337500D01*
X73325888Y-75337500D01*
X73284757Y-75348520D01*
X73284758Y-75348521D01*
X73171129Y-75378967D01*
X73171122Y-75378970D01*
X73032375Y-75459076D01*
X73032365Y-75459084D01*
X71227595Y-77263855D01*
X71165283Y-77297881D01*
X71094468Y-77292816D01*
X71037632Y-77250269D01*
X71012821Y-77183749D01*
X71012500Y-77174760D01*
X71012500Y-77126522D01*
X71012499Y-77126518D01*
X71012479Y-77126415D01*
X70977587Y-76951000D01*
X70909102Y-76785664D01*
X70809678Y-76636865D01*
X70683135Y-76510322D01*
X70534336Y-76410898D01*
X70395766Y-76353500D01*
X70369003Y-76342414D01*
X70369001Y-76342413D01*
X70369000Y-76342413D01*
X70280645Y-76324838D01*
X70193481Y-76307500D01*
X70193479Y-76307500D01*
X70014521Y-76307500D01*
X70014518Y-76307500D01*
X69883771Y-76333507D01*
X69839000Y-76342413D01*
X69838999Y-76342413D01*
X69838996Y-76342414D01*
X69673662Y-76410899D01*
X69524869Y-76510319D01*
X69524862Y-76510324D01*
X69464592Y-76570595D01*
X69402280Y-76604621D01*
X69375497Y-76607500D01*
X69279775Y-76607500D01*
X69209243Y-76626399D01*
X69125015Y-76648967D01*
X69125008Y-76648970D01*
X68986262Y-76729075D01*
X68986252Y-76729083D01*
X61296083Y-84419252D01*
X61296075Y-84419262D01*
X61215967Y-84558013D01*
X61215968Y-84558014D01*
X61174500Y-84712775D01*
X61174500Y-91048475D01*
X61180177Y-91069662D01*
X61187374Y-91096521D01*
X61215967Y-91203234D01*
X61215970Y-91203241D01*
X61296075Y-91341987D01*
X61296083Y-91341997D01*
X64929002Y-94974916D01*
X64929007Y-94974920D01*
X64929009Y-94974922D01*
X65067763Y-95055032D01*
X65067769Y-95055033D01*
X65067770Y-95055034D01*
X65112932Y-95067135D01*
X65112933Y-95067135D01*
X65222525Y-95096500D01*
X65222526Y-95096500D01*
X65382746Y-95096500D01*
X99093497Y-95096500D01*
X99161618Y-95116502D01*
X99182592Y-95133405D01*
X99242865Y-95193678D01*
X99391664Y-95293102D01*
X99557000Y-95361587D01*
X99732521Y-95396500D01*
X99732522Y-95396500D01*
X99911478Y-95396500D01*
X99911479Y-95396500D01*
X100087000Y-95361587D01*
X100252336Y-95293102D01*
X100401135Y-95193678D01*
X100527678Y-95067135D01*
X100627102Y-94918336D01*
X100695587Y-94753000D01*
X100730500Y-94577479D01*
X100730500Y-94398521D01*
X100695587Y-94223000D01*
X100627102Y-94057664D01*
X100527678Y-93908865D01*
X100401135Y-93782322D01*
X100252336Y-93682898D01*
X100135429Y-93634473D01*
X100087003Y-93614414D01*
X100087001Y-93614413D01*
X100087000Y-93614413D01*
X99998645Y-93596838D01*
X99911481Y-93579500D01*
X99911479Y-93579500D01*
X99732521Y-93579500D01*
X99732518Y-93579500D01*
X99601771Y-93605507D01*
X99557000Y-93614413D01*
X99556999Y-93614413D01*
X99556996Y-93614414D01*
X99391662Y-93682899D01*
X99242869Y-93782319D01*
X99242862Y-93782324D01*
X99182592Y-93842595D01*
X99120280Y-93876621D01*
X99093497Y-93879500D01*
X84831239Y-93879500D01*
X84763118Y-93859498D01*
X84716625Y-93805842D01*
X84706521Y-93735568D01*
X84736015Y-93670988D01*
X84742144Y-93664405D01*
X87037144Y-91369405D01*
X87099456Y-91335379D01*
X87126239Y-91332500D01*
X87211478Y-91332500D01*
X87211479Y-91332500D01*
X87387000Y-91297587D01*
X87552336Y-91229102D01*
X87701135Y-91129678D01*
X87827678Y-91003135D01*
X87927102Y-90854336D01*
X87995587Y-90689000D01*
X88030500Y-90513479D01*
X88030500Y-90334521D01*
X87995587Y-90159000D01*
X87927102Y-89993664D01*
X87827678Y-89844865D01*
X87701135Y-89718322D01*
X87552336Y-89618898D01*
X87435429Y-89570473D01*
X87387003Y-89550414D01*
X87387001Y-89550413D01*
X87387000Y-89550413D01*
X87298645Y-89532838D01*
X87211481Y-89515500D01*
X87211479Y-89515500D01*
X87032521Y-89515500D01*
X87032518Y-89515500D01*
X86901771Y-89541507D01*
X86857000Y-89550413D01*
X86856999Y-89550413D01*
X86856996Y-89550414D01*
X86691663Y-89618898D01*
X86636535Y-89655734D01*
X86568782Y-89676948D01*
X86500315Y-89658165D01*
X86452873Y-89605347D01*
X86450125Y-89599187D01*
X86403102Y-89485664D01*
X86303678Y-89336865D01*
X86177135Y-89210322D01*
X86028336Y-89110898D01*
X85911429Y-89062473D01*
X85863003Y-89042414D01*
X85863001Y-89042413D01*
X85863000Y-89042413D01*
X85774645Y-89024838D01*
X85687481Y-89007500D01*
X85687479Y-89007500D01*
X85508521Y-89007500D01*
X85508518Y-89007500D01*
X85377771Y-89033507D01*
X85333000Y-89042413D01*
X85332999Y-89042413D01*
X85332996Y-89042414D01*
X85167662Y-89110899D01*
X85018869Y-89210319D01*
X85018862Y-89210324D01*
X84892324Y-89336862D01*
X84892319Y-89336869D01*
X84792899Y-89485662D01*
X84724414Y-89650996D01*
X84724413Y-89650999D01*
X84724413Y-89651000D01*
X84722988Y-89658165D01*
X84689500Y-89826518D01*
X84689500Y-89911761D01*
X84680716Y-89941676D01*
X84674088Y-89972146D01*
X84670273Y-89977241D01*
X84669498Y-89979882D01*
X84652595Y-90000856D01*
X84620856Y-90032595D01*
X84558544Y-90066621D01*
X84531761Y-90069500D01*
X78465352Y-90069500D01*
X78397231Y-90049498D01*
X78350738Y-89995842D01*
X78340634Y-89925568D01*
X78358111Y-89877353D01*
X78360859Y-89872898D01*
X78418209Y-89779920D01*
X78473062Y-89614381D01*
X78483500Y-89512213D01*
X78483499Y-88912788D01*
X78483499Y-88910500D01*
X78503501Y-88842379D01*
X78557157Y-88795886D01*
X78609499Y-88784500D01*
X82846109Y-88784500D01*
X82846110Y-88784500D01*
X82846111Y-88784500D01*
X82943081Y-88758517D01*
X83000873Y-88743032D01*
X83139627Y-88662922D01*
X88247251Y-83555295D01*
X88247261Y-83555288D01*
X88370915Y-83431634D01*
X88370921Y-83431628D01*
X88415550Y-83354328D01*
X88451032Y-83292873D01*
X88486179Y-83161702D01*
X88492500Y-83138111D01*
X88492500Y-80484503D01*
X88512502Y-80416382D01*
X88529405Y-80395408D01*
X88558515Y-80366298D01*
X88589678Y-80335135D01*
X88689102Y-80186336D01*
X88757587Y-80021000D01*
X88792500Y-79845479D01*
X88792500Y-79666521D01*
X88757587Y-79491000D01*
X88689102Y-79325664D01*
X88589678Y-79176865D01*
X88463135Y-79050322D01*
X88314336Y-78950898D01*
X88149000Y-78882413D01*
X88122575Y-78877156D01*
X88059666Y-78844247D01*
X88024536Y-78782551D01*
X88028338Y-78711656D01*
X88058063Y-78664485D01*
X89115144Y-77607405D01*
X89177456Y-77573379D01*
X89204239Y-77570500D01*
X90457497Y-77570500D01*
X90525618Y-77590502D01*
X90546592Y-77607405D01*
X90606865Y-77667678D01*
X90755664Y-77767102D01*
X90921000Y-77835587D01*
X91096521Y-77870500D01*
X91096522Y-77870500D01*
X91275478Y-77870500D01*
X91275479Y-77870500D01*
X91340919Y-77857483D01*
X91411632Y-77863811D01*
X91467699Y-77907365D01*
X91491319Y-77974317D01*
X91491500Y-77981062D01*
X91491500Y-86157760D01*
X91471498Y-86225881D01*
X91454595Y-86246855D01*
X90445083Y-87256366D01*
X90445075Y-87256376D01*
X90364967Y-87395127D01*
X90364968Y-87395128D01*
X90325917Y-87540871D01*
X90323500Y-87549890D01*
X90323500Y-90885803D01*
X90303498Y-90953924D01*
X90274706Y-90983245D01*
X90275650Y-90984395D01*
X90270865Y-90988321D01*
X90144320Y-91114867D01*
X90144319Y-91114869D01*
X90044899Y-91263662D01*
X89976414Y-91428996D01*
X89941500Y-91604518D01*
X89941500Y-91604521D01*
X89941500Y-91783479D01*
X89976413Y-91959000D01*
X90044898Y-92124336D01*
X90144322Y-92273135D01*
X90270865Y-92399678D01*
X90419664Y-92499102D01*
X90585000Y-92567587D01*
X90760521Y-92602500D01*
X90760522Y-92602500D01*
X90939478Y-92602500D01*
X90939479Y-92602500D01*
X91115000Y-92567587D01*
X91280336Y-92499102D01*
X91429135Y-92399678D01*
X91509053Y-92319760D01*
X91571365Y-92285734D01*
X91642180Y-92290799D01*
X91668150Y-92304090D01*
X91669664Y-92305102D01*
X91835000Y-92373587D01*
X92010521Y-92408500D01*
X92010522Y-92408500D01*
X92189478Y-92408500D01*
X92189479Y-92408500D01*
X92365000Y-92373587D01*
X92530336Y-92305102D01*
X92679135Y-92205678D01*
X92796526Y-92088287D01*
X92858838Y-92054261D01*
X92929653Y-92059326D01*
X92933840Y-92060974D01*
X93084992Y-92123584D01*
X93084993Y-92123584D01*
X93085000Y-92123587D01*
X93260521Y-92158500D01*
X93260522Y-92158500D01*
X93439478Y-92158500D01*
X93439479Y-92158500D01*
X93615000Y-92123587D01*
X93780336Y-92055102D01*
X93929135Y-91955678D01*
X94010905Y-91873908D01*
X94073217Y-91839882D01*
X94144032Y-91844947D01*
X94189095Y-91873908D01*
X94270865Y-91955678D01*
X94419664Y-92055102D01*
X94585000Y-92123587D01*
X94760521Y-92158500D01*
X94760522Y-92158500D01*
X94939478Y-92158500D01*
X94939479Y-92158500D01*
X95115000Y-92123587D01*
X95280336Y-92055102D01*
X95429135Y-91955678D01*
X95489408Y-91895405D01*
X95551720Y-91861379D01*
X95578503Y-91858500D01*
X97930110Y-91858500D01*
X97930111Y-91858500D01*
X98007491Y-91837766D01*
X98084873Y-91817032D01*
X98223627Y-91736922D01*
X98408964Y-91551585D01*
X98550032Y-91410518D01*
X100191500Y-91410518D01*
X100191500Y-91589481D01*
X100208098Y-91672922D01*
X100226413Y-91765000D01*
X100294898Y-91930336D01*
X100394322Y-92079135D01*
X100520865Y-92205678D01*
X100669664Y-92305102D01*
X100835000Y-92373587D01*
X101010521Y-92408500D01*
X101010522Y-92408500D01*
X101189478Y-92408500D01*
X101189479Y-92408500D01*
X101365000Y-92373587D01*
X101530336Y-92305102D01*
X101679135Y-92205678D01*
X101739408Y-92145405D01*
X101801720Y-92111379D01*
X101828503Y-92108500D01*
X104871497Y-92108500D01*
X104939618Y-92128502D01*
X104960592Y-92145405D01*
X105020865Y-92205678D01*
X105169664Y-92305102D01*
X105335000Y-92373587D01*
X105510521Y-92408500D01*
X105510522Y-92408500D01*
X105689478Y-92408500D01*
X105689479Y-92408500D01*
X105865000Y-92373587D01*
X106030336Y-92305102D01*
X106179135Y-92205678D01*
X106305678Y-92079135D01*
X106405102Y-91930336D01*
X106473587Y-91765000D01*
X106508500Y-91589479D01*
X106508500Y-91410521D01*
X106473587Y-91235000D01*
X106405102Y-91069664D01*
X106305678Y-90920865D01*
X106179135Y-90794322D01*
X106030336Y-90694898D01*
X105873778Y-90630049D01*
X105865003Y-90626414D01*
X105865001Y-90626413D01*
X105865000Y-90626413D01*
X105776645Y-90608838D01*
X105689481Y-90591500D01*
X105689479Y-90591500D01*
X105510521Y-90591500D01*
X105510518Y-90591500D01*
X105379771Y-90617507D01*
X105335000Y-90626413D01*
X105334999Y-90626413D01*
X105334996Y-90626414D01*
X105169662Y-90694899D01*
X105020869Y-90794319D01*
X105020862Y-90794324D01*
X104960592Y-90854595D01*
X104898280Y-90888621D01*
X104871497Y-90891500D01*
X101828503Y-90891500D01*
X101760382Y-90871498D01*
X101739408Y-90854595D01*
X101679137Y-90794324D01*
X101679135Y-90794322D01*
X101530336Y-90694898D01*
X101373778Y-90630049D01*
X101365003Y-90626414D01*
X101365001Y-90626413D01*
X101365000Y-90626413D01*
X101276645Y-90608838D01*
X101189481Y-90591500D01*
X101189479Y-90591500D01*
X101010521Y-90591500D01*
X101010518Y-90591500D01*
X100879771Y-90617507D01*
X100835000Y-90626413D01*
X100834999Y-90626413D01*
X100834996Y-90626414D01*
X100669662Y-90694899D01*
X100520869Y-90794319D01*
X100520862Y-90794324D01*
X100394324Y-90920862D01*
X100394319Y-90920869D01*
X100294899Y-91069662D01*
X100226414Y-91234996D01*
X100191500Y-91410518D01*
X98550032Y-91410518D01*
X98645314Y-91315236D01*
X103586915Y-86373634D01*
X103586921Y-86373628D01*
X103667032Y-86234873D01*
X103708500Y-86080110D01*
X103708500Y-85919890D01*
X103708500Y-79719889D01*
X103693683Y-79664592D01*
X103695371Y-79593619D01*
X103695425Y-79593448D01*
X103727512Y-79494700D01*
X103758500Y-79299046D01*
X103758500Y-79100954D01*
X103727512Y-78905300D01*
X103666298Y-78716903D01*
X103601318Y-78589374D01*
X103588215Y-78519599D01*
X103614915Y-78453815D01*
X103672943Y-78412908D01*
X103689005Y-78408594D01*
X103689478Y-78408500D01*
X103689479Y-78408500D01*
X103865000Y-78373587D01*
X104030336Y-78305102D01*
X104179135Y-78205678D01*
X104305678Y-78079135D01*
X104405102Y-77930336D01*
X104473587Y-77765000D01*
X104508500Y-77589479D01*
X104508500Y-77410521D01*
X104473587Y-77235000D01*
X104405102Y-77069664D01*
X104305678Y-76920865D01*
X104179135Y-76794322D01*
X104030336Y-76694898D01*
X103869213Y-76628158D01*
X103865003Y-76626414D01*
X103865001Y-76626413D01*
X103865000Y-76626413D01*
X103769917Y-76607500D01*
X103689481Y-76591500D01*
X103689479Y-76591500D01*
X103635500Y-76591500D01*
X103567379Y-76571498D01*
X103520886Y-76517842D01*
X103509500Y-76465500D01*
X103509500Y-71327691D01*
X103529502Y-71259570D01*
X103583158Y-71213077D01*
X103653432Y-71202973D01*
X103705881Y-71224262D01*
X103706178Y-71223778D01*
X103709102Y-71225570D01*
X103709563Y-71225757D01*
X103710070Y-71226125D01*
X103710402Y-71226366D01*
X103886903Y-71316298D01*
X104075300Y-71377512D01*
X104270954Y-71408500D01*
X104270957Y-71408500D01*
X104469043Y-71408500D01*
X104469046Y-71408500D01*
X104664700Y-71377512D01*
X104853097Y-71316298D01*
X105029598Y-71226366D01*
X105189858Y-71109930D01*
X105329930Y-70969858D01*
X105446366Y-70809598D01*
X105536298Y-70633097D01*
X105597512Y-70444700D01*
X105628500Y-70249046D01*
X105628500Y-70050954D01*
X105597512Y-69855300D01*
X105536298Y-69666903D01*
X105446366Y-69490402D01*
X105406414Y-69435413D01*
X105329928Y-69330139D01*
X105189864Y-69190075D01*
X105189860Y-69190072D01*
X105189858Y-69190070D01*
X105030438Y-69074244D01*
X104987085Y-69018021D01*
X104978500Y-68972308D01*
X104978500Y-68236978D01*
X104978500Y-68236977D01*
X104937032Y-68082216D01*
X104909774Y-68035004D01*
X104856922Y-67943461D01*
X104550636Y-67637175D01*
X104516613Y-67574865D01*
X104521677Y-67504050D01*
X104550636Y-67458988D01*
X104811270Y-67198355D01*
X104813321Y-67194803D01*
X104891381Y-67059599D01*
X104932849Y-66904838D01*
X104932849Y-64388294D01*
X104952851Y-64320173D01*
X104969754Y-64299199D01*
X104986747Y-64282206D01*
X105030027Y-64238926D01*
X105129451Y-64090127D01*
X105197936Y-63924791D01*
X105232849Y-63749270D01*
X105232849Y-63570312D01*
X105197936Y-63394791D01*
X105129451Y-63229455D01*
X105030027Y-63080656D01*
X104903484Y-62954113D01*
X104754685Y-62854689D01*
X104637778Y-62806264D01*
X104589352Y-62786205D01*
X104589350Y-62786204D01*
X104589349Y-62786204D01*
X104500994Y-62768629D01*
X104413830Y-62751291D01*
X104413828Y-62751291D01*
X104234870Y-62751291D01*
X104234867Y-62751291D01*
X104104120Y-62777298D01*
X104059349Y-62786204D01*
X104059348Y-62786204D01*
X104059345Y-62786205D01*
X103894011Y-62854690D01*
X103745218Y-62954110D01*
X103745211Y-62954115D01*
X103618673Y-63080653D01*
X103618668Y-63080660D01*
X103586017Y-63129526D01*
X103531540Y-63175054D01*
X103461097Y-63183902D01*
X103397053Y-63153261D01*
X103376487Y-63129526D01*
X103334304Y-63066395D01*
X103280678Y-62986137D01*
X103154135Y-62859594D01*
X103005336Y-62760170D01*
X102849785Y-62695738D01*
X102840003Y-62691686D01*
X102840001Y-62691685D01*
X102840000Y-62691685D01*
X102751645Y-62674110D01*
X102664481Y-62656772D01*
X102664479Y-62656772D01*
X102485521Y-62656772D01*
X102485518Y-62656772D01*
X102354771Y-62682779D01*
X102310000Y-62691685D01*
X102309999Y-62691685D01*
X102309996Y-62691686D01*
X102144662Y-62760171D01*
X101995869Y-62859591D01*
X101995862Y-62859596D01*
X101869324Y-62986134D01*
X101869319Y-62986141D01*
X101772195Y-63131499D01*
X101769898Y-63134936D01*
X101755716Y-63169174D01*
X101701414Y-63300268D01*
X101666500Y-63475790D01*
X101666500Y-63654753D01*
X101701414Y-63830275D01*
X101714348Y-63861500D01*
X101769898Y-63995608D01*
X101869322Y-64144407D01*
X101869324Y-64144409D01*
X101929595Y-64204680D01*
X101963621Y-64266992D01*
X101966500Y-64293775D01*
X101966500Y-64900464D01*
X101961954Y-64934005D01*
X101959584Y-64942584D01*
X101959055Y-64943502D01*
X101950170Y-64976662D01*
X101917773Y-65097572D01*
X101917587Y-65098265D01*
X101917587Y-65395288D01*
X101897585Y-65463409D01*
X101843929Y-65509902D01*
X101773655Y-65520006D01*
X101736094Y-65507691D01*
X101736054Y-65507788D01*
X101734779Y-65507259D01*
X101732196Y-65506413D01*
X101730340Y-65505421D01*
X101730337Y-65505419D01*
X101730336Y-65505419D01*
X101607012Y-65454336D01*
X101565003Y-65436935D01*
X101565001Y-65436934D01*
X101565000Y-65436934D01*
X101476645Y-65419359D01*
X101389481Y-65402021D01*
X101389479Y-65402021D01*
X101304239Y-65402021D01*
X101236118Y-65382019D01*
X101215148Y-65365120D01*
X100613106Y-64763078D01*
X100613104Y-64763077D01*
X100613102Y-64763075D01*
X100474356Y-64682970D01*
X100474353Y-64682969D01*
X100474352Y-64682968D01*
X100474350Y-64682967D01*
X100474349Y-64682967D01*
X100396970Y-64662234D01*
X100319590Y-64641500D01*
X100319588Y-64641500D01*
X98404239Y-64641500D01*
X98336118Y-64621498D01*
X98315144Y-64604595D01*
X97995405Y-64284856D01*
X97961379Y-64222544D01*
X97958500Y-64195761D01*
X97958500Y-61737131D01*
X97932573Y-61640371D01*
X97917032Y-61582369D01*
X97917032Y-61582368D01*
X97851053Y-61468090D01*
X97836923Y-61443616D01*
X97836915Y-61443606D01*
X96266633Y-59873324D01*
X96266623Y-59873316D01*
X96127877Y-59793211D01*
X96127874Y-59793210D01*
X96127873Y-59793209D01*
X96127871Y-59793208D01*
X96127870Y-59793208D01*
X96050491Y-59772475D01*
X95973111Y-59751741D01*
X94262998Y-59751741D01*
X94241410Y-59745402D01*
X94218966Y-59743797D01*
X94208009Y-59735595D01*
X94194877Y-59731739D01*
X94180141Y-59714733D01*
X94162130Y-59701250D01*
X94157347Y-59688427D01*
X94148384Y-59678083D01*
X94145181Y-59655810D01*
X94137319Y-59634730D01*
X94140227Y-59621357D01*
X94138280Y-59607809D01*
X94147627Y-59587342D01*
X94152410Y-59565356D01*
X94165895Y-59547342D01*
X94167774Y-59543229D01*
X94173903Y-59536646D01*
X94266263Y-59444286D01*
X94328575Y-59410260D01*
X94355358Y-59407381D01*
X100594642Y-59407381D01*
X100662763Y-59427383D01*
X100683737Y-59444286D01*
X101404595Y-60165144D01*
X101438621Y-60227456D01*
X101441500Y-60254239D01*
X101441500Y-60339481D01*
X101476414Y-60515003D01*
X101476466Y-60515128D01*
X101544898Y-60680336D01*
X101644322Y-60829135D01*
X101770865Y-60955678D01*
X101919664Y-61055102D01*
X102085000Y-61123587D01*
X102260521Y-61158500D01*
X102260522Y-61158500D01*
X102439478Y-61158500D01*
X102439479Y-61158500D01*
X102615000Y-61123587D01*
X102780336Y-61055102D01*
X102929135Y-60955678D01*
X103055678Y-60829135D01*
X103155102Y-60680336D01*
X103223587Y-60515000D01*
X103258500Y-60339479D01*
X103258500Y-60160521D01*
X103223587Y-59985000D01*
X103155102Y-59819664D01*
X103055678Y-59670865D01*
X102929135Y-59544322D01*
X102780336Y-59444898D01*
X102663429Y-59396473D01*
X102615003Y-59376414D01*
X102615001Y-59376413D01*
X102615000Y-59376413D01*
X102527286Y-59358965D01*
X102441135Y-59341829D01*
X102378226Y-59308921D01*
X102343094Y-59247226D01*
X102346894Y-59176331D01*
X102388420Y-59118745D01*
X102417495Y-59101842D01*
X102530336Y-59055102D01*
X102679135Y-58955678D01*
X102805678Y-58829135D01*
X102905102Y-58680336D01*
X102973587Y-58515000D01*
X103008500Y-58339479D01*
X103008500Y-58160521D01*
X102973587Y-57985000D01*
X102905102Y-57819664D01*
X102805678Y-57670865D01*
X102679135Y-57544322D01*
X102530336Y-57444898D01*
X102404018Y-57392575D01*
X102365003Y-57376414D01*
X102365001Y-57376413D01*
X102365000Y-57376413D01*
X102276645Y-57358838D01*
X102189481Y-57341500D01*
X102189479Y-57341500D01*
X102010521Y-57341500D01*
X102010518Y-57341500D01*
X101879771Y-57367507D01*
X101835000Y-57376413D01*
X101834999Y-57376413D01*
X101834996Y-57376414D01*
X101669662Y-57444899D01*
X101520869Y-57544319D01*
X101520862Y-57544324D01*
X101460592Y-57604595D01*
X101398280Y-57638621D01*
X101371497Y-57641500D01*
X95019889Y-57641500D01*
X94999979Y-57646835D01*
X94973862Y-57653833D01*
X94865129Y-57682967D01*
X94865122Y-57682970D01*
X94726371Y-57763078D01*
X94726025Y-57763345D01*
X94725679Y-57763478D01*
X94719220Y-57767208D01*
X94718638Y-57766200D01*
X94659804Y-57788944D01*
X94649323Y-57789381D01*
X94181695Y-57789381D01*
X94113574Y-57769379D01*
X94092600Y-57752476D01*
X94036817Y-57696693D01*
X94036815Y-57696691D01*
X93888016Y-57597267D01*
X93761109Y-57544700D01*
X93722683Y-57528783D01*
X93722681Y-57528782D01*
X93722680Y-57528782D01*
X93632861Y-57510916D01*
X93547161Y-57493869D01*
X93547159Y-57493869D01*
X93368201Y-57493869D01*
X93368198Y-57493869D01*
X93237451Y-57519876D01*
X93192680Y-57528782D01*
X93192679Y-57528782D01*
X93192676Y-57528783D01*
X93027342Y-57597268D01*
X92878549Y-57696688D01*
X92878542Y-57696693D01*
X92752004Y-57823231D01*
X92751999Y-57823238D01*
X92652579Y-57972031D01*
X92584094Y-58137365D01*
X92584093Y-58137368D01*
X92584093Y-58137369D01*
X92579488Y-58160521D01*
X92549180Y-58312887D01*
X92549180Y-58491850D01*
X92584094Y-58667372D01*
X92604153Y-58715798D01*
X92652578Y-58832705D01*
X92752002Y-58981504D01*
X92752005Y-58981507D01*
X92790879Y-59020382D01*
X92824904Y-59082694D01*
X92819838Y-59153510D01*
X92790878Y-59198571D01*
X91613083Y-60376366D01*
X91613075Y-60376376D01*
X91532967Y-60515127D01*
X91532968Y-60515128D01*
X91491500Y-60669890D01*
X91491500Y-71824760D01*
X91471498Y-71892881D01*
X91417842Y-71939374D01*
X91347568Y-71949478D01*
X91282988Y-71919984D01*
X91276405Y-71913855D01*
X90249633Y-70887083D01*
X90249623Y-70887075D01*
X90110877Y-70806970D01*
X90110874Y-70806969D01*
X90110873Y-70806968D01*
X90110871Y-70806967D01*
X90110870Y-70806967D01*
X90026643Y-70784399D01*
X89956111Y-70765500D01*
X89956110Y-70765500D01*
X63915691Y-70765500D01*
X63847570Y-70745498D01*
X63813755Y-70713561D01*
X63755294Y-70633097D01*
X63697930Y-70554142D01*
X63697927Y-70554139D01*
X63697925Y-70554136D01*
X63557860Y-70414071D01*
X63397601Y-70297636D01*
X63397600Y-70297635D01*
X63397598Y-70297634D01*
X63221097Y-70207702D01*
X63032700Y-70146488D01*
X62837046Y-70115500D01*
X62638954Y-70115500D01*
X62443300Y-70146488D01*
X62443297Y-70146488D01*
X62443296Y-70146489D01*
X62254903Y-70207702D01*
X62254901Y-70207703D01*
X62078398Y-70297636D01*
X61918139Y-70414071D01*
X61778071Y-70554139D01*
X61661636Y-70714398D01*
X61661634Y-70714402D01*
X61571702Y-70890903D01*
X61510488Y-71079300D01*
X61479500Y-71274954D01*
X61479500Y-71473046D01*
X61510488Y-71668700D01*
X61571702Y-71857097D01*
X61661634Y-72033598D01*
X61661636Y-72033601D01*
X61702205Y-72089439D01*
X61726063Y-72156306D01*
X61709983Y-72225458D01*
X61659069Y-72274938D01*
X61600269Y-72289500D01*
X59355889Y-72289500D01*
X59297893Y-72305040D01*
X59201129Y-72330967D01*
X59198961Y-72332219D01*
X59195998Y-72333930D01*
X59062375Y-72411076D01*
X59062369Y-72411081D01*
X58690223Y-72783227D01*
X58627911Y-72817252D01*
X58557095Y-72812187D01*
X58500260Y-72769640D01*
X58475449Y-72703120D01*
X58475129Y-72694744D01*
X58456241Y-68708244D01*
X58449432Y-67271097D01*
X58469111Y-67202882D01*
X58522546Y-67156136D01*
X58575431Y-67144500D01*
X58810632Y-67144500D01*
X58810638Y-67144500D01*
X58810645Y-67144499D01*
X58810649Y-67144499D01*
X58871196Y-67137990D01*
X58871199Y-67137989D01*
X58871201Y-67137989D01*
X59008204Y-67086889D01*
X59044657Y-67059601D01*
X59125261Y-66999261D01*
X59212887Y-66882207D01*
X59212887Y-66882206D01*
X59212889Y-66882204D01*
X59256869Y-66764288D01*
X59299414Y-66707456D01*
X59365934Y-66682645D01*
X59435308Y-66697736D01*
X59464018Y-66719229D01*
X59566990Y-66822201D01*
X59566993Y-66822203D01*
X59566996Y-66822206D01*
X59739991Y-66947894D01*
X59930517Y-67044972D01*
X60133878Y-67111047D01*
X60133879Y-67111047D01*
X60133884Y-67111049D01*
X60345084Y-67144500D01*
X60345087Y-67144500D01*
X60558913Y-67144500D01*
X60558916Y-67144500D01*
X60770116Y-67111049D01*
X60973483Y-67044972D01*
X61164009Y-66947894D01*
X61337004Y-66822206D01*
X61488206Y-66671004D01*
X61602174Y-66514139D01*
X61658394Y-66470787D01*
X61729130Y-66464711D01*
X61791922Y-66497843D01*
X61793203Y-66499107D01*
X62148824Y-66854728D01*
X62182850Y-66917040D01*
X62177785Y-66987855D01*
X62176138Y-66992041D01*
X62102010Y-67171003D01*
X62033864Y-67425327D01*
X61999500Y-67686353D01*
X61999500Y-67949646D01*
X62033864Y-68210672D01*
X62033865Y-68210678D01*
X62033866Y-68210680D01*
X62102010Y-68464997D01*
X62202766Y-68708243D01*
X62202767Y-68708244D01*
X62202772Y-68708255D01*
X62334407Y-68936253D01*
X62494689Y-69145138D01*
X62494698Y-69145148D01*
X62680851Y-69331301D01*
X62680861Y-69331310D01*
X62889746Y-69491592D01*
X63117744Y-69623227D01*
X63117748Y-69623228D01*
X63117757Y-69623234D01*
X63361003Y-69723990D01*
X63615320Y-69792134D01*
X63615326Y-69792134D01*
X63615327Y-69792135D01*
X63645281Y-69796078D01*
X63876356Y-69826500D01*
X63876363Y-69826500D01*
X64139637Y-69826500D01*
X64139644Y-69826500D01*
X64400680Y-69792134D01*
X64654997Y-69723990D01*
X64898243Y-69623234D01*
X65126257Y-69491590D01*
X65335138Y-69331311D01*
X65521311Y-69145138D01*
X65681590Y-68936257D01*
X65813234Y-68708243D01*
X65913990Y-68464997D01*
X65982134Y-68210680D01*
X66016500Y-67949644D01*
X66016500Y-67686356D01*
X65982134Y-67425320D01*
X65913990Y-67171003D01*
X65813234Y-66927757D01*
X65813228Y-66927748D01*
X65813227Y-66927744D01*
X65681592Y-66699746D01*
X65676680Y-66693345D01*
X65521311Y-66490862D01*
X65521310Y-66490861D01*
X65521301Y-66490851D01*
X65335148Y-66304698D01*
X65335138Y-66304689D01*
X65126253Y-66144407D01*
X64898255Y-66012772D01*
X64898247Y-66012768D01*
X64898243Y-66012766D01*
X64654997Y-65912010D01*
X64400680Y-65843866D01*
X64400678Y-65843865D01*
X64400672Y-65843864D01*
X64139646Y-65809500D01*
X64139644Y-65809500D01*
X63876356Y-65809500D01*
X63876353Y-65809500D01*
X63615326Y-65843864D01*
X63506221Y-65873099D01*
X63435244Y-65871409D01*
X63376449Y-65831615D01*
X63348501Y-65766350D01*
X63360275Y-65696337D01*
X63384510Y-65662302D01*
X63443678Y-65603135D01*
X63543102Y-65454336D01*
X63611587Y-65289000D01*
X63646500Y-65113479D01*
X63646500Y-64934521D01*
X63611587Y-64759000D01*
X63543102Y-64593664D01*
X63443678Y-64444865D01*
X63317135Y-64318322D01*
X63168336Y-64218898D01*
X63168334Y-64218897D01*
X63162872Y-64215977D01*
X63163708Y-64214412D01*
X63154454Y-64206951D01*
X63135988Y-64198518D01*
X63127382Y-64185128D01*
X63114989Y-64175137D01*
X63108580Y-64155871D01*
X63097604Y-64138792D01*
X63093572Y-64110754D01*
X63092580Y-64107770D01*
X63092500Y-64103294D01*
X63092500Y-63915691D01*
X63112502Y-63847570D01*
X63144439Y-63813755D01*
X63146855Y-63811999D01*
X63303858Y-63697930D01*
X63443930Y-63557858D01*
X63560366Y-63397598D01*
X63650298Y-63221097D01*
X63706497Y-63048133D01*
X63746571Y-62989528D01*
X63811967Y-62961891D01*
X63881924Y-62973998D01*
X63915425Y-62997975D01*
X65602595Y-64685144D01*
X65636620Y-64747456D01*
X65639500Y-64774239D01*
X65639500Y-64859481D01*
X65647758Y-64900996D01*
X65674413Y-65035000D01*
X65742898Y-65200336D01*
X65842322Y-65349135D01*
X65968865Y-65475678D01*
X66117664Y-65575102D01*
X66283000Y-65643587D01*
X66458521Y-65678500D01*
X66458522Y-65678500D01*
X66637478Y-65678500D01*
X66637479Y-65678500D01*
X66813000Y-65643587D01*
X66978336Y-65575102D01*
X67127135Y-65475678D01*
X67253678Y-65349135D01*
X67353102Y-65200336D01*
X67421587Y-65035000D01*
X67456500Y-64859479D01*
X67456500Y-64680521D01*
X67421587Y-64505000D01*
X67353102Y-64339664D01*
X67253678Y-64190865D01*
X67127135Y-64064322D01*
X66978336Y-63964898D01*
X66820086Y-63899348D01*
X66813003Y-63896414D01*
X66813001Y-63896413D01*
X66813000Y-63896413D01*
X66724645Y-63878838D01*
X66637481Y-63861500D01*
X66637479Y-63861500D01*
X66552239Y-63861500D01*
X66484118Y-63841498D01*
X66463144Y-63824595D01*
X64995405Y-62356856D01*
X64961379Y-62294544D01*
X64958500Y-62267761D01*
X64958500Y-58410518D01*
X69191500Y-58410518D01*
X69191500Y-58589481D01*
X69226414Y-58765003D01*
X69242890Y-58804778D01*
X69294898Y-58930336D01*
X69394322Y-59079135D01*
X69520865Y-59205678D01*
X69669664Y-59305102D01*
X69835000Y-59373587D01*
X70010521Y-59408500D01*
X70010522Y-59408500D01*
X70189478Y-59408500D01*
X70189479Y-59408500D01*
X70365000Y-59373587D01*
X70530336Y-59305102D01*
X70679135Y-59205678D01*
X70714408Y-59170405D01*
X70776720Y-59136379D01*
X70803503Y-59133500D01*
X73412393Y-59133500D01*
X73412394Y-59133500D01*
X73534785Y-59109155D01*
X73650075Y-59061400D01*
X73753833Y-58992071D01*
X74157821Y-58588081D01*
X85371127Y-58588081D01*
X85371127Y-58588082D01*
X85482017Y-58673171D01*
X85482024Y-58673176D01*
X85709965Y-58804778D01*
X85709976Y-58804783D01*
X85953164Y-58905515D01*
X86207424Y-58973644D01*
X86468386Y-59007999D01*
X86468396Y-59008000D01*
X86731604Y-59008000D01*
X86731613Y-59007999D01*
X86992575Y-58973644D01*
X87246835Y-58905515D01*
X87490023Y-58804783D01*
X87490034Y-58804778D01*
X87717975Y-58673176D01*
X87717981Y-58673172D01*
X87828871Y-58588082D01*
X87828871Y-58588081D01*
X86600001Y-57359210D01*
X86599999Y-57359210D01*
X85371127Y-58588081D01*
X74157821Y-58588081D01*
X74228042Y-58517860D01*
X74290353Y-58483837D01*
X74336844Y-58482508D01*
X74500954Y-58508500D01*
X74500956Y-58508500D01*
X74699043Y-58508500D01*
X74699046Y-58508500D01*
X74894700Y-58477512D01*
X75083097Y-58416298D01*
X75259598Y-58326366D01*
X75419858Y-58209930D01*
X75559930Y-58069858D01*
X75676366Y-57909598D01*
X75766298Y-57733097D01*
X75827512Y-57544700D01*
X75858500Y-57349046D01*
X75858500Y-57150954D01*
X75827512Y-56955300D01*
X75799272Y-56868386D01*
X84592000Y-56868386D01*
X84592000Y-57131613D01*
X84626355Y-57392575D01*
X84694484Y-57646835D01*
X84795216Y-57890023D01*
X84795221Y-57890034D01*
X84926823Y-58117975D01*
X84926827Y-58117981D01*
X85011916Y-58228870D01*
X85011917Y-58228871D01*
X86240789Y-57000000D01*
X86240789Y-56999999D01*
X86959210Y-56999999D01*
X86959210Y-57000000D01*
X88188081Y-58228871D01*
X88188082Y-58228871D01*
X88273172Y-58117981D01*
X88273176Y-58117975D01*
X88404778Y-57890034D01*
X88404783Y-57890023D01*
X88505515Y-57646835D01*
X88573644Y-57392575D01*
X88607999Y-57131613D01*
X88608000Y-57131604D01*
X88608000Y-56868396D01*
X88607999Y-56868386D01*
X88573644Y-56607424D01*
X88537555Y-56472737D01*
X88505515Y-56353164D01*
X88404783Y-56109976D01*
X88404778Y-56109965D01*
X88273176Y-55882024D01*
X88273171Y-55882017D01*
X88188081Y-55771127D01*
X86959210Y-56999999D01*
X86240789Y-56999999D01*
X85011917Y-55771127D01*
X84926823Y-55882024D01*
X84795221Y-56109965D01*
X84795216Y-56109976D01*
X84694484Y-56353164D01*
X84626355Y-56607424D01*
X84592000Y-56868386D01*
X75799272Y-56868386D01*
X75766298Y-56766903D01*
X75676366Y-56590402D01*
X75602073Y-56488147D01*
X75559928Y-56430139D01*
X75419860Y-56290071D01*
X75259601Y-56173636D01*
X75259600Y-56173635D01*
X75259598Y-56173634D01*
X75083097Y-56083702D01*
X74894700Y-56022488D01*
X74699046Y-55991500D01*
X74500954Y-55991500D01*
X74305300Y-56022488D01*
X74305297Y-56022488D01*
X74305296Y-56022489D01*
X74116903Y-56083702D01*
X74116901Y-56083703D01*
X73940398Y-56173636D01*
X73780139Y-56290071D01*
X73640071Y-56430139D01*
X73523636Y-56590398D01*
X73433703Y-56766901D01*
X73433702Y-56766903D01*
X73396137Y-56882517D01*
X73372488Y-56955300D01*
X73341500Y-57150954D01*
X73341500Y-57349046D01*
X73345835Y-57376414D01*
X73367491Y-57513151D01*
X73358391Y-57583562D01*
X73332138Y-57621956D01*
X73124501Y-57829595D01*
X73062189Y-57863620D01*
X73035405Y-57866500D01*
X70803503Y-57866500D01*
X70735382Y-57846498D01*
X70714408Y-57829595D01*
X70679137Y-57794324D01*
X70679135Y-57794322D01*
X70530336Y-57694898D01*
X70401423Y-57641500D01*
X70365003Y-57626414D01*
X70365001Y-57626413D01*
X70365000Y-57626413D01*
X70255313Y-57604595D01*
X70189481Y-57591500D01*
X70189479Y-57591500D01*
X70010521Y-57591500D01*
X70010518Y-57591500D01*
X69879771Y-57617507D01*
X69835000Y-57626413D01*
X69834999Y-57626413D01*
X69834996Y-57626414D01*
X69703902Y-57680716D01*
X69698461Y-57682970D01*
X69669662Y-57694899D01*
X69520869Y-57794319D01*
X69520862Y-57794324D01*
X69394324Y-57920862D01*
X69394319Y-57920869D01*
X69294899Y-58069662D01*
X69226414Y-58234996D01*
X69191500Y-58410518D01*
X64958500Y-58410518D01*
X64958500Y-55411917D01*
X85371127Y-55411917D01*
X86599999Y-56640789D01*
X86600001Y-56640789D01*
X87828871Y-55411917D01*
X87828870Y-55411916D01*
X87717981Y-55326827D01*
X87717975Y-55326823D01*
X87552602Y-55231345D01*
X87490034Y-55195221D01*
X87490023Y-55195216D01*
X87325770Y-55127180D01*
X105329500Y-55127180D01*
X105329500Y-55366819D01*
X105366990Y-55603523D01*
X105441044Y-55831436D01*
X105441045Y-55831438D01*
X105549842Y-56044965D01*
X105610851Y-56128937D01*
X106123015Y-55616772D01*
X106129757Y-55633047D01*
X106218949Y-55766532D01*
X106332468Y-55880051D01*
X106465953Y-55969243D01*
X106482225Y-55975983D01*
X105970061Y-56488147D01*
X105970061Y-56488148D01*
X106054032Y-56549156D01*
X106267561Y-56657954D01*
X106267563Y-56657955D01*
X106495476Y-56732009D01*
X106732180Y-56769500D01*
X106971820Y-56769500D01*
X107208523Y-56732009D01*
X107436436Y-56657955D01*
X107436438Y-56657954D01*
X107649967Y-56549156D01*
X107733937Y-56488148D01*
X107733937Y-56488146D01*
X107221774Y-55975983D01*
X107238047Y-55969243D01*
X107371532Y-55880051D01*
X107485051Y-55766532D01*
X107574243Y-55633047D01*
X107580983Y-55616774D01*
X108093146Y-56128937D01*
X108093148Y-56128937D01*
X108154156Y-56044967D01*
X108262954Y-55831438D01*
X108262955Y-55831436D01*
X108337009Y-55603523D01*
X108374500Y-55366819D01*
X108374500Y-55127180D01*
X108337009Y-54890476D01*
X108262955Y-54662563D01*
X108262954Y-54662561D01*
X108154156Y-54449032D01*
X108093148Y-54365061D01*
X108093147Y-54365061D01*
X107580983Y-54877225D01*
X107574243Y-54860953D01*
X107485051Y-54727468D01*
X107371532Y-54613949D01*
X107238047Y-54524757D01*
X107221773Y-54518016D01*
X107733937Y-54005851D01*
X107649965Y-53944842D01*
X107436438Y-53836045D01*
X107436436Y-53836044D01*
X107208523Y-53761990D01*
X106971820Y-53724500D01*
X106732180Y-53724500D01*
X106495476Y-53761990D01*
X106267563Y-53836044D01*
X106267555Y-53836047D01*
X106054037Y-53944839D01*
X105970061Y-54005850D01*
X105970061Y-54005852D01*
X106482225Y-54518016D01*
X106465953Y-54524757D01*
X106332468Y-54613949D01*
X106218949Y-54727468D01*
X106129757Y-54860953D01*
X106123016Y-54877225D01*
X105610852Y-54365061D01*
X105610850Y-54365061D01*
X105549839Y-54449037D01*
X105441047Y-54662555D01*
X105441044Y-54662563D01*
X105366990Y-54890476D01*
X105329500Y-55127180D01*
X87325770Y-55127180D01*
X87246835Y-55094484D01*
X86992575Y-55026355D01*
X86731613Y-54992000D01*
X86468386Y-54992000D01*
X86207424Y-55026355D01*
X85953164Y-55094484D01*
X85709976Y-55195216D01*
X85709965Y-55195221D01*
X85482024Y-55326823D01*
X85371127Y-55411917D01*
X64958500Y-55411917D01*
X64958500Y-54181513D01*
X64978502Y-54113392D01*
X65032158Y-54066899D01*
X65068053Y-54056591D01*
X65162680Y-54044134D01*
X65416997Y-53975990D01*
X65660243Y-53875234D01*
X65888257Y-53743590D01*
X66097138Y-53583311D01*
X66283311Y-53397138D01*
X66342511Y-53319985D01*
X66399849Y-53278119D01*
X66470720Y-53273897D01*
X66532623Y-53308661D01*
X66565904Y-53371373D01*
X66568474Y-53396690D01*
X66568474Y-54378317D01*
X94568474Y-54378317D01*
X94568474Y-45660518D01*
X97191500Y-45660518D01*
X97191500Y-45839481D01*
X97204547Y-45905070D01*
X97226280Y-46014333D01*
X97226414Y-46015003D01*
X97238897Y-46045139D01*
X97294898Y-46180336D01*
X97394322Y-46329135D01*
X97394324Y-46329137D01*
X97454595Y-46389408D01*
X97488621Y-46451720D01*
X97491500Y-46478503D01*
X97491500Y-47845111D01*
X97511797Y-47920864D01*
X97511798Y-47920864D01*
X97511798Y-47920865D01*
X97517291Y-47941363D01*
X97532968Y-47999872D01*
X97532970Y-47999877D01*
X97613075Y-48138623D01*
X97613083Y-48138633D01*
X99746972Y-50272521D01*
X99780997Y-50334833D01*
X99782325Y-50381323D01*
X99751500Y-50575954D01*
X99751500Y-50774046D01*
X99782488Y-50969700D01*
X99843702Y-51158097D01*
X99928489Y-51324500D01*
X99933636Y-51334601D01*
X100050071Y-51494860D01*
X100190136Y-51634925D01*
X100190139Y-51634927D01*
X100190142Y-51634930D01*
X100268607Y-51691938D01*
X100319018Y-51728564D01*
X100362372Y-51784786D01*
X100368447Y-51855523D01*
X100335315Y-51918314D01*
X100273495Y-51953226D01*
X100244957Y-51956500D01*
X100211350Y-51956500D01*
X100150803Y-51963009D01*
X100150795Y-51963011D01*
X100013797Y-52014110D01*
X100013792Y-52014112D01*
X99896738Y-52101738D01*
X99809112Y-52218792D01*
X99809110Y-52218797D01*
X99758011Y-52355795D01*
X99758009Y-52355803D01*
X99751500Y-52416350D01*
X99751500Y-54013649D01*
X99758009Y-54074196D01*
X99758011Y-54074204D01*
X99809110Y-54211202D01*
X99809112Y-54211207D01*
X99896738Y-54328261D01*
X100013792Y-54415887D01*
X100013794Y-54415888D01*
X100013796Y-54415889D01*
X100056991Y-54432000D01*
X100150795Y-54466988D01*
X100150803Y-54466990D01*
X100211350Y-54473499D01*
X100211355Y-54473499D01*
X100211362Y-54473500D01*
X100211368Y-54473500D01*
X101808632Y-54473500D01*
X101808638Y-54473500D01*
X101808645Y-54473499D01*
X101808649Y-54473499D01*
X101869196Y-54466990D01*
X101869199Y-54466989D01*
X101869201Y-54466989D01*
X102006204Y-54415889D01*
X102123261Y-54328261D01*
X102186181Y-54244210D01*
X102210887Y-54211207D01*
X102210887Y-54211206D01*
X102210889Y-54211204D01*
X102261989Y-54074201D01*
X102262332Y-54071014D01*
X102265623Y-54040405D01*
X102265623Y-54040404D01*
X102268498Y-54013652D01*
X102268500Y-54013638D01*
X102268500Y-52710043D01*
X102288502Y-52641922D01*
X102342158Y-52595429D01*
X102412432Y-52585325D01*
X102477012Y-52614819D01*
X102496435Y-52635981D01*
X102590070Y-52764858D01*
X102590072Y-52764860D01*
X102590074Y-52764863D01*
X102730139Y-52904928D01*
X102730142Y-52904930D01*
X102890402Y-53021366D01*
X103066903Y-53111298D01*
X103255300Y-53172512D01*
X103450954Y-53203500D01*
X103450957Y-53203500D01*
X103649043Y-53203500D01*
X103649046Y-53203500D01*
X103844700Y-53172512D01*
X104033097Y-53111298D01*
X104100273Y-53077070D01*
X108024500Y-53077070D01*
X108024500Y-53322929D01*
X108056589Y-53566669D01*
X108056590Y-53566675D01*
X108056591Y-53566677D01*
X108120222Y-53804153D01*
X108214306Y-54031292D01*
X108214307Y-54031293D01*
X108214312Y-54031304D01*
X108337230Y-54244204D01*
X108337234Y-54244210D01*
X108486894Y-54439250D01*
X108486913Y-54439271D01*
X108660728Y-54613086D01*
X108660738Y-54613095D01*
X108660744Y-54613101D01*
X108660747Y-54613103D01*
X108660749Y-54613105D01*
X108855789Y-54762765D01*
X108855795Y-54762769D01*
X109068695Y-54885687D01*
X109068699Y-54885688D01*
X109068708Y-54885694D01*
X109295847Y-54979778D01*
X109533323Y-55043409D01*
X109533329Y-55043409D01*
X109533330Y-55043410D01*
X109561294Y-55047091D01*
X109777073Y-55075500D01*
X109777080Y-55075500D01*
X110022920Y-55075500D01*
X110022927Y-55075500D01*
X110266677Y-55043409D01*
X110504153Y-54979778D01*
X110731292Y-54885694D01*
X110944208Y-54762767D01*
X111139256Y-54613101D01*
X111313101Y-54439256D01*
X111462767Y-54244208D01*
X111585694Y-54031292D01*
X111679778Y-53804153D01*
X111743409Y-53566677D01*
X111775500Y-53322927D01*
X111775500Y-53077073D01*
X111743409Y-52833323D01*
X111679778Y-52595847D01*
X111585694Y-52368708D01*
X111585688Y-52368699D01*
X111585687Y-52368695D01*
X111462769Y-52155795D01*
X111462765Y-52155789D01*
X111313105Y-51960749D01*
X111313103Y-51960747D01*
X111313101Y-51960744D01*
X111313095Y-51960738D01*
X111313086Y-51960728D01*
X111139271Y-51786913D01*
X111139250Y-51786894D01*
X110944210Y-51637234D01*
X110944204Y-51637230D01*
X110862790Y-51590226D01*
X110731304Y-51514312D01*
X110731296Y-51514308D01*
X110731292Y-51514306D01*
X110504153Y-51420222D01*
X110266677Y-51356591D01*
X110266675Y-51356590D01*
X110266669Y-51356589D01*
X110022929Y-51324500D01*
X110022927Y-51324500D01*
X109777073Y-51324500D01*
X109777070Y-51324500D01*
X109533330Y-51356589D01*
X109295847Y-51420222D01*
X109068706Y-51514307D01*
X109068695Y-51514312D01*
X108855795Y-51637230D01*
X108855789Y-51637234D01*
X108660749Y-51786894D01*
X108660728Y-51786913D01*
X108486913Y-51960728D01*
X108486894Y-51960749D01*
X108337234Y-52155789D01*
X108337230Y-52155795D01*
X108214312Y-52368695D01*
X108214307Y-52368706D01*
X108120222Y-52595847D01*
X108056589Y-52833330D01*
X108024500Y-53077070D01*
X104100273Y-53077070D01*
X104209598Y-53021366D01*
X104369858Y-52904930D01*
X104509930Y-52764858D01*
X104626366Y-52604598D01*
X104716298Y-52428097D01*
X104777512Y-52239700D01*
X104808500Y-52044046D01*
X104808500Y-51845954D01*
X104777512Y-51650300D01*
X104716298Y-51461903D01*
X104626366Y-51285402D01*
X104509930Y-51125142D01*
X104509928Y-51125139D01*
X104369860Y-50985071D01*
X104209601Y-50868636D01*
X104209600Y-50868635D01*
X104209598Y-50868634D01*
X104049902Y-50787265D01*
X103998290Y-50738519D01*
X103981224Y-50669604D01*
X104004125Y-50602402D01*
X104049902Y-50562735D01*
X104209598Y-50481366D01*
X104369858Y-50364930D01*
X104509930Y-50224858D01*
X104626366Y-50064598D01*
X104716298Y-49888097D01*
X104777512Y-49699700D01*
X104808500Y-49504046D01*
X104808500Y-49305954D01*
X104777512Y-49110300D01*
X104716298Y-48921903D01*
X104626366Y-48745402D01*
X104509930Y-48585142D01*
X104509928Y-48585139D01*
X104369860Y-48445071D01*
X104209601Y-48328636D01*
X104209600Y-48328635D01*
X104209598Y-48328634D01*
X104049902Y-48247265D01*
X103998290Y-48198519D01*
X103981224Y-48129604D01*
X104004125Y-48062402D01*
X104049902Y-48022735D01*
X104209598Y-47941366D01*
X104369858Y-47824930D01*
X104509930Y-47684858D01*
X104626366Y-47524598D01*
X104716298Y-47348097D01*
X104777512Y-47159700D01*
X104808500Y-46964046D01*
X104808500Y-46765954D01*
X104777512Y-46570300D01*
X104716298Y-46381903D01*
X104626366Y-46205402D01*
X104509930Y-46045142D01*
X104509928Y-46045139D01*
X104369860Y-45905071D01*
X104209601Y-45788636D01*
X104209600Y-45788635D01*
X104209598Y-45788634D01*
X104049902Y-45707265D01*
X103998290Y-45658519D01*
X103981224Y-45589604D01*
X104004125Y-45522402D01*
X104049902Y-45482735D01*
X104209598Y-45401366D01*
X104369858Y-45284930D01*
X104509930Y-45144858D01*
X104626366Y-44984598D01*
X104716298Y-44808097D01*
X104777512Y-44619700D01*
X104808500Y-44424046D01*
X104808500Y-44225954D01*
X104777512Y-44030300D01*
X104716298Y-43841903D01*
X104626366Y-43665402D01*
X104509930Y-43505142D01*
X104509928Y-43505139D01*
X104369860Y-43365071D01*
X104209601Y-43248636D01*
X104209600Y-43248635D01*
X104209598Y-43248634D01*
X104049902Y-43167265D01*
X103998290Y-43118519D01*
X103981224Y-43049604D01*
X104004125Y-42982402D01*
X104049902Y-42942735D01*
X104209598Y-42861366D01*
X104369858Y-42744930D01*
X104509930Y-42604858D01*
X104626366Y-42444598D01*
X104716298Y-42268097D01*
X104777512Y-42079700D01*
X104808500Y-41884046D01*
X104808500Y-41685954D01*
X104807093Y-41677070D01*
X108024500Y-41677070D01*
X108024500Y-41922929D01*
X108056589Y-42166669D01*
X108056590Y-42166675D01*
X108056591Y-42166677D01*
X108120222Y-42404153D01*
X108214306Y-42631292D01*
X108214307Y-42631293D01*
X108214312Y-42631304D01*
X108337230Y-42844204D01*
X108337234Y-42844210D01*
X108486894Y-43039250D01*
X108486913Y-43039271D01*
X108660728Y-43213086D01*
X108660738Y-43213095D01*
X108660744Y-43213101D01*
X108660747Y-43213103D01*
X108660749Y-43213105D01*
X108855789Y-43362765D01*
X108855795Y-43362769D01*
X109068695Y-43485687D01*
X109068699Y-43485688D01*
X109068708Y-43485694D01*
X109295847Y-43579778D01*
X109533323Y-43643409D01*
X109533329Y-43643409D01*
X109533330Y-43643410D01*
X109561294Y-43647091D01*
X109777073Y-43675500D01*
X109777080Y-43675500D01*
X110022920Y-43675500D01*
X110022927Y-43675500D01*
X110266677Y-43643409D01*
X110504153Y-43579778D01*
X110731292Y-43485694D01*
X110944208Y-43362767D01*
X111139256Y-43213101D01*
X111313101Y-43039256D01*
X111462767Y-42844208D01*
X111585694Y-42631292D01*
X111679778Y-42404153D01*
X111743409Y-42166677D01*
X111775500Y-41922927D01*
X111775500Y-41677073D01*
X111743409Y-41433323D01*
X111679778Y-41195847D01*
X111585694Y-40968708D01*
X111585688Y-40968699D01*
X111585687Y-40968695D01*
X111503364Y-40826107D01*
X111462769Y-40755795D01*
X111462765Y-40755789D01*
X111313105Y-40560749D01*
X111313103Y-40560747D01*
X111313101Y-40560744D01*
X111313095Y-40560738D01*
X111313086Y-40560728D01*
X111139271Y-40386913D01*
X111139250Y-40386894D01*
X110944210Y-40237234D01*
X110944204Y-40237230D01*
X110731304Y-40114312D01*
X110731296Y-40114308D01*
X110731292Y-40114306D01*
X110504153Y-40020222D01*
X110266677Y-39956591D01*
X110266675Y-39956590D01*
X110266669Y-39956589D01*
X110022929Y-39924500D01*
X110022927Y-39924500D01*
X109777073Y-39924500D01*
X109777070Y-39924500D01*
X109533330Y-39956589D01*
X109357150Y-40003796D01*
X109295847Y-40020222D01*
X109073769Y-40112210D01*
X109068706Y-40114307D01*
X109068695Y-40114312D01*
X108855795Y-40237230D01*
X108855789Y-40237234D01*
X108660749Y-40386894D01*
X108660728Y-40386913D01*
X108486913Y-40560728D01*
X108486894Y-40560749D01*
X108337234Y-40755789D01*
X108337230Y-40755795D01*
X108214312Y-40968695D01*
X108214307Y-40968706D01*
X108214306Y-40968708D01*
X108191478Y-41023820D01*
X108120222Y-41195847D01*
X108056589Y-41433330D01*
X108024500Y-41677070D01*
X104807093Y-41677070D01*
X104777512Y-41490300D01*
X104716298Y-41301903D01*
X104626366Y-41125402D01*
X104509930Y-40965142D01*
X104509926Y-40965138D01*
X104509924Y-40965135D01*
X104369860Y-40825071D01*
X104209601Y-40708636D01*
X104209600Y-40708635D01*
X104209598Y-40708634D01*
X104033097Y-40618702D01*
X103844700Y-40557488D01*
X103649046Y-40526500D01*
X103450954Y-40526500D01*
X103255300Y-40557488D01*
X103255297Y-40557488D01*
X103255296Y-40557489D01*
X103066903Y-40618702D01*
X103066901Y-40618703D01*
X102890398Y-40708636D01*
X102730139Y-40825071D01*
X102590071Y-40965139D01*
X102473636Y-41125398D01*
X102383703Y-41301901D01*
X102383702Y-41301903D01*
X102340999Y-41433330D01*
X102322488Y-41490300D01*
X102291500Y-41685954D01*
X102291500Y-41884046D01*
X102322488Y-42079700D01*
X102383702Y-42268097D01*
X102473634Y-42444598D01*
X102473636Y-42444601D01*
X102590071Y-42604860D01*
X102730139Y-42744928D01*
X102751291Y-42760296D01*
X102890402Y-42861366D01*
X103050094Y-42942733D01*
X103101709Y-42991481D01*
X103118775Y-43060396D01*
X103095874Y-43127598D01*
X103050095Y-43167266D01*
X102905568Y-43240906D01*
X102890398Y-43248636D01*
X102730139Y-43365071D01*
X102590071Y-43505139D01*
X102473636Y-43665398D01*
X102383703Y-43841901D01*
X102383702Y-43841903D01*
X102327483Y-44014928D01*
X102322488Y-44030300D01*
X102291500Y-44225954D01*
X102291500Y-44424046D01*
X102322488Y-44619700D01*
X102383702Y-44808097D01*
X102473634Y-44984598D01*
X102473636Y-44984601D01*
X102590071Y-45144860D01*
X102730139Y-45284928D01*
X102751454Y-45300414D01*
X102890402Y-45401366D01*
X103050094Y-45482733D01*
X103101709Y-45531481D01*
X103118775Y-45600396D01*
X103095874Y-45667598D01*
X103050095Y-45707266D01*
X103023991Y-45720567D01*
X102890398Y-45788636D01*
X102730139Y-45905071D01*
X102590071Y-46045139D01*
X102473636Y-46205398D01*
X102473634Y-46205402D01*
X102383702Y-46381903D01*
X102322488Y-46570300D01*
X102291500Y-46765954D01*
X102291500Y-46964046D01*
X102322488Y-47159700D01*
X102383702Y-47348097D01*
X102467700Y-47512951D01*
X102473636Y-47524601D01*
X102590071Y-47684860D01*
X102730139Y-47824928D01*
X102751291Y-47840296D01*
X102890402Y-47941366D01*
X103050094Y-48022733D01*
X103101709Y-48071481D01*
X103118775Y-48140396D01*
X103095874Y-48207598D01*
X103050095Y-48247266D01*
X102938853Y-48303947D01*
X102890398Y-48328636D01*
X102730139Y-48445071D01*
X102590071Y-48585139D01*
X102473636Y-48745398D01*
X102383703Y-48921901D01*
X102383702Y-48921903D01*
X102327483Y-49094928D01*
X102322488Y-49110300D01*
X102291500Y-49305954D01*
X102291500Y-49504046D01*
X102322488Y-49699700D01*
X102383702Y-49888097D01*
X102473634Y-50064598D01*
X102473636Y-50064601D01*
X102590071Y-50224860D01*
X102730139Y-50364928D01*
X102748749Y-50378449D01*
X102890402Y-50481366D01*
X103050094Y-50562733D01*
X103101709Y-50611481D01*
X103118775Y-50680396D01*
X103095874Y-50747598D01*
X103050095Y-50787266D01*
X102911423Y-50857923D01*
X102890398Y-50868636D01*
X102730139Y-50985071D01*
X102590071Y-51125139D01*
X102473636Y-51285398D01*
X102383703Y-51461901D01*
X102383702Y-51461903D01*
X102326734Y-51637233D01*
X102322488Y-51650300D01*
X102292238Y-51841298D01*
X102291500Y-51845957D01*
X102291500Y-51975964D01*
X102271498Y-52044085D01*
X102217842Y-52090578D01*
X102147568Y-52100682D01*
X102089991Y-52076832D01*
X102006207Y-52014113D01*
X102006202Y-52014110D01*
X101869204Y-51963011D01*
X101869196Y-51963009D01*
X101808649Y-51956500D01*
X101808638Y-51956500D01*
X101775043Y-51956500D01*
X101706922Y-51936498D01*
X101660429Y-51882842D01*
X101650325Y-51812568D01*
X101679819Y-51747988D01*
X101700982Y-51728564D01*
X101829858Y-51634930D01*
X101969930Y-51494858D01*
X102086366Y-51334598D01*
X102176298Y-51158097D01*
X102237512Y-50969700D01*
X102268500Y-50774046D01*
X102268500Y-50575954D01*
X102237512Y-50380300D01*
X102176298Y-50191903D01*
X102086366Y-50015402D01*
X101969930Y-49855142D01*
X101969928Y-49855139D01*
X101829860Y-49715071D01*
X101669601Y-49598636D01*
X101669600Y-49598635D01*
X101669598Y-49598634D01*
X101509902Y-49517265D01*
X101458290Y-49468519D01*
X101441224Y-49399604D01*
X101464125Y-49332402D01*
X101509902Y-49292735D01*
X101669598Y-49211366D01*
X101829858Y-49094930D01*
X101969930Y-48954858D01*
X102086366Y-48794598D01*
X102176298Y-48618097D01*
X102237512Y-48429700D01*
X102268500Y-48234046D01*
X102268500Y-48035954D01*
X102237512Y-47840300D01*
X102176298Y-47651903D01*
X102086366Y-47475402D01*
X101989367Y-47341894D01*
X101969928Y-47315139D01*
X101829860Y-47175071D01*
X101669600Y-47058635D01*
X101597841Y-47022072D01*
X101509352Y-46976984D01*
X101457738Y-46928236D01*
X101440672Y-46859321D01*
X101463573Y-46792120D01*
X101509354Y-46752451D01*
X101669333Y-46670939D01*
X101669339Y-46670935D01*
X101702575Y-46646787D01*
X101702576Y-46646786D01*
X101094123Y-46038333D01*
X101183694Y-46014333D01*
X101286306Y-45955090D01*
X101370090Y-45871306D01*
X101429333Y-45768694D01*
X101453333Y-45679122D01*
X102061786Y-46287576D01*
X102061787Y-46287575D01*
X102085935Y-46254339D01*
X102085936Y-46254337D01*
X102175834Y-46077902D01*
X102237022Y-45889585D01*
X102268000Y-45694003D01*
X102268000Y-45495996D01*
X102237022Y-45300414D01*
X102175834Y-45112097D01*
X102085935Y-44935660D01*
X102061787Y-44902423D01*
X102061785Y-44902423D01*
X101453333Y-45510875D01*
X101429333Y-45421306D01*
X101370090Y-45318694D01*
X101286306Y-45234910D01*
X101183694Y-45175667D01*
X101094122Y-45151666D01*
X101702575Y-44543212D01*
X101669330Y-44519058D01*
X101509355Y-44437548D01*
X101457739Y-44388800D01*
X101440673Y-44319885D01*
X101463573Y-44252684D01*
X101509352Y-44213015D01*
X101669598Y-44131366D01*
X101829858Y-44014930D01*
X101969930Y-43874858D01*
X102086366Y-43714598D01*
X102176298Y-43538097D01*
X102237512Y-43349700D01*
X102268500Y-43154046D01*
X102268500Y-42955954D01*
X102237512Y-42760300D01*
X102176298Y-42571903D01*
X102086366Y-42395402D01*
X101969930Y-42235142D01*
X101969928Y-42235139D01*
X101829860Y-42095071D01*
X101669601Y-41978636D01*
X101669600Y-41978635D01*
X101669598Y-41978634D01*
X101493097Y-41888702D01*
X101304700Y-41827488D01*
X101109046Y-41796500D01*
X100910954Y-41796500D01*
X100715300Y-41827488D01*
X100715297Y-41827488D01*
X100715296Y-41827489D01*
X100526903Y-41888702D01*
X100526901Y-41888703D01*
X100350398Y-41978636D01*
X100190139Y-42095071D01*
X100050071Y-42235139D01*
X99933636Y-42395398D01*
X99843703Y-42571901D01*
X99843702Y-42571903D01*
X99787483Y-42744928D01*
X99782488Y-42760300D01*
X99751500Y-42955954D01*
X99751500Y-43154046D01*
X99782488Y-43349700D01*
X99843702Y-43538097D01*
X99933634Y-43714598D01*
X99933636Y-43714601D01*
X100050071Y-43874860D01*
X100190139Y-44014928D01*
X100265477Y-44069664D01*
X100350402Y-44131366D01*
X100395976Y-44154587D01*
X100510645Y-44213014D01*
X100562260Y-44261763D01*
X100579326Y-44330678D01*
X100556425Y-44397879D01*
X100510645Y-44437548D01*
X100350667Y-44519060D01*
X100317422Y-44543212D01*
X100925876Y-45151666D01*
X100836306Y-45175667D01*
X100733694Y-45234910D01*
X100649910Y-45318694D01*
X100590667Y-45421306D01*
X100566666Y-45510876D01*
X99958212Y-44902422D01*
X99934060Y-44935667D01*
X99934057Y-44935671D01*
X99844166Y-45112094D01*
X99782977Y-45300414D01*
X99752000Y-45495996D01*
X99752000Y-45694003D01*
X99782977Y-45889585D01*
X99844166Y-46077905D01*
X99934058Y-46254330D01*
X99958212Y-46287575D01*
X100566666Y-45679121D01*
X100590667Y-45768694D01*
X100649910Y-45871306D01*
X100733694Y-45955090D01*
X100836306Y-46014333D01*
X100925875Y-46038333D01*
X100317423Y-46646785D01*
X100317423Y-46646787D01*
X100350662Y-46670937D01*
X100510645Y-46752451D01*
X100562261Y-46801199D01*
X100579327Y-46870113D01*
X100556427Y-46937315D01*
X100510646Y-46976985D01*
X100350399Y-47058635D01*
X100190139Y-47175071D01*
X100050071Y-47315139D01*
X99933636Y-47475398D01*
X99843703Y-47651901D01*
X99843702Y-47651903D01*
X99787477Y-47824947D01*
X99782488Y-47840300D01*
X99752238Y-48031298D01*
X99751500Y-48035957D01*
X99751500Y-48234049D01*
X99751888Y-48238979D01*
X99750702Y-48239072D01*
X99742308Y-48303947D01*
X99696578Y-48358254D01*
X99628746Y-48379215D01*
X99560350Y-48360177D01*
X99537872Y-48342323D01*
X98745405Y-47549856D01*
X98711379Y-47487544D01*
X98708500Y-47460761D01*
X98708500Y-46478503D01*
X98728502Y-46410382D01*
X98745405Y-46389408D01*
X98769813Y-46365000D01*
X98805678Y-46329135D01*
X98905102Y-46180336D01*
X98973587Y-46015000D01*
X99008500Y-45839479D01*
X99008500Y-45660521D01*
X98973587Y-45485000D01*
X98905102Y-45319664D01*
X98805678Y-45170865D01*
X98679135Y-45044322D01*
X98530336Y-44944898D01*
X98393608Y-44888263D01*
X98365003Y-44876414D01*
X98365001Y-44876413D01*
X98365000Y-44876413D01*
X98276645Y-44858838D01*
X98189481Y-44841500D01*
X98189479Y-44841500D01*
X98010521Y-44841500D01*
X98010518Y-44841500D01*
X97879771Y-44867507D01*
X97835000Y-44876413D01*
X97834999Y-44876413D01*
X97834996Y-44876414D01*
X97731064Y-44919465D01*
X97691950Y-44935667D01*
X97669662Y-44944899D01*
X97520869Y-45044319D01*
X97520862Y-45044324D01*
X97394324Y-45170862D01*
X97394319Y-45170869D01*
X97294899Y-45319662D01*
X97226414Y-45484996D01*
X97191500Y-45660518D01*
X94568474Y-45660518D01*
X94568474Y-44526500D01*
X94588476Y-44458379D01*
X94642132Y-44411886D01*
X94694474Y-44400500D01*
X98152725Y-44400500D01*
X98152727Y-44400500D01*
X98254587Y-44373207D01*
X98254590Y-44373205D01*
X98254591Y-44373205D01*
X98300250Y-44346843D01*
X98345913Y-44320480D01*
X98420480Y-44245913D01*
X98473207Y-44154587D01*
X98500500Y-44052727D01*
X98500500Y-43447273D01*
X98473207Y-43345413D01*
X98473205Y-43345410D01*
X98473205Y-43345408D01*
X98420482Y-43254090D01*
X98420474Y-43254080D01*
X98345919Y-43179525D01*
X98345909Y-43179517D01*
X98254591Y-43126794D01*
X98242557Y-43123569D01*
X98152727Y-43099500D01*
X94694474Y-43099500D01*
X94685648Y-43096908D01*
X94676542Y-43098218D01*
X94652116Y-43087062D01*
X94626353Y-43079498D01*
X94620328Y-43072544D01*
X94611962Y-43068724D01*
X94597447Y-43046138D01*
X94579860Y-43025842D01*
X94577535Y-43015155D01*
X94573578Y-43008998D01*
X94568474Y-42973500D01*
X94568474Y-39254317D01*
X94588476Y-39186196D01*
X94642132Y-39139703D01*
X94694474Y-39128317D01*
X105280697Y-39128317D01*
X105348818Y-39148319D01*
G37*
%TD.AperFunction*%
%TA.AperFunction,Conductor*%
G36*
X66093061Y-88033653D02*
G01*
X66149897Y-88076200D01*
X66174708Y-88142720D01*
X66172608Y-88176290D01*
X66147500Y-88302515D01*
X66147500Y-88481481D01*
X66182414Y-88657003D01*
X66184866Y-88662922D01*
X66250898Y-88822336D01*
X66350322Y-88971135D01*
X66476865Y-89097678D01*
X66625664Y-89197102D01*
X66791000Y-89265587D01*
X66966521Y-89300500D01*
X66966522Y-89300500D01*
X67145478Y-89300500D01*
X67145479Y-89300500D01*
X67321000Y-89265587D01*
X67486336Y-89197102D01*
X67635135Y-89097678D01*
X67695408Y-89037405D01*
X67757720Y-89003379D01*
X67784503Y-89000500D01*
X71090500Y-89000500D01*
X71158621Y-89020502D01*
X71205114Y-89074158D01*
X71216500Y-89126500D01*
X71216500Y-89667888D01*
X71196498Y-89736009D01*
X71142842Y-89782502D01*
X71072568Y-89792606D01*
X71065919Y-89791467D01*
X70955484Y-89769500D01*
X70955479Y-89769500D01*
X70776521Y-89769500D01*
X70776518Y-89769500D01*
X70666084Y-89791467D01*
X70601000Y-89804413D01*
X70600999Y-89804413D01*
X70600996Y-89804414D01*
X70435662Y-89872899D01*
X70286869Y-89972319D01*
X70286862Y-89972324D01*
X70160324Y-90098862D01*
X70160319Y-90098869D01*
X70060899Y-90247662D01*
X69992414Y-90412996D01*
X69957500Y-90588518D01*
X69957500Y-90767481D01*
X69968842Y-90824500D01*
X69981596Y-90888621D01*
X69992414Y-90943003D01*
X70011186Y-90988321D01*
X70060898Y-91108336D01*
X70160322Y-91257135D01*
X70286865Y-91383678D01*
X70435664Y-91483102D01*
X70601000Y-91551587D01*
X70776521Y-91586500D01*
X70776522Y-91586500D01*
X70955478Y-91586500D01*
X70955479Y-91586500D01*
X71131000Y-91551587D01*
X71296336Y-91483102D01*
X71445135Y-91383678D01*
X71505408Y-91323405D01*
X71567720Y-91289379D01*
X71594503Y-91286500D01*
X84916109Y-91286500D01*
X84916110Y-91286500D01*
X84916111Y-91286500D01*
X85025703Y-91257135D01*
X85070873Y-91245032D01*
X85116386Y-91218754D01*
X85185380Y-91202016D01*
X85252472Y-91225236D01*
X85296360Y-91281042D01*
X85303109Y-91351717D01*
X85270578Y-91414822D01*
X85268482Y-91416968D01*
X83604854Y-93080596D01*
X83542544Y-93114620D01*
X83515761Y-93117500D01*
X69308503Y-93117500D01*
X69240382Y-93097498D01*
X69219408Y-93080595D01*
X69159137Y-93020324D01*
X69159135Y-93020322D01*
X69010336Y-92920898D01*
X68893429Y-92872473D01*
X68845003Y-92852414D01*
X68845001Y-92852413D01*
X68845000Y-92852413D01*
X68756645Y-92834838D01*
X68669481Y-92817500D01*
X68669479Y-92817500D01*
X68490521Y-92817500D01*
X68490518Y-92817500D01*
X68359771Y-92843507D01*
X68315000Y-92852413D01*
X68314999Y-92852413D01*
X68314996Y-92852414D01*
X68149662Y-92920899D01*
X68000869Y-93020319D01*
X68000862Y-93020324D01*
X67874324Y-93146862D01*
X67874319Y-93146869D01*
X67774899Y-93295662D01*
X67706414Y-93460996D01*
X67671500Y-93636518D01*
X67671500Y-93753500D01*
X67651498Y-93821621D01*
X67597842Y-93868114D01*
X67545500Y-93879500D01*
X65606875Y-93879500D01*
X65538754Y-93859498D01*
X65517780Y-93842595D01*
X63150094Y-91474909D01*
X63116068Y-91412597D01*
X63121133Y-91341782D01*
X63150094Y-91296719D01*
X63189677Y-91257136D01*
X63189678Y-91257135D01*
X63289102Y-91108336D01*
X63357587Y-90943000D01*
X63392500Y-90767479D01*
X63392500Y-90682239D01*
X63412502Y-90614118D01*
X63429405Y-90593144D01*
X64685687Y-89336862D01*
X65959936Y-88062612D01*
X66022246Y-88028589D01*
X66093061Y-88033653D01*
G37*
%TD.AperFunction*%
%TA.AperFunction,Conductor*%
G36*
X66011217Y-81529382D02*
G01*
X66056280Y-81558343D01*
X66095865Y-81597928D01*
X66244664Y-81697352D01*
X66410000Y-81765837D01*
X66585521Y-81800750D01*
X66670761Y-81800750D01*
X66738882Y-81820752D01*
X66759851Y-81837650D01*
X67197123Y-82274922D01*
X67335878Y-82355032D01*
X67490639Y-82396500D01*
X67490640Y-82396500D01*
X67650860Y-82396500D01*
X69002227Y-82396500D01*
X69070348Y-82416502D01*
X69116841Y-82470158D01*
X69126945Y-82540432D01*
X69125809Y-82547060D01*
X69113716Y-82607860D01*
X69092500Y-82714518D01*
X69092500Y-82893481D01*
X69105796Y-82960322D01*
X69123395Y-83048802D01*
X69127414Y-83069003D01*
X69140456Y-83100488D01*
X69195898Y-83234336D01*
X69295322Y-83383135D01*
X69421865Y-83509678D01*
X69570664Y-83609102D01*
X69736000Y-83677587D01*
X69911521Y-83712500D01*
X69911522Y-83712500D01*
X70090478Y-83712500D01*
X70090479Y-83712500D01*
X70266000Y-83677587D01*
X70266011Y-83677582D01*
X70271926Y-83675789D01*
X70272586Y-83677968D01*
X70333013Y-83671438D01*
X70396517Y-83703182D01*
X70399804Y-83706353D01*
X70618972Y-83925521D01*
X70652998Y-83987833D01*
X70654325Y-84034323D01*
X70623500Y-84228954D01*
X70623500Y-84427046D01*
X70654488Y-84622700D01*
X70715702Y-84811097D01*
X70715704Y-84811101D01*
X70717154Y-84815563D01*
X70719182Y-84886531D01*
X70682519Y-84947329D01*
X70618807Y-84978654D01*
X70597321Y-84980500D01*
X67492889Y-84980500D01*
X67374075Y-85012336D01*
X67374074Y-85012335D01*
X67338134Y-85021966D01*
X67338129Y-85021967D01*
X67338128Y-85021968D01*
X67338127Y-85021968D01*
X67338123Y-85021970D01*
X67199376Y-85102075D01*
X67199366Y-85102083D01*
X62606595Y-89694855D01*
X62544283Y-89728881D01*
X62473468Y-89723816D01*
X62416632Y-89681269D01*
X62391821Y-89614749D01*
X62391500Y-89605760D01*
X62391500Y-85097124D01*
X62411502Y-85029003D01*
X62428400Y-85008034D01*
X65878092Y-81558341D01*
X65940402Y-81524317D01*
X66011217Y-81529382D01*
G37*
%TD.AperFunction*%
%TA.AperFunction,Conductor*%
G36*
X98561304Y-79545252D02*
G01*
X98577548Y-79547116D01*
X98592935Y-79559698D01*
X98611012Y-79567954D01*
X98620462Y-79582207D01*
X98632509Y-79592058D01*
X98648332Y-79624240D01*
X98683702Y-79733097D01*
X98773634Y-79909598D01*
X98773636Y-79909601D01*
X98890071Y-80069860D01*
X99030139Y-80209928D01*
X99030142Y-80209930D01*
X99190402Y-80326366D01*
X99366903Y-80416298D01*
X99555300Y-80477512D01*
X99750954Y-80508500D01*
X99750957Y-80508500D01*
X99949043Y-80508500D01*
X99949046Y-80508500D01*
X100143678Y-80477673D01*
X100214083Y-80486772D01*
X100252478Y-80513027D01*
X100679340Y-80939889D01*
X100713366Y-81002201D01*
X100708301Y-81073016D01*
X100665754Y-81129852D01*
X100614828Y-81152563D01*
X100517644Y-81171895D01*
X100352398Y-81240343D01*
X100343199Y-81246489D01*
X100962105Y-81865394D01*
X100962105Y-81865395D01*
X101635509Y-82538799D01*
X101669535Y-82601111D01*
X101666325Y-82645982D01*
X101658291Y-82637948D01*
X101584782Y-82607500D01*
X101505218Y-82607500D01*
X101431709Y-82637948D01*
X101375448Y-82694209D01*
X101345000Y-82767718D01*
X101345000Y-82847282D01*
X101375448Y-82920791D01*
X101431709Y-82977052D01*
X101505218Y-83007500D01*
X101584782Y-83007500D01*
X101658291Y-82977052D01*
X101669112Y-82966230D01*
X101664470Y-83031137D01*
X101635509Y-83076200D01*
X101141710Y-83569999D01*
X101635509Y-84063798D01*
X101669534Y-84126111D01*
X101666325Y-84170982D01*
X101658291Y-84162948D01*
X101584782Y-84132500D01*
X101505218Y-84132500D01*
X101431709Y-84162948D01*
X101375448Y-84219209D01*
X101345000Y-84292718D01*
X101345000Y-84372282D01*
X101375448Y-84445791D01*
X101431709Y-84502052D01*
X101505218Y-84532500D01*
X101584782Y-84532500D01*
X101658291Y-84502052D01*
X101669112Y-84491230D01*
X101664470Y-84556137D01*
X101635510Y-84601200D01*
X100989215Y-85247496D01*
X100989213Y-85247498D01*
X100962104Y-85274606D01*
X100343199Y-85893509D01*
X100352402Y-85899659D01*
X100517640Y-85968103D01*
X100517645Y-85968105D01*
X100693067Y-86002999D01*
X100693071Y-86003000D01*
X100871929Y-86003000D01*
X100871932Y-86002999D01*
X101047354Y-85968105D01*
X101047359Y-85968103D01*
X101212599Y-85899658D01*
X101212600Y-85899658D01*
X101285638Y-85850855D01*
X101353391Y-85829639D01*
X101421858Y-85848421D01*
X101469302Y-85901238D01*
X101480659Y-85971320D01*
X101452324Y-86036418D01*
X101444736Y-86044714D01*
X98134856Y-89354595D01*
X98072544Y-89388621D01*
X98045761Y-89391500D01*
X96873239Y-89391500D01*
X96805118Y-89371498D01*
X96758625Y-89317842D01*
X96748521Y-89247568D01*
X96778015Y-89182988D01*
X96784144Y-89176405D01*
X98280916Y-87679633D01*
X98280922Y-87679627D01*
X98345136Y-87568405D01*
X98361030Y-87540876D01*
X98361030Y-87540875D01*
X98361032Y-87540872D01*
X98402500Y-87386110D01*
X98402500Y-87225890D01*
X98402500Y-85893509D01*
X98818199Y-85893509D01*
X98827402Y-85899659D01*
X98992640Y-85968103D01*
X98992645Y-85968105D01*
X99168067Y-86002999D01*
X99168071Y-86003000D01*
X99346929Y-86003000D01*
X99346932Y-86002999D01*
X99522354Y-85968105D01*
X99522359Y-85968103D01*
X99687598Y-85899658D01*
X99696799Y-85893509D01*
X99696799Y-85893508D01*
X99257501Y-85454210D01*
X99257500Y-85454210D01*
X98818199Y-85893509D01*
X98402500Y-85893509D01*
X98402500Y-85642980D01*
X98422502Y-85574859D01*
X98439405Y-85553884D01*
X98898290Y-85094999D01*
X98858509Y-85055218D01*
X99057500Y-85055218D01*
X99057500Y-85134782D01*
X99087948Y-85208291D01*
X99144209Y-85264552D01*
X99217718Y-85295000D01*
X99297282Y-85295000D01*
X99370791Y-85264552D01*
X99427052Y-85208291D01*
X99457500Y-85134782D01*
X99457500Y-85094999D01*
X99616710Y-85094999D01*
X99616710Y-85095001D01*
X100019999Y-85498290D01*
X100020001Y-85498290D01*
X100423290Y-85095001D01*
X100423290Y-85094999D01*
X100383509Y-85055218D01*
X100582500Y-85055218D01*
X100582500Y-85134782D01*
X100612948Y-85208291D01*
X100669209Y-85264552D01*
X100742718Y-85295000D01*
X100822282Y-85295000D01*
X100895791Y-85264552D01*
X100952052Y-85208291D01*
X100982500Y-85134782D01*
X100982500Y-85055218D01*
X100952052Y-84981709D01*
X100895791Y-84925448D01*
X100822282Y-84895000D01*
X100742718Y-84895000D01*
X100669209Y-84925448D01*
X100612948Y-84981709D01*
X100582500Y-85055218D01*
X100383509Y-85055218D01*
X100020001Y-84691710D01*
X100019999Y-84691710D01*
X99616710Y-85094999D01*
X99457500Y-85094999D01*
X99457500Y-85055218D01*
X99427052Y-84981709D01*
X99370791Y-84925448D01*
X99297282Y-84895000D01*
X99217718Y-84895000D01*
X99144209Y-84925448D01*
X99087948Y-84981709D01*
X99057500Y-85055218D01*
X98858509Y-85055218D01*
X98439405Y-84636114D01*
X98424460Y-84608745D01*
X98407604Y-84582517D01*
X98406698Y-84576218D01*
X98405379Y-84573802D01*
X98402500Y-84547019D01*
X98402500Y-84510663D01*
X98455218Y-84532500D01*
X98534782Y-84532500D01*
X98608291Y-84502052D01*
X98664552Y-84445791D01*
X98695000Y-84372282D01*
X98695000Y-84332499D01*
X98854210Y-84332499D01*
X98854210Y-84332501D01*
X99257499Y-84735790D01*
X99257501Y-84735790D01*
X99660790Y-84332501D01*
X99660790Y-84332499D01*
X99621009Y-84292718D01*
X99820000Y-84292718D01*
X99820000Y-84372282D01*
X99850448Y-84445791D01*
X99906709Y-84502052D01*
X99980218Y-84532500D01*
X100059782Y-84532500D01*
X100133291Y-84502052D01*
X100189552Y-84445791D01*
X100220000Y-84372282D01*
X100220000Y-84332499D01*
X100379210Y-84332499D01*
X100379210Y-84332501D01*
X100782499Y-84735790D01*
X100782501Y-84735790D01*
X101185790Y-84332501D01*
X101185790Y-84332499D01*
X100782501Y-83929210D01*
X100782499Y-83929210D01*
X100379210Y-84332499D01*
X100220000Y-84332499D01*
X100220000Y-84292718D01*
X100189552Y-84219209D01*
X100133291Y-84162948D01*
X100059782Y-84132500D01*
X99980218Y-84132500D01*
X99906709Y-84162948D01*
X99850448Y-84219209D01*
X99820000Y-84292718D01*
X99621009Y-84292718D01*
X99257501Y-83929210D01*
X99257499Y-83929210D01*
X98854210Y-84332499D01*
X98695000Y-84332499D01*
X98695000Y-84292718D01*
X98664552Y-84219209D01*
X98608291Y-84162948D01*
X98534782Y-84132500D01*
X98455218Y-84132500D01*
X98402500Y-84154336D01*
X98402500Y-84117980D01*
X98422502Y-84049859D01*
X98439405Y-84028884D01*
X98898290Y-83569999D01*
X98858509Y-83530218D01*
X99057500Y-83530218D01*
X99057500Y-83609782D01*
X99087948Y-83683291D01*
X99144209Y-83739552D01*
X99217718Y-83770000D01*
X99297282Y-83770000D01*
X99370791Y-83739552D01*
X99427052Y-83683291D01*
X99457500Y-83609782D01*
X99457500Y-83569999D01*
X99616710Y-83569999D01*
X99616710Y-83570001D01*
X100019999Y-83973290D01*
X100020001Y-83973290D01*
X100423290Y-83570001D01*
X100423290Y-83569999D01*
X100383509Y-83530218D01*
X100582500Y-83530218D01*
X100582500Y-83609782D01*
X100612948Y-83683291D01*
X100669209Y-83739552D01*
X100742718Y-83770000D01*
X100822282Y-83770000D01*
X100895791Y-83739552D01*
X100952052Y-83683291D01*
X100982500Y-83609782D01*
X100982500Y-83530218D01*
X100952052Y-83456709D01*
X100895791Y-83400448D01*
X100822282Y-83370000D01*
X100742718Y-83370000D01*
X100669209Y-83400448D01*
X100612948Y-83456709D01*
X100582500Y-83530218D01*
X100383509Y-83530218D01*
X100020001Y-83166710D01*
X100019999Y-83166710D01*
X99616710Y-83569999D01*
X99457500Y-83569999D01*
X99457500Y-83530218D01*
X99427052Y-83456709D01*
X99370791Y-83400448D01*
X99297282Y-83370000D01*
X99217718Y-83370000D01*
X99144209Y-83400448D01*
X99087948Y-83456709D01*
X99057500Y-83530218D01*
X98858509Y-83530218D01*
X98439405Y-83111114D01*
X98424460Y-83083745D01*
X98407604Y-83057517D01*
X98406698Y-83051218D01*
X98405379Y-83048802D01*
X98402500Y-83022019D01*
X98402500Y-82985663D01*
X98455218Y-83007500D01*
X98534782Y-83007500D01*
X98608291Y-82977052D01*
X98664552Y-82920791D01*
X98695000Y-82847282D01*
X98695000Y-82807499D01*
X98854210Y-82807499D01*
X98854210Y-82807501D01*
X99257499Y-83210790D01*
X99257501Y-83210790D01*
X99660790Y-82807501D01*
X99660790Y-82807499D01*
X99621009Y-82767718D01*
X99820000Y-82767718D01*
X99820000Y-82847282D01*
X99850448Y-82920791D01*
X99906709Y-82977052D01*
X99980218Y-83007500D01*
X100059782Y-83007500D01*
X100133291Y-82977052D01*
X100189552Y-82920791D01*
X100220000Y-82847282D01*
X100220000Y-82807499D01*
X100379210Y-82807499D01*
X100379210Y-82807501D01*
X100782499Y-83210790D01*
X100782501Y-83210790D01*
X101185790Y-82807501D01*
X101185790Y-82807499D01*
X100782501Y-82404210D01*
X100782499Y-82404210D01*
X100379210Y-82807499D01*
X100220000Y-82807499D01*
X100220000Y-82767718D01*
X100189552Y-82694209D01*
X100133291Y-82637948D01*
X100059782Y-82607500D01*
X99980218Y-82607500D01*
X99906709Y-82637948D01*
X99850448Y-82694209D01*
X99820000Y-82767718D01*
X99621009Y-82767718D01*
X99257501Y-82404210D01*
X99257499Y-82404210D01*
X98854210Y-82807499D01*
X98695000Y-82807499D01*
X98695000Y-82767718D01*
X98664552Y-82694209D01*
X98608291Y-82637948D01*
X98534782Y-82607500D01*
X98455218Y-82607500D01*
X98402500Y-82629336D01*
X98402500Y-82592980D01*
X98422502Y-82524859D01*
X98439405Y-82503884D01*
X98898290Y-82044999D01*
X98858509Y-82005218D01*
X99057500Y-82005218D01*
X99057500Y-82084782D01*
X99087948Y-82158291D01*
X99144209Y-82214552D01*
X99217718Y-82245000D01*
X99297282Y-82245000D01*
X99370791Y-82214552D01*
X99427052Y-82158291D01*
X99457500Y-82084782D01*
X99457500Y-82044999D01*
X99616710Y-82044999D01*
X99616710Y-82045001D01*
X100019999Y-82448290D01*
X100020001Y-82448290D01*
X100423290Y-82045001D01*
X100423290Y-82044999D01*
X100383509Y-82005218D01*
X100582500Y-82005218D01*
X100582500Y-82084782D01*
X100612948Y-82158291D01*
X100669209Y-82214552D01*
X100742718Y-82245000D01*
X100822282Y-82245000D01*
X100895791Y-82214552D01*
X100952052Y-82158291D01*
X100982500Y-82084782D01*
X100982500Y-82005218D01*
X100952052Y-81931709D01*
X100895791Y-81875448D01*
X100822282Y-81845000D01*
X100742718Y-81845000D01*
X100669209Y-81875448D01*
X100612948Y-81931709D01*
X100582500Y-82005218D01*
X100383509Y-82005218D01*
X100020001Y-81641710D01*
X100019999Y-81641710D01*
X99616710Y-82044999D01*
X99457500Y-82044999D01*
X99457500Y-82005218D01*
X99427052Y-81931709D01*
X99370791Y-81875448D01*
X99297282Y-81845000D01*
X99217718Y-81845000D01*
X99144209Y-81875448D01*
X99087948Y-81931709D01*
X99057500Y-82005218D01*
X98858509Y-82005218D01*
X98439405Y-81586114D01*
X98405379Y-81523802D01*
X98402500Y-81497019D01*
X98402500Y-81246489D01*
X98818199Y-81246489D01*
X98818199Y-81246490D01*
X99257499Y-81685790D01*
X99257500Y-81685790D01*
X99696799Y-81246489D01*
X99696799Y-81246488D01*
X99687602Y-81240342D01*
X99522359Y-81171896D01*
X99522354Y-81171894D01*
X99346932Y-81137000D01*
X99168067Y-81137000D01*
X98992645Y-81171894D01*
X98992644Y-81171895D01*
X98827398Y-81240343D01*
X98818199Y-81246489D01*
X98402500Y-81246489D01*
X98402500Y-79663178D01*
X98407106Y-79647491D01*
X98406639Y-79631147D01*
X98416902Y-79614126D01*
X98422502Y-79595057D01*
X98434859Y-79584349D01*
X98443302Y-79570349D01*
X98461136Y-79561580D01*
X98476158Y-79548564D01*
X98492341Y-79546237D01*
X98507014Y-79539023D01*
X98526759Y-79541288D01*
X98546432Y-79538460D01*
X98561304Y-79545252D01*
G37*
%TD.AperFunction*%
%TA.AperFunction,Conductor*%
G36*
X92906802Y-60907910D02*
G01*
X92963639Y-60950455D01*
X92986350Y-61001382D01*
X92991528Y-61027411D01*
X93060013Y-61192747D01*
X93159437Y-61341546D01*
X93285980Y-61468089D01*
X93434779Y-61567513D01*
X93600115Y-61635998D01*
X93775636Y-61670911D01*
X93775637Y-61670911D01*
X93954593Y-61670911D01*
X93954594Y-61670911D01*
X94130115Y-61635998D01*
X94295451Y-61567513D01*
X94444250Y-61468089D01*
X94553841Y-61358497D01*
X94616149Y-61324475D01*
X94686965Y-61329539D01*
X94743801Y-61372086D01*
X94759341Y-61399375D01*
X94797533Y-61491575D01*
X94797533Y-61491576D01*
X94846574Y-61564971D01*
X94896958Y-61640376D01*
X94896960Y-61640378D01*
X94946789Y-61690207D01*
X94980815Y-61752519D01*
X94975750Y-61823334D01*
X94946790Y-61868397D01*
X94894320Y-61920867D01*
X94894319Y-61920869D01*
X94805006Y-62054537D01*
X94794898Y-62069664D01*
X94788916Y-62084106D01*
X94726414Y-62234996D01*
X94726413Y-62234999D01*
X94726413Y-62235000D01*
X94717507Y-62279771D01*
X94691500Y-62410518D01*
X94691500Y-62589481D01*
X94700085Y-62632640D01*
X94725452Y-62760171D01*
X94726414Y-62765003D01*
X94746473Y-62813429D01*
X94794898Y-62930336D01*
X94894322Y-63079135D01*
X94894324Y-63079137D01*
X94954595Y-63139408D01*
X94988621Y-63201720D01*
X94991500Y-63228503D01*
X94991500Y-72089500D01*
X94971498Y-72157621D01*
X94917842Y-72204114D01*
X94865500Y-72215500D01*
X94810518Y-72215500D01*
X94679771Y-72241507D01*
X94635000Y-72250413D01*
X94634999Y-72250413D01*
X94634996Y-72250414D01*
X94469662Y-72318899D01*
X94320869Y-72418319D01*
X94320862Y-72418324D01*
X94194324Y-72544862D01*
X94194319Y-72544869D01*
X94094899Y-72693662D01*
X94026414Y-72858996D01*
X94026413Y-72858999D01*
X94026413Y-72859000D01*
X94023140Y-72875456D01*
X93991500Y-73034518D01*
X93991500Y-73213481D01*
X93999813Y-73255271D01*
X94014651Y-73329870D01*
X94026414Y-73389003D01*
X94036788Y-73414048D01*
X94088387Y-73538618D01*
X94089103Y-73540345D01*
X94096692Y-73610935D01*
X94064913Y-73674422D01*
X94061790Y-73677659D01*
X93412080Y-74327370D01*
X93412075Y-74327376D01*
X93331969Y-74466123D01*
X93331967Y-74466129D01*
X93328700Y-74478324D01*
X93326751Y-74485599D01*
X93294795Y-74604862D01*
X93290500Y-74620890D01*
X93290500Y-77620477D01*
X93302268Y-77664398D01*
X93331965Y-77775229D01*
X93331970Y-77775241D01*
X93412075Y-77913987D01*
X93412083Y-77913997D01*
X94735002Y-79236916D01*
X94735006Y-79236919D01*
X94735009Y-79236922D01*
X94790707Y-79269079D01*
X94873764Y-79317032D01*
X95028525Y-79358500D01*
X95028526Y-79358500D01*
X95188747Y-79358500D01*
X95621497Y-79358500D01*
X95689618Y-79378502D01*
X95710592Y-79395405D01*
X95770865Y-79455678D01*
X95919664Y-79555102D01*
X96085000Y-79623587D01*
X96260521Y-79658500D01*
X96260522Y-79658500D01*
X96439478Y-79658500D01*
X96439479Y-79658500D01*
X96615000Y-79623587D01*
X96780336Y-79555102D01*
X96929135Y-79455678D01*
X96970405Y-79414408D01*
X97032717Y-79380382D01*
X97103532Y-79385447D01*
X97160368Y-79427994D01*
X97185179Y-79494514D01*
X97185500Y-79503503D01*
X97185500Y-87001761D01*
X97165498Y-87069882D01*
X97148595Y-87090856D01*
X95884856Y-88354595D01*
X95822544Y-88388621D01*
X95795761Y-88391500D01*
X93019889Y-88391500D01*
X93004611Y-88395593D01*
X92947592Y-88410871D01*
X92947592Y-88410872D01*
X92865128Y-88432968D01*
X92865126Y-88432968D01*
X92865122Y-88432970D01*
X92726376Y-88513075D01*
X92726370Y-88513080D01*
X92502477Y-88736972D01*
X92440165Y-88770997D01*
X92393672Y-88772325D01*
X92306489Y-88758517D01*
X92199046Y-88741500D01*
X92000954Y-88741500D01*
X91819115Y-88770300D01*
X91805294Y-88772489D01*
X91705436Y-88804935D01*
X91634468Y-88806962D01*
X91573670Y-88770300D01*
X91542345Y-88706587D01*
X91540500Y-88685102D01*
X91540500Y-87934239D01*
X91560502Y-87866118D01*
X91577405Y-87845144D01*
X92586915Y-86835634D01*
X92586921Y-86835628D01*
X92596476Y-86819078D01*
X92667032Y-86696872D01*
X92708500Y-86542111D01*
X92708500Y-61054239D01*
X92717283Y-61024325D01*
X92723911Y-60993856D01*
X92727726Y-60988758D01*
X92728502Y-60986118D01*
X92745398Y-60965150D01*
X92773679Y-60936869D01*
X92835987Y-60902846D01*
X92906802Y-60907910D01*
G37*
%TD.AperFunction*%
%TA.AperFunction,Conductor*%
G36*
X86925610Y-79901104D02*
G01*
X86982446Y-79943651D01*
X87005156Y-79994575D01*
X87010186Y-80019858D01*
X87010413Y-80021000D01*
X87078898Y-80186336D01*
X87178322Y-80335135D01*
X87178324Y-80335137D01*
X87238595Y-80395408D01*
X87272621Y-80457720D01*
X87275500Y-80484503D01*
X87275500Y-82753761D01*
X87255498Y-82821882D01*
X87238595Y-82842856D01*
X82550856Y-87530595D01*
X82488544Y-87564621D01*
X82461761Y-87567500D01*
X77257971Y-87567500D01*
X77225359Y-87563207D01*
X77220742Y-87561969D01*
X77220739Y-87561968D01*
X77142006Y-87540872D01*
X77142005Y-87540871D01*
X77098109Y-87529109D01*
X77065977Y-87520500D01*
X77065975Y-87520500D01*
X76257609Y-87520500D01*
X76189488Y-87500498D01*
X76142995Y-87446842D01*
X76132891Y-87376568D01*
X76145340Y-87337301D01*
X76183972Y-87261483D01*
X76250049Y-87058116D01*
X76283500Y-86846916D01*
X76283500Y-86633084D01*
X76250049Y-86421884D01*
X76250047Y-86421879D01*
X76250047Y-86421876D01*
X76250046Y-86421875D01*
X76230734Y-86362435D01*
X76228707Y-86291468D01*
X76265370Y-86230670D01*
X76329082Y-86199345D01*
X76350567Y-86197500D01*
X76948343Y-86197500D01*
X77016464Y-86217502D01*
X77062957Y-86271158D01*
X77073061Y-86341432D01*
X77043567Y-86406012D01*
X76987976Y-86443104D01*
X76945296Y-86457246D01*
X76796966Y-86548737D01*
X76796960Y-86548742D01*
X76673742Y-86671960D01*
X76673737Y-86671966D01*
X76582248Y-86820292D01*
X76527431Y-86985723D01*
X76527430Y-86985726D01*
X76517000Y-87087815D01*
X76517000Y-87133500D01*
X78483000Y-87133500D01*
X78483000Y-87087815D01*
X78472569Y-86985726D01*
X78472568Y-86985723D01*
X78417751Y-86820292D01*
X78326262Y-86671966D01*
X78326257Y-86671960D01*
X78203039Y-86548742D01*
X78203033Y-86548737D01*
X78054703Y-86457246D01*
X78012024Y-86443104D01*
X77953653Y-86402691D01*
X77926397Y-86337134D01*
X77938910Y-86267249D01*
X77987220Y-86215223D01*
X78051657Y-86197500D01*
X80353109Y-86197500D01*
X80353110Y-86197500D01*
X80353111Y-86197500D01*
X80444666Y-86172968D01*
X80507873Y-86156032D01*
X80646627Y-86075922D01*
X86792485Y-79930063D01*
X86854795Y-79896039D01*
X86925610Y-79901104D01*
G37*
%TD.AperFunction*%
%TA.AperFunction,Conductor*%
G36*
X85672408Y-78098502D02*
G01*
X85718901Y-78152158D01*
X85727864Y-78179914D01*
X85732989Y-78205675D01*
X85740413Y-78243002D01*
X85777073Y-78331505D01*
X85808898Y-78408336D01*
X85908322Y-78557135D01*
X86034865Y-78683678D01*
X86076799Y-78711697D01*
X86122326Y-78766173D01*
X86131175Y-78836616D01*
X86100534Y-78900660D01*
X86095892Y-78905557D01*
X80057856Y-84943595D01*
X79995544Y-84977621D01*
X79968761Y-84980500D01*
X76409000Y-84980500D01*
X76340879Y-84960498D01*
X76294386Y-84906842D01*
X76283000Y-84854500D01*
X76283000Y-84454000D01*
X75355703Y-84454000D01*
X75390925Y-84392993D01*
X75425000Y-84265826D01*
X75425000Y-84134174D01*
X75390925Y-84007007D01*
X75355703Y-83946000D01*
X76283000Y-83946000D01*
X76283000Y-83301414D01*
X76282999Y-83301402D01*
X76276494Y-83240906D01*
X76225444Y-83104035D01*
X76225444Y-83104034D01*
X76137904Y-82987095D01*
X76020965Y-82899555D01*
X75884093Y-82848505D01*
X75823597Y-82842000D01*
X75179000Y-82842000D01*
X75179000Y-83769297D01*
X75117993Y-83734075D01*
X74990826Y-83700000D01*
X74859174Y-83700000D01*
X74732007Y-83734075D01*
X74671000Y-83769297D01*
X74671000Y-82842000D01*
X74026402Y-82842000D01*
X73965906Y-82848505D01*
X73829035Y-82899555D01*
X73829034Y-82899555D01*
X73712095Y-82987095D01*
X73624555Y-83104034D01*
X73624555Y-83104035D01*
X73573505Y-83240906D01*
X73567000Y-83301402D01*
X73567000Y-83946000D01*
X74494297Y-83946000D01*
X74459075Y-84007007D01*
X74425000Y-84134174D01*
X74425000Y-84265826D01*
X74459075Y-84392993D01*
X74494297Y-84454000D01*
X73567000Y-84454000D01*
X73567000Y-84854500D01*
X73546998Y-84922621D01*
X73493342Y-84969114D01*
X73441000Y-84980500D01*
X73166679Y-84980500D01*
X73098558Y-84960498D01*
X73052065Y-84906842D01*
X73041961Y-84836568D01*
X73046846Y-84815563D01*
X73048295Y-84811101D01*
X73048298Y-84811097D01*
X73109512Y-84622700D01*
X73140500Y-84427046D01*
X73140500Y-84228954D01*
X73109512Y-84033300D01*
X73048298Y-83844903D01*
X72958366Y-83668402D01*
X72857969Y-83530218D01*
X72841928Y-83508139D01*
X72701860Y-83368071D01*
X72541601Y-83251636D01*
X72541600Y-83251635D01*
X72541598Y-83251634D01*
X72365097Y-83161702D01*
X72176700Y-83100488D01*
X71981046Y-83069500D01*
X71885043Y-83069500D01*
X71816922Y-83049498D01*
X71770429Y-82995842D01*
X71760325Y-82925568D01*
X71789819Y-82860988D01*
X71810982Y-82841564D01*
X71939858Y-82747930D01*
X72079930Y-82607858D01*
X72196366Y-82447598D01*
X72286298Y-82271097D01*
X72347512Y-82082700D01*
X72378500Y-81887046D01*
X72378500Y-81688954D01*
X72347512Y-81493300D01*
X72286298Y-81304903D01*
X72196366Y-81128402D01*
X72079930Y-80968142D01*
X72079928Y-80968139D01*
X71939860Y-80828071D01*
X71779601Y-80711636D01*
X71779600Y-80711635D01*
X71779598Y-80711634D01*
X71603097Y-80621702D01*
X71414700Y-80560488D01*
X71219046Y-80529500D01*
X71020954Y-80529500D01*
X71006433Y-80531799D01*
X70992206Y-80534053D01*
X70921795Y-80524953D01*
X70867482Y-80479230D01*
X70846510Y-80411402D01*
X70865538Y-80343002D01*
X70883397Y-80320514D01*
X73088508Y-78115405D01*
X73150820Y-78081379D01*
X73177603Y-78078500D01*
X85604287Y-78078500D01*
X85672408Y-78098502D01*
G37*
%TD.AperFunction*%
%TA.AperFunction,Conductor*%
G36*
X80746618Y-76574502D02*
G01*
X80767592Y-76591405D01*
X80822592Y-76646405D01*
X80856618Y-76708717D01*
X80851553Y-76779532D01*
X80809006Y-76836368D01*
X80742486Y-76861179D01*
X80733497Y-76861500D01*
X73655239Y-76861500D01*
X73587118Y-76841498D01*
X73540625Y-76787842D01*
X73530521Y-76717568D01*
X73560015Y-76652988D01*
X73566144Y-76646405D01*
X73621144Y-76591405D01*
X73683456Y-76557379D01*
X73710239Y-76554500D01*
X80678497Y-76554500D01*
X80746618Y-76574502D01*
G37*
%TD.AperFunction*%
%TA.AperFunction,Conductor*%
G36*
X89639882Y-72002502D02*
G01*
X89660856Y-72019405D01*
X90454595Y-72813144D01*
X90488621Y-72875456D01*
X90491500Y-72902239D01*
X90491500Y-72987481D01*
X90500857Y-73034521D01*
X90519135Y-73126413D01*
X90526414Y-73163003D01*
X90594901Y-73328344D01*
X90595417Y-73329308D01*
X90595534Y-73329870D01*
X90597267Y-73334054D01*
X90596473Y-73334382D01*
X90600777Y-73355058D01*
X90609972Y-73379707D01*
X90607895Y-73389253D01*
X90609886Y-73398815D01*
X90600474Y-73423374D01*
X90594883Y-73449081D01*
X90586153Y-73460743D01*
X90584480Y-73465110D01*
X90573392Y-73477792D01*
X90559994Y-73491191D01*
X90546593Y-73504591D01*
X90484285Y-73538618D01*
X90457497Y-73541498D01*
X66684401Y-73541498D01*
X66616280Y-73521496D01*
X66569787Y-73467840D01*
X66559683Y-73397566D01*
X66579636Y-73345496D01*
X66591102Y-73328336D01*
X66659587Y-73163000D01*
X66694500Y-72987479D01*
X66694500Y-72808521D01*
X66659587Y-72633000D01*
X66591102Y-72467664D01*
X66491678Y-72318865D01*
X66370408Y-72197595D01*
X66336382Y-72135283D01*
X66341447Y-72064468D01*
X66383994Y-72007632D01*
X66450514Y-71982821D01*
X66459503Y-71982500D01*
X89571761Y-71982500D01*
X89639882Y-72002502D01*
G37*
%TD.AperFunction*%
%TA.AperFunction,Conductor*%
G36*
X61575376Y-64010167D02*
G01*
X61575378Y-64010167D01*
X61613465Y-63957748D01*
X61637233Y-63911101D01*
X61685981Y-63859485D01*
X61754895Y-63842419D01*
X61822097Y-63865319D01*
X61866250Y-63920917D01*
X61875500Y-63968303D01*
X61875500Y-64707170D01*
X61865909Y-64755388D01*
X61864415Y-64758994D01*
X61864413Y-64758999D01*
X61829500Y-64934518D01*
X61829500Y-64982958D01*
X61809498Y-65051079D01*
X61755842Y-65097572D01*
X61685568Y-65107676D01*
X61620988Y-65078182D01*
X61601564Y-65057019D01*
X61488204Y-64900993D01*
X61337009Y-64749798D01*
X61337006Y-64749796D01*
X61337004Y-64749794D01*
X61248021Y-64685144D01*
X61164006Y-64624103D01*
X61162427Y-64623136D01*
X61161952Y-64622611D01*
X61160004Y-64621196D01*
X61160301Y-64620786D01*
X61114797Y-64570488D01*
X61103191Y-64500446D01*
X61131296Y-64435249D01*
X61159843Y-64410517D01*
X61159741Y-64410377D01*
X61161384Y-64409182D01*
X61162451Y-64408259D01*
X61163756Y-64407459D01*
X61216167Y-64369378D01*
X61216167Y-64369376D01*
X60576948Y-63730157D01*
X60644993Y-63711925D01*
X60759007Y-63646099D01*
X60852099Y-63553007D01*
X60917925Y-63438993D01*
X60936157Y-63370948D01*
X61575376Y-64010167D01*
G37*
%TD.AperFunction*%
%TA.AperFunction,Conductor*%
G36*
X59986075Y-63438993D02*
G01*
X60051901Y-63553007D01*
X60144993Y-63646099D01*
X60259007Y-63711925D01*
X60327051Y-63730157D01*
X59687831Y-64369378D01*
X59740247Y-64407461D01*
X59741566Y-64408270D01*
X59741962Y-64408708D01*
X59744258Y-64410376D01*
X59743907Y-64410858D01*
X59789199Y-64460915D01*
X59800809Y-64530956D01*
X59772708Y-64596155D01*
X59743925Y-64621098D01*
X59743996Y-64621196D01*
X59742862Y-64622019D01*
X59741580Y-64623131D01*
X59739998Y-64624100D01*
X59566995Y-64749794D01*
X59464018Y-64852771D01*
X59401706Y-64886796D01*
X59330890Y-64881730D01*
X59274054Y-64839184D01*
X59256871Y-64807715D01*
X59212889Y-64689796D01*
X59212886Y-64689792D01*
X59212886Y-64689791D01*
X59125261Y-64572738D01*
X59008207Y-64485112D01*
X59008203Y-64485110D01*
X58890291Y-64441131D01*
X58833455Y-64398585D01*
X58808645Y-64332064D01*
X58823737Y-64262690D01*
X58845226Y-64233983D01*
X58948206Y-64131004D01*
X59073894Y-63958009D01*
X59073902Y-63957992D01*
X59074854Y-63956441D01*
X59075377Y-63955967D01*
X59076804Y-63954004D01*
X59077216Y-63954303D01*
X59127497Y-63908804D01*
X59197537Y-63897189D01*
X59262738Y-63925285D01*
X59287485Y-63953842D01*
X59287624Y-63953742D01*
X59288794Y-63955353D01*
X59289726Y-63956428D01*
X59290536Y-63957750D01*
X59328620Y-64010167D01*
X59328621Y-64010168D01*
X59967841Y-63370947D01*
X59986075Y-63438993D01*
G37*
%TD.AperFunction*%
%TA.AperFunction,Conductor*%
G36*
X63410164Y-50373319D02*
G01*
X63456657Y-50426975D01*
X63466761Y-50497249D01*
X63437267Y-50561829D01*
X63431138Y-50568412D01*
X63256698Y-50742851D01*
X63256689Y-50742861D01*
X63096407Y-50951746D01*
X62964772Y-51179744D01*
X62964767Y-51179755D01*
X62864010Y-51423003D01*
X62795864Y-51677327D01*
X62761500Y-51938353D01*
X62761500Y-52201646D01*
X62795864Y-52462672D01*
X62795865Y-52462678D01*
X62795866Y-52462680D01*
X62864010Y-52716997D01*
X62964766Y-52960243D01*
X62964767Y-52960244D01*
X62964772Y-52960255D01*
X63096407Y-53188253D01*
X63096409Y-53188256D01*
X63096410Y-53188257D01*
X63164170Y-53276564D01*
X63256689Y-53397138D01*
X63256698Y-53397148D01*
X63442851Y-53583301D01*
X63442861Y-53583310D01*
X63442862Y-53583311D01*
X63651743Y-53743590D01*
X63678500Y-53759038D01*
X63727493Y-53810419D01*
X63741500Y-53868157D01*
X63741500Y-61939923D01*
X63721498Y-62008044D01*
X63667842Y-62054537D01*
X63597568Y-62064641D01*
X63532988Y-62035147D01*
X63513564Y-62013985D01*
X63509248Y-62008044D01*
X63443930Y-61918142D01*
X63443926Y-61918138D01*
X63443924Y-61918135D01*
X63303860Y-61778071D01*
X63143601Y-61661636D01*
X63143600Y-61661635D01*
X63143598Y-61661634D01*
X62967097Y-61571702D01*
X62778700Y-61510488D01*
X62583046Y-61479500D01*
X62384954Y-61479500D01*
X62189300Y-61510488D01*
X62189297Y-61510488D01*
X62189296Y-61510489D01*
X62000903Y-61571702D01*
X62000901Y-61571703D01*
X61824398Y-61661636D01*
X61664139Y-61778071D01*
X61524071Y-61918139D01*
X61407634Y-62078400D01*
X61406433Y-62080759D01*
X61405739Y-62081493D01*
X61405049Y-62082620D01*
X61404812Y-62082474D01*
X61357681Y-62132371D01*
X61288765Y-62149432D01*
X61221565Y-62126526D01*
X61220108Y-62125483D01*
X61163751Y-62084536D01*
X60973292Y-61987493D01*
X60973286Y-61987490D01*
X60770003Y-61921440D01*
X60558874Y-61888000D01*
X60345126Y-61888000D01*
X60133996Y-61921440D01*
X59930713Y-61987490D01*
X59930707Y-61987493D01*
X59740253Y-62084534D01*
X59687831Y-62122621D01*
X59687831Y-62122622D01*
X60327051Y-62761842D01*
X60259007Y-62780075D01*
X60144993Y-62845901D01*
X60051901Y-62938993D01*
X59986075Y-63053007D01*
X59967842Y-63121051D01*
X59328622Y-62481831D01*
X59328621Y-62481831D01*
X59290528Y-62534261D01*
X59289724Y-62535574D01*
X59289288Y-62535967D01*
X59287624Y-62538259D01*
X59287142Y-62537909D01*
X59237075Y-62583203D01*
X59167033Y-62594807D01*
X59101836Y-62566702D01*
X59076901Y-62537924D01*
X59076804Y-62537996D01*
X59075975Y-62536855D01*
X59074859Y-62535567D01*
X59073899Y-62534001D01*
X59073894Y-62533991D01*
X58948206Y-62360996D01*
X58948203Y-62360993D01*
X58948201Y-62360990D01*
X58797009Y-62209798D01*
X58797006Y-62209796D01*
X58797004Y-62209794D01*
X58624009Y-62084106D01*
X58612814Y-62078402D01*
X58492803Y-62017252D01*
X58441188Y-61968504D01*
X58424008Y-61905585D01*
X58370334Y-50577663D01*
X58390013Y-50509452D01*
X58443448Y-50462706D01*
X58479882Y-50452149D01*
X58671127Y-50426971D01*
X58692673Y-50424135D01*
X58692673Y-50424134D01*
X58692680Y-50424134D01*
X58940952Y-50357609D01*
X58973561Y-50353317D01*
X63342043Y-50353317D01*
X63410164Y-50373319D01*
G37*
%TD.AperFunction*%
%TA.AperFunction,Conductor*%
G36*
X115118656Y-52358447D02*
G01*
X115118001Y-52359101D01*
X115145213Y-52385921D01*
X115161056Y-52445457D01*
X115170325Y-53152996D01*
X115151217Y-53221373D01*
X115098175Y-53268565D01*
X115028040Y-53279589D01*
X114963078Y-53250944D01*
X114955241Y-53243742D01*
X114842435Y-53130936D01*
X114842432Y-53130934D01*
X114842430Y-53130932D01*
X114691625Y-53021366D01*
X114675806Y-53009873D01*
X114675805Y-53009872D01*
X114675803Y-53009871D01*
X114599486Y-52970985D01*
X114547873Y-52922239D01*
X114530807Y-52853324D01*
X114553708Y-52786122D01*
X114599488Y-52746453D01*
X114675541Y-52707701D01*
X114718372Y-52676582D01*
X114718372Y-52676581D01*
X114155773Y-52113982D01*
X114202292Y-52101518D01*
X114327708Y-52029110D01*
X114430110Y-51926708D01*
X114502518Y-51801292D01*
X114514982Y-51754773D01*
X115118656Y-52358447D01*
G37*
%TD.AperFunction*%
%TD*%
%TA.AperFunction,Conductor*%
%TO.N,GND2*%
G36*
X47888319Y-100934766D02*
G01*
X47888320Y-100934765D01*
X48075447Y-100706750D01*
X48075457Y-100706736D01*
X48277418Y-100404480D01*
X48277429Y-100404462D01*
X48280642Y-100398452D01*
X48329604Y-100348607D01*
X48397742Y-100333147D01*
X48463422Y-100356979D01*
X48505790Y-100412536D01*
X48514000Y-100456905D01*
X48514000Y-101975500D01*
X48494315Y-102042539D01*
X48441511Y-102088294D01*
X48390000Y-102099500D01*
X46701994Y-102099500D01*
X46634955Y-102079815D01*
X46589200Y-102027011D01*
X46579256Y-101957853D01*
X46608281Y-101894297D01*
X46654541Y-101860939D01*
X46683864Y-101848792D01*
X46683869Y-101848790D01*
X47004462Y-101677429D01*
X47004480Y-101677418D01*
X47306736Y-101475457D01*
X47306750Y-101475447D01*
X47534765Y-101288320D01*
X47534766Y-101288319D01*
X46655443Y-100408996D01*
X46747328Y-100447056D01*
X46846784Y-100447056D01*
X46938670Y-100408996D01*
X47008996Y-100338670D01*
X47047056Y-100246784D01*
X47047056Y-100147328D01*
X47008996Y-100055443D01*
X47888319Y-100934766D01*
G37*
%TD.AperFunction*%
%TA.AperFunction,Conductor*%
G36*
X46938668Y-99985115D02*
G01*
X46846784Y-99947056D01*
X46747328Y-99947056D01*
X46655442Y-99985116D01*
X46585116Y-100055442D01*
X46547056Y-100147328D01*
X46547056Y-100246784D01*
X46585115Y-100338668D01*
X46040698Y-99794251D01*
X46142330Y-99720412D01*
X46320412Y-99542330D01*
X46394251Y-99440698D01*
X46938668Y-99985115D01*
G37*
%TD.AperFunction*%
%TA.AperFunction,Conductor*%
G36*
X44159301Y-97205748D02*
G01*
X44057670Y-97279588D01*
X43879588Y-97457670D01*
X43805748Y-97559301D01*
X43261331Y-97014884D01*
X43353216Y-97052944D01*
X43452672Y-97052944D01*
X43544558Y-97014884D01*
X43614884Y-96944558D01*
X43652944Y-96852672D01*
X43652944Y-96753216D01*
X43614884Y-96661331D01*
X44159301Y-97205748D01*
G37*
%TD.AperFunction*%
%TA.AperFunction,Conductor*%
G36*
X46547056Y-96753216D02*
G01*
X46547056Y-96852672D01*
X46585116Y-96944558D01*
X46655442Y-97014884D01*
X46747328Y-97052944D01*
X46846784Y-97052944D01*
X46938665Y-97014885D01*
X46394251Y-97559300D01*
X46320412Y-97457670D01*
X46142330Y-97279588D01*
X46040698Y-97205748D01*
X46585116Y-96661330D01*
X46547056Y-96753216D01*
G37*
%TD.AperFunction*%
%TA.AperFunction,Conductor*%
G36*
X41692111Y-57952955D02*
G01*
X41692629Y-57952111D01*
X41696776Y-57954652D01*
X41696783Y-57954655D01*
X41696785Y-57954657D01*
X41762955Y-57988372D01*
X41894319Y-58055306D01*
X41894321Y-58055306D01*
X41894324Y-58055308D01*
X42105176Y-58123818D01*
X42324149Y-58158500D01*
X42324150Y-58158500D01*
X42545850Y-58158500D01*
X42545851Y-58158500D01*
X42738698Y-58127956D01*
X42807992Y-58136911D01*
X42845777Y-58162748D01*
X44086181Y-59403151D01*
X44119666Y-59464474D01*
X44122500Y-59490832D01*
X44122500Y-75815786D01*
X44149724Y-75952653D01*
X44149727Y-75952662D01*
X44203135Y-76081601D01*
X44203136Y-76081604D01*
X44280671Y-76197642D01*
X44280674Y-76197646D01*
X45863091Y-77780061D01*
X45896576Y-77841384D01*
X45893341Y-77906059D01*
X45884951Y-77931880D01*
X45851500Y-78143084D01*
X45851500Y-78356915D01*
X45884951Y-78568117D01*
X45951026Y-78771480D01*
X45951027Y-78771483D01*
X46048106Y-78962009D01*
X46173794Y-79135004D01*
X46324996Y-79286206D01*
X46427344Y-79360566D01*
X46481182Y-79399682D01*
X46523847Y-79455012D01*
X46529826Y-79524626D01*
X46497220Y-79586421D01*
X46481182Y-79600318D01*
X46412297Y-79650365D01*
X46324996Y-79713794D01*
X46324994Y-79713796D01*
X46324993Y-79713796D01*
X46173796Y-79864993D01*
X46048106Y-80037990D01*
X45951027Y-80228516D01*
X45951026Y-80228519D01*
X45884951Y-80431882D01*
X45851500Y-80643084D01*
X45851500Y-80856915D01*
X45884951Y-81068117D01*
X45951026Y-81271480D01*
X45951027Y-81271483D01*
X46048106Y-81462009D01*
X46173794Y-81635004D01*
X46324996Y-81786206D01*
X46427344Y-81860566D01*
X46481182Y-81899682D01*
X46523847Y-81955012D01*
X46529826Y-82024626D01*
X46497220Y-82086421D01*
X46481182Y-82100318D01*
X46412297Y-82150365D01*
X46324996Y-82213794D01*
X46324994Y-82213796D01*
X46324993Y-82213796D01*
X46173796Y-82364993D01*
X46048106Y-82537990D01*
X45951027Y-82728516D01*
X45951026Y-82728519D01*
X45884951Y-82931882D01*
X45851500Y-83143084D01*
X45851500Y-83356915D01*
X45884951Y-83568117D01*
X45951026Y-83771480D01*
X45951027Y-83771483D01*
X46048106Y-83962009D01*
X46173794Y-84135004D01*
X46324996Y-84286206D01*
X46427344Y-84360566D01*
X46481182Y-84399682D01*
X46523847Y-84455012D01*
X46529826Y-84524626D01*
X46497220Y-84586421D01*
X46481182Y-84600318D01*
X46412297Y-84650365D01*
X46324996Y-84713794D01*
X46324994Y-84713796D01*
X46324993Y-84713796D01*
X46173796Y-84864993D01*
X46048106Y-85037990D01*
X45951027Y-85228516D01*
X45951026Y-85228519D01*
X45884951Y-85431882D01*
X45851500Y-85643084D01*
X45851500Y-85856915D01*
X45884951Y-86068117D01*
X45951026Y-86271480D01*
X45951027Y-86271483D01*
X46048106Y-86462009D01*
X46173794Y-86635004D01*
X46324996Y-86786206D01*
X46410482Y-86848315D01*
X46481182Y-86899682D01*
X46523847Y-86955012D01*
X46529826Y-87024626D01*
X46497220Y-87086421D01*
X46481182Y-87100318D01*
X46412297Y-87150365D01*
X46324996Y-87213794D01*
X46324994Y-87213796D01*
X46324993Y-87213796D01*
X46173796Y-87364993D01*
X46048106Y-87537990D01*
X45951027Y-87728516D01*
X45951026Y-87728519D01*
X45884951Y-87931882D01*
X45851500Y-88143084D01*
X45851500Y-88356915D01*
X45884951Y-88568117D01*
X45951026Y-88771480D01*
X45951027Y-88771483D01*
X46048106Y-88962009D01*
X46173794Y-89135004D01*
X46324996Y-89286206D01*
X46427344Y-89360566D01*
X46481182Y-89399682D01*
X46523847Y-89455012D01*
X46529826Y-89524626D01*
X46497220Y-89586421D01*
X46481182Y-89600318D01*
X46412297Y-89650365D01*
X46324996Y-89713794D01*
X46324994Y-89713796D01*
X46324993Y-89713796D01*
X46173796Y-89864993D01*
X46048106Y-90037990D01*
X45951027Y-90228516D01*
X45951026Y-90228519D01*
X45884951Y-90431882D01*
X45851500Y-90643084D01*
X45851500Y-90856915D01*
X45884951Y-91068117D01*
X45951026Y-91271480D01*
X45951027Y-91271483D01*
X46042497Y-91451000D01*
X46048106Y-91462009D01*
X46173794Y-91635004D01*
X46324996Y-91786206D01*
X46497991Y-91911894D01*
X46591438Y-91959507D01*
X46688516Y-92008972D01*
X46688519Y-92008973D01*
X46790200Y-92042010D01*
X46891884Y-92075049D01*
X47103084Y-92108500D01*
X47103085Y-92108500D01*
X47566915Y-92108500D01*
X47566916Y-92108500D01*
X47778116Y-92075049D01*
X47981483Y-92008972D01*
X48172009Y-91911894D01*
X48317117Y-91806466D01*
X48382920Y-91782988D01*
X48450974Y-91798813D01*
X48499669Y-91848919D01*
X48514000Y-91906786D01*
X48514000Y-96543094D01*
X48494315Y-96610133D01*
X48441511Y-96655888D01*
X48372353Y-96665832D01*
X48308797Y-96636807D01*
X48280645Y-96601553D01*
X48277429Y-96595537D01*
X48277418Y-96595519D01*
X48075448Y-96293249D01*
X47888320Y-96065233D01*
X47888319Y-96065232D01*
X47008997Y-96944553D01*
X47047056Y-96852672D01*
X47047056Y-96753216D01*
X47008996Y-96661330D01*
X46938670Y-96591004D01*
X46846784Y-96552944D01*
X46747328Y-96552944D01*
X46655442Y-96591004D01*
X47534766Y-95711679D01*
X47534765Y-95711678D01*
X47306750Y-95524551D01*
X47004480Y-95322581D01*
X47004462Y-95322570D01*
X46683869Y-95151209D01*
X46683864Y-95151207D01*
X46347997Y-95012086D01*
X46000101Y-94906553D01*
X46000090Y-94906550D01*
X45643556Y-94835632D01*
X45281766Y-94800000D01*
X44918234Y-94800000D01*
X44556443Y-94835632D01*
X44199909Y-94906550D01*
X44199898Y-94906553D01*
X43852002Y-95012086D01*
X43516135Y-95151207D01*
X43516130Y-95151209D01*
X43195537Y-95322570D01*
X43195519Y-95322581D01*
X42893258Y-95524545D01*
X42893254Y-95524548D01*
X42665233Y-95711679D01*
X42665233Y-95711680D01*
X43544556Y-96591003D01*
X43452672Y-96552944D01*
X43353216Y-96552944D01*
X43261330Y-96591004D01*
X43191004Y-96661330D01*
X43152944Y-96753216D01*
X43152944Y-96852672D01*
X43191003Y-96944556D01*
X42311680Y-96065233D01*
X42311679Y-96065233D01*
X42124548Y-96293254D01*
X42124545Y-96293258D01*
X41922581Y-96595519D01*
X41922570Y-96595537D01*
X41751209Y-96916130D01*
X41751207Y-96916135D01*
X41739061Y-96945459D01*
X41695220Y-96999862D01*
X41628926Y-97021927D01*
X41561226Y-97004648D01*
X41513616Y-96953510D01*
X41500500Y-96898006D01*
X41500500Y-68300139D01*
X41520185Y-68233100D01*
X41572989Y-68187345D01*
X41642147Y-68177401D01*
X41697387Y-68199822D01*
X41711238Y-68209886D01*
X41907589Y-68309932D01*
X42117164Y-68378026D01*
X42334819Y-68412500D01*
X42555181Y-68412500D01*
X42772835Y-68378026D01*
X42982410Y-68309932D01*
X43178760Y-68209886D01*
X43242513Y-68163566D01*
X43242514Y-68163566D01*
X42615244Y-67536297D01*
X42657297Y-67525030D01*
X42782715Y-67452619D01*
X42885119Y-67350215D01*
X42957530Y-67224797D01*
X42968797Y-67182745D01*
X43596066Y-67810014D01*
X43596066Y-67810013D01*
X43642386Y-67746260D01*
X43742432Y-67549910D01*
X43810526Y-67340335D01*
X43845000Y-67122681D01*
X43845000Y-66902318D01*
X43810526Y-66684664D01*
X43742432Y-66475089D01*
X43642388Y-66278743D01*
X43596066Y-66214985D01*
X43596065Y-66214985D01*
X42968797Y-66842254D01*
X42957530Y-66800203D01*
X42885119Y-66674785D01*
X42782715Y-66572381D01*
X42657297Y-66499970D01*
X42615243Y-66488702D01*
X43242513Y-65861432D01*
X43178756Y-65815111D01*
X42982410Y-65715067D01*
X42772835Y-65646973D01*
X42555181Y-65612500D01*
X42334819Y-65612500D01*
X42117164Y-65646973D01*
X41907589Y-65715067D01*
X41711238Y-65815114D01*
X41697383Y-65825180D01*
X41631577Y-65848658D01*
X41563523Y-65832831D01*
X41514829Y-65782725D01*
X41500500Y-65724860D01*
X41500500Y-58055411D01*
X41520185Y-57988372D01*
X41572989Y-57942617D01*
X41642147Y-57932673D01*
X41692111Y-57952955D01*
G37*
%TD.AperFunction*%
%TA.AperFunction,Conductor*%
G36*
X53633703Y-54748698D02*
G01*
X53640181Y-54754730D01*
X56116181Y-57230730D01*
X56149666Y-57292053D01*
X56152500Y-57318411D01*
X56152500Y-64554890D01*
X56152500Y-64715110D01*
X56173234Y-64792491D01*
X56193968Y-64869874D01*
X56204065Y-64887362D01*
X56274078Y-65008627D01*
X56274080Y-65008629D01*
X56517181Y-65251730D01*
X56550666Y-65313053D01*
X56553500Y-65339411D01*
X56553500Y-66684654D01*
X56560011Y-66745202D01*
X56560011Y-66745204D01*
X56603605Y-66862081D01*
X56611111Y-66882204D01*
X56698739Y-66999261D01*
X56815796Y-67086889D01*
X56952799Y-67137989D01*
X56980050Y-67140918D01*
X57013345Y-67144499D01*
X57013362Y-67144500D01*
X57534000Y-67144500D01*
X57601039Y-67164185D01*
X57646794Y-67216989D01*
X57658000Y-67268500D01*
X57658000Y-73764089D01*
X57638315Y-73831128D01*
X57621681Y-73851770D01*
X57425080Y-74048370D01*
X57425076Y-74048376D01*
X57344967Y-74187126D01*
X57344968Y-74187126D01*
X57344968Y-74187127D01*
X57303500Y-74341889D01*
X57303500Y-86744000D01*
X57283815Y-86811039D01*
X57231011Y-86856794D01*
X57179500Y-86868000D01*
X48562572Y-86868000D01*
X48495533Y-86848315D01*
X48449778Y-86795511D01*
X48439834Y-86726353D01*
X48468859Y-86662797D01*
X48474891Y-86656319D01*
X48496206Y-86635004D01*
X48621894Y-86462009D01*
X48718972Y-86271483D01*
X48785049Y-86068116D01*
X48818500Y-85856916D01*
X48818500Y-85643084D01*
X48785049Y-85431884D01*
X48718972Y-85228517D01*
X48718972Y-85228516D01*
X48621893Y-85037990D01*
X48496206Y-84864996D01*
X48345004Y-84713794D01*
X48345000Y-84713791D01*
X48188818Y-84600318D01*
X48146152Y-84544988D01*
X48140173Y-84475375D01*
X48172779Y-84413580D01*
X48188818Y-84399682D01*
X48239200Y-84363076D01*
X48345004Y-84286206D01*
X48496206Y-84135004D01*
X48621894Y-83962009D01*
X48718972Y-83771483D01*
X48785049Y-83568116D01*
X48818500Y-83356916D01*
X48818500Y-83143084D01*
X48785049Y-82931884D01*
X48718972Y-82728517D01*
X48718972Y-82728516D01*
X48621893Y-82537990D01*
X48496206Y-82364996D01*
X48345004Y-82213794D01*
X48345000Y-82213791D01*
X48188818Y-82100318D01*
X48146152Y-82044988D01*
X48140173Y-81975375D01*
X48172779Y-81913580D01*
X48188818Y-81899682D01*
X48239200Y-81863076D01*
X48345004Y-81786206D01*
X48496206Y-81635004D01*
X48621894Y-81462009D01*
X48718972Y-81271483D01*
X48785049Y-81068116D01*
X48818500Y-80856916D01*
X48818500Y-80643084D01*
X48785049Y-80431884D01*
X48718972Y-80228517D01*
X48718972Y-80228516D01*
X48621893Y-80037990D01*
X48496206Y-79864996D01*
X48345004Y-79713794D01*
X48345000Y-79713791D01*
X48188818Y-79600318D01*
X48146152Y-79544988D01*
X48140173Y-79475375D01*
X48172779Y-79413580D01*
X48188818Y-79399682D01*
X48239200Y-79363076D01*
X48345004Y-79286206D01*
X48496206Y-79135004D01*
X48621894Y-78962009D01*
X48718972Y-78771483D01*
X48785049Y-78568116D01*
X48818500Y-78356916D01*
X48818500Y-78143084D01*
X48785049Y-77931884D01*
X48752010Y-77830200D01*
X48718973Y-77728519D01*
X48718972Y-77728516D01*
X48621893Y-77537990D01*
X48496206Y-77364996D01*
X48345004Y-77213794D01*
X48345000Y-77213791D01*
X48188818Y-77100318D01*
X48146152Y-77044988D01*
X48140173Y-76975375D01*
X48172779Y-76913580D01*
X48188818Y-76899682D01*
X48239200Y-76863076D01*
X48345004Y-76786206D01*
X48496206Y-76635004D01*
X48621894Y-76462009D01*
X48718972Y-76271483D01*
X48785049Y-76068116D01*
X48818500Y-75856916D01*
X48818500Y-75643084D01*
X48785049Y-75431884D01*
X48718972Y-75228517D01*
X48718972Y-75228516D01*
X48621893Y-75037990D01*
X48496206Y-74864996D01*
X48357929Y-74726719D01*
X48324444Y-74665396D01*
X48329428Y-74595704D01*
X48371300Y-74539771D01*
X48380513Y-74533499D01*
X48528345Y-74442315D01*
X48652315Y-74318345D01*
X48744356Y-74169124D01*
X48744358Y-74169119D01*
X48799505Y-74002697D01*
X48799506Y-74002690D01*
X48809999Y-73899986D01*
X48810000Y-73899973D01*
X48810000Y-73500000D01*
X47739146Y-73500000D01*
X47777630Y-73433343D01*
X47810000Y-73312535D01*
X47810000Y-73187465D01*
X47777630Y-73066657D01*
X47739146Y-73000000D01*
X48809999Y-73000000D01*
X48809999Y-72600028D01*
X48809998Y-72600013D01*
X48799505Y-72497302D01*
X48744358Y-72330880D01*
X48744356Y-72330875D01*
X48652315Y-72181654D01*
X48528345Y-72057684D01*
X48379124Y-71965643D01*
X48379119Y-71965641D01*
X48212697Y-71910494D01*
X48212690Y-71910493D01*
X48109986Y-71900000D01*
X47585000Y-71900000D01*
X47585000Y-72845854D01*
X47518343Y-72807370D01*
X47397535Y-72775000D01*
X47272465Y-72775000D01*
X47151657Y-72807370D01*
X47085000Y-72845854D01*
X47085000Y-71900000D01*
X46560028Y-71900000D01*
X46560012Y-71900001D01*
X46457302Y-71910494D01*
X46290880Y-71965641D01*
X46290875Y-71965643D01*
X46141654Y-72057684D01*
X46017684Y-72181654D01*
X45925643Y-72330875D01*
X45925641Y-72330880D01*
X45870494Y-72497302D01*
X45870493Y-72497309D01*
X45860000Y-72600013D01*
X45860000Y-73000000D01*
X46930854Y-73000000D01*
X46892370Y-73066657D01*
X46860000Y-73187465D01*
X46860000Y-73312535D01*
X46892370Y-73433343D01*
X46930854Y-73500000D01*
X45860001Y-73500000D01*
X45860001Y-73899986D01*
X45870494Y-74002697D01*
X45925641Y-74169119D01*
X45925643Y-74169124D01*
X46017684Y-74318345D01*
X46141654Y-74442315D01*
X46289486Y-74533499D01*
X46336210Y-74585447D01*
X46347433Y-74654410D01*
X46319589Y-74718492D01*
X46312071Y-74726719D01*
X46173793Y-74864997D01*
X46048106Y-75037990D01*
X45951027Y-75228516D01*
X45951026Y-75228519D01*
X45884951Y-75431882D01*
X45872965Y-75507558D01*
X45867572Y-75518933D01*
X45866674Y-75531493D01*
X45852887Y-75549908D01*
X45843035Y-75570692D01*
X45832347Y-75577346D01*
X45824802Y-75587426D01*
X45803251Y-75595464D01*
X45783724Y-75607623D01*
X45771134Y-75607443D01*
X45759338Y-75611843D01*
X45736861Y-75606953D01*
X45713861Y-75606625D01*
X45701733Y-75599311D01*
X45691065Y-75596991D01*
X45662811Y-75575840D01*
X45575819Y-75488848D01*
X45542334Y-75427525D01*
X45539500Y-75401167D01*
X45539500Y-67422986D01*
X50670001Y-67422986D01*
X50680494Y-67525697D01*
X50735641Y-67692119D01*
X50735643Y-67692124D01*
X50827684Y-67841345D01*
X50951654Y-67965315D01*
X51100875Y-68057356D01*
X51100880Y-68057358D01*
X51267302Y-68112505D01*
X51267309Y-68112506D01*
X51370019Y-68122999D01*
X51819999Y-68122999D01*
X52320000Y-68122999D01*
X52769972Y-68122999D01*
X52769986Y-68122998D01*
X52872697Y-68112505D01*
X53039119Y-68057358D01*
X53039124Y-68057356D01*
X53188345Y-67965315D01*
X53312315Y-67841345D01*
X53404356Y-67692124D01*
X53404358Y-67692119D01*
X53459505Y-67525697D01*
X53459506Y-67525690D01*
X53469999Y-67422986D01*
X53470000Y-67422973D01*
X53470000Y-66123000D01*
X52320000Y-66123000D01*
X52320000Y-68122999D01*
X51819999Y-68122999D01*
X51820000Y-68122998D01*
X51820000Y-66123000D01*
X50670001Y-66123000D01*
X50670001Y-67422986D01*
X45539500Y-67422986D01*
X45539500Y-63401649D01*
X46036500Y-63401649D01*
X46036500Y-63623351D01*
X46040103Y-63646099D01*
X46071182Y-63842324D01*
X46139693Y-64053180D01*
X46224847Y-64220302D01*
X46240343Y-64250715D01*
X46370657Y-64430076D01*
X46527424Y-64586843D01*
X46706785Y-64717157D01*
X46800114Y-64764710D01*
X46904319Y-64817806D01*
X46904321Y-64817806D01*
X46904324Y-64817808D01*
X47115176Y-64886318D01*
X47334149Y-64921000D01*
X47334150Y-64921000D01*
X47555850Y-64921000D01*
X47555851Y-64921000D01*
X47774824Y-64886318D01*
X47985676Y-64817808D01*
X48183215Y-64717157D01*
X48362576Y-64586843D01*
X48519343Y-64430076D01*
X48597129Y-64323013D01*
X50670000Y-64323013D01*
X50670000Y-65623000D01*
X51820000Y-65623000D01*
X52320000Y-65623000D01*
X53469999Y-65623000D01*
X53469999Y-64323028D01*
X53469998Y-64323013D01*
X53459505Y-64220302D01*
X53404358Y-64053880D01*
X53404356Y-64053875D01*
X53312315Y-63904654D01*
X53188345Y-63780684D01*
X53039124Y-63688643D01*
X53039119Y-63688641D01*
X52872697Y-63633494D01*
X52872690Y-63633493D01*
X52769986Y-63623000D01*
X52320000Y-63623000D01*
X52320000Y-65623000D01*
X51820000Y-65623000D01*
X51820000Y-63623000D01*
X51370028Y-63623000D01*
X51370012Y-63623001D01*
X51267302Y-63633494D01*
X51100880Y-63688641D01*
X51100875Y-63688643D01*
X50951654Y-63780684D01*
X50827684Y-63904654D01*
X50735643Y-64053875D01*
X50735641Y-64053880D01*
X50680494Y-64220302D01*
X50680493Y-64220309D01*
X50670000Y-64323013D01*
X48597129Y-64323013D01*
X48649657Y-64250715D01*
X48750308Y-64053176D01*
X48818818Y-63842324D01*
X48853500Y-63623351D01*
X48853500Y-63401649D01*
X48818818Y-63182676D01*
X48750308Y-62971824D01*
X48750306Y-62971821D01*
X48750306Y-62971819D01*
X48649656Y-62774284D01*
X48519343Y-62594924D01*
X48362576Y-62438157D01*
X48183215Y-62307843D01*
X47985680Y-62207193D01*
X47774824Y-62138682D01*
X47555851Y-62104000D01*
X47334149Y-62104000D01*
X47224662Y-62121341D01*
X47115175Y-62138682D01*
X46904319Y-62207193D01*
X46706784Y-62307843D01*
X46604452Y-62382192D01*
X46527424Y-62438157D01*
X46527422Y-62438159D01*
X46527421Y-62438159D01*
X46370659Y-62594921D01*
X46370659Y-62594922D01*
X46370657Y-62594924D01*
X46314692Y-62671952D01*
X46240343Y-62774284D01*
X46139693Y-62971819D01*
X46087810Y-63131499D01*
X46071182Y-63182676D01*
X46036500Y-63401649D01*
X45539500Y-63401649D01*
X45539500Y-59076218D01*
X45539499Y-59076214D01*
X45512274Y-58939344D01*
X45512273Y-58939338D01*
X45490150Y-58885930D01*
X45458865Y-58810400D01*
X45381328Y-58694358D01*
X45381325Y-58694354D01*
X44557151Y-57870181D01*
X44523666Y-57808858D01*
X44528650Y-57739167D01*
X44570522Y-57683233D01*
X44635986Y-57658816D01*
X44644832Y-57658500D01*
X47027521Y-57658500D01*
X47519325Y-57658500D01*
X47586364Y-57678185D01*
X47607006Y-57694819D01*
X50625181Y-60712994D01*
X50658666Y-60774317D01*
X50661500Y-60800675D01*
X50661500Y-62423537D01*
X50661501Y-62423553D01*
X50672113Y-62527427D01*
X50694479Y-62594924D01*
X50727885Y-62695738D01*
X50820970Y-62846652D01*
X50946348Y-62972030D01*
X51097262Y-63065115D01*
X51265574Y-63120887D01*
X51369455Y-63131500D01*
X52770544Y-63131499D01*
X52874426Y-63120887D01*
X53042738Y-63065115D01*
X53193652Y-62972030D01*
X53319030Y-62846652D01*
X53412115Y-62695738D01*
X53467887Y-62527426D01*
X53478500Y-62423545D01*
X53478499Y-59322456D01*
X53467887Y-59218574D01*
X53412115Y-59050262D01*
X53319030Y-58899348D01*
X53193652Y-58773970D01*
X53042738Y-58680885D01*
X53042735Y-58680884D01*
X52916922Y-58639194D01*
X52859477Y-58599421D01*
X52832654Y-58534905D01*
X52832430Y-58519983D01*
X52199408Y-57886962D01*
X52262993Y-57869925D01*
X52377007Y-57804099D01*
X52470099Y-57711007D01*
X52535925Y-57596993D01*
X52552962Y-57533409D01*
X53185270Y-58165717D01*
X53185270Y-58165716D01*
X53224622Y-58111554D01*
X53321095Y-57922217D01*
X53386757Y-57720130D01*
X53386757Y-57720127D01*
X53420000Y-57510246D01*
X53420000Y-57297753D01*
X53386757Y-57087872D01*
X53386757Y-57087869D01*
X53321095Y-56885782D01*
X53224624Y-56696449D01*
X53185270Y-56642282D01*
X53185269Y-56642282D01*
X52552962Y-57274590D01*
X52535925Y-57211007D01*
X52470099Y-57096993D01*
X52377007Y-57003901D01*
X52262993Y-56938075D01*
X52199409Y-56921037D01*
X52831716Y-56288728D01*
X52777547Y-56249373D01*
X52777545Y-56249371D01*
X52777308Y-56249251D01*
X52777234Y-56249181D01*
X52773396Y-56246829D01*
X52773890Y-56246022D01*
X52726515Y-56201274D01*
X52709724Y-56133451D01*
X52732266Y-56067318D01*
X52777319Y-56028283D01*
X52782009Y-56025894D01*
X52955004Y-55900206D01*
X53106206Y-55749004D01*
X53231894Y-55576009D01*
X53328972Y-55385483D01*
X53395049Y-55182116D01*
X53428500Y-54970916D01*
X53428500Y-54842411D01*
X53448185Y-54775372D01*
X53500989Y-54729617D01*
X53570147Y-54719673D01*
X53633703Y-54748698D01*
G37*
%TD.AperFunction*%
%TA.AperFunction,Conductor*%
G36*
X48509364Y-43678185D02*
G01*
X48555119Y-43730989D01*
X48565063Y-43800147D01*
X48536038Y-43863703D01*
X48530006Y-43870181D01*
X47595005Y-44805181D01*
X47533682Y-44838666D01*
X47507324Y-44841500D01*
X47324149Y-44841500D01*
X47214662Y-44858841D01*
X47105175Y-44876182D01*
X46894319Y-44944693D01*
X46696784Y-45045343D01*
X46615363Y-45104500D01*
X46517424Y-45175657D01*
X46517422Y-45175659D01*
X46517421Y-45175659D01*
X46360659Y-45332421D01*
X46360659Y-45332422D01*
X46360657Y-45332424D01*
X46356567Y-45338054D01*
X46230343Y-45511784D01*
X46129693Y-45709319D01*
X46061182Y-45920175D01*
X46026500Y-46139149D01*
X46026500Y-46360850D01*
X46061182Y-46579824D01*
X46129693Y-46790680D01*
X46204088Y-46936687D01*
X46230343Y-46988215D01*
X46360657Y-47167576D01*
X46517424Y-47324343D01*
X46696785Y-47454657D01*
X46790114Y-47502210D01*
X46894319Y-47555306D01*
X46894321Y-47555306D01*
X46894324Y-47555308D01*
X47105176Y-47623818D01*
X47324149Y-47658500D01*
X47324150Y-47658500D01*
X47545850Y-47658500D01*
X47545851Y-47658500D01*
X47764824Y-47623818D01*
X47975676Y-47555308D01*
X48173215Y-47454657D01*
X48352576Y-47324343D01*
X48509343Y-47167576D01*
X48639657Y-46988215D01*
X48740308Y-46790676D01*
X48808818Y-46579824D01*
X48843500Y-46360851D01*
X48843500Y-46177674D01*
X48863185Y-46110635D01*
X48879819Y-46089993D01*
X49828994Y-45140819D01*
X49890317Y-45107334D01*
X49916675Y-45104500D01*
X50959243Y-45104500D01*
X51026282Y-45124185D01*
X51072037Y-45176989D01*
X51081981Y-45246147D01*
X51052956Y-45309703D01*
X51046924Y-45316181D01*
X51025057Y-45338047D01*
X51025051Y-45338054D01*
X50884730Y-45520925D01*
X50884724Y-45520934D01*
X50769465Y-45720566D01*
X50769460Y-45720576D01*
X50681256Y-45933520D01*
X50681252Y-45933533D01*
X50621588Y-46156201D01*
X50591500Y-46384734D01*
X50591500Y-46615265D01*
X50621588Y-46843798D01*
X50621589Y-46843802D01*
X50660284Y-46988215D01*
X50681252Y-47066466D01*
X50681256Y-47066479D01*
X50769460Y-47279423D01*
X50769465Y-47279433D01*
X50884724Y-47479066D01*
X50884729Y-47479072D01*
X50884730Y-47479074D01*
X51025051Y-47661945D01*
X51025057Y-47661952D01*
X51188047Y-47824942D01*
X51188053Y-47824947D01*
X51370934Y-47965276D01*
X51570567Y-48080535D01*
X51570572Y-48080537D01*
X51570576Y-48080539D01*
X51783520Y-48168743D01*
X51783525Y-48168744D01*
X51783536Y-48168749D01*
X52006198Y-48228411D01*
X52234742Y-48258500D01*
X52234749Y-48258500D01*
X52465251Y-48258500D01*
X52465258Y-48258500D01*
X52693802Y-48228411D01*
X52916464Y-48168749D01*
X52916476Y-48168743D01*
X52916479Y-48168743D01*
X53129423Y-48080539D01*
X53129421Y-48080539D01*
X53129433Y-48080535D01*
X53329066Y-47965276D01*
X53511947Y-47824947D01*
X53674947Y-47661947D01*
X53815276Y-47479066D01*
X53930535Y-47279433D01*
X54018749Y-47066464D01*
X54078411Y-46843802D01*
X54108500Y-46615258D01*
X54108500Y-46384742D01*
X54105354Y-46360850D01*
X54078411Y-46156201D01*
X54078411Y-46156198D01*
X54018749Y-45933536D01*
X54018744Y-45933525D01*
X54018743Y-45933520D01*
X53930539Y-45720576D01*
X53930534Y-45720566D01*
X53815276Y-45520934D01*
X53674947Y-45338053D01*
X53674942Y-45338047D01*
X53653076Y-45316181D01*
X53619591Y-45254858D01*
X53624575Y-45185166D01*
X53666447Y-45129233D01*
X53731911Y-45104816D01*
X53740757Y-45104500D01*
X55894325Y-45104500D01*
X55961364Y-45124185D01*
X55982006Y-45140819D01*
X57155181Y-46313994D01*
X57188666Y-46375317D01*
X57191500Y-46401675D01*
X57191500Y-46707773D01*
X57171815Y-46774812D01*
X57142986Y-46806149D01*
X56972863Y-46936687D01*
X56972856Y-46936693D01*
X56786693Y-47122856D01*
X56786687Y-47122863D01*
X56626409Y-47331743D01*
X56494769Y-47559749D01*
X56494761Y-47559765D01*
X56394009Y-47803004D01*
X56325865Y-48057321D01*
X56291501Y-48318346D01*
X56291500Y-48318362D01*
X56291500Y-48581637D01*
X56291501Y-48581653D01*
X56325865Y-48842678D01*
X56394009Y-49096995D01*
X56494761Y-49340234D01*
X56494769Y-49340250D01*
X56626409Y-49568256D01*
X56786687Y-49777136D01*
X56786693Y-49777143D01*
X56972856Y-49963306D01*
X56972863Y-49963312D01*
X57181743Y-50123590D01*
X57409749Y-50255230D01*
X57409754Y-50255232D01*
X57409757Y-50255234D01*
X57556369Y-50315963D01*
X57581453Y-50326353D01*
X57635856Y-50370194D01*
X57657921Y-50436488D01*
X57658000Y-50440914D01*
X57658000Y-61818964D01*
X57651036Y-61842678D01*
X57648219Y-61867234D01*
X57641364Y-61875615D01*
X57638315Y-61886003D01*
X57619637Y-61902187D01*
X57603990Y-61921323D01*
X57589111Y-61928637D01*
X57585511Y-61931758D01*
X57572317Y-61936895D01*
X57531817Y-61950054D01*
X57461976Y-61952049D01*
X57402144Y-61915968D01*
X57371316Y-61853267D01*
X57369500Y-61832123D01*
X57369500Y-56934891D01*
X57369500Y-56934889D01*
X57328032Y-56780128D01*
X57258977Y-56660521D01*
X57247922Y-56641373D01*
X53464819Y-52858270D01*
X53431334Y-52796947D01*
X53428500Y-52770589D01*
X53428500Y-51425362D01*
X53428499Y-51425345D01*
X53425157Y-51394270D01*
X53421989Y-51364799D01*
X53370889Y-51227796D01*
X53283261Y-51110739D01*
X53166204Y-51023111D01*
X53029203Y-50972011D01*
X52968654Y-50965500D01*
X52968638Y-50965500D01*
X51171362Y-50965500D01*
X51171345Y-50965500D01*
X51110797Y-50972011D01*
X51110795Y-50972011D01*
X50973795Y-51023111D01*
X50856739Y-51110739D01*
X50769111Y-51227795D01*
X50718011Y-51364795D01*
X50718011Y-51364797D01*
X50711500Y-51425345D01*
X50711500Y-52346325D01*
X50691815Y-52413364D01*
X50675181Y-52434006D01*
X47304006Y-55805181D01*
X47242683Y-55838666D01*
X47216325Y-55841500D01*
X43569781Y-55841500D01*
X43502742Y-55821815D01*
X43482100Y-55805181D01*
X43352578Y-55675659D01*
X43352576Y-55675657D01*
X43173215Y-55545343D01*
X42975680Y-55444693D01*
X42764824Y-55376182D01*
X42545851Y-55341500D01*
X42324149Y-55341500D01*
X42214662Y-55358841D01*
X42105175Y-55376182D01*
X41894319Y-55444693D01*
X41696776Y-55545347D01*
X41692629Y-55547889D01*
X41691983Y-55546836D01*
X41631570Y-55568386D01*
X41563517Y-55552556D01*
X41514826Y-55502447D01*
X41500500Y-55444588D01*
X41500500Y-53139818D01*
X46035000Y-53139818D01*
X46035000Y-53360181D01*
X46069473Y-53577835D01*
X46137567Y-53787410D01*
X46237611Y-53983756D01*
X46283932Y-54047513D01*
X46911202Y-53420243D01*
X46922470Y-53462297D01*
X46994881Y-53587715D01*
X47097285Y-53690119D01*
X47222703Y-53762530D01*
X47264754Y-53773797D01*
X46637485Y-54401065D01*
X46637485Y-54401066D01*
X46701243Y-54447388D01*
X46897589Y-54547432D01*
X47107164Y-54615526D01*
X47324819Y-54650000D01*
X47545181Y-54650000D01*
X47762835Y-54615526D01*
X47972410Y-54547432D01*
X48168760Y-54447386D01*
X48232513Y-54401066D01*
X48232514Y-54401066D01*
X47605244Y-53773797D01*
X47647297Y-53762530D01*
X47772715Y-53690119D01*
X47875119Y-53587715D01*
X47947530Y-53462297D01*
X47958797Y-53420245D01*
X48586066Y-54047514D01*
X48586066Y-54047513D01*
X48632386Y-53983760D01*
X48732432Y-53787410D01*
X48800526Y-53577835D01*
X48835000Y-53360181D01*
X48835000Y-53139818D01*
X48800526Y-52922164D01*
X48732432Y-52712589D01*
X48632388Y-52516243D01*
X48586066Y-52452485D01*
X48586065Y-52452485D01*
X47958797Y-53079754D01*
X47947530Y-53037703D01*
X47875119Y-52912285D01*
X47772715Y-52809881D01*
X47647297Y-52737470D01*
X47605243Y-52726201D01*
X48232513Y-52098932D01*
X48168756Y-52052611D01*
X47972410Y-51952567D01*
X47762835Y-51884473D01*
X47545181Y-51850000D01*
X47324819Y-51850000D01*
X47107164Y-51884473D01*
X46897589Y-51952567D01*
X46701233Y-52052616D01*
X46637485Y-52098931D01*
X46637485Y-52098932D01*
X47264755Y-52726202D01*
X47222703Y-52737470D01*
X47097285Y-52809881D01*
X46994881Y-52912285D01*
X46922470Y-53037703D01*
X46911202Y-53079755D01*
X46283932Y-52452485D01*
X46283931Y-52452485D01*
X46237616Y-52516233D01*
X46137567Y-52712589D01*
X46069473Y-52922164D01*
X46035000Y-53139818D01*
X41500500Y-53139818D01*
X41500500Y-51044904D01*
X41520185Y-50977865D01*
X41572989Y-50932110D01*
X41642147Y-50922166D01*
X41697393Y-50944591D01*
X41701241Y-50947387D01*
X41897589Y-51047432D01*
X42107164Y-51115526D01*
X42324819Y-51150000D01*
X42545181Y-51150000D01*
X42762835Y-51115526D01*
X42972410Y-51047432D01*
X43168760Y-50947386D01*
X43232513Y-50901066D01*
X43232514Y-50901066D01*
X42605244Y-50273797D01*
X42647297Y-50262530D01*
X42772715Y-50190119D01*
X42875119Y-50087715D01*
X42947530Y-49962297D01*
X42958797Y-49920244D01*
X43586066Y-50547514D01*
X43586066Y-50547513D01*
X43632386Y-50483760D01*
X43732432Y-50287410D01*
X43800526Y-50077835D01*
X43835000Y-49860181D01*
X43835000Y-49639818D01*
X43800526Y-49422164D01*
X43732432Y-49212589D01*
X43632388Y-49016243D01*
X43586066Y-48952485D01*
X43586065Y-48952485D01*
X42958797Y-49579754D01*
X42947530Y-49537703D01*
X42875119Y-49412285D01*
X42772715Y-49309881D01*
X42647297Y-49237470D01*
X42605243Y-49226202D01*
X43232513Y-48598932D01*
X43168756Y-48552611D01*
X42972410Y-48452567D01*
X42762835Y-48384473D01*
X42545181Y-48350000D01*
X42324819Y-48350000D01*
X42107164Y-48384473D01*
X41897589Y-48452567D01*
X41701237Y-48552614D01*
X41697384Y-48555414D01*
X41631578Y-48578893D01*
X41563524Y-48563067D01*
X41514830Y-48512961D01*
X41500500Y-48455095D01*
X41500500Y-44055411D01*
X41520185Y-43988372D01*
X41572989Y-43942617D01*
X41642147Y-43932673D01*
X41692111Y-43952955D01*
X41692629Y-43952111D01*
X41696776Y-43954652D01*
X41696783Y-43954655D01*
X41696785Y-43954657D01*
X41762955Y-43988372D01*
X41894319Y-44055306D01*
X41894321Y-44055306D01*
X41894324Y-44055308D01*
X42105176Y-44123818D01*
X42324149Y-44158500D01*
X42324150Y-44158500D01*
X42545850Y-44158500D01*
X42545851Y-44158500D01*
X42764824Y-44123818D01*
X42975676Y-44055308D01*
X43173215Y-43954657D01*
X43352576Y-43824343D01*
X43482100Y-43694819D01*
X43543423Y-43661334D01*
X43569781Y-43658500D01*
X48442325Y-43658500D01*
X48509364Y-43678185D01*
G37*
%TD.AperFunction*%
%TA.AperFunction,Conductor*%
G36*
X50672001Y-55109325D02*
G01*
X50727934Y-55151197D01*
X50746598Y-55187189D01*
X50811026Y-55385480D01*
X50811027Y-55385483D01*
X50893778Y-55547889D01*
X50908106Y-55576009D01*
X51033794Y-55749004D01*
X51184996Y-55900206D01*
X51357991Y-56025894D01*
X51362680Y-56028283D01*
X51413478Y-56076254D01*
X51430276Y-56144074D01*
X51407742Y-56210210D01*
X51366205Y-56246209D01*
X51366590Y-56246838D01*
X51362804Y-56249157D01*
X51362702Y-56249246D01*
X51362449Y-56249374D01*
X51362440Y-56249380D01*
X51308282Y-56288727D01*
X51308282Y-56288728D01*
X51940591Y-56921037D01*
X51877007Y-56938075D01*
X51762993Y-57003901D01*
X51669901Y-57096993D01*
X51604075Y-57211007D01*
X51587037Y-57274591D01*
X50954728Y-56642282D01*
X50954727Y-56642282D01*
X50915380Y-56696439D01*
X50818904Y-56885782D01*
X50753242Y-57087869D01*
X50753242Y-57087872D01*
X50720000Y-57297753D01*
X50720000Y-57510246D01*
X50753242Y-57720127D01*
X50753242Y-57720130D01*
X50818904Y-57922217D01*
X50894462Y-58070507D01*
X50907358Y-58139176D01*
X50881082Y-58203917D01*
X50823975Y-58244174D01*
X50754170Y-58247166D01*
X50696296Y-58214483D01*
X49167994Y-56686181D01*
X49134509Y-56624858D01*
X49139493Y-56555166D01*
X49167994Y-56510819D01*
X49846389Y-55832424D01*
X50540988Y-55137824D01*
X50602309Y-55104341D01*
X50672001Y-55109325D01*
G37*
%TD.AperFunction*%
%TA.AperFunction,Conductor*%
G36*
X57601039Y-27920185D02*
G01*
X57646794Y-27972989D01*
X57658000Y-28024500D01*
X57658000Y-32434580D01*
X57638315Y-32501619D01*
X57585511Y-32547374D01*
X57516353Y-32557318D01*
X57472001Y-32541968D01*
X57390245Y-32494767D01*
X57390234Y-32494761D01*
X57146995Y-32394009D01*
X56892678Y-32325865D01*
X56631653Y-32291501D01*
X56631650Y-32291500D01*
X56631644Y-32291500D01*
X56368356Y-32291500D01*
X56368350Y-32291500D01*
X56368346Y-32291501D01*
X56107321Y-32325865D01*
X55853004Y-32394009D01*
X55609765Y-32494761D01*
X55609749Y-32494769D01*
X55381743Y-32626409D01*
X55172863Y-32786687D01*
X55172856Y-32786693D01*
X54986693Y-32972856D01*
X54986687Y-32972863D01*
X54826409Y-33181743D01*
X54741103Y-33329500D01*
X54690537Y-33377715D01*
X54633716Y-33391500D01*
X54195152Y-33391500D01*
X54128113Y-33371815D01*
X54087765Y-33329500D01*
X54002457Y-33181743D01*
X53973590Y-33131743D01*
X53851677Y-32972862D01*
X53813312Y-32922863D01*
X53813306Y-32922856D01*
X53627143Y-32736693D01*
X53627136Y-32736687D01*
X53418256Y-32576409D01*
X53190250Y-32444769D01*
X53190234Y-32444761D01*
X52946995Y-32344009D01*
X52692678Y-32275865D01*
X52431653Y-32241501D01*
X52431650Y-32241500D01*
X52431644Y-32241500D01*
X52168356Y-32241500D01*
X52168350Y-32241500D01*
X52168346Y-32241501D01*
X51907321Y-32275865D01*
X51653004Y-32344009D01*
X51409765Y-32444761D01*
X51409749Y-32444769D01*
X51181743Y-32576409D01*
X50972863Y-32736687D01*
X50972856Y-32736693D01*
X50786693Y-32922856D01*
X50786687Y-32922863D01*
X50626409Y-33131743D01*
X50494769Y-33359749D01*
X50494761Y-33359765D01*
X50394009Y-33603004D01*
X50325865Y-33857321D01*
X50291501Y-34118346D01*
X50291500Y-34118362D01*
X50291500Y-34381637D01*
X50291501Y-34381653D01*
X50325865Y-34642678D01*
X50394009Y-34896995D01*
X50494761Y-35140234D01*
X50494769Y-35140250D01*
X50626409Y-35368256D01*
X50786687Y-35577136D01*
X50786693Y-35577143D01*
X50972856Y-35763306D01*
X50972863Y-35763312D01*
X51181743Y-35923590D01*
X51409749Y-36055230D01*
X51409765Y-36055238D01*
X51530467Y-36105234D01*
X51653003Y-36155990D01*
X51907320Y-36224134D01*
X52168356Y-36258500D01*
X52168363Y-36258500D01*
X52431637Y-36258500D01*
X52431644Y-36258500D01*
X52692680Y-36224134D01*
X52946997Y-36155990D01*
X53130099Y-36080146D01*
X53190234Y-36055238D01*
X53190237Y-36055236D01*
X53190243Y-36055234D01*
X53418257Y-35923590D01*
X53627138Y-35763311D01*
X53813311Y-35577138D01*
X53973590Y-35368257D01*
X54030030Y-35270499D01*
X54080597Y-35222284D01*
X54137417Y-35208500D01*
X54633716Y-35208500D01*
X54700755Y-35228185D01*
X54741103Y-35270500D01*
X54826409Y-35418256D01*
X54986687Y-35627136D01*
X54986693Y-35627143D01*
X55172856Y-35813306D01*
X55172863Y-35813312D01*
X55381743Y-35973590D01*
X55609749Y-36105230D01*
X55609765Y-36105238D01*
X55755054Y-36165418D01*
X55853003Y-36205990D01*
X56107320Y-36274134D01*
X56368356Y-36308500D01*
X56368363Y-36308500D01*
X56631637Y-36308500D01*
X56631644Y-36308500D01*
X56892680Y-36274134D01*
X57146997Y-36205990D01*
X57356210Y-36119331D01*
X57390234Y-36105238D01*
X57390237Y-36105236D01*
X57390243Y-36105234D01*
X57472002Y-36058030D01*
X57539899Y-36041558D01*
X57605926Y-36064410D01*
X57649117Y-36119331D01*
X57658000Y-36165418D01*
X57658000Y-39405825D01*
X57638315Y-39472864D01*
X57621681Y-39493506D01*
X55310006Y-41805181D01*
X55248683Y-41838666D01*
X55222325Y-41841500D01*
X43569781Y-41841500D01*
X43502742Y-41821815D01*
X43482100Y-41805181D01*
X43352578Y-41675659D01*
X43352576Y-41675657D01*
X43173215Y-41545343D01*
X42975680Y-41444693D01*
X42764824Y-41376182D01*
X42545851Y-41341500D01*
X42324149Y-41341500D01*
X42214662Y-41358841D01*
X42105175Y-41376182D01*
X41894319Y-41444693D01*
X41696776Y-41545347D01*
X41692629Y-41547889D01*
X41691983Y-41546836D01*
X41631570Y-41568386D01*
X41563517Y-41552556D01*
X41514826Y-41502447D01*
X41500500Y-41444588D01*
X41500500Y-39139149D01*
X46026500Y-39139149D01*
X46026500Y-39360850D01*
X46061182Y-39579824D01*
X46129693Y-39790680D01*
X46230343Y-39988215D01*
X46360657Y-40167576D01*
X46517424Y-40324343D01*
X46696785Y-40454657D01*
X46790114Y-40502210D01*
X46894319Y-40555306D01*
X46894321Y-40555306D01*
X46894324Y-40555308D01*
X47105176Y-40623818D01*
X47324149Y-40658500D01*
X47324150Y-40658500D01*
X47545850Y-40658500D01*
X47545851Y-40658500D01*
X47764824Y-40623818D01*
X47975676Y-40555308D01*
X48173215Y-40454657D01*
X48352576Y-40324343D01*
X48509343Y-40167576D01*
X48639657Y-39988215D01*
X48740308Y-39790676D01*
X48808818Y-39579824D01*
X48843500Y-39360851D01*
X48843500Y-39139149D01*
X48808818Y-38920176D01*
X48740308Y-38709324D01*
X48740306Y-38709321D01*
X48740306Y-38709319D01*
X48639656Y-38511784D01*
X48509343Y-38332424D01*
X48352576Y-38175657D01*
X48173215Y-38045343D01*
X47975680Y-37944693D01*
X47764824Y-37876182D01*
X47545851Y-37841500D01*
X47324149Y-37841500D01*
X47214662Y-37858841D01*
X47105175Y-37876182D01*
X46894319Y-37944693D01*
X46696784Y-38045343D01*
X46594452Y-38119692D01*
X46517424Y-38175657D01*
X46517422Y-38175659D01*
X46517421Y-38175659D01*
X46360659Y-38332421D01*
X46360659Y-38332422D01*
X46360657Y-38332424D01*
X46304692Y-38409452D01*
X46230343Y-38511784D01*
X46129693Y-38709319D01*
X46061182Y-38920175D01*
X46026500Y-39139149D01*
X41500500Y-39139149D01*
X41500500Y-33101993D01*
X41520185Y-33034954D01*
X41572989Y-32989199D01*
X41642147Y-32979255D01*
X41705703Y-33008280D01*
X41739061Y-33054541D01*
X41751204Y-33083858D01*
X41751209Y-33083869D01*
X41922570Y-33404462D01*
X41922581Y-33404480D01*
X42124551Y-33706750D01*
X42311678Y-33934765D01*
X42311679Y-33934766D01*
X43191004Y-33055442D01*
X43152944Y-33147328D01*
X43152944Y-33246784D01*
X43191004Y-33338670D01*
X43261330Y-33408996D01*
X43353216Y-33447056D01*
X43452672Y-33447056D01*
X43544554Y-33408997D01*
X42665232Y-34288319D01*
X42665233Y-34288320D01*
X42893249Y-34475448D01*
X43195519Y-34677418D01*
X43195537Y-34677429D01*
X43516130Y-34848790D01*
X43516135Y-34848792D01*
X43852002Y-34987913D01*
X44199898Y-35093446D01*
X44199909Y-35093449D01*
X44556443Y-35164367D01*
X44918234Y-35200000D01*
X45281766Y-35200000D01*
X45643556Y-35164367D01*
X46000090Y-35093449D01*
X46000101Y-35093446D01*
X46347997Y-34987913D01*
X46683864Y-34848792D01*
X46683869Y-34848790D01*
X47004462Y-34677429D01*
X47004480Y-34677418D01*
X47306736Y-34475457D01*
X47306750Y-34475447D01*
X47534765Y-34288320D01*
X47534766Y-34288319D01*
X46655443Y-33408996D01*
X46747328Y-33447056D01*
X46846784Y-33447056D01*
X46938670Y-33408996D01*
X47008996Y-33338670D01*
X47047056Y-33246784D01*
X47047056Y-33147328D01*
X47008996Y-33055443D01*
X47888319Y-33934766D01*
X47888320Y-33934765D01*
X48075447Y-33706750D01*
X48075457Y-33706736D01*
X48277418Y-33404480D01*
X48277429Y-33404462D01*
X48448790Y-33083869D01*
X48448792Y-33083864D01*
X48587913Y-32747997D01*
X48693446Y-32400101D01*
X48693449Y-32400090D01*
X48764367Y-32043556D01*
X48800000Y-31681765D01*
X48800000Y-31318234D01*
X48764367Y-30956443D01*
X48693449Y-30599909D01*
X48693446Y-30599898D01*
X48587913Y-30252002D01*
X48448792Y-29916135D01*
X48448790Y-29916130D01*
X48277429Y-29595537D01*
X48277418Y-29595519D01*
X48075448Y-29293249D01*
X47888320Y-29065233D01*
X47888319Y-29065232D01*
X47008997Y-29944553D01*
X47047056Y-29852672D01*
X47047056Y-29753216D01*
X47008996Y-29661330D01*
X46938670Y-29591004D01*
X46846784Y-29552944D01*
X46747328Y-29552944D01*
X46655442Y-29591004D01*
X47534766Y-28711679D01*
X47534765Y-28711678D01*
X47306750Y-28524551D01*
X47004480Y-28322581D01*
X47004462Y-28322570D01*
X46683869Y-28151209D01*
X46683864Y-28151207D01*
X46654541Y-28139061D01*
X46600138Y-28095220D01*
X46578073Y-28028926D01*
X46595352Y-27961226D01*
X46646490Y-27913616D01*
X46701994Y-27900500D01*
X57534000Y-27900500D01*
X57601039Y-27920185D01*
G37*
%TD.AperFunction*%
%TA.AperFunction,Conductor*%
G36*
X46938668Y-32985115D02*
G01*
X46846784Y-32947056D01*
X46747328Y-32947056D01*
X46655442Y-32985116D01*
X46585116Y-33055442D01*
X46547056Y-33147328D01*
X46547056Y-33246784D01*
X46585115Y-33338668D01*
X46040698Y-32794251D01*
X46142330Y-32720412D01*
X46320412Y-32542330D01*
X46394251Y-32440698D01*
X46938668Y-32985115D01*
G37*
%TD.AperFunction*%
%TA.AperFunction,Conductor*%
G36*
X43879588Y-32542330D02*
G01*
X44057670Y-32720412D01*
X44159301Y-32794251D01*
X43614885Y-33338666D01*
X43652944Y-33246784D01*
X43652944Y-33147328D01*
X43614884Y-33055442D01*
X43544558Y-32985116D01*
X43452672Y-32947056D01*
X43353216Y-32947056D01*
X43261330Y-32985116D01*
X43805747Y-32440697D01*
X43879588Y-32542330D01*
G37*
%TD.AperFunction*%
%TA.AperFunction,Conductor*%
G36*
X46547056Y-29753216D02*
G01*
X46547056Y-29852672D01*
X46585116Y-29944558D01*
X46655442Y-30014884D01*
X46747328Y-30052944D01*
X46846784Y-30052944D01*
X46938665Y-30014885D01*
X46394251Y-30559300D01*
X46320412Y-30457670D01*
X46142330Y-30279588D01*
X46040697Y-30205747D01*
X46585116Y-29661330D01*
X46547056Y-29753216D01*
G37*
%TD.AperFunction*%
%TD*%
%TA.AperFunction,Conductor*%
%TO.N,VSS*%
G36*
X107042121Y-27920502D02*
G01*
X107088614Y-27974158D01*
X107100000Y-28026500D01*
X107100000Y-36374000D01*
X107079998Y-36442121D01*
X107026342Y-36488614D01*
X106974000Y-36500000D01*
X98100000Y-36500000D01*
X98100000Y-37374000D01*
X98079998Y-37442121D01*
X98026342Y-37488614D01*
X97974000Y-37500000D01*
X93100000Y-37500000D01*
X93100000Y-42973500D01*
X93079998Y-43041621D01*
X93026342Y-43088114D01*
X92974000Y-43099500D01*
X91152727Y-43099500D01*
X91047273Y-43099500D01*
X90984931Y-43116204D01*
X90945408Y-43126794D01*
X90854090Y-43179517D01*
X90854080Y-43179525D01*
X90779525Y-43254080D01*
X90779517Y-43254090D01*
X90726794Y-43345408D01*
X90699500Y-43447274D01*
X90699500Y-52374000D01*
X90679498Y-52442121D01*
X90625842Y-52488614D01*
X90573500Y-52500000D01*
X69226000Y-52500000D01*
X69157879Y-52479998D01*
X69111386Y-52426342D01*
X69100000Y-52374000D01*
X69100000Y-49464819D01*
X69120002Y-49396698D01*
X69173658Y-49350205D01*
X69243932Y-49340101D01*
X69274219Y-49348411D01*
X69334992Y-49373584D01*
X69334993Y-49373584D01*
X69335000Y-49373587D01*
X69510521Y-49408500D01*
X69510522Y-49408500D01*
X69689478Y-49408500D01*
X69689479Y-49408500D01*
X69865000Y-49373587D01*
X70030336Y-49305102D01*
X70179135Y-49205678D01*
X70305678Y-49079135D01*
X70405102Y-48930336D01*
X70473587Y-48765000D01*
X70495348Y-48655595D01*
X70528254Y-48592690D01*
X70589949Y-48557557D01*
X70660843Y-48561357D01*
X70685765Y-48574451D01*
X70686178Y-48573778D01*
X70690394Y-48576361D01*
X70690397Y-48576362D01*
X70690402Y-48576366D01*
X70866903Y-48666298D01*
X71055300Y-48727512D01*
X71250954Y-48758500D01*
X71250957Y-48758500D01*
X71449043Y-48758500D01*
X71449046Y-48758500D01*
X71644700Y-48727512D01*
X71833097Y-48666298D01*
X72009598Y-48576366D01*
X72169858Y-48459930D01*
X72309930Y-48319858D01*
X72426366Y-48159598D01*
X72516298Y-47983097D01*
X72577512Y-47794700D01*
X72608500Y-47599046D01*
X72608500Y-47400954D01*
X72577512Y-47205300D01*
X72516298Y-47016903D01*
X72426366Y-46840402D01*
X72309930Y-46680142D01*
X72309928Y-46680139D01*
X72169860Y-46540071D01*
X72009601Y-46423636D01*
X72009600Y-46423635D01*
X72009598Y-46423634D01*
X71833097Y-46333702D01*
X71644700Y-46272488D01*
X71449046Y-46241500D01*
X71250954Y-46241500D01*
X71055300Y-46272488D01*
X71055297Y-46272488D01*
X71055296Y-46272489D01*
X70866903Y-46333702D01*
X70866901Y-46333703D01*
X70690398Y-46423636D01*
X70530139Y-46540071D01*
X70390071Y-46680139D01*
X70273635Y-46840399D01*
X70189138Y-47006234D01*
X70165967Y-47038126D01*
X69649501Y-47554595D01*
X69587189Y-47588620D01*
X69560405Y-47591500D01*
X69510518Y-47591500D01*
X69334994Y-47626414D01*
X69274218Y-47651589D01*
X69203628Y-47659178D01*
X69140141Y-47627398D01*
X69103914Y-47566340D01*
X69100000Y-47535180D01*
X69100000Y-46510429D01*
X69101714Y-46489715D01*
X69127716Y-46333702D01*
X70100000Y-40500000D01*
X70100000Y-40201350D01*
X73566500Y-40201350D01*
X73566500Y-41998649D01*
X73573009Y-42059196D01*
X73573011Y-42059204D01*
X73624110Y-42196202D01*
X73624112Y-42196207D01*
X73711738Y-42313261D01*
X73828791Y-42400886D01*
X73828792Y-42400886D01*
X73828796Y-42400889D01*
X73946711Y-42444869D01*
X74003543Y-42487414D01*
X74028354Y-42553934D01*
X74013263Y-42623308D01*
X73991771Y-42652018D01*
X73888794Y-42754995D01*
X73763108Y-42927987D01*
X73666029Y-43118515D01*
X73666026Y-43118521D01*
X73599952Y-43321878D01*
X73599951Y-43321883D01*
X73599951Y-43321884D01*
X73566500Y-43533084D01*
X73566500Y-43746916D01*
X73596050Y-43933486D01*
X73599952Y-43958121D01*
X73666026Y-44161478D01*
X73666028Y-44161483D01*
X73763106Y-44352009D01*
X73888794Y-44525004D01*
X73888796Y-44525006D01*
X73888798Y-44525009D01*
X74039990Y-44676201D01*
X74039993Y-44676203D01*
X74039996Y-44676206D01*
X74212991Y-44801894D01*
X74212996Y-44801896D01*
X74214088Y-44802566D01*
X74214418Y-44802931D01*
X74216996Y-44804804D01*
X74216602Y-44805345D01*
X74261721Y-44855213D01*
X74273328Y-44925255D01*
X74245226Y-44990453D01*
X74216870Y-45015023D01*
X74216996Y-45015196D01*
X74214982Y-45016658D01*
X74214088Y-45017434D01*
X74212987Y-45018108D01*
X74039993Y-45143796D01*
X74039990Y-45143798D01*
X73888798Y-45294990D01*
X73888796Y-45294993D01*
X73763108Y-45467987D01*
X73666029Y-45658515D01*
X73666026Y-45658521D01*
X73599952Y-45861878D01*
X73599951Y-45861883D01*
X73599951Y-45861884D01*
X73566500Y-46073084D01*
X73566500Y-46286916D01*
X73599951Y-46498116D01*
X73599952Y-46498121D01*
X73659093Y-46680139D01*
X73666028Y-46701483D01*
X73763106Y-46892009D01*
X73888794Y-47065004D01*
X73888796Y-47065006D01*
X73888798Y-47065009D01*
X74039990Y-47216201D01*
X74039993Y-47216203D01*
X74039996Y-47216206D01*
X74212991Y-47341894D01*
X74212996Y-47341896D01*
X74214088Y-47342566D01*
X74214418Y-47342931D01*
X74216996Y-47344804D01*
X74216602Y-47345345D01*
X74261721Y-47395213D01*
X74273328Y-47465255D01*
X74245226Y-47530453D01*
X74216870Y-47555023D01*
X74216996Y-47555196D01*
X74214982Y-47556658D01*
X74214088Y-47557434D01*
X74212987Y-47558108D01*
X74039993Y-47683796D01*
X74039990Y-47683798D01*
X73888798Y-47834990D01*
X73888796Y-47834993D01*
X73763108Y-48007987D01*
X73666029Y-48198515D01*
X73666026Y-48198521D01*
X73599952Y-48401878D01*
X73599951Y-48401883D01*
X73599951Y-48401884D01*
X73566500Y-48613084D01*
X73566500Y-48826916D01*
X73599951Y-49038116D01*
X73599952Y-49038121D01*
X73666026Y-49241478D01*
X73666028Y-49241483D01*
X73763106Y-49432009D01*
X73888794Y-49605004D01*
X73888796Y-49605006D01*
X73888798Y-49605009D01*
X74039990Y-49756201D01*
X74039993Y-49756203D01*
X74039996Y-49756206D01*
X74212991Y-49881894D01*
X74403517Y-49978972D01*
X74606878Y-50045047D01*
X74606879Y-50045047D01*
X74606884Y-50045049D01*
X74818084Y-50078500D01*
X74818087Y-50078500D01*
X75031913Y-50078500D01*
X75031916Y-50078500D01*
X75243116Y-50045049D01*
X75446483Y-49978972D01*
X75637009Y-49881894D01*
X75810004Y-49756206D01*
X75961206Y-49605004D01*
X76086894Y-49432009D01*
X76183972Y-49241483D01*
X76250049Y-49038116D01*
X76283500Y-48826916D01*
X76283500Y-48613084D01*
X76269081Y-48522049D01*
X76278180Y-48451640D01*
X76304432Y-48413247D01*
X76815166Y-47902515D01*
X76898174Y-47778284D01*
X76955351Y-47640247D01*
X76984500Y-47493705D01*
X76984500Y-47344295D01*
X76984500Y-39540371D01*
X76993283Y-39510455D01*
X76999912Y-39479986D01*
X77003726Y-39474890D01*
X77004502Y-39472250D01*
X77021405Y-39451276D01*
X77027276Y-39445405D01*
X77089588Y-39411379D01*
X77116371Y-39408500D01*
X83035500Y-39408500D01*
X83103621Y-39428502D01*
X83150114Y-39482158D01*
X83161500Y-39534500D01*
X83161500Y-39554814D01*
X83168009Y-39615361D01*
X83168011Y-39615369D01*
X83219110Y-39752367D01*
X83219112Y-39752372D01*
X83306738Y-39869426D01*
X83423792Y-39957052D01*
X83423794Y-39957053D01*
X83423796Y-39957054D01*
X83482875Y-39979089D01*
X83560795Y-40008153D01*
X83560803Y-40008155D01*
X83621350Y-40014664D01*
X83621355Y-40014664D01*
X83621362Y-40014665D01*
X83621368Y-40014665D01*
X86318632Y-40014665D01*
X86318638Y-40014665D01*
X86327652Y-40013695D01*
X86362422Y-40009958D01*
X86432291Y-40022564D01*
X86484253Y-40070942D01*
X86501811Y-40139733D01*
X86479390Y-40207097D01*
X86464986Y-40224331D01*
X85188297Y-41501020D01*
X85125985Y-41535046D01*
X85123786Y-41535503D01*
X85079007Y-41544411D01*
X85079000Y-41544413D01*
X84913663Y-41612898D01*
X84764869Y-41712319D01*
X84764862Y-41712324D01*
X84638324Y-41838862D01*
X84638319Y-41838869D01*
X84538899Y-41987662D01*
X84470414Y-42152996D01*
X84435500Y-42328518D01*
X84435500Y-42507484D01*
X84456473Y-42612919D01*
X84450145Y-42683633D01*
X84406591Y-42739700D01*
X84339638Y-42763319D01*
X84332894Y-42763500D01*
X83172500Y-42763500D01*
X83104379Y-42743498D01*
X83057886Y-42689842D01*
X83046500Y-42637500D01*
X83046500Y-42572957D01*
X83046500Y-42572954D01*
X83015512Y-42377300D01*
X82954298Y-42188903D01*
X82864366Y-42012402D01*
X82824414Y-41957413D01*
X82747928Y-41852139D01*
X82607860Y-41712071D01*
X82447601Y-41595636D01*
X82447600Y-41595635D01*
X82447598Y-41595634D01*
X82271097Y-41505702D01*
X82082700Y-41444488D01*
X81887046Y-41413500D01*
X81688954Y-41413500D01*
X81493300Y-41444488D01*
X81493297Y-41444488D01*
X81493296Y-41444489D01*
X81304903Y-41505702D01*
X81304901Y-41505703D01*
X81128398Y-41595636D01*
X80968139Y-41712071D01*
X80828071Y-41852139D01*
X80711636Y-42012398D01*
X80621703Y-42188901D01*
X80621702Y-42188903D01*
X80581296Y-42313261D01*
X80560488Y-42377300D01*
X80529500Y-42572954D01*
X80529500Y-42771046D01*
X80560488Y-42966700D01*
X80621702Y-43155097D01*
X80711634Y-43331598D01*
X80711636Y-43331601D01*
X80828071Y-43491860D01*
X80968139Y-43631928D01*
X80968142Y-43631930D01*
X81128402Y-43748366D01*
X81304903Y-43838298D01*
X81493300Y-43899512D01*
X81688954Y-43930500D01*
X81688957Y-43930500D01*
X81887043Y-43930500D01*
X81887046Y-43930500D01*
X82021882Y-43909144D01*
X82092291Y-43918244D01*
X82112631Y-43930730D01*
X82113085Y-43930052D01*
X82118229Y-43933489D01*
X82118231Y-43933491D01*
X82226083Y-44005555D01*
X82345923Y-44055194D01*
X82473143Y-44080500D01*
X86182857Y-44080500D01*
X86310077Y-44055194D01*
X86429917Y-44005555D01*
X86537769Y-43933491D01*
X87615855Y-42855405D01*
X87678167Y-42821379D01*
X87704950Y-42818500D01*
X87719478Y-42818500D01*
X87719479Y-42818500D01*
X87895000Y-42783587D01*
X88060336Y-42715102D01*
X88209135Y-42615678D01*
X88335678Y-42489135D01*
X88435102Y-42340336D01*
X88503587Y-42175000D01*
X88538500Y-41999479D01*
X88538500Y-41820521D01*
X88503587Y-41645000D01*
X88435102Y-41479664D01*
X88335678Y-41330865D01*
X88209135Y-41204322D01*
X88060336Y-41104898D01*
X88000815Y-41080243D01*
X87945535Y-41035695D01*
X87923114Y-40968332D01*
X87940672Y-40899541D01*
X87959935Y-40874744D01*
X88547420Y-40287259D01*
X88609730Y-40253235D01*
X88611795Y-40252805D01*
X88677536Y-40239729D01*
X88842872Y-40171244D01*
X88991671Y-40071820D01*
X89118214Y-39945277D01*
X89217638Y-39796478D01*
X89286123Y-39631142D01*
X89321036Y-39455621D01*
X89321036Y-39276663D01*
X89286123Y-39101142D01*
X89217638Y-38935806D01*
X89118214Y-38787007D01*
X88991671Y-38660464D01*
X88842872Y-38561040D01*
X88725965Y-38512615D01*
X88677539Y-38492556D01*
X88677537Y-38492555D01*
X88677536Y-38492555D01*
X88589181Y-38474980D01*
X88502017Y-38457642D01*
X88502015Y-38457642D01*
X88323057Y-38457642D01*
X88323054Y-38457642D01*
X88192307Y-38483649D01*
X88147536Y-38492555D01*
X88147535Y-38492555D01*
X88147532Y-38492556D01*
X87982198Y-38561041D01*
X87833405Y-38660461D01*
X87833398Y-38660466D01*
X87706860Y-38787004D01*
X87706855Y-38787011D01*
X87607434Y-38935805D01*
X87538949Y-39101142D01*
X87538948Y-39101145D01*
X87534180Y-39125112D01*
X87501269Y-39188020D01*
X87499697Y-39189620D01*
X86988166Y-39701151D01*
X86925854Y-39735177D01*
X86855039Y-39730112D01*
X86798203Y-39687565D01*
X86773392Y-39621045D01*
X86773793Y-39598587D01*
X86778499Y-39554812D01*
X86778500Y-39554797D01*
X86778500Y-37855080D01*
X86798502Y-37786959D01*
X86848724Y-37743440D01*
X86848295Y-37742637D01*
X86851837Y-37740743D01*
X86852158Y-37740466D01*
X86853226Y-37740001D01*
X86853748Y-37739722D01*
X86853749Y-37739721D01*
X86853752Y-37739720D01*
X86961604Y-37667656D01*
X89389855Y-35239405D01*
X89452167Y-35205379D01*
X89478950Y-35202500D01*
X91015497Y-35202500D01*
X91083618Y-35222502D01*
X91104592Y-35239405D01*
X91114865Y-35249678D01*
X91263664Y-35349102D01*
X91429000Y-35417587D01*
X91604521Y-35452500D01*
X91604522Y-35452500D01*
X91783478Y-35452500D01*
X91783479Y-35452500D01*
X91959000Y-35417587D01*
X92124336Y-35349102D01*
X92273135Y-35249678D01*
X92399678Y-35123135D01*
X92499102Y-34974336D01*
X92567587Y-34809000D01*
X92602500Y-34633479D01*
X92602500Y-34454521D01*
X92567587Y-34279000D01*
X92499102Y-34113664D01*
X92399678Y-33964865D01*
X92273135Y-33838322D01*
X92124336Y-33738898D01*
X92007429Y-33690473D01*
X91959003Y-33670414D01*
X91959001Y-33670413D01*
X91959000Y-33670413D01*
X91870645Y-33652838D01*
X91783481Y-33635500D01*
X91783479Y-33635500D01*
X91604521Y-33635500D01*
X91604518Y-33635500D01*
X91473771Y-33661507D01*
X91429000Y-33670413D01*
X91428999Y-33670413D01*
X91428996Y-33670414D01*
X91263662Y-33738899D01*
X91114869Y-33838319D01*
X91114862Y-33838324D01*
X91104592Y-33848595D01*
X91042280Y-33882621D01*
X91015497Y-33885500D01*
X89089139Y-33885500D01*
X88961922Y-33910806D01*
X88961919Y-33910807D01*
X88842082Y-33960445D01*
X88734229Y-34032510D01*
X87811729Y-34955010D01*
X87749417Y-34989035D01*
X87678601Y-34983970D01*
X87621766Y-34941423D01*
X87617886Y-34935941D01*
X87547343Y-34830365D01*
X87420800Y-34703822D01*
X87272001Y-34604398D01*
X87155094Y-34555973D01*
X87106668Y-34535914D01*
X87106666Y-34535913D01*
X87106665Y-34535913D01*
X87018310Y-34518338D01*
X86931146Y-34501000D01*
X86931144Y-34501000D01*
X86752186Y-34501000D01*
X86752183Y-34501000D01*
X86621436Y-34527007D01*
X86576665Y-34535913D01*
X86576664Y-34535913D01*
X86576661Y-34535914D01*
X86411327Y-34604399D01*
X86262534Y-34703819D01*
X86262527Y-34703824D01*
X86135989Y-34830362D01*
X86135984Y-34830369D01*
X86036562Y-34979164D01*
X86036560Y-34979168D01*
X85980741Y-35113926D01*
X85936193Y-35169207D01*
X85868829Y-35191627D01*
X85864333Y-35191707D01*
X83499681Y-35191707D01*
X83422301Y-35212440D01*
X83422301Y-35212441D01*
X83384753Y-35222502D01*
X83344920Y-35233175D01*
X83344915Y-35233177D01*
X83206169Y-35313282D01*
X83206159Y-35313290D01*
X81872856Y-36646595D01*
X81810544Y-36680620D01*
X81783761Y-36683500D01*
X81698518Y-36683500D01*
X81567771Y-36709507D01*
X81523000Y-36718413D01*
X81522999Y-36718413D01*
X81522996Y-36718414D01*
X81357662Y-36786899D01*
X81208869Y-36886319D01*
X81208862Y-36886324D01*
X81082324Y-37012862D01*
X81082319Y-37012869D01*
X80982899Y-37161662D01*
X80914414Y-37326996D01*
X80879500Y-37502518D01*
X80879500Y-37681484D01*
X80891323Y-37740919D01*
X80884995Y-37811633D01*
X80841441Y-37867700D01*
X80774488Y-37891319D01*
X80767744Y-37891500D01*
X78408122Y-37891500D01*
X78340001Y-37871498D01*
X78293508Y-37817842D01*
X78284543Y-37790081D01*
X78283922Y-37786959D01*
X78273587Y-37735000D01*
X78205102Y-37569664D01*
X78105678Y-37420865D01*
X77979135Y-37294322D01*
X77830336Y-37194898D01*
X77713429Y-37146473D01*
X77665003Y-37126414D01*
X77665001Y-37126413D01*
X77665000Y-37126413D01*
X77576645Y-37108838D01*
X77489481Y-37091500D01*
X77489479Y-37091500D01*
X77310521Y-37091500D01*
X77310518Y-37091500D01*
X77179771Y-37117507D01*
X77135000Y-37126413D01*
X77134999Y-37126413D01*
X77134996Y-37126414D01*
X76969662Y-37194899D01*
X76820869Y-37294319D01*
X76820862Y-37294324D01*
X76694324Y-37420862D01*
X76694319Y-37420869D01*
X76594898Y-37569663D01*
X76526413Y-37735000D01*
X76526411Y-37735006D01*
X76517503Y-37779786D01*
X76484594Y-37842695D01*
X76483021Y-37844296D01*
X76266485Y-38060834D01*
X75636833Y-38690486D01*
X75553826Y-38814715D01*
X75514981Y-38908498D01*
X75514980Y-38908500D01*
X75496650Y-38952749D01*
X75496649Y-38952754D01*
X75467500Y-39099290D01*
X75467500Y-39615500D01*
X75447498Y-39683621D01*
X75393842Y-39730114D01*
X75341500Y-39741500D01*
X74026350Y-39741500D01*
X73965803Y-39748009D01*
X73965795Y-39748011D01*
X73828797Y-39799110D01*
X73828792Y-39799112D01*
X73711738Y-39886738D01*
X73624112Y-40003792D01*
X73624110Y-40003797D01*
X73573011Y-40140795D01*
X73573009Y-40140803D01*
X73566500Y-40201350D01*
X70100000Y-40201350D01*
X70100000Y-30801785D01*
X103907423Y-30801785D01*
X103907423Y-30801787D01*
X103940660Y-30825935D01*
X104117097Y-30915834D01*
X104305414Y-30977022D01*
X104500996Y-31008000D01*
X104699004Y-31008000D01*
X104894585Y-30977022D01*
X105082902Y-30915834D01*
X105259337Y-30825936D01*
X105259339Y-30825935D01*
X105292575Y-30801787D01*
X105292576Y-30801786D01*
X104600000Y-30109210D01*
X104599999Y-30109210D01*
X103907423Y-30801785D01*
X70100000Y-30801785D01*
X70100000Y-29650996D01*
X103342000Y-29650996D01*
X103342000Y-29849003D01*
X103372977Y-30044585D01*
X103434166Y-30232905D01*
X103524058Y-30409330D01*
X103548212Y-30442575D01*
X104240789Y-29749999D01*
X104959210Y-29749999D01*
X105651786Y-30442576D01*
X105651787Y-30442575D01*
X105675935Y-30409339D01*
X105675936Y-30409337D01*
X105765834Y-30232902D01*
X105827022Y-30044585D01*
X105858000Y-29849003D01*
X105858000Y-29650996D01*
X105827022Y-29455414D01*
X105765834Y-29267097D01*
X105675935Y-29090660D01*
X105651787Y-29057423D01*
X105651785Y-29057423D01*
X104959210Y-29749999D01*
X104240789Y-29749999D01*
X103548212Y-29057422D01*
X103524060Y-29090667D01*
X103524057Y-29090671D01*
X103434166Y-29267094D01*
X103372977Y-29455414D01*
X103342000Y-29650996D01*
X70100000Y-29650996D01*
X70100000Y-28698212D01*
X103907422Y-28698212D01*
X104599999Y-29390789D01*
X104600000Y-29390789D01*
X105292575Y-28698212D01*
X105259330Y-28674058D01*
X105082905Y-28584166D01*
X104894585Y-28522977D01*
X104699004Y-28492000D01*
X104500996Y-28492000D01*
X104305414Y-28522977D01*
X104117094Y-28584166D01*
X103940671Y-28674057D01*
X103940667Y-28674060D01*
X103907422Y-28698212D01*
X70100000Y-28698212D01*
X70100000Y-28026500D01*
X70120002Y-27958379D01*
X70173658Y-27911886D01*
X70226000Y-27900500D01*
X106974000Y-27900500D01*
X107042121Y-27920502D01*
G37*
%TD.AperFunction*%
%TD*%
M02*
