M48
; DRILL file {KiCad (7.0.0)} date Tue 14 Mar 2023 10:36:46 PM CET
; FORMAT={-:-/ absolute / inch / decimal}
; #@! TF.CreationDate,2023-03-14T22:36:46+01:00
; #@! TF.GenerationSoftware,Kicad,Pcbnew,(7.0.0)
; #@! TF.FileFunction,Plated,1,2,PTH
FMAT,2
INCH
; #@! TA.AperFunction,Plated,PTH,ViaDrill
T1C0.0157
; #@! TA.AperFunction,Plated,PTH,ComponentDrill
T2C0.0157
; #@! TA.AperFunction,Plated,PTH,ComponentDrill
T3C0.0197
; #@! TA.AperFunction,Plated,PTH,ComponentDrill
T4C0.0354
; #@! TA.AperFunction,Plated,PTH,ComponentDrill
T5C0.0394
; #@! TA.AperFunction,Plated,PTH,ComponentDrill
T6C0.0433
; #@! TA.AperFunction,Plated,PTH,ComponentDrill
T7C0.0512
; #@! TA.AperFunction,Plated,PTH,ComponentDrill
T8C0.0642
; #@! TA.AperFunction,Plated,PTH,ComponentDrill
T9C0.1260
%
G90
G05
T1
X0.0984Y-2.4902
X0.1673Y-1.122
X0.2461Y-2.4606
X0.3051Y-1.6339
X0.315Y-1.4665
X0.315Y-1.7224
X0.502Y-1.939
X0.5512Y-2.1358
X0.561Y-1.3878
X0.5709Y-1.6535
X0.5984Y-1.0866
X0.6102Y-1.2697
X0.6594Y-1.9094
X0.6693Y-2.313
X0.6791Y-1.4862
X0.689Y-2.8937
X0.7874Y-2.313
X0.8465Y-1.8012
X0.9213Y-1.7913
X0.935Y-2.7461
X0.9449Y-2.3917
X0.9449Y-2.5591
X0.9646Y-2.0276
X0.9744Y-0.935
X1.0138Y-2.185
X1.0315Y-2.0945
X1.0335Y-1.3189
X1.0335Y-2.2441
X1.0472Y-2.3937
X1.0866Y-1.9803
X1.1024Y-2.4606
X1.1063Y-1.6142
X1.1181Y-2.2677
X1.1319Y-2.628
X1.1417Y-1.3681
X1.1811Y-0.689
X1.1998Y-0.7638
X1.2008Y-2.2618
X1.2205Y-2.5492
X1.2402Y-2.6673
X1.2598Y-0.7402
X1.2598Y-0.7953
X1.2992Y-0.3307
X1.3091Y-0.0984
X1.3583Y-1.6043
X1.3937Y-1.1969
X1.4252Y-0.8898
X1.4291Y-0.4134
X1.4459Y-2.0723
X1.4488Y-0.7323
X1.4567Y-0.1181
X1.4567Y-0.2756
X1.4567Y-1.9685
X1.4567Y-2.6378
X1.4606Y-2.2953
X1.4961Y-1.7618
X1.5354Y-0.2362
X1.5354Y-0.6693
X1.5453Y-2.5689
X1.565Y-1.9094
X1.5846Y-2.4803
X1.6024Y-0.3937
X1.6142Y-1.1811
X1.6634Y-2.6575
X1.6831Y-0.6398
X1.6929Y-2.6181
X1.6979Y-0.2992
X1.7224Y-1.4862
X1.7224Y-2.7756
X1.7283Y-0.4134
X1.7283Y-0.5669
X1.7323Y-2.8346
X1.7717Y-0.7283
X1.7717Y-1.9783
X1.7815Y-2.7953
X1.811Y-0.0787
X1.811Y-2.5
X1.811Y-2.7362
X1.8228Y-0.311
X1.8406Y-2.5492
X1.8898Y-2.4114
X1.8996Y-1.25
X1.9453Y-0.1365
X1.9685Y-0.5512
X1.9882Y-1.5453
X2.0079Y-2.3622
X2.0374Y-1.9587
X2.0394Y-0.3465
X2.0472Y-2.5295
X2.0551Y-1.4331
X2.0669Y-2.2047
X2.0866Y-2.0768
X2.1161Y-1.8602
X2.126Y-2.7244
X2.1358Y-2.4705
X2.1417Y-1.3248
X2.1654Y-1.7913
X2.1701Y-1.924
X2.1723Y-1.3849
X2.1752Y-1.7126
X2.185Y-0.7283
X2.189Y-2.5512
X2.1976Y-1.874
X2.2047Y-1.1024
X2.2205Y-1.1693
X2.2244Y-0.9055
X2.2441Y-1.4567
X2.2441Y-2.4961
X2.259Y-2.3298
X2.2638Y-0.6299
X2.2756Y-0.315
X2.2835Y-1.4961
X2.2933Y-2.5295
X2.2992Y-1.7953
X2.3137Y-1.6784
X2.3228Y-1.4567
X2.3228Y-1.5256
X2.3378Y-1.7724
X2.3386Y-2.5197
X2.3425Y-0.8071
X2.3425Y-1.1909
X2.3519Y-2.7357
X2.3601Y-1.71
X2.3701Y-1.748
X2.4016Y-0.0787
X2.4016Y-1.7165
X2.4094Y-1.6614
X2.4094Y-1.8228
X2.4213Y-0.7283
X2.4213Y-1.25
X2.4488Y-1.6142
X2.4685Y-2.3386
X2.4882Y-2.4252
X2.5197Y-1.1713
X2.5236Y-1.4567
X2.5433Y-1.7323
X2.5433Y-2.5276
X2.5591Y-1.3091
X2.5591Y-1.9783
X2.5689Y-2.3917
X2.5984Y-1.8209
X2.5984Y-2.5295
X2.5984Y-2.6634
X2.6181Y-1.0039
X2.6378Y-2.4567
X2.6673Y-1.5945
X2.6673Y-2.0472
X2.6772Y-0.748
X2.6969Y-0.8661
X2.6969Y-1.1811
X2.7067Y-2.5295
X2.7165Y-1.122
X2.7362Y-1.4764
X2.7362Y-2.0768
X2.7559Y-1.2008
X2.7795Y-1.378
X2.7854Y-1.9557
X2.7874Y-2.4961
X2.8346Y-2.0669
X2.8346Y-2.2736
X2.8346Y-2.4213
X2.8745Y-1.1422
X2.8819Y-1.1811
X2.8937Y-1.6732
T2
X2.5427Y-2.1873
X2.5427Y-2.2473
X2.5727Y-2.1573
X2.5727Y-2.2173
X2.5727Y-2.2774
X2.6028Y-2.1873
X2.6028Y-2.2473
X2.6328Y-2.1573
X2.6328Y-2.2173
X2.6328Y-2.2774
X2.6628Y-2.1873
X2.6628Y-2.2473
T3
X0.063Y-0.1575
X0.063Y-2.7953
X0.0907Y-0.0907
X0.0907Y-0.2243
X0.0907Y-2.7285
X0.0907Y-2.8621
X0.1575Y-0.063
X0.1575Y-0.252
X0.1575Y-2.7008
X0.1575Y-2.8898
X0.2243Y-0.0907
X0.2243Y-0.2243
X0.2243Y-2.7285
X0.2243Y-2.8621
X0.252Y-0.1575
X0.252Y-2.7953
X2.7008Y-0.1575
X2.7008Y-2.7953
X2.7285Y-0.0907
X2.7285Y-0.2243
X2.7285Y-2.7285
X2.7285Y-2.8621
X2.7953Y-0.063
X2.7953Y-0.252
X2.7953Y-2.7008
X2.7953Y-2.8898
X2.8621Y-0.0907
X2.8621Y-0.2243
X2.8621Y-2.7285
X2.8621Y-2.8621
X2.8898Y-0.1575
X2.8898Y-2.7953
T4
X2.7697Y-0.6124
X2.7697Y-0.7124
X2.7697Y-0.8124
X2.7697Y-0.9124
X2.7697Y-1.0124
X2.8697Y-0.5624
X2.8697Y-0.6624
X2.8697Y-0.7624
X2.8697Y-0.8624
X2.8697Y-0.9624
T5
X0.4331Y-0.748
X0.9055Y-0.748
X1.0689Y-2.7553
X1.0689Y-2.8553
X1.1689Y-2.7553
X1.1689Y-2.8553
X1.2689Y-2.7553
X1.2689Y-2.8553
X1.3317Y-0.5354
X1.3317Y-0.6354
X1.3317Y-0.7354
X1.3317Y-0.8354
X1.3317Y-2.2323
X1.3317Y-2.3323
X1.3317Y-2.4323
X1.3689Y-2.7553
X1.3689Y-2.8553
X1.4689Y-2.7553
X1.4689Y-2.8553
X1.5689Y-2.7553
X1.5689Y-2.8553
X1.8443Y-2.8642
X1.9443Y-2.8642
X2.0443Y-2.8642
X2.1443Y-2.8642
X2.2443Y-2.8642
X2.3443Y-2.8642
X2.4443Y-2.8642
X2.5443Y-2.8642
T6
X0.1417Y-1.4
X0.1417Y-1.5
X0.1417Y-1.6
X0.1417Y-1.7
X0.1417Y-1.8
X0.1417Y-1.9
X0.1575Y-0.4724
X0.1575Y-0.5724
X2.3587Y-0.5264
X2.3587Y-0.6264
X2.3587Y-0.9484
X2.3587Y-1.0484
T7
X0.4311Y-0.2657
X0.6673Y-0.8248
X0.9055Y-0.2677
T8
X2.6397Y-0.4824
X2.6397Y-1.0924
T9
X0.1575Y-0.1575
X0.1575Y-2.7953
X2.7953Y-0.1575
X2.7953Y-2.7953
T0
M30
