%TF.GenerationSoftware,KiCad,Pcbnew,9.0.5*%
%TF.CreationDate,2025-10-08T15:34:32+02:00*%
%TF.ProjectId,Zamkonator,5a616d6b-6f6e-4617-946f-722e6b696361,rev?*%
%TF.SameCoordinates,Original*%
%TF.FileFunction,Soldermask,Top*%
%TF.FilePolarity,Negative*%
%FSLAX46Y46*%
G04 Gerber Fmt 4.6, Leading zero omitted, Abs format (unit mm)*
G04 Created by KiCad (PCBNEW 9.0.5) date 2025-10-08 15:34:32*
%MOMM*%
%LPD*%
G01*
G04 APERTURE LIST*
G04 Aperture macros list*
%AMRoundRect*
0 Rectangle with rounded corners*
0 $1 Rounding radius*
0 $2 $3 $4 $5 $6 $7 $8 $9 X,Y pos of 4 corners*
0 Add a 4 corners polygon primitive as box body*
4,1,4,$2,$3,$4,$5,$6,$7,$8,$9,$2,$3,0*
0 Add four circle primitives for the rounded corners*
1,1,$1+$1,$2,$3*
1,1,$1+$1,$4,$5*
1,1,$1+$1,$6,$7*
1,1,$1+$1,$8,$9*
0 Add four rect primitives between the rounded corners*
20,1,$1+$1,$2,$3,$4,$5,0*
20,1,$1+$1,$4,$5,$6,$7,0*
20,1,$1+$1,$6,$7,$8,$9,0*
20,1,$1+$1,$8,$9,$2,$3,0*%
%AMOutline4P*
0 Free polygon, 4 corners , with rotation*
0 The origin of the aperture is its center*
0 number of corners: always 4*
0 $1 to $8 corner X, Y*
0 $9 Rotation angle, in degrees counterclockwise*
0 create outline with 4 corners*
4,1,4,$1,$2,$3,$4,$5,$6,$7,$8,$1,$2,$9*%
G04 Aperture macros list end*
%ADD10C,0.200000*%
%ADD11RoundRect,0.218750X-0.218750X-0.256250X0.218750X-0.256250X0.218750X0.256250X-0.218750X0.256250X0*%
%ADD12C,3.000000*%
%ADD13C,2.500000*%
%ADD14C,3.250000*%
%ADD15R,1.500000X1.500000*%
%ADD16C,1.500000*%
%ADD17C,1.600000*%
%ADD18C,2.029000*%
%ADD19C,1.800000*%
%ADD20RoundRect,0.112500X0.187500X0.112500X-0.187500X0.112500X-0.187500X-0.112500X0.187500X-0.112500X0*%
%ADD21RoundRect,0.237500X-0.250000X-0.237500X0.250000X-0.237500X0.250000X0.237500X-0.250000X0.237500X0*%
%ADD22RoundRect,0.112500X0.112500X-0.187500X0.112500X0.187500X-0.112500X0.187500X-0.112500X-0.187500X0*%
%ADD23RoundRect,0.237500X0.250000X0.237500X-0.250000X0.237500X-0.250000X-0.237500X0.250000X-0.237500X0*%
%ADD24RoundRect,0.237500X0.237500X-0.300000X0.237500X0.300000X-0.237500X0.300000X-0.237500X-0.300000X0*%
%ADD25RoundRect,0.218750X0.218750X0.256250X-0.218750X0.256250X-0.218750X-0.256250X0.218750X-0.256250X0*%
%ADD26R,1.700000X1.700000*%
%ADD27C,1.700000*%
%ADD28RoundRect,0.112500X-0.187500X-0.112500X0.187500X-0.112500X0.187500X0.112500X-0.187500X0.112500X0*%
%ADD29RoundRect,0.237500X-0.300000X-0.237500X0.300000X-0.237500X0.300000X0.237500X-0.300000X0.237500X0*%
%ADD30RoundRect,0.237500X-0.237500X0.300000X-0.237500X-0.300000X0.237500X-0.300000X0.237500X0.300000X0*%
%ADD31RoundRect,0.237500X0.237500X-0.250000X0.237500X0.250000X-0.237500X0.250000X-0.237500X-0.250000X0*%
%ADD32R,1.800000X3.500000*%
%ADD33RoundRect,0.250000X-0.725000X0.600000X-0.725000X-0.600000X0.725000X-0.600000X0.725000X0.600000X0*%
%ADD34O,1.950000X1.700000*%
%ADD35C,0.800000*%
%ADD36C,6.400000*%
%ADD37O,1.700000X1.700000*%
%ADD38RoundRect,0.237500X0.300000X0.237500X-0.300000X0.237500X-0.300000X-0.237500X0.300000X-0.237500X0*%
%ADD39RoundRect,0.250000X1.000000X-1.950000X1.000000X1.950000X-1.000000X1.950000X-1.000000X-1.950000X0*%
%ADD40RoundRect,0.150000X-0.675000X-0.150000X0.675000X-0.150000X0.675000X0.150000X-0.675000X0.150000X0*%
%ADD41RoundRect,0.250000X-0.450000X0.325000X-0.450000X-0.325000X0.450000X-0.325000X0.450000X0.325000X0*%
%ADD42RoundRect,0.237500X-0.237500X0.250000X-0.237500X-0.250000X0.237500X-0.250000X0.237500X0.250000X0*%
%ADD43R,0.650000X2.000000*%
%ADD44R,0.900000X1.200000*%
%ADD45RoundRect,0.150000X0.675000X0.150000X-0.675000X0.150000X-0.675000X-0.150000X0.675000X-0.150000X0*%
%ADD46Outline4P,-2.150000X-1.800000X2.150000X-0.800000X2.150000X0.800000X-2.150000X1.800000X180.000000*%
%ADD47Outline4P,-2.150000X-1.800000X2.150000X-0.800000X2.150000X0.800000X-2.150000X1.800000X0.000000*%
%ADD48RoundRect,0.250000X1.500000X0.650000X-1.500000X0.650000X-1.500000X-0.650000X1.500000X-0.650000X0*%
%ADD49R,1.000000X0.900000*%
%ADD50RoundRect,0.062500X-0.062500X0.325000X-0.062500X-0.325000X0.062500X-0.325000X0.062500X0.325000X0*%
%ADD51RoundRect,0.062500X-0.325000X0.062500X-0.325000X-0.062500X0.325000X-0.062500X0.325000X0.062500X0*%
%ADD52R,2.450000X2.450000*%
%ADD53RoundRect,0.062500X-0.062500X0.375000X-0.062500X-0.375000X0.062500X-0.375000X0.062500X0.375000X0*%
%ADD54RoundRect,0.062500X-0.375000X0.062500X-0.375000X-0.062500X0.375000X-0.062500X0.375000X0.062500X0*%
%ADD55R,3.300000X3.300000*%
%ADD56C,1.200000*%
%ADD57R,0.700000X1.600000*%
%ADD58R,1.200000X1.500000*%
%ADD59R,1.200000X2.200000*%
%ADD60R,1.600000X1.500000*%
%ADD61RoundRect,0.062500X-0.062500X0.362500X-0.062500X-0.362500X0.062500X-0.362500X0.062500X0.362500X0*%
%ADD62RoundRect,0.062500X-0.362500X0.062500X-0.362500X-0.062500X0.362500X-0.062500X0.362500X0.062500X0*%
%ADD63R,2.600000X2.600000*%
%ADD64C,3.200000*%
%ADD65RoundRect,0.150000X0.150000X-0.587500X0.150000X0.587500X-0.150000X0.587500X-0.150000X-0.587500X0*%
%ADD66RoundRect,0.250000X-0.550000X1.500000X-0.550000X-1.500000X0.550000X-1.500000X0.550000X1.500000X0*%
%ADD67RoundRect,0.250000X-0.650000X0.412500X-0.650000X-0.412500X0.650000X-0.412500X0.650000X0.412500X0*%
%ADD68RoundRect,0.150000X0.150000X-0.675000X0.150000X0.675000X-0.150000X0.675000X-0.150000X-0.675000X0*%
%ADD69R,0.900000X1.500000*%
%ADD70R,1.500000X0.900000*%
%ADD71R,4.200000X4.200000*%
%ADD72RoundRect,0.150000X-0.150000X0.512500X-0.150000X-0.512500X0.150000X-0.512500X0.150000X0.512500X0*%
%ADD73R,1.270000X2.540000*%
%ADD74RoundRect,0.150000X-0.150000X0.587500X-0.150000X-0.587500X0.150000X-0.587500X0.150000X0.587500X0*%
%ADD75R,2.844800X2.057400*%
G04 APERTURE END LIST*
D10*
G36*
X75881864Y-97676023D02*
G01*
X75946043Y-97740202D01*
X75983958Y-97891861D01*
X75983958Y-98200575D01*
X75946042Y-98352235D01*
X75881866Y-98416413D01*
X75822256Y-98446219D01*
X75678994Y-98446219D01*
X75619384Y-98416414D01*
X75555207Y-98352236D01*
X75517292Y-98200575D01*
X75517292Y-97891862D01*
X75555207Y-97740202D01*
X75619386Y-97676023D01*
X75678994Y-97646219D01*
X75822256Y-97646219D01*
X75881864Y-97676023D01*
G37*
G36*
X79596150Y-97676023D02*
G01*
X79660329Y-97740202D01*
X79698244Y-97891861D01*
X79698244Y-98200575D01*
X79660328Y-98352235D01*
X79596152Y-98416413D01*
X79536542Y-98446219D01*
X79393280Y-98446219D01*
X79333670Y-98416414D01*
X79269493Y-98352236D01*
X79231578Y-98200575D01*
X79231578Y-97891862D01*
X79269493Y-97740202D01*
X79333672Y-97676023D01*
X79393280Y-97646219D01*
X79536542Y-97646219D01*
X79596150Y-97676023D01*
G37*
G36*
X80643770Y-97676024D02*
G01*
X80668439Y-97700692D01*
X80698244Y-97760302D01*
X80698244Y-97855945D01*
X80668439Y-97915554D01*
X80643770Y-97940222D01*
X80584161Y-97970028D01*
X80326816Y-97970028D01*
X80326816Y-97646219D01*
X80584161Y-97646219D01*
X80643770Y-97676024D01*
G37*
G36*
X72754740Y-98160504D02*
G01*
X72556035Y-98160504D01*
X72655387Y-97862446D01*
X72754740Y-98160504D01*
G37*
G36*
X77849978Y-98160504D02*
G01*
X77651273Y-98160504D01*
X77750625Y-97862446D01*
X77849978Y-98160504D01*
G37*
G36*
X81009355Y-98757330D02*
G01*
X71206181Y-98757330D01*
X71206181Y-98546324D01*
X71317292Y-98546324D01*
X71319213Y-98555929D01*
X71319213Y-98565728D01*
X71323002Y-98574876D01*
X71324944Y-98584584D01*
X71330395Y-98592724D01*
X71334145Y-98601776D01*
X71341144Y-98608775D01*
X71346655Y-98617004D01*
X71354808Y-98622439D01*
X71361735Y-98629366D01*
X71370881Y-98633154D01*
X71379120Y-98638647D01*
X71388730Y-98640548D01*
X71397783Y-98644298D01*
X71417292Y-98646219D01*
X71417397Y-98646219D01*
X72083958Y-98646219D01*
X72103467Y-98644298D01*
X72139515Y-98629366D01*
X72167105Y-98601776D01*
X72182037Y-98565728D01*
X72182037Y-98533712D01*
X72222839Y-98533712D01*
X72225605Y-98572632D01*
X72243055Y-98607531D01*
X72272531Y-98633096D01*
X72309547Y-98645434D01*
X72348467Y-98642668D01*
X72383366Y-98625218D01*
X72408931Y-98595742D01*
X72416922Y-98577842D01*
X72489368Y-98360504D01*
X72821406Y-98360504D01*
X72893852Y-98577841D01*
X72901843Y-98595742D01*
X72927408Y-98625218D01*
X72962307Y-98642667D01*
X73001227Y-98645434D01*
X73038243Y-98633095D01*
X73067719Y-98607530D01*
X73085169Y-98572631D01*
X73087935Y-98533711D01*
X73083588Y-98514596D01*
X72760796Y-97546219D01*
X73222054Y-97546219D01*
X73222054Y-98546219D01*
X73223975Y-98565728D01*
X73238907Y-98601776D01*
X73266497Y-98629366D01*
X73302545Y-98644298D01*
X73341563Y-98644298D01*
X73377611Y-98629366D01*
X73405201Y-98601776D01*
X73420133Y-98565728D01*
X73422054Y-98546219D01*
X73422054Y-97996975D01*
X73564769Y-98302793D01*
X73569001Y-98309938D01*
X73569881Y-98312356D01*
X73571446Y-98314065D01*
X73574760Y-98319659D01*
X73585970Y-98329925D01*
X73596232Y-98341131D01*
X73600257Y-98343009D01*
X73603535Y-98346011D01*
X73617817Y-98351204D01*
X73631590Y-98357632D01*
X73636029Y-98357827D01*
X73640204Y-98359345D01*
X73655387Y-98358677D01*
X73670570Y-98359345D01*
X73674743Y-98357827D01*
X73679185Y-98357632D01*
X73692969Y-98351199D01*
X73707239Y-98346010D01*
X73710512Y-98343012D01*
X73714542Y-98341132D01*
X73724811Y-98329917D01*
X73736014Y-98319659D01*
X73739325Y-98314068D01*
X73740894Y-98312356D01*
X73741774Y-98309934D01*
X73746005Y-98302793D01*
X73888720Y-97996974D01*
X73888720Y-98546219D01*
X73890641Y-98565728D01*
X73905573Y-98601776D01*
X73933163Y-98629366D01*
X73969211Y-98644298D01*
X74008229Y-98644298D01*
X74044277Y-98629366D01*
X74071867Y-98601776D01*
X74086799Y-98565728D01*
X74088720Y-98546219D01*
X74088720Y-97546219D01*
X74364911Y-97546219D01*
X74364911Y-98546219D01*
X74366832Y-98565728D01*
X74381764Y-98601776D01*
X74409354Y-98629366D01*
X74445402Y-98644298D01*
X74484420Y-98644298D01*
X74520468Y-98629366D01*
X74548058Y-98601776D01*
X74562990Y-98565728D01*
X74564911Y-98546219D01*
X74564911Y-98159069D01*
X74596948Y-98127031D01*
X74956339Y-98606219D01*
X74969581Y-98620674D01*
X75003156Y-98640553D01*
X75041782Y-98646071D01*
X75079579Y-98636388D01*
X75110794Y-98612977D01*
X75130673Y-98579403D01*
X75136191Y-98540777D01*
X75126508Y-98502979D01*
X75116339Y-98486219D01*
X74739805Y-97984174D01*
X74844427Y-97879552D01*
X75317292Y-97879552D01*
X75317292Y-98212885D01*
X75317627Y-98216287D01*
X75317410Y-98217746D01*
X75318489Y-98225043D01*
X75319213Y-98232394D01*
X75319777Y-98233757D01*
X75320278Y-98237139D01*
X75367897Y-98427614D01*
X75374492Y-98446075D01*
X75378917Y-98452047D01*
X75381763Y-98458918D01*
X75394200Y-98474071D01*
X75489438Y-98569311D01*
X75497106Y-98575604D01*
X75498837Y-98577600D01*
X75501844Y-98579493D01*
X75504591Y-98581747D01*
X75507031Y-98582757D01*
X75515428Y-98588043D01*
X75610665Y-98635662D01*
X75628974Y-98642668D01*
X75632557Y-98642922D01*
X75635878Y-98644298D01*
X75655387Y-98646219D01*
X75845863Y-98646219D01*
X75865372Y-98644298D01*
X75868692Y-98642922D01*
X75872276Y-98642668D01*
X75890584Y-98635662D01*
X75985822Y-98588043D01*
X75994217Y-98582758D01*
X75996659Y-98581747D01*
X75999406Y-98579491D01*
X76002412Y-98577600D01*
X76004142Y-98575605D01*
X76011812Y-98569310D01*
X76107050Y-98474071D01*
X76119487Y-98458918D01*
X76122332Y-98452047D01*
X76126758Y-98446075D01*
X76133353Y-98427615D01*
X76180972Y-98237139D01*
X76181472Y-98233757D01*
X76182037Y-98232394D01*
X76182760Y-98225043D01*
X76183840Y-98217746D01*
X76183622Y-98216287D01*
X76183958Y-98212885D01*
X76183958Y-97879552D01*
X76183622Y-97876149D01*
X76183840Y-97874691D01*
X76182760Y-97867393D01*
X76182037Y-97860043D01*
X76181472Y-97858679D01*
X76180972Y-97855298D01*
X76133353Y-97664822D01*
X76126758Y-97646362D01*
X76122331Y-97640387D01*
X76119486Y-97633519D01*
X76107050Y-97618365D01*
X76034904Y-97546219D01*
X76412530Y-97546219D01*
X76412530Y-98546219D01*
X76414451Y-98565728D01*
X76429383Y-98601776D01*
X76456973Y-98629366D01*
X76493021Y-98644298D01*
X76532039Y-98644298D01*
X76568087Y-98629366D01*
X76595677Y-98601776D01*
X76610609Y-98565728D01*
X76612530Y-98546219D01*
X76612530Y-97922775D01*
X76997134Y-98595833D01*
X77000052Y-98599943D01*
X77000811Y-98601776D01*
X77002677Y-98603642D01*
X77008481Y-98611818D01*
X77018997Y-98619962D01*
X77028401Y-98629366D01*
X77034288Y-98631804D01*
X77039330Y-98635709D01*
X77052162Y-98639208D01*
X77064449Y-98644298D01*
X77070825Y-98644298D01*
X77076974Y-98645975D01*
X77090167Y-98644298D01*
X77103467Y-98644298D01*
X77109355Y-98641858D01*
X77115680Y-98641055D01*
X77127229Y-98634454D01*
X77139515Y-98629366D01*
X77144022Y-98624858D01*
X77149557Y-98621696D01*
X77157701Y-98611179D01*
X77167105Y-98601776D01*
X77169543Y-98595888D01*
X77173448Y-98590847D01*
X77176947Y-98578014D01*
X77182037Y-98565728D01*
X77183019Y-98555750D01*
X77183714Y-98553204D01*
X77183463Y-98551236D01*
X77183958Y-98546219D01*
X77183958Y-98533712D01*
X77318077Y-98533712D01*
X77320843Y-98572632D01*
X77338293Y-98607531D01*
X77367769Y-98633096D01*
X77404785Y-98645434D01*
X77443705Y-98642668D01*
X77478604Y-98625218D01*
X77504169Y-98595742D01*
X77512160Y-98577842D01*
X77584606Y-98360504D01*
X77916644Y-98360504D01*
X77989090Y-98577841D01*
X77997081Y-98595742D01*
X78022646Y-98625218D01*
X78057545Y-98642667D01*
X78096465Y-98645434D01*
X78133481Y-98633095D01*
X78162957Y-98607530D01*
X78180407Y-98572631D01*
X78183173Y-98533711D01*
X78178826Y-98514596D01*
X77849531Y-97526710D01*
X78176356Y-97526710D01*
X78176356Y-97565728D01*
X78191288Y-97601776D01*
X78218878Y-97629366D01*
X78254926Y-97644298D01*
X78274435Y-97646219D01*
X78460149Y-97646219D01*
X78460149Y-98546219D01*
X78462070Y-98565728D01*
X78477002Y-98601776D01*
X78504592Y-98629366D01*
X78540640Y-98644298D01*
X78579658Y-98644298D01*
X78615706Y-98629366D01*
X78643296Y-98601776D01*
X78658228Y-98565728D01*
X78660149Y-98546219D01*
X78660149Y-97879552D01*
X79031578Y-97879552D01*
X79031578Y-98212885D01*
X79031913Y-98216287D01*
X79031696Y-98217746D01*
X79032775Y-98225043D01*
X79033499Y-98232394D01*
X79034063Y-98233757D01*
X79034564Y-98237139D01*
X79082183Y-98427614D01*
X79088778Y-98446075D01*
X79093203Y-98452047D01*
X79096049Y-98458918D01*
X79108486Y-98474071D01*
X79203724Y-98569311D01*
X79211392Y-98575604D01*
X79213123Y-98577600D01*
X79216130Y-98579493D01*
X79218877Y-98581747D01*
X79221317Y-98582757D01*
X79229714Y-98588043D01*
X79324951Y-98635662D01*
X79343260Y-98642668D01*
X79346843Y-98642922D01*
X79350164Y-98644298D01*
X79369673Y-98646219D01*
X79560149Y-98646219D01*
X79579658Y-98644298D01*
X79582978Y-98642922D01*
X79586562Y-98642668D01*
X79604870Y-98635662D01*
X79700108Y-98588043D01*
X79708503Y-98582758D01*
X79710945Y-98581747D01*
X79713692Y-98579491D01*
X79716698Y-98577600D01*
X79718428Y-98575605D01*
X79726098Y-98569310D01*
X79821336Y-98474071D01*
X79833773Y-98458918D01*
X79836618Y-98452047D01*
X79841044Y-98446075D01*
X79847639Y-98427615D01*
X79895258Y-98237139D01*
X79895758Y-98233757D01*
X79896323Y-98232394D01*
X79897046Y-98225043D01*
X79898126Y-98217746D01*
X79897908Y-98216287D01*
X79898244Y-98212885D01*
X79898244Y-97879552D01*
X79897908Y-97876149D01*
X79898126Y-97874691D01*
X79897046Y-97867393D01*
X79896323Y-97860043D01*
X79895758Y-97858679D01*
X79895258Y-97855298D01*
X79847639Y-97664822D01*
X79841044Y-97646362D01*
X79836617Y-97640387D01*
X79833772Y-97633519D01*
X79821336Y-97618365D01*
X79749190Y-97546219D01*
X80126816Y-97546219D01*
X80126816Y-98546219D01*
X80128737Y-98565728D01*
X80143669Y-98601776D01*
X80171259Y-98629366D01*
X80207307Y-98644298D01*
X80246325Y-98644298D01*
X80282373Y-98629366D01*
X80309963Y-98601776D01*
X80324895Y-98565728D01*
X80326816Y-98546219D01*
X80326816Y-98170028D01*
X80412846Y-98170028D01*
X80716321Y-98603565D01*
X80729082Y-98618446D01*
X80761987Y-98639415D01*
X80800412Y-98646196D01*
X80838506Y-98637756D01*
X80870471Y-98615381D01*
X80891440Y-98582476D01*
X80898221Y-98544052D01*
X80889781Y-98505957D01*
X80880167Y-98488873D01*
X80650199Y-98160347D01*
X80652489Y-98159471D01*
X80747727Y-98111852D01*
X80756123Y-98106566D01*
X80758563Y-98105556D01*
X80761309Y-98103302D01*
X80764317Y-98101409D01*
X80766046Y-98099414D01*
X80773717Y-98093120D01*
X80821335Y-98045501D01*
X80827627Y-98037834D01*
X80829625Y-98036102D01*
X80831518Y-98033093D01*
X80833772Y-98030348D01*
X80834782Y-98027907D01*
X80840068Y-98019511D01*
X80887687Y-97924274D01*
X80894693Y-97905965D01*
X80894947Y-97902381D01*
X80896323Y-97899061D01*
X80898244Y-97879552D01*
X80898244Y-97736695D01*
X80896323Y-97717186D01*
X80894947Y-97713865D01*
X80894693Y-97710282D01*
X80887687Y-97691973D01*
X80840068Y-97596736D01*
X80834782Y-97588339D01*
X80833772Y-97585899D01*
X80831518Y-97583153D01*
X80829625Y-97580145D01*
X80827627Y-97578412D01*
X80821335Y-97570746D01*
X80773717Y-97523127D01*
X80766046Y-97516832D01*
X80764317Y-97514838D01*
X80761309Y-97512944D01*
X80758563Y-97510691D01*
X80756123Y-97509680D01*
X80747727Y-97504395D01*
X80652489Y-97456776D01*
X80634181Y-97449770D01*
X80630597Y-97449515D01*
X80627277Y-97448140D01*
X80607768Y-97446219D01*
X80226816Y-97446219D01*
X80207307Y-97448140D01*
X80171259Y-97463072D01*
X80143669Y-97490662D01*
X80128737Y-97526710D01*
X80126816Y-97546219D01*
X79749190Y-97546219D01*
X79726098Y-97523127D01*
X79718427Y-97516832D01*
X79716698Y-97514838D01*
X79713690Y-97512944D01*
X79710944Y-97510691D01*
X79708504Y-97509680D01*
X79700108Y-97504395D01*
X79604870Y-97456776D01*
X79586562Y-97449770D01*
X79582978Y-97449515D01*
X79579658Y-97448140D01*
X79560149Y-97446219D01*
X79369673Y-97446219D01*
X79350164Y-97448140D01*
X79346843Y-97449515D01*
X79343260Y-97449770D01*
X79324951Y-97456776D01*
X79229714Y-97504395D01*
X79221315Y-97509681D01*
X79218878Y-97510691D01*
X79216134Y-97512942D01*
X79213123Y-97514838D01*
X79211390Y-97516835D01*
X79203724Y-97523127D01*
X79108486Y-97618365D01*
X79096050Y-97633519D01*
X79093204Y-97640387D01*
X79088778Y-97646362D01*
X79082183Y-97664823D01*
X79034564Y-97855298D01*
X79034063Y-97858679D01*
X79033499Y-97860043D01*
X79032775Y-97867393D01*
X79031696Y-97874691D01*
X79031913Y-97876149D01*
X79031578Y-97879552D01*
X78660149Y-97879552D01*
X78660149Y-97646219D01*
X78845863Y-97646219D01*
X78865372Y-97644298D01*
X78901420Y-97629366D01*
X78929010Y-97601776D01*
X78943942Y-97565728D01*
X78943942Y-97526710D01*
X78929010Y-97490662D01*
X78901420Y-97463072D01*
X78865372Y-97448140D01*
X78845863Y-97446219D01*
X78274435Y-97446219D01*
X78254926Y-97448140D01*
X78218878Y-97463072D01*
X78191288Y-97490662D01*
X78176356Y-97526710D01*
X77849531Y-97526710D01*
X77845493Y-97514596D01*
X77837502Y-97496696D01*
X77832817Y-97491294D01*
X77829624Y-97484908D01*
X77820155Y-97476695D01*
X77811937Y-97467220D01*
X77805545Y-97464023D01*
X77800148Y-97459343D01*
X77788254Y-97455378D01*
X77777038Y-97449770D01*
X77769910Y-97449263D01*
X77763132Y-97447004D01*
X77750627Y-97447893D01*
X77738118Y-97447004D01*
X77731336Y-97449264D01*
X77724212Y-97449771D01*
X77713003Y-97455374D01*
X77701102Y-97459342D01*
X77695701Y-97464025D01*
X77689313Y-97467220D01*
X77681097Y-97476691D01*
X77671626Y-97484907D01*
X77668431Y-97491296D01*
X77663748Y-97496696D01*
X77655757Y-97514597D01*
X77322424Y-98514596D01*
X77318077Y-98533712D01*
X77183958Y-98533712D01*
X77183958Y-97546219D01*
X77182037Y-97526710D01*
X77167105Y-97490662D01*
X77139515Y-97463072D01*
X77103467Y-97448140D01*
X77064449Y-97448140D01*
X77028401Y-97463072D01*
X77000811Y-97490662D01*
X76985879Y-97526710D01*
X76983958Y-97546219D01*
X76983958Y-98169662D01*
X76599354Y-97496605D01*
X76596435Y-97492494D01*
X76595677Y-97490662D01*
X76593810Y-97488795D01*
X76588007Y-97480620D01*
X76577492Y-97472477D01*
X76568087Y-97463072D01*
X76562196Y-97460632D01*
X76557158Y-97456730D01*
X76544329Y-97453231D01*
X76532039Y-97448140D01*
X76525664Y-97448140D01*
X76519515Y-97446463D01*
X76506322Y-97448140D01*
X76493021Y-97448140D01*
X76487132Y-97450579D01*
X76480808Y-97451383D01*
X76469258Y-97457983D01*
X76456973Y-97463072D01*
X76452465Y-97467579D01*
X76446931Y-97470742D01*
X76438788Y-97481256D01*
X76429383Y-97490662D01*
X76426943Y-97496552D01*
X76423041Y-97501591D01*
X76419542Y-97514419D01*
X76414451Y-97526710D01*
X76413468Y-97536687D01*
X76412774Y-97539234D01*
X76413024Y-97541201D01*
X76412530Y-97546219D01*
X76034904Y-97546219D01*
X76011812Y-97523127D01*
X76004141Y-97516832D01*
X76002412Y-97514838D01*
X75999404Y-97512944D01*
X75996658Y-97510691D01*
X75994218Y-97509680D01*
X75985822Y-97504395D01*
X75890584Y-97456776D01*
X75872276Y-97449770D01*
X75868692Y-97449515D01*
X75865372Y-97448140D01*
X75845863Y-97446219D01*
X75655387Y-97446219D01*
X75635878Y-97448140D01*
X75632557Y-97449515D01*
X75628974Y-97449770D01*
X75610665Y-97456776D01*
X75515428Y-97504395D01*
X75507029Y-97509681D01*
X75504592Y-97510691D01*
X75501848Y-97512942D01*
X75498837Y-97514838D01*
X75497104Y-97516835D01*
X75489438Y-97523127D01*
X75394200Y-97618365D01*
X75381764Y-97633519D01*
X75378918Y-97640387D01*
X75374492Y-97646362D01*
X75367897Y-97664823D01*
X75320278Y-97855298D01*
X75319777Y-97858679D01*
X75319213Y-97860043D01*
X75318489Y-97867393D01*
X75317410Y-97874691D01*
X75317627Y-97876149D01*
X75317292Y-97879552D01*
X74844427Y-97879552D01*
X75107050Y-97616930D01*
X75119486Y-97601777D01*
X75134417Y-97565728D01*
X75134417Y-97526710D01*
X75119486Y-97490662D01*
X75091896Y-97463072D01*
X75055848Y-97448141D01*
X75016830Y-97448141D01*
X74980781Y-97463072D01*
X74965628Y-97475508D01*
X74564911Y-97876225D01*
X74564911Y-97546219D01*
X74562990Y-97526710D01*
X74548058Y-97490662D01*
X74520468Y-97463072D01*
X74484420Y-97448140D01*
X74445402Y-97448140D01*
X74409354Y-97463072D01*
X74381764Y-97490662D01*
X74366832Y-97526710D01*
X74364911Y-97546219D01*
X74088720Y-97546219D01*
X74087457Y-97533395D01*
X74087561Y-97531036D01*
X74087100Y-97529768D01*
X74086799Y-97526710D01*
X74080158Y-97510679D01*
X74074227Y-97494367D01*
X74072720Y-97492721D01*
X74071867Y-97490662D01*
X74059605Y-97478400D01*
X74047875Y-97465591D01*
X74045851Y-97464646D01*
X74044277Y-97463072D01*
X74028261Y-97456437D01*
X74012518Y-97449091D01*
X74010288Y-97448993D01*
X74008229Y-97448140D01*
X73990877Y-97448140D01*
X73973537Y-97447378D01*
X73971441Y-97448140D01*
X73969211Y-97448140D01*
X73953180Y-97454780D01*
X73936868Y-97460712D01*
X73935222Y-97462218D01*
X73933163Y-97463072D01*
X73920895Y-97475339D01*
X73908093Y-97487064D01*
X73906526Y-97489708D01*
X73905573Y-97490662D01*
X73904669Y-97492843D01*
X73898102Y-97503930D01*
X73655386Y-98024033D01*
X73412672Y-97503930D01*
X73406104Y-97492843D01*
X73405201Y-97490662D01*
X73404247Y-97489708D01*
X73402681Y-97487064D01*
X73389884Y-97475345D01*
X73377611Y-97463072D01*
X73375549Y-97462218D01*
X73373906Y-97460713D01*
X73357604Y-97454784D01*
X73341563Y-97448140D01*
X73339332Y-97448140D01*
X73337237Y-97447378D01*
X73319897Y-97448140D01*
X73302545Y-97448140D01*
X73300485Y-97448993D01*
X73298257Y-97449091D01*
X73282526Y-97456432D01*
X73266497Y-97463072D01*
X73264920Y-97464648D01*
X73262899Y-97465592D01*
X73251180Y-97478388D01*
X73238907Y-97490662D01*
X73238053Y-97492723D01*
X73236548Y-97494367D01*
X73230619Y-97510668D01*
X73223975Y-97526710D01*
X73223673Y-97529768D01*
X73223213Y-97531036D01*
X73223316Y-97533395D01*
X73222054Y-97546219D01*
X72760796Y-97546219D01*
X72750255Y-97514596D01*
X72742264Y-97496696D01*
X72737579Y-97491294D01*
X72734386Y-97484908D01*
X72724917Y-97476695D01*
X72716699Y-97467220D01*
X72710307Y-97464023D01*
X72704910Y-97459343D01*
X72693016Y-97455378D01*
X72681800Y-97449770D01*
X72674672Y-97449263D01*
X72667894Y-97447004D01*
X72655389Y-97447893D01*
X72642880Y-97447004D01*
X72636098Y-97449264D01*
X72628974Y-97449771D01*
X72617765Y-97455374D01*
X72605864Y-97459342D01*
X72600463Y-97464025D01*
X72594075Y-97467220D01*
X72585859Y-97476691D01*
X72576388Y-97484907D01*
X72573193Y-97491296D01*
X72568510Y-97496696D01*
X72560519Y-97514597D01*
X72227186Y-98514596D01*
X72222839Y-98533712D01*
X72182037Y-98533712D01*
X72182037Y-98526710D01*
X72167105Y-98490662D01*
X72139515Y-98463072D01*
X72103467Y-98448140D01*
X72083958Y-98446219D01*
X71604144Y-98446219D01*
X72167163Y-97601689D01*
X72176386Y-97584391D01*
X72178287Y-97574780D01*
X72182037Y-97565728D01*
X72182037Y-97555824D01*
X72183958Y-97546114D01*
X72182037Y-97536509D01*
X72182037Y-97526710D01*
X72178247Y-97517561D01*
X72176306Y-97507854D01*
X72170854Y-97499713D01*
X72167105Y-97490662D01*
X72160105Y-97483662D01*
X72154595Y-97475434D01*
X72146441Y-97469998D01*
X72139515Y-97463072D01*
X72130368Y-97459283D01*
X72122130Y-97453791D01*
X72112519Y-97451889D01*
X72103467Y-97448140D01*
X72083958Y-97446219D01*
X71417292Y-97446219D01*
X71397783Y-97448140D01*
X71361735Y-97463072D01*
X71334145Y-97490662D01*
X71319213Y-97526710D01*
X71319213Y-97565728D01*
X71334145Y-97601776D01*
X71361735Y-97629366D01*
X71397783Y-97644298D01*
X71417292Y-97646219D01*
X71897106Y-97646219D01*
X71334087Y-98490749D01*
X71324864Y-98508047D01*
X71322962Y-98517657D01*
X71319213Y-98526710D01*
X71319213Y-98536613D01*
X71317292Y-98546324D01*
X71206181Y-98546324D01*
X71206181Y-97335108D01*
X81009355Y-97335108D01*
X81009355Y-98757330D01*
G37*
D11*
%TO.C,D16*%
X49758500Y-100634000D03*
X51333500Y-100634000D03*
%TD*%
D12*
%TO.C,K1*%
X58300000Y-48450000D03*
D13*
X64350000Y-46500000D03*
D12*
X64350000Y-34300000D03*
X52300000Y-34250000D03*
D13*
X52350000Y-46500000D03*
%TD*%
D14*
%TO.C,RJ1*%
X109900000Y-53200000D03*
X109900000Y-41800000D03*
D15*
X101010000Y-53215000D03*
D16*
X103550000Y-51945000D03*
X101010000Y-50675000D03*
X103550000Y-49405000D03*
X101010000Y-48135000D03*
X103550000Y-46865000D03*
X101010000Y-45595000D03*
X103550000Y-44325000D03*
X101010000Y-43055000D03*
X103550000Y-41785000D03*
D17*
X113990000Y-54129000D03*
X113990000Y-51589000D03*
X113990000Y-43411000D03*
X113990000Y-40871000D03*
D18*
X106852000Y-55247000D03*
X106852000Y-39753000D03*
%TD*%
D19*
%TO.C,J7*%
X47435000Y-39250000D03*
X42435000Y-42750000D03*
X47435000Y-46250000D03*
X42435000Y-49750000D03*
X47435000Y-53250000D03*
X42435000Y-56750000D03*
%TD*%
D20*
%TO.C,D7*%
X87650000Y-87750000D03*
X85550000Y-87750000D03*
%TD*%
D21*
%TO.C,R12*%
X78687500Y-38150000D03*
X80512500Y-38150000D03*
%TD*%
D22*
%TO.C,D6*%
X72350000Y-75800000D03*
X72350000Y-73700000D03*
%TD*%
D23*
%TO.C,R15*%
X84612500Y-30000000D03*
X82787500Y-30000000D03*
%TD*%
D24*
%TO.C,C32*%
X107350000Y-73112500D03*
X107350000Y-71387500D03*
%TD*%
D25*
%TO.C,L3*%
X95529500Y-38100000D03*
X93954500Y-38100000D03*
%TD*%
D26*
%TO.C,J9*%
X57912000Y-65786000D03*
D27*
X57912000Y-63246000D03*
X60452000Y-65786000D03*
X60452000Y-63246000D03*
%TD*%
D21*
%TO.C,R23*%
X82907500Y-79009667D03*
X84732500Y-79009667D03*
%TD*%
%TO.C,R13*%
X82757500Y-31856165D03*
X84582500Y-31856165D03*
%TD*%
D28*
%TO.C,D8*%
X52036000Y-79796800D03*
X54136000Y-79796800D03*
%TD*%
D29*
%TO.C,C9*%
X103487500Y-57500000D03*
X105212500Y-57500000D03*
%TD*%
%TO.C,C8*%
X103487500Y-62750000D03*
X105212500Y-62750000D03*
%TD*%
%TO.C,C17*%
X88637500Y-40700000D03*
X90362500Y-40700000D03*
%TD*%
D30*
%TO.C,C21*%
X75100000Y-59837500D03*
X75100000Y-61562500D03*
%TD*%
D31*
%TO.C,R41*%
X52832000Y-94384500D03*
X52832000Y-92559500D03*
%TD*%
D32*
%TO.C,D5*%
X86850000Y-72750000D03*
X86850000Y-67750000D03*
%TD*%
D33*
%TO.C,J1*%
X47335000Y-73250000D03*
D34*
X47335000Y-75750000D03*
X47335000Y-78250000D03*
X47335000Y-80750000D03*
X47335000Y-83250000D03*
X47335000Y-85750000D03*
X47335000Y-88250000D03*
X47335000Y-90750000D03*
%TD*%
D29*
%TO.C,C6*%
X95737500Y-57500000D03*
X97462500Y-57500000D03*
%TD*%
D28*
%TO.C,D12*%
X52002000Y-85344000D03*
X54102000Y-85344000D03*
%TD*%
D30*
%TO.C,C24*%
X89600000Y-71137500D03*
X89600000Y-72862500D03*
%TD*%
%TO.C,C15*%
X81100000Y-29887500D03*
X81100000Y-31612500D03*
%TD*%
D35*
%TO.C,H3*%
X42700000Y-98500000D03*
X43402944Y-96802944D03*
X43402944Y-100197056D03*
X45100000Y-96100000D03*
D36*
X45100000Y-98500000D03*
D35*
X45100000Y-100900000D03*
X46797056Y-96802944D03*
X46797056Y-100197056D03*
X47500000Y-98500000D03*
%TD*%
D30*
%TO.C,C18*%
X92202000Y-39269500D03*
X92202000Y-40994500D03*
%TD*%
D26*
%TO.C,J3*%
X93100000Y-101000000D03*
D37*
X95640000Y-101000000D03*
X98180000Y-101000000D03*
X100720000Y-101000000D03*
X103260000Y-101000000D03*
X105800000Y-101000000D03*
%TD*%
D38*
%TO.C,C30*%
X84682500Y-77343000D03*
X82957500Y-77343000D03*
%TD*%
D29*
%TO.C,C4*%
X103487500Y-61000000D03*
X105212500Y-61000000D03*
%TD*%
D39*
%TO.C,C14*%
X72100000Y-39200000D03*
X72100000Y-30800000D03*
%TD*%
D31*
%TO.C,R17*%
X68200000Y-57512500D03*
X68200000Y-55687500D03*
%TD*%
%TO.C,R40*%
X51054000Y-94384500D03*
X51054000Y-92559500D03*
%TD*%
D40*
%TO.C,U10*%
X56311000Y-76458500D03*
X56311000Y-77728500D03*
X62561000Y-77728500D03*
X62561000Y-76458500D03*
%TD*%
D29*
%TO.C,C29*%
X82957500Y-82343000D03*
X84682500Y-82343000D03*
%TD*%
D25*
%TO.C,L1*%
X105137500Y-66500000D03*
X103562500Y-66500000D03*
%TD*%
D23*
%TO.C,R21*%
X68312500Y-62100000D03*
X66487500Y-62100000D03*
%TD*%
D41*
%TO.C,L4*%
X83700000Y-66975000D03*
X83700000Y-69025000D03*
%TD*%
D42*
%TO.C,R16*%
X91440000Y-35663500D03*
X91440000Y-37488500D03*
%TD*%
D29*
%TO.C,C7*%
X103487500Y-64500000D03*
X105212500Y-64500000D03*
%TD*%
%TO.C,C33*%
X99737500Y-69250000D03*
X101462500Y-69250000D03*
%TD*%
D43*
%TO.C,D1*%
X105300000Y-69250000D03*
X103400000Y-69250000D03*
X104350000Y-72670000D03*
%TD*%
D23*
%TO.C,R9*%
X101512500Y-67500000D03*
X99687500Y-67500000D03*
%TD*%
D29*
%TO.C,C16*%
X82807500Y-33856165D03*
X84532500Y-33856165D03*
%TD*%
D42*
%TO.C,R19*%
X89600000Y-67337500D03*
X89600000Y-69162500D03*
%TD*%
D30*
%TO.C,C2*%
X107350000Y-67887500D03*
X107350000Y-69612500D03*
%TD*%
D21*
%TO.C,R11*%
X79175000Y-36300000D03*
X81000000Y-36300000D03*
%TD*%
D23*
%TO.C,R4*%
X97512500Y-54000000D03*
X95687500Y-54000000D03*
%TD*%
D44*
%TO.C,D4*%
X80200000Y-42500000D03*
X83500000Y-42500000D03*
%TD*%
D23*
%TO.C,R26*%
X69212500Y-83700000D03*
X67387500Y-83700000D03*
%TD*%
D38*
%TO.C,C37*%
X69162500Y-73900000D03*
X67437500Y-73900000D03*
%TD*%
D23*
%TO.C,R5*%
X97512500Y-48750000D03*
X95687500Y-48750000D03*
%TD*%
D21*
%TO.C,R28*%
X95353500Y-94996000D03*
X97178500Y-94996000D03*
%TD*%
D42*
%TO.C,R25*%
X86847500Y-93385500D03*
X86847500Y-95210500D03*
%TD*%
D29*
%TO.C,C38*%
X67437500Y-85500000D03*
X69162500Y-85500000D03*
%TD*%
D38*
%TO.C,C28*%
X75712500Y-80250000D03*
X73987500Y-80250000D03*
%TD*%
D45*
%TO.C,U7*%
X62561000Y-81592250D03*
X62561000Y-80322250D03*
X56311000Y-80322250D03*
X56311000Y-81592250D03*
%TD*%
D46*
%TO.C,D2*%
X105900000Y-32900000D03*
D47*
X99500000Y-32900000D03*
%TD*%
D19*
%TO.C,J8*%
X47445000Y-63512500D03*
X42445000Y-67012500D03*
%TD*%
D23*
%TO.C,R22*%
X84732500Y-80676333D03*
X82907500Y-80676333D03*
%TD*%
D40*
%TO.C,U8*%
X56311000Y-72579750D03*
X56311000Y-73849750D03*
X62561000Y-73849750D03*
X62561000Y-72579750D03*
%TD*%
D21*
%TO.C,R10*%
X79175000Y-39900000D03*
X81000000Y-39900000D03*
%TD*%
D23*
%TO.C,R6*%
X97512500Y-50500000D03*
X95687500Y-50500000D03*
%TD*%
%TO.C,R29*%
X53976000Y-77243200D03*
X52151000Y-77243200D03*
%TD*%
D48*
%TO.C,D10*%
X63700000Y-52600000D03*
X58700000Y-52600000D03*
%TD*%
D22*
%TO.C,D14*%
X54102000Y-70392000D03*
X54102000Y-68292000D03*
%TD*%
D49*
%TO.C,X1*%
X82360000Y-95623000D03*
X84510000Y-95623000D03*
X84510000Y-94073000D03*
X82360000Y-94073000D03*
%TD*%
D20*
%TO.C,D11*%
X54091000Y-82570400D03*
X51991000Y-82570400D03*
%TD*%
D50*
%TO.C,U12*%
X68087500Y-75762500D03*
X67587500Y-75762500D03*
X67087500Y-75762500D03*
X66587500Y-75762500D03*
X66087500Y-75762500D03*
X65587500Y-75762500D03*
D51*
X64850000Y-76500000D03*
X64850000Y-77000000D03*
X64850000Y-77500000D03*
X64850000Y-78000000D03*
X64850000Y-78500000D03*
X64850000Y-79000000D03*
D50*
X65587500Y-79737500D03*
X66087500Y-79737500D03*
X66587500Y-79737500D03*
X67087500Y-79737500D03*
X67587500Y-79737500D03*
X68087500Y-79737500D03*
D51*
X68825000Y-79000000D03*
X68825000Y-78500000D03*
X68825000Y-78000000D03*
X68825000Y-77500000D03*
X68825000Y-77000000D03*
X68825000Y-76500000D03*
D52*
X66837500Y-77750000D03*
%TD*%
D45*
%TO.C,U9*%
X62561000Y-85471000D03*
X62561000Y-84201000D03*
X56311000Y-84201000D03*
X56311000Y-85471000D03*
%TD*%
D21*
%TO.C,R37*%
X57253500Y-56642000D03*
X59078500Y-56642000D03*
%TD*%
D53*
%TO.C,U1*%
X100850000Y-60375000D03*
X100350000Y-60375000D03*
X99850000Y-60375000D03*
X99350000Y-60375000D03*
X98850000Y-60375000D03*
X98350000Y-60375000D03*
X97850000Y-60375000D03*
X97350000Y-60375000D03*
D54*
X96662500Y-61062500D03*
X96662500Y-61562500D03*
X96662500Y-62062500D03*
X96662500Y-62562500D03*
X96662500Y-63062500D03*
X96662500Y-63562500D03*
X96662500Y-64062500D03*
X96662500Y-64562500D03*
D53*
X97350000Y-65250000D03*
X97850000Y-65250000D03*
X98350000Y-65250000D03*
X98850000Y-65250000D03*
X99350000Y-65250000D03*
X99850000Y-65250000D03*
X100350000Y-65250000D03*
X100850000Y-65250000D03*
D54*
X101537500Y-64562500D03*
X101537500Y-64062500D03*
X101537500Y-63562500D03*
X101537500Y-63062500D03*
X101537500Y-62562500D03*
X101537500Y-62062500D03*
X101537500Y-61562500D03*
X101537500Y-61062500D03*
D55*
X99100000Y-62812500D03*
%TD*%
D31*
%TO.C,R24*%
X80247500Y-95810500D03*
X80247500Y-93985500D03*
%TD*%
D44*
%TO.C,D3*%
X89280000Y-43688000D03*
X85980000Y-43688000D03*
%TD*%
D21*
%TO.C,R32*%
X57253500Y-58674000D03*
X59078500Y-58674000D03*
%TD*%
D30*
%TO.C,C19*%
X78300000Y-42037500D03*
X78300000Y-43762500D03*
%TD*%
D56*
%TO.C,J2*%
X57150000Y-99700000D03*
X65150000Y-99700000D03*
D57*
X64350000Y-88700000D03*
X63250000Y-88700000D03*
X62150000Y-88700000D03*
X61050000Y-88700000D03*
X59950000Y-88700000D03*
X58850000Y-88700000D03*
X57750000Y-88700000D03*
X56650000Y-88700000D03*
X55550000Y-88700000D03*
D58*
X54350000Y-89700000D03*
D59*
X54350000Y-99300000D03*
D60*
X68950000Y-89700000D03*
D59*
X69850000Y-99300000D03*
%TD*%
D23*
%TO.C,R2*%
X115012500Y-57750000D03*
X113187500Y-57750000D03*
%TD*%
D29*
%TO.C,C31*%
X85737500Y-85250000D03*
X87462500Y-85250000D03*
%TD*%
D31*
%TO.C,R39*%
X51816000Y-70254500D03*
X51816000Y-68429500D03*
%TD*%
D21*
%TO.C,R20*%
X66487500Y-59800000D03*
X68312500Y-59800000D03*
%TD*%
%TO.C,R8*%
X103437500Y-59250000D03*
X105262500Y-59250000D03*
%TD*%
D35*
%TO.C,H4*%
X42700000Y-31500000D03*
X43402944Y-29802944D03*
X43402944Y-33197056D03*
X45100000Y-29100000D03*
D36*
X45100000Y-31500000D03*
D35*
X45100000Y-33900000D03*
X46797056Y-29802944D03*
X46797056Y-33197056D03*
X47500000Y-31500000D03*
%TD*%
D23*
%TO.C,R27*%
X69212500Y-81900000D03*
X67387500Y-81900000D03*
%TD*%
D29*
%TO.C,C35*%
X82322500Y-97598000D03*
X84047500Y-97598000D03*
%TD*%
D31*
%TO.C,R7*%
X94600000Y-61662500D03*
X94600000Y-59837500D03*
%TD*%
D61*
%TO.C,U2*%
X85970000Y-36281165D03*
X85470000Y-36281165D03*
X84970000Y-36281165D03*
X84470000Y-36281165D03*
X83970000Y-36281165D03*
D62*
X83045000Y-37206165D03*
X83045000Y-37706165D03*
X83045000Y-38206165D03*
X83045000Y-38706165D03*
X83045000Y-39206165D03*
D61*
X83970000Y-40131165D03*
X84470000Y-40131165D03*
X84970000Y-40131165D03*
X85470000Y-40131165D03*
X85970000Y-40131165D03*
D62*
X86895000Y-39206165D03*
X86895000Y-38706165D03*
X86895000Y-38206165D03*
X86895000Y-37706165D03*
X86895000Y-37206165D03*
D63*
X84970000Y-38206165D03*
%TD*%
D29*
%TO.C,C22*%
X69337500Y-63800000D03*
X71062500Y-63800000D03*
%TD*%
D42*
%TO.C,R14*%
X88646000Y-35409500D03*
X88646000Y-37234500D03*
%TD*%
D28*
%TO.C,D9*%
X52036000Y-74689600D03*
X54136000Y-74689600D03*
%TD*%
D64*
%TO.C,H2*%
X112100000Y-98500000D03*
%TD*%
D38*
%TO.C,C23*%
X83362500Y-71700000D03*
X81637500Y-71700000D03*
%TD*%
D23*
%TO.C,R31*%
X53976000Y-72136000D03*
X52151000Y-72136000D03*
%TD*%
D30*
%TO.C,C13*%
X86900000Y-31637500D03*
X86900000Y-33362500D03*
%TD*%
%TO.C,C10*%
X94600000Y-66837500D03*
X94600000Y-68562500D03*
%TD*%
D65*
%TO.C,Q1*%
X60978000Y-57393500D03*
X62878000Y-57393500D03*
X61928000Y-55518500D03*
%TD*%
D41*
%TO.C,L5*%
X77216000Y-66793000D03*
X77216000Y-68843000D03*
%TD*%
D11*
%TO.C,D15*%
X49758500Y-97536000D03*
X51333500Y-97536000D03*
%TD*%
D29*
%TO.C,C34*%
X99737500Y-71000000D03*
X101462500Y-71000000D03*
%TD*%
%TO.C,C5*%
X95737500Y-55750000D03*
X97462500Y-55750000D03*
%TD*%
D66*
%TO.C,C27*%
X77100000Y-72050000D03*
X77100000Y-77450000D03*
%TD*%
D25*
%TO.C,L2*%
X95529500Y-41148000D03*
X93954500Y-41148000D03*
%TD*%
D23*
%TO.C,R3*%
X97512500Y-52250000D03*
X95687500Y-52250000D03*
%TD*%
D67*
%TO.C,C20*%
X75500000Y-51737500D03*
X75500000Y-54862500D03*
%TD*%
D31*
%TO.C,R18*%
X75100000Y-65412500D03*
X75100000Y-63587500D03*
%TD*%
D68*
%TO.C,U3*%
X70865000Y-57162500D03*
X72135000Y-57162500D03*
X72135000Y-50912500D03*
X70865000Y-50912500D03*
%TD*%
D38*
%TO.C,C3*%
X97462500Y-47000000D03*
X95737500Y-47000000D03*
%TD*%
D23*
%TO.C,R30*%
X84709000Y-75565000D03*
X82884000Y-75565000D03*
%TD*%
%TO.C,R33*%
X97178500Y-96774000D03*
X95353500Y-96774000D03*
%TD*%
%TO.C,R1*%
X115012500Y-59500000D03*
X113187500Y-59500000D03*
%TD*%
D38*
%TO.C,C25*%
X81462500Y-70000000D03*
X79737500Y-70000000D03*
%TD*%
%TO.C,C26*%
X81462500Y-67100000D03*
X79737500Y-67100000D03*
%TD*%
D69*
%TO.C,U6*%
X107360000Y-75500000D03*
X106090000Y-75500000D03*
X104820000Y-75500000D03*
X103550000Y-75500000D03*
X102280000Y-75500000D03*
X101010000Y-75500000D03*
X99740000Y-75500000D03*
X98470000Y-75500000D03*
X97200000Y-75500000D03*
X95930000Y-75500000D03*
X94660000Y-75500000D03*
X93390000Y-75500000D03*
X92120000Y-75500000D03*
X90850000Y-75500000D03*
D70*
X89600000Y-78540000D03*
X89600000Y-79810000D03*
X89600000Y-81080000D03*
X89600000Y-82350000D03*
X89600000Y-83620000D03*
X89600000Y-84890000D03*
X89600000Y-86160000D03*
X89600000Y-87430000D03*
X89600000Y-88700000D03*
X89600000Y-89970000D03*
D69*
X90850000Y-93000000D03*
X92120000Y-93000000D03*
X93390000Y-93000000D03*
X94660000Y-93000000D03*
X95930000Y-93000000D03*
X97200000Y-93000000D03*
X98470000Y-93000000D03*
X99740000Y-93000000D03*
X101010000Y-93000000D03*
X102280000Y-93000000D03*
X103550000Y-93000000D03*
X104820000Y-93000000D03*
X106090000Y-93000000D03*
X107360000Y-93000000D03*
D35*
X100782500Y-82045000D03*
X99257500Y-82045000D03*
X101545000Y-82807500D03*
X100020000Y-82807500D03*
X98495000Y-82807500D03*
X100782500Y-83570000D03*
D71*
X100020000Y-83570000D03*
D35*
X99257500Y-83570000D03*
X101545000Y-84332500D03*
X100020000Y-84332500D03*
X98495000Y-84332500D03*
X100782500Y-85095000D03*
X99257500Y-85095000D03*
%TD*%
D40*
%TO.C,U11*%
X56311000Y-68701000D03*
X56311000Y-69971000D03*
X62561000Y-69971000D03*
X62561000Y-68701000D03*
%TD*%
D72*
%TO.C,U5*%
X81050000Y-79862500D03*
X80100000Y-79862500D03*
X79150000Y-79862500D03*
X79150000Y-82137500D03*
X80100000Y-82137500D03*
X81050000Y-82137500D03*
%TD*%
D64*
%TO.C,H1*%
X112100000Y-31500000D03*
%TD*%
D28*
%TO.C,D13*%
X53052000Y-64770000D03*
X55152000Y-64770000D03*
%TD*%
D26*
%TO.C,J5*%
X74925000Y-41100000D03*
D37*
X74925000Y-43640000D03*
X74925000Y-46180000D03*
X74925000Y-48720000D03*
%TD*%
D23*
%TO.C,R36*%
X73429500Y-91821000D03*
X71604500Y-91821000D03*
%TD*%
D30*
%TO.C,C1*%
X94600000Y-63387500D03*
X94600000Y-65112500D03*
%TD*%
D26*
%TO.C,J6*%
X74925000Y-84200000D03*
D37*
X74925000Y-86740000D03*
X74925000Y-89280000D03*
%TD*%
D30*
%TO.C,C12*%
X90678000Y-31649500D03*
X90678000Y-33374500D03*
%TD*%
D26*
%TO.C,J4*%
X52070000Y-52324000D03*
D27*
X52070000Y-54864000D03*
X52070000Y-57404000D03*
%TD*%
D73*
%TO.C,T1*%
X79920000Y-47815000D03*
X82410000Y-47815000D03*
X84900000Y-47815000D03*
X87390000Y-47815000D03*
X89880000Y-47815000D03*
X89880000Y-63185000D03*
X87390000Y-63185000D03*
X84900000Y-63185000D03*
X82410000Y-63185000D03*
X79920000Y-63185000D03*
%TD*%
D74*
%TO.C,U4*%
X72150000Y-59862500D03*
X70250000Y-59862500D03*
X71200000Y-61737500D03*
%TD*%
D24*
%TO.C,C11*%
X97282000Y-40994500D03*
X97282000Y-39269500D03*
%TD*%
D29*
%TO.C,C36*%
X82322500Y-91848000D03*
X84047500Y-91848000D03*
%TD*%
D75*
%TO.C,L6*%
X80350000Y-84929900D03*
X80350000Y-89070100D03*
%TD*%
M02*
