M48
; DRILL file KiCad 10.0.3 date 2026-05-26T13:40:19
; FORMAT={-:-/ absolute / metric / decimal}
; #@! TF.CreationDate,2026-05-26T13:40:19+02:00
; #@! TF.GenerationSoftware,Kicad,Pcbnew,10.0.3
; #@! TF.FileFunction,Plated,1,2,PTH
FMAT,2
METRIC
; #@! TA.AperFunction,Plated,PTH,ComponentDrill
T1C0.200
; #@! TA.AperFunction,Plated,PTH,ViaDrill
T2C0.400
; #@! TA.AperFunction,Plated,PTH,ComponentDrill
T3C0.400
; #@! TA.AperFunction,Plated,PTH,ComponentDrill
T4C0.500
; #@! TA.AperFunction,Plated,PTH,ComponentDrill
T5C0.650
; #@! TA.AperFunction,Plated,PTH,ComponentDrill
T6C0.900
; #@! TA.AperFunction,Plated,PTH,ComponentDrill
T7C0.950
; #@! TA.AperFunction,Plated,PTH,ComponentDrill
T8C1.000
; #@! TA.AperFunction,Plated,PTH,ComponentDrill
T9C1.100
; #@! TA.AperFunction,Plated,PTH,ComponentDrill
T10C1.100
; #@! TA.AperFunction,Plated,PTH,ComponentDrill
T11C1.300
; #@! TA.AperFunction,Plated,PTH,ComponentDrill
T12C1.630
; #@! TA.AperFunction,Plated,PTH,ComponentDrill
T13C3.200
%
G90
G05
T1
X83.92Y-37.156
X83.92Y-39.256
X86.02Y-37.156
X86.02Y-39.256
T2
X44.5Y-83.5
X45.0Y-98.5
X45.5Y-71.0
X47.0Y-87.0
X47.752Y-60.833
X48.0Y-80.0
X48.006Y-94.488
X49.0Y-86.0
X50.0Y-99.0
X50.408Y-71.092
X50.5Y-68.5
X50.5Y-74.5
X50.5Y-104.5
X51.5Y-113.0
X54.737Y-60.325
X55.0Y-75.5
X55.626Y-65.786
X55.88Y-71.12
X56.0Y-79.5
X56.0Y-126.0
X59.69Y-55.118
X60.0Y-89.0
X60.0Y-93.5
X61.5Y-75.5
X61.5Y-81.5
X61.722Y-59.944
X62.484Y-62.738
X62.5Y-98.5
X63.487Y-110.487
X63.5Y-64.65
X64.0Y-75.5
X64.5Y-103.0
X64.997Y-96.497
X65.0Y-80.5
X65.0Y-83.5
X65.0Y-99.5
X65.0Y-110.0
X66.0Y-93.788
X66.0Y-107.0
X66.294Y-57.912
X66.548Y-64.77
X66.675Y-80.892
X66.812Y-72.0
X66.837Y-77.75
X67.31Y-69.596
X67.35Y-61.0
X67.5Y-100.5
X68.0Y-83.0
X68.0Y-96.2
X68.5Y-88.0
X69.225Y-89.0
X69.596Y-75.692
X69.6Y-48.5
X69.788Y-80.197
X70.0Y-94.5
X70.0Y-107.0
X70.001Y-82.804
X70.1Y-58.5
X70.1Y-62.25
X70.104Y-77.216
X70.104Y-79.248
X70.5Y-87.5
X70.5Y-104.5
X70.866Y-69.342
X70.866Y-90.678
X71.0Y-117.5
X73.5Y-96.5
X73.5Y-100.0
X73.5Y-112.0
X74.1Y-35.9
X74.35Y-30.0
X74.93Y-76.646
X75.184Y-67.31
X76.5Y-57.9
X76.5Y-93.0
X76.708Y-82.042
X77.3Y-50.1
X77.4Y-38.0
X77.47Y-80.01
X77.724Y-62.738
X77.9Y-46.1
X77.978Y-92.964
X78.1Y-30.5
X78.1Y-34.5
X78.5Y-99.5
X78.5Y-113.5
X78.74Y-68.58
X78.994Y-87.122
X79.1Y-72.25
X79.756Y-76.708
X80.1Y-33.5
X80.1Y-44.5
X81.28Y-78.486
X81.407Y-75.946
X81.788Y-37.592
X81.788Y-42.672
X82.1Y-57.5
X83.693Y-96.647
X83.82Y-84.836
X84.132Y-89.212
X84.226Y-35.099
X84.85Y-65.25
X85.0Y-100.0
X85.344Y-42.418
X85.598Y-89.916
X85.852Y-78.74
X86.614Y-77.978
X86.842Y-35.41
X86.868Y-81.28
X87.0Y-97.0
X87.1Y-29.5
X87.5Y-114.5
X87.5Y-126.5
X87.63Y-41.91
X87.63Y-91.948
X87.884Y-33.528
X88.0Y-101.5
X88.413Y-39.366
X88.5Y-91.0
X89.0Y-115.0
X89.35Y-59.25
X89.5Y-93.788
X89.662Y-75.946
X90.0Y-119.0
X90.17Y-37.846
X90.241Y-94.8
X90.85Y-91.694
X90.932Y-69.85
X91.0Y-83.0
X91.4Y-79.0
X91.4Y-81.5
X91.694Y-34.544
X92.0Y-77.0
X92.1Y-55.75
X92.1Y-91.5
X92.5Y-116.5
X92.71Y-28.702
X92.964Y-33.274
X92.964Y-62.23
X93.35Y-91.25
X93.458Y-58.402
X93.5Y-111.5
X93.5Y-113.5
X93.726Y-71.628
X93.865Y-60.762
X94.0Y-79.5
X94.0Y-80.5
X94.234Y-84.836
X94.5Y-107.5
X94.6Y-77.25
X94.85Y-91.25
X94.9Y-73.124
X95.0Y-120.0
X95.377Y-45.339
X95.5Y-112.563
X95.6Y-62.5
X95.603Y-61.061
X95.64Y-97.418
X95.85Y-77.25
X96.35Y-78.75
X96.712Y-80.5
X96.774Y-86.614
X97.094Y-77.0
X97.5Y-108.5
X97.5Y-120.0
X97.5Y-126.0
X98.1Y-45.75
X98.494Y-73.134
X98.664Y-66.93
X98.838Y-80.143
X99.06Y-87.376
X99.1Y-55.75
X99.1Y-62.812
X99.187Y-43.815
X99.5Y-118.5
X99.5Y-120.0
X99.822Y-94.488
X99.85Y-66.425
X100.457Y-97.028
X100.55Y-73.44
X101.1Y-91.5
X101.169Y-78.963
X101.3Y-66.311
X102.1Y-29.5
X102.1Y-58.25
X102.1Y-74.0
X102.108Y-94.488
X102.35Y-60.25
X102.575Y-63.565
X103.378Y-89.408
X103.6Y-77.5
X103.601Y-67.548
X103.632Y-94.488
X104.324Y-63.66
X105.6Y-91.5
X105.85Y-73.25
X105.918Y-80.01
X106.299Y-97.155
X106.426Y-62.865
X107.95Y-66.04
X108.0Y-125.0
X108.5Y-102.0
X108.712Y-57.658
X111.5Y-119.0
T3
X98.495Y-82.807
X98.495Y-84.332
X99.257Y-82.045
X99.257Y-83.57
X99.257Y-85.095
X100.02Y-82.807
X100.02Y-84.332
X100.782Y-82.045
X100.782Y-83.57
X100.782Y-85.095
X101.545Y-82.807
X101.545Y-84.332
T4
X42.7Y-31.5
X42.7Y-123.5
X43.403Y-29.803
X43.403Y-33.197
X43.403Y-121.803
X43.403Y-125.197
X45.1Y-29.1
X45.1Y-33.9
X45.1Y-121.1
X45.1Y-125.9
X46.797Y-29.803
X46.797Y-33.197
X46.797Y-121.803
X46.797Y-125.197
X47.5Y-31.5
X47.5Y-123.5
T5
X94.105Y-122.57
X99.885Y-122.57
T6
X101.01Y-43.055
X101.01Y-45.595
X101.01Y-48.135
X101.01Y-50.675
X101.01Y-53.215
X103.55Y-41.785
X103.55Y-44.325
X103.55Y-46.865
X103.55Y-49.405
X103.55Y-51.945
T7
X47.335Y-96.75
X47.335Y-99.25
X47.335Y-101.75
X47.335Y-104.25
X47.335Y-106.75
X47.335Y-109.25
X47.335Y-111.75
X47.335Y-114.25
T8
X52.07Y-52.324
X52.07Y-54.864
X52.07Y-57.404
X52.35Y-46.5
X57.912Y-63.246
X57.912Y-65.786
X60.452Y-63.246
X60.452Y-65.786
X64.35Y-46.5
X74.925Y-41.1
X74.925Y-43.64
X74.925Y-46.18
X74.925Y-48.72
X74.925Y-84.2
X74.925Y-86.74
X74.925Y-89.28
X93.1Y-101.0
X95.64Y-101.0
X98.18Y-101.0
X100.72Y-101.0
X103.26Y-101.0
X105.8Y-101.0
T9
X113.99Y-40.871
X113.99Y-43.411
X113.99Y-51.589
X113.99Y-54.129
T10
X42.435Y-42.75
X42.435Y-49.75
X42.435Y-56.75
X42.5Y-67.021
X42.5Y-77.292
X42.5Y-87.562
X47.435Y-39.25
X47.435Y-46.25
X47.435Y-53.25
X47.5Y-63.521
X47.5Y-73.792
X47.5Y-84.062
T11
X52.3Y-34.25
X58.3Y-48.45
X64.35Y-34.3
T12
X106.852Y-39.753
X106.852Y-55.247
T13
X45.1Y-31.5
X45.1Y-123.5
M30
