%TF.GenerationSoftware,KiCad,Pcbnew,(7.0.0)*%
%TF.CreationDate,2023-03-14T22:36:42+01:00*%
%TF.ProjectId,Zamkonator,5a616d6b-6f6e-4617-946f-722e6b696361,rev?*%
%TF.SameCoordinates,Original*%
%TF.FileFunction,Legend,Bot*%
%TF.FilePolarity,Positive*%
%FSLAX46Y46*%
G04 Gerber Fmt 4.6, Leading zero omitted, Abs format (unit mm)*
G04 Created by KiCad (PCBNEW (7.0.0)) date 2023-03-14 22:36:42*
%MOMM*%
%LPD*%
G01*
G04 APERTURE LIST*
%ADD10C,0.150000*%
%ADD11C,0.120000*%
G04 APERTURE END LIST*
D10*
X36833333Y-66757166D02*
X36833333Y-66057166D01*
X36366667Y-66057166D02*
X36233333Y-66057166D01*
X36233333Y-66057166D02*
X36166667Y-66090500D01*
X36166667Y-66090500D02*
X36100000Y-66157166D01*
X36100000Y-66157166D02*
X36066667Y-66290500D01*
X36066667Y-66290500D02*
X36066667Y-66523833D01*
X36066667Y-66523833D02*
X36100000Y-66657166D01*
X36100000Y-66657166D02*
X36166667Y-66723833D01*
X36166667Y-66723833D02*
X36233333Y-66757166D01*
X36233333Y-66757166D02*
X36366667Y-66757166D01*
X36366667Y-66757166D02*
X36433333Y-66723833D01*
X36433333Y-66723833D02*
X36500000Y-66657166D01*
X36500000Y-66657166D02*
X36533333Y-66523833D01*
X36533333Y-66523833D02*
X36533333Y-66290500D01*
X36533333Y-66290500D02*
X36500000Y-66157166D01*
X36500000Y-66157166D02*
X36433333Y-66090500D01*
X36433333Y-66090500D02*
X36366667Y-66057166D01*
X35400000Y-66757166D02*
X35800000Y-66757166D01*
X35600000Y-66757166D02*
X35600000Y-66057166D01*
X35600000Y-66057166D02*
X35666667Y-66157166D01*
X35666667Y-66157166D02*
X35733334Y-66223833D01*
X35733334Y-66223833D02*
X35800000Y-66257166D01*
X35166667Y-66057166D02*
X34733333Y-66057166D01*
X34733333Y-66057166D02*
X34966667Y-66323833D01*
X34966667Y-66323833D02*
X34866667Y-66323833D01*
X34866667Y-66323833D02*
X34800000Y-66357166D01*
X34800000Y-66357166D02*
X34766667Y-66390500D01*
X34766667Y-66390500D02*
X34733333Y-66457166D01*
X34733333Y-66457166D02*
X34733333Y-66623833D01*
X34733333Y-66623833D02*
X34766667Y-66690500D01*
X34766667Y-66690500D02*
X34800000Y-66723833D01*
X34800000Y-66723833D02*
X34866667Y-66757166D01*
X34866667Y-66757166D02*
X35066667Y-66757166D01*
X35066667Y-66757166D02*
X35133333Y-66723833D01*
X35133333Y-66723833D02*
X35166667Y-66690500D01*
X19733333Y-39457166D02*
X19299999Y-39457166D01*
X19299999Y-39457166D02*
X19533333Y-39723833D01*
X19533333Y-39723833D02*
X19433333Y-39723833D01*
X19433333Y-39723833D02*
X19366666Y-39757166D01*
X19366666Y-39757166D02*
X19333333Y-39790500D01*
X19333333Y-39790500D02*
X19299999Y-39857166D01*
X19299999Y-39857166D02*
X19299999Y-40023833D01*
X19299999Y-40023833D02*
X19333333Y-40090500D01*
X19333333Y-40090500D02*
X19366666Y-40123833D01*
X19366666Y-40123833D02*
X19433333Y-40157166D01*
X19433333Y-40157166D02*
X19633333Y-40157166D01*
X19633333Y-40157166D02*
X19699999Y-40123833D01*
X19699999Y-40123833D02*
X19733333Y-40090500D01*
X18999999Y-40090500D02*
X18966666Y-40123833D01*
X18966666Y-40123833D02*
X18999999Y-40157166D01*
X18999999Y-40157166D02*
X19033332Y-40123833D01*
X19033332Y-40123833D02*
X18999999Y-40090500D01*
X18999999Y-40090500D02*
X18999999Y-40157166D01*
X18733333Y-39457166D02*
X18299999Y-39457166D01*
X18299999Y-39457166D02*
X18533333Y-39723833D01*
X18533333Y-39723833D02*
X18433333Y-39723833D01*
X18433333Y-39723833D02*
X18366666Y-39757166D01*
X18366666Y-39757166D02*
X18333333Y-39790500D01*
X18333333Y-39790500D02*
X18299999Y-39857166D01*
X18299999Y-39857166D02*
X18299999Y-40023833D01*
X18299999Y-40023833D02*
X18333333Y-40090500D01*
X18333333Y-40090500D02*
X18366666Y-40123833D01*
X18366666Y-40123833D02*
X18433333Y-40157166D01*
X18433333Y-40157166D02*
X18633333Y-40157166D01*
X18633333Y-40157166D02*
X18699999Y-40123833D01*
X18699999Y-40123833D02*
X18733333Y-40090500D01*
X18099999Y-39457166D02*
X17866666Y-40157166D01*
X17866666Y-40157166D02*
X17633332Y-39457166D01*
X7219047Y-46167380D02*
X7790475Y-46167380D01*
X7504761Y-46167380D02*
X7504761Y-45167380D01*
X7504761Y-45167380D02*
X7599999Y-45310238D01*
X7599999Y-45310238D02*
X7695237Y-45405476D01*
X7695237Y-45405476D02*
X7790475Y-45453095D01*
X6838094Y-45262619D02*
X6790475Y-45215000D01*
X6790475Y-45215000D02*
X6695237Y-45167380D01*
X6695237Y-45167380D02*
X6457142Y-45167380D01*
X6457142Y-45167380D02*
X6361904Y-45215000D01*
X6361904Y-45215000D02*
X6314285Y-45262619D01*
X6314285Y-45262619D02*
X6266666Y-45357857D01*
X6266666Y-45357857D02*
X6266666Y-45453095D01*
X6266666Y-45453095D02*
X6314285Y-45595952D01*
X6314285Y-45595952D02*
X6885713Y-46167380D01*
X6885713Y-46167380D02*
X6266666Y-46167380D01*
X5980951Y-45167380D02*
X5647618Y-46167380D01*
X5647618Y-46167380D02*
X5314285Y-45167380D01*
X24699999Y-61057166D02*
X24699999Y-60357166D01*
X24233333Y-60357166D02*
X24099999Y-60357166D01*
X24099999Y-60357166D02*
X24033333Y-60390500D01*
X24033333Y-60390500D02*
X23966666Y-60457166D01*
X23966666Y-60457166D02*
X23933333Y-60590500D01*
X23933333Y-60590500D02*
X23933333Y-60823833D01*
X23933333Y-60823833D02*
X23966666Y-60957166D01*
X23966666Y-60957166D02*
X24033333Y-61023833D01*
X24033333Y-61023833D02*
X24099999Y-61057166D01*
X24099999Y-61057166D02*
X24233333Y-61057166D01*
X24233333Y-61057166D02*
X24299999Y-61023833D01*
X24299999Y-61023833D02*
X24366666Y-60957166D01*
X24366666Y-60957166D02*
X24399999Y-60823833D01*
X24399999Y-60823833D02*
X24399999Y-60590500D01*
X24399999Y-60590500D02*
X24366666Y-60457166D01*
X24366666Y-60457166D02*
X24299999Y-60390500D01*
X24299999Y-60390500D02*
X24233333Y-60357166D01*
X23666666Y-60423833D02*
X23633333Y-60390500D01*
X23633333Y-60390500D02*
X23566666Y-60357166D01*
X23566666Y-60357166D02*
X23400000Y-60357166D01*
X23400000Y-60357166D02*
X23333333Y-60390500D01*
X23333333Y-60390500D02*
X23300000Y-60423833D01*
X23300000Y-60423833D02*
X23266666Y-60490500D01*
X23266666Y-60490500D02*
X23266666Y-60557166D01*
X23266666Y-60557166D02*
X23300000Y-60657166D01*
X23300000Y-60657166D02*
X23700000Y-61057166D01*
X23700000Y-61057166D02*
X23266666Y-61057166D01*
X26583333Y-35457166D02*
X26816666Y-35123833D01*
X26983333Y-35457166D02*
X26983333Y-34757166D01*
X26983333Y-34757166D02*
X26716666Y-34757166D01*
X26716666Y-34757166D02*
X26650000Y-34790500D01*
X26650000Y-34790500D02*
X26616666Y-34823833D01*
X26616666Y-34823833D02*
X26583333Y-34890500D01*
X26583333Y-34890500D02*
X26583333Y-34990500D01*
X26583333Y-34990500D02*
X26616666Y-35057166D01*
X26616666Y-35057166D02*
X26650000Y-35090500D01*
X26650000Y-35090500D02*
X26716666Y-35123833D01*
X26716666Y-35123833D02*
X26983333Y-35123833D01*
X26283333Y-35090500D02*
X26050000Y-35090500D01*
X25950000Y-35457166D02*
X26283333Y-35457166D01*
X26283333Y-35457166D02*
X26283333Y-34757166D01*
X26283333Y-34757166D02*
X25950000Y-34757166D01*
X25316667Y-35457166D02*
X25650000Y-35457166D01*
X25650000Y-35457166D02*
X25650000Y-34757166D01*
X25116666Y-35257166D02*
X24783333Y-35257166D01*
X25183333Y-35457166D02*
X24950000Y-34757166D01*
X24950000Y-34757166D02*
X24716666Y-35457166D01*
X24350000Y-35123833D02*
X24350000Y-35457166D01*
X24583333Y-34757166D02*
X24350000Y-35123833D01*
X24350000Y-35123833D02*
X24116666Y-34757166D01*
X15949999Y-3357166D02*
X15949999Y-2657166D01*
X15949999Y-2657166D02*
X15549999Y-3357166D01*
X15549999Y-3357166D02*
X15549999Y-2657166D01*
X14816666Y-3290500D02*
X14849999Y-3323833D01*
X14849999Y-3323833D02*
X14949999Y-3357166D01*
X14949999Y-3357166D02*
X15016666Y-3357166D01*
X15016666Y-3357166D02*
X15116666Y-3323833D01*
X15116666Y-3323833D02*
X15183333Y-3257166D01*
X15183333Y-3257166D02*
X15216666Y-3190500D01*
X15216666Y-3190500D02*
X15249999Y-3057166D01*
X15249999Y-3057166D02*
X15249999Y-2957166D01*
X15249999Y-2957166D02*
X15216666Y-2823833D01*
X15216666Y-2823833D02*
X15183333Y-2757166D01*
X15183333Y-2757166D02*
X15116666Y-2690500D01*
X15116666Y-2690500D02*
X15016666Y-2657166D01*
X15016666Y-2657166D02*
X14949999Y-2657166D01*
X14949999Y-2657166D02*
X14849999Y-2690500D01*
X14849999Y-2690500D02*
X14816666Y-2723833D01*
X7142857Y-35967380D02*
X7619047Y-35967380D01*
X7619047Y-35967380D02*
X7619047Y-34967380D01*
X6809523Y-35443571D02*
X6476190Y-35443571D01*
X6333333Y-35967380D02*
X6809523Y-35967380D01*
X6809523Y-35967380D02*
X6809523Y-34967380D01*
X6809523Y-34967380D02*
X6333333Y-34967380D01*
X5904761Y-35967380D02*
X5904761Y-34967380D01*
X5904761Y-34967380D02*
X5666666Y-34967380D01*
X5666666Y-34967380D02*
X5523809Y-35015000D01*
X5523809Y-35015000D02*
X5428571Y-35110238D01*
X5428571Y-35110238D02*
X5380952Y-35205476D01*
X5380952Y-35205476D02*
X5333333Y-35395952D01*
X5333333Y-35395952D02*
X5333333Y-35538809D01*
X5333333Y-35538809D02*
X5380952Y-35729285D01*
X5380952Y-35729285D02*
X5428571Y-35824523D01*
X5428571Y-35824523D02*
X5523809Y-35919761D01*
X5523809Y-35919761D02*
X5666666Y-35967380D01*
X5666666Y-35967380D02*
X5904761Y-35967380D01*
X8347618Y-43667380D02*
X8347618Y-42667380D01*
X8347618Y-42667380D02*
X8109523Y-42667380D01*
X8109523Y-42667380D02*
X7966666Y-42715000D01*
X7966666Y-42715000D02*
X7871428Y-42810238D01*
X7871428Y-42810238D02*
X7823809Y-42905476D01*
X7823809Y-42905476D02*
X7776190Y-43095952D01*
X7776190Y-43095952D02*
X7776190Y-43238809D01*
X7776190Y-43238809D02*
X7823809Y-43429285D01*
X7823809Y-43429285D02*
X7871428Y-43524523D01*
X7871428Y-43524523D02*
X7966666Y-43619761D01*
X7966666Y-43619761D02*
X8109523Y-43667380D01*
X8109523Y-43667380D02*
X8347618Y-43667380D01*
X7395237Y-43381666D02*
X6919047Y-43381666D01*
X7490475Y-43667380D02*
X7157142Y-42667380D01*
X7157142Y-42667380D02*
X6823809Y-43667380D01*
X6633332Y-42667380D02*
X6061904Y-42667380D01*
X6347618Y-43667380D02*
X6347618Y-42667380D01*
X5204761Y-43667380D02*
X5776189Y-43667380D01*
X5490475Y-43667380D02*
X5490475Y-42667380D01*
X5490475Y-42667380D02*
X5585713Y-42810238D01*
X5585713Y-42810238D02*
X5680951Y-42905476D01*
X5680951Y-42905476D02*
X5776189Y-42953095D01*
X66633332Y-52190500D02*
X66699999Y-52157166D01*
X66699999Y-52157166D02*
X66799999Y-52157166D01*
X66799999Y-52157166D02*
X66899999Y-52190500D01*
X66899999Y-52190500D02*
X66966666Y-52257166D01*
X66966666Y-52257166D02*
X66999999Y-52323833D01*
X66999999Y-52323833D02*
X67033332Y-52457166D01*
X67033332Y-52457166D02*
X67033332Y-52557166D01*
X67033332Y-52557166D02*
X66999999Y-52690500D01*
X66999999Y-52690500D02*
X66966666Y-52757166D01*
X66966666Y-52757166D02*
X66899999Y-52823833D01*
X66899999Y-52823833D02*
X66799999Y-52857166D01*
X66799999Y-52857166D02*
X66733332Y-52857166D01*
X66733332Y-52857166D02*
X66633332Y-52823833D01*
X66633332Y-52823833D02*
X66599999Y-52790500D01*
X66599999Y-52790500D02*
X66599999Y-52557166D01*
X66599999Y-52557166D02*
X66733332Y-52557166D01*
X66299999Y-52857166D02*
X66299999Y-52157166D01*
X66299999Y-52157166D02*
X66033332Y-52157166D01*
X66033332Y-52157166D02*
X65966666Y-52190500D01*
X65966666Y-52190500D02*
X65933332Y-52223833D01*
X65933332Y-52223833D02*
X65899999Y-52290500D01*
X65899999Y-52290500D02*
X65899999Y-52390500D01*
X65899999Y-52390500D02*
X65933332Y-52457166D01*
X65933332Y-52457166D02*
X65966666Y-52490500D01*
X65966666Y-52490500D02*
X66033332Y-52523833D01*
X66033332Y-52523833D02*
X66299999Y-52523833D01*
X65599999Y-52857166D02*
X65599999Y-52157166D01*
X65133333Y-52157166D02*
X64999999Y-52157166D01*
X64999999Y-52157166D02*
X64933333Y-52190500D01*
X64933333Y-52190500D02*
X64866666Y-52257166D01*
X64866666Y-52257166D02*
X64833333Y-52390500D01*
X64833333Y-52390500D02*
X64833333Y-52623833D01*
X64833333Y-52623833D02*
X64866666Y-52757166D01*
X64866666Y-52757166D02*
X64933333Y-52823833D01*
X64933333Y-52823833D02*
X64999999Y-52857166D01*
X64999999Y-52857166D02*
X65133333Y-52857166D01*
X65133333Y-52857166D02*
X65199999Y-52823833D01*
X65199999Y-52823833D02*
X65266666Y-52757166D01*
X65266666Y-52757166D02*
X65299999Y-52623833D01*
X65299999Y-52623833D02*
X65299999Y-52390500D01*
X65299999Y-52390500D02*
X65266666Y-52257166D01*
X65266666Y-52257166D02*
X65199999Y-52190500D01*
X65199999Y-52190500D02*
X65133333Y-52157166D01*
X64400000Y-52157166D02*
X64333333Y-52157166D01*
X64333333Y-52157166D02*
X64266666Y-52190500D01*
X64266666Y-52190500D02*
X64233333Y-52223833D01*
X64233333Y-52223833D02*
X64200000Y-52290500D01*
X64200000Y-52290500D02*
X64166666Y-52423833D01*
X64166666Y-52423833D02*
X64166666Y-52590500D01*
X64166666Y-52590500D02*
X64200000Y-52723833D01*
X64200000Y-52723833D02*
X64233333Y-52790500D01*
X64233333Y-52790500D02*
X64266666Y-52823833D01*
X64266666Y-52823833D02*
X64333333Y-52857166D01*
X64333333Y-52857166D02*
X64400000Y-52857166D01*
X64400000Y-52857166D02*
X64466666Y-52823833D01*
X64466666Y-52823833D02*
X64500000Y-52790500D01*
X64500000Y-52790500D02*
X64533333Y-52723833D01*
X64533333Y-52723833D02*
X64566666Y-52590500D01*
X64566666Y-52590500D02*
X64566666Y-52423833D01*
X64566666Y-52423833D02*
X64533333Y-52290500D01*
X64533333Y-52290500D02*
X64500000Y-52223833D01*
X64500000Y-52223833D02*
X64466666Y-52190500D01*
X64466666Y-52190500D02*
X64400000Y-52157166D01*
X14249999Y-16290500D02*
X14283332Y-16323833D01*
X14283332Y-16323833D02*
X14383332Y-16357166D01*
X14383332Y-16357166D02*
X14449999Y-16357166D01*
X14449999Y-16357166D02*
X14549999Y-16323833D01*
X14549999Y-16323833D02*
X14616666Y-16257166D01*
X14616666Y-16257166D02*
X14649999Y-16190500D01*
X14649999Y-16190500D02*
X14683332Y-16057166D01*
X14683332Y-16057166D02*
X14683332Y-15957166D01*
X14683332Y-15957166D02*
X14649999Y-15823833D01*
X14649999Y-15823833D02*
X14616666Y-15757166D01*
X14616666Y-15757166D02*
X14549999Y-15690500D01*
X14549999Y-15690500D02*
X14449999Y-15657166D01*
X14449999Y-15657166D02*
X14383332Y-15657166D01*
X14383332Y-15657166D02*
X14283332Y-15690500D01*
X14283332Y-15690500D02*
X14249999Y-15723833D01*
X13816666Y-15657166D02*
X13683332Y-15657166D01*
X13683332Y-15657166D02*
X13616666Y-15690500D01*
X13616666Y-15690500D02*
X13549999Y-15757166D01*
X13549999Y-15757166D02*
X13516666Y-15890500D01*
X13516666Y-15890500D02*
X13516666Y-16123833D01*
X13516666Y-16123833D02*
X13549999Y-16257166D01*
X13549999Y-16257166D02*
X13616666Y-16323833D01*
X13616666Y-16323833D02*
X13683332Y-16357166D01*
X13683332Y-16357166D02*
X13816666Y-16357166D01*
X13816666Y-16357166D02*
X13883332Y-16323833D01*
X13883332Y-16323833D02*
X13949999Y-16257166D01*
X13949999Y-16257166D02*
X13983332Y-16123833D01*
X13983332Y-16123833D02*
X13983332Y-15890500D01*
X13983332Y-15890500D02*
X13949999Y-15757166D01*
X13949999Y-15757166D02*
X13883332Y-15690500D01*
X13883332Y-15690500D02*
X13816666Y-15657166D01*
X13216666Y-16357166D02*
X13216666Y-15657166D01*
X13216666Y-15657166D02*
X12983333Y-16157166D01*
X12983333Y-16157166D02*
X12749999Y-15657166D01*
X12749999Y-15657166D02*
X12749999Y-16357166D01*
X7361904Y-47815000D02*
X7457142Y-47767380D01*
X7457142Y-47767380D02*
X7599999Y-47767380D01*
X7599999Y-47767380D02*
X7742856Y-47815000D01*
X7742856Y-47815000D02*
X7838094Y-47910238D01*
X7838094Y-47910238D02*
X7885713Y-48005476D01*
X7885713Y-48005476D02*
X7933332Y-48195952D01*
X7933332Y-48195952D02*
X7933332Y-48338809D01*
X7933332Y-48338809D02*
X7885713Y-48529285D01*
X7885713Y-48529285D02*
X7838094Y-48624523D01*
X7838094Y-48624523D02*
X7742856Y-48719761D01*
X7742856Y-48719761D02*
X7599999Y-48767380D01*
X7599999Y-48767380D02*
X7504761Y-48767380D01*
X7504761Y-48767380D02*
X7361904Y-48719761D01*
X7361904Y-48719761D02*
X7314285Y-48672142D01*
X7314285Y-48672142D02*
X7314285Y-48338809D01*
X7314285Y-48338809D02*
X7504761Y-48338809D01*
X6885713Y-48767380D02*
X6885713Y-47767380D01*
X6885713Y-47767380D02*
X6314285Y-48767380D01*
X6314285Y-48767380D02*
X6314285Y-47767380D01*
X5838094Y-48767380D02*
X5838094Y-47767380D01*
X5838094Y-47767380D02*
X5599999Y-47767380D01*
X5599999Y-47767380D02*
X5457142Y-47815000D01*
X5457142Y-47815000D02*
X5361904Y-47910238D01*
X5361904Y-47910238D02*
X5314285Y-48005476D01*
X5314285Y-48005476D02*
X5266666Y-48195952D01*
X5266666Y-48195952D02*
X5266666Y-48338809D01*
X5266666Y-48338809D02*
X5314285Y-48529285D01*
X5314285Y-48529285D02*
X5361904Y-48624523D01*
X5361904Y-48624523D02*
X5457142Y-48719761D01*
X5457142Y-48719761D02*
X5599999Y-48767380D01*
X5599999Y-48767380D02*
X5838094Y-48767380D01*
X43333332Y-58990500D02*
X43399999Y-58957166D01*
X43399999Y-58957166D02*
X43499999Y-58957166D01*
X43499999Y-58957166D02*
X43599999Y-58990500D01*
X43599999Y-58990500D02*
X43666666Y-59057166D01*
X43666666Y-59057166D02*
X43699999Y-59123833D01*
X43699999Y-59123833D02*
X43733332Y-59257166D01*
X43733332Y-59257166D02*
X43733332Y-59357166D01*
X43733332Y-59357166D02*
X43699999Y-59490500D01*
X43699999Y-59490500D02*
X43666666Y-59557166D01*
X43666666Y-59557166D02*
X43599999Y-59623833D01*
X43599999Y-59623833D02*
X43499999Y-59657166D01*
X43499999Y-59657166D02*
X43433332Y-59657166D01*
X43433332Y-59657166D02*
X43333332Y-59623833D01*
X43333332Y-59623833D02*
X43299999Y-59590500D01*
X43299999Y-59590500D02*
X43299999Y-59357166D01*
X43299999Y-59357166D02*
X43433332Y-59357166D01*
X42999999Y-59657166D02*
X42999999Y-58957166D01*
X42999999Y-58957166D02*
X42599999Y-59657166D01*
X42599999Y-59657166D02*
X42599999Y-58957166D01*
X42266666Y-59657166D02*
X42266666Y-58957166D01*
X42266666Y-58957166D02*
X42099999Y-58957166D01*
X42099999Y-58957166D02*
X41999999Y-58990500D01*
X41999999Y-58990500D02*
X41933333Y-59057166D01*
X41933333Y-59057166D02*
X41899999Y-59123833D01*
X41899999Y-59123833D02*
X41866666Y-59257166D01*
X41866666Y-59257166D02*
X41866666Y-59357166D01*
X41866666Y-59357166D02*
X41899999Y-59490500D01*
X41899999Y-59490500D02*
X41933333Y-59557166D01*
X41933333Y-59557166D02*
X41999999Y-59623833D01*
X41999999Y-59623833D02*
X42099999Y-59657166D01*
X42099999Y-59657166D02*
X42266666Y-59657166D01*
X8347618Y-41067380D02*
X8347618Y-40067380D01*
X8347618Y-40067380D02*
X8109523Y-40067380D01*
X8109523Y-40067380D02*
X7966666Y-40115000D01*
X7966666Y-40115000D02*
X7871428Y-40210238D01*
X7871428Y-40210238D02*
X7823809Y-40305476D01*
X7823809Y-40305476D02*
X7776190Y-40495952D01*
X7776190Y-40495952D02*
X7776190Y-40638809D01*
X7776190Y-40638809D02*
X7823809Y-40829285D01*
X7823809Y-40829285D02*
X7871428Y-40924523D01*
X7871428Y-40924523D02*
X7966666Y-41019761D01*
X7966666Y-41019761D02*
X8109523Y-41067380D01*
X8109523Y-41067380D02*
X8347618Y-41067380D01*
X7395237Y-40781666D02*
X6919047Y-40781666D01*
X7490475Y-41067380D02*
X7157142Y-40067380D01*
X7157142Y-40067380D02*
X6823809Y-41067380D01*
X6633332Y-40067380D02*
X6061904Y-40067380D01*
X6347618Y-41067380D02*
X6347618Y-40067380D01*
X5538094Y-40067380D02*
X5442856Y-40067380D01*
X5442856Y-40067380D02*
X5347618Y-40115000D01*
X5347618Y-40115000D02*
X5299999Y-40162619D01*
X5299999Y-40162619D02*
X5252380Y-40257857D01*
X5252380Y-40257857D02*
X5204761Y-40448333D01*
X5204761Y-40448333D02*
X5204761Y-40686428D01*
X5204761Y-40686428D02*
X5252380Y-40876904D01*
X5252380Y-40876904D02*
X5299999Y-40972142D01*
X5299999Y-40972142D02*
X5347618Y-41019761D01*
X5347618Y-41019761D02*
X5442856Y-41067380D01*
X5442856Y-41067380D02*
X5538094Y-41067380D01*
X5538094Y-41067380D02*
X5633332Y-41019761D01*
X5633332Y-41019761D02*
X5680951Y-40972142D01*
X5680951Y-40972142D02*
X5728570Y-40876904D01*
X5728570Y-40876904D02*
X5776189Y-40686428D01*
X5776189Y-40686428D02*
X5776189Y-40448333D01*
X5776189Y-40448333D02*
X5728570Y-40257857D01*
X5728570Y-40257857D02*
X5680951Y-40162619D01*
X5680951Y-40162619D02*
X5633332Y-40115000D01*
X5633332Y-40115000D02*
X5538094Y-40067380D01*
X7528571Y-38043571D02*
X7385714Y-38091190D01*
X7385714Y-38091190D02*
X7338095Y-38138809D01*
X7338095Y-38138809D02*
X7290476Y-38234047D01*
X7290476Y-38234047D02*
X7290476Y-38376904D01*
X7290476Y-38376904D02*
X7338095Y-38472142D01*
X7338095Y-38472142D02*
X7385714Y-38519761D01*
X7385714Y-38519761D02*
X7480952Y-38567380D01*
X7480952Y-38567380D02*
X7861904Y-38567380D01*
X7861904Y-38567380D02*
X7861904Y-37567380D01*
X7861904Y-37567380D02*
X7528571Y-37567380D01*
X7528571Y-37567380D02*
X7433333Y-37615000D01*
X7433333Y-37615000D02*
X7385714Y-37662619D01*
X7385714Y-37662619D02*
X7338095Y-37757857D01*
X7338095Y-37757857D02*
X7338095Y-37853095D01*
X7338095Y-37853095D02*
X7385714Y-37948333D01*
X7385714Y-37948333D02*
X7433333Y-37995952D01*
X7433333Y-37995952D02*
X7528571Y-38043571D01*
X7528571Y-38043571D02*
X7861904Y-38043571D01*
X6861904Y-37567380D02*
X6861904Y-38376904D01*
X6861904Y-38376904D02*
X6814285Y-38472142D01*
X6814285Y-38472142D02*
X6766666Y-38519761D01*
X6766666Y-38519761D02*
X6671428Y-38567380D01*
X6671428Y-38567380D02*
X6480952Y-38567380D01*
X6480952Y-38567380D02*
X6385714Y-38519761D01*
X6385714Y-38519761D02*
X6338095Y-38472142D01*
X6338095Y-38472142D02*
X6290476Y-38376904D01*
X6290476Y-38376904D02*
X6290476Y-37567380D01*
X5909523Y-37567380D02*
X5242857Y-37567380D01*
X5242857Y-37567380D02*
X5909523Y-38567380D01*
X5909523Y-38567380D02*
X5242857Y-38567380D01*
X33033333Y-48257166D02*
X33433333Y-48257166D01*
X33233333Y-48257166D02*
X33233333Y-47557166D01*
X33233333Y-47557166D02*
X33300000Y-47657166D01*
X33300000Y-47657166D02*
X33366667Y-47723833D01*
X33366667Y-47723833D02*
X33433333Y-47757166D01*
X32766666Y-47623833D02*
X32733333Y-47590500D01*
X32733333Y-47590500D02*
X32666666Y-47557166D01*
X32666666Y-47557166D02*
X32500000Y-47557166D01*
X32500000Y-47557166D02*
X32433333Y-47590500D01*
X32433333Y-47590500D02*
X32400000Y-47623833D01*
X32400000Y-47623833D02*
X32366666Y-47690500D01*
X32366666Y-47690500D02*
X32366666Y-47757166D01*
X32366666Y-47757166D02*
X32400000Y-47857166D01*
X32400000Y-47857166D02*
X32800000Y-48257166D01*
X32800000Y-48257166D02*
X32366666Y-48257166D01*
X32166666Y-47557166D02*
X31933333Y-48257166D01*
X31933333Y-48257166D02*
X31699999Y-47557166D01*
X22866666Y-11057166D02*
X22866666Y-10357166D01*
X22866666Y-10357166D02*
X22466666Y-11057166D01*
X22466666Y-11057166D02*
X22466666Y-10357166D01*
X22000000Y-10357166D02*
X21866666Y-10357166D01*
X21866666Y-10357166D02*
X21800000Y-10390500D01*
X21800000Y-10390500D02*
X21733333Y-10457166D01*
X21733333Y-10457166D02*
X21700000Y-10590500D01*
X21700000Y-10590500D02*
X21700000Y-10823833D01*
X21700000Y-10823833D02*
X21733333Y-10957166D01*
X21733333Y-10957166D02*
X21800000Y-11023833D01*
X21800000Y-11023833D02*
X21866666Y-11057166D01*
X21866666Y-11057166D02*
X22000000Y-11057166D01*
X22000000Y-11057166D02*
X22066666Y-11023833D01*
X22066666Y-11023833D02*
X22133333Y-10957166D01*
X22133333Y-10957166D02*
X22166666Y-10823833D01*
X22166666Y-10823833D02*
X22166666Y-10590500D01*
X22166666Y-10590500D02*
X22133333Y-10457166D01*
X22133333Y-10457166D02*
X22066666Y-10390500D01*
X22066666Y-10390500D02*
X22000000Y-10357166D01*
X52233333Y-54857166D02*
X52233333Y-54157166D01*
X51766667Y-54157166D02*
X51633333Y-54157166D01*
X51633333Y-54157166D02*
X51566667Y-54190500D01*
X51566667Y-54190500D02*
X51500000Y-54257166D01*
X51500000Y-54257166D02*
X51466667Y-54390500D01*
X51466667Y-54390500D02*
X51466667Y-54623833D01*
X51466667Y-54623833D02*
X51500000Y-54757166D01*
X51500000Y-54757166D02*
X51566667Y-54823833D01*
X51566667Y-54823833D02*
X51633333Y-54857166D01*
X51633333Y-54857166D02*
X51766667Y-54857166D01*
X51766667Y-54857166D02*
X51833333Y-54823833D01*
X51833333Y-54823833D02*
X51900000Y-54757166D01*
X51900000Y-54757166D02*
X51933333Y-54623833D01*
X51933333Y-54623833D02*
X51933333Y-54390500D01*
X51933333Y-54390500D02*
X51900000Y-54257166D01*
X51900000Y-54257166D02*
X51833333Y-54190500D01*
X51833333Y-54190500D02*
X51766667Y-54157166D01*
X50800000Y-54857166D02*
X51200000Y-54857166D01*
X51000000Y-54857166D02*
X51000000Y-54157166D01*
X51000000Y-54157166D02*
X51066667Y-54257166D01*
X51066667Y-54257166D02*
X51133334Y-54323833D01*
X51133334Y-54323833D02*
X51200000Y-54357166D01*
X50533333Y-54223833D02*
X50500000Y-54190500D01*
X50500000Y-54190500D02*
X50433333Y-54157166D01*
X50433333Y-54157166D02*
X50266667Y-54157166D01*
X50266667Y-54157166D02*
X50200000Y-54190500D01*
X50200000Y-54190500D02*
X50166667Y-54223833D01*
X50166667Y-54223833D02*
X50133333Y-54290500D01*
X50133333Y-54290500D02*
X50133333Y-54357166D01*
X50133333Y-54357166D02*
X50166667Y-54457166D01*
X50166667Y-54457166D02*
X50566667Y-54857166D01*
X50566667Y-54857166D02*
X50133333Y-54857166D01*
X56566666Y-54790500D02*
X56599999Y-54823833D01*
X56599999Y-54823833D02*
X56699999Y-54857166D01*
X56699999Y-54857166D02*
X56766666Y-54857166D01*
X56766666Y-54857166D02*
X56866666Y-54823833D01*
X56866666Y-54823833D02*
X56933333Y-54757166D01*
X56933333Y-54757166D02*
X56966666Y-54690500D01*
X56966666Y-54690500D02*
X56999999Y-54557166D01*
X56999999Y-54557166D02*
X56999999Y-54457166D01*
X56999999Y-54457166D02*
X56966666Y-54323833D01*
X56966666Y-54323833D02*
X56933333Y-54257166D01*
X56933333Y-54257166D02*
X56866666Y-54190500D01*
X56866666Y-54190500D02*
X56766666Y-54157166D01*
X56766666Y-54157166D02*
X56699999Y-54157166D01*
X56699999Y-54157166D02*
X56599999Y-54190500D01*
X56599999Y-54190500D02*
X56566666Y-54223833D01*
X55933333Y-54857166D02*
X56266666Y-54857166D01*
X56266666Y-54857166D02*
X56266666Y-54157166D01*
X55699999Y-54857166D02*
X55699999Y-54157166D01*
X55299999Y-54857166D02*
X55599999Y-54457166D01*
X55299999Y-54157166D02*
X55699999Y-54557166D01*
X55166666Y-54923833D02*
X54633332Y-54923833D01*
X54466666Y-54490500D02*
X54233333Y-54490500D01*
X54133333Y-54857166D02*
X54466666Y-54857166D01*
X54466666Y-54857166D02*
X54466666Y-54157166D01*
X54466666Y-54157166D02*
X54133333Y-54157166D01*
X53833333Y-54857166D02*
X53833333Y-54157166D01*
X53833333Y-54157166D02*
X53433333Y-54857166D01*
X53433333Y-54857166D02*
X53433333Y-54157166D01*
X25133333Y-67157166D02*
X25133333Y-66457166D01*
X24666667Y-66457166D02*
X24533333Y-66457166D01*
X24533333Y-66457166D02*
X24466667Y-66490500D01*
X24466667Y-66490500D02*
X24400000Y-66557166D01*
X24400000Y-66557166D02*
X24366667Y-66690500D01*
X24366667Y-66690500D02*
X24366667Y-66923833D01*
X24366667Y-66923833D02*
X24400000Y-67057166D01*
X24400000Y-67057166D02*
X24466667Y-67123833D01*
X24466667Y-67123833D02*
X24533333Y-67157166D01*
X24533333Y-67157166D02*
X24666667Y-67157166D01*
X24666667Y-67157166D02*
X24733333Y-67123833D01*
X24733333Y-67123833D02*
X24800000Y-67057166D01*
X24800000Y-67057166D02*
X24833333Y-66923833D01*
X24833333Y-66923833D02*
X24833333Y-66690500D01*
X24833333Y-66690500D02*
X24800000Y-66557166D01*
X24800000Y-66557166D02*
X24733333Y-66490500D01*
X24733333Y-66490500D02*
X24666667Y-66457166D01*
X24100000Y-66523833D02*
X24066667Y-66490500D01*
X24066667Y-66490500D02*
X24000000Y-66457166D01*
X24000000Y-66457166D02*
X23833334Y-66457166D01*
X23833334Y-66457166D02*
X23766667Y-66490500D01*
X23766667Y-66490500D02*
X23733334Y-66523833D01*
X23733334Y-66523833D02*
X23700000Y-66590500D01*
X23700000Y-66590500D02*
X23700000Y-66657166D01*
X23700000Y-66657166D02*
X23733334Y-66757166D01*
X23733334Y-66757166D02*
X24133334Y-67157166D01*
X24133334Y-67157166D02*
X23700000Y-67157166D01*
X23466667Y-66457166D02*
X23033333Y-66457166D01*
X23033333Y-66457166D02*
X23266667Y-66723833D01*
X23266667Y-66723833D02*
X23166667Y-66723833D01*
X23166667Y-66723833D02*
X23100000Y-66757166D01*
X23100000Y-66757166D02*
X23066667Y-66790500D01*
X23066667Y-66790500D02*
X23033333Y-66857166D01*
X23033333Y-66857166D02*
X23033333Y-67023833D01*
X23033333Y-67023833D02*
X23066667Y-67090500D01*
X23066667Y-67090500D02*
X23100000Y-67123833D01*
X23100000Y-67123833D02*
X23166667Y-67157166D01*
X23166667Y-67157166D02*
X23366667Y-67157166D01*
X23366667Y-67157166D02*
X23433333Y-67123833D01*
X23433333Y-67123833D02*
X23466667Y-67090500D01*
%TO.C,R34*%
X30037380Y-60357142D02*
X29561190Y-60023809D01*
X30037380Y-59785714D02*
X29037380Y-59785714D01*
X29037380Y-59785714D02*
X29037380Y-60166666D01*
X29037380Y-60166666D02*
X29085000Y-60261904D01*
X29085000Y-60261904D02*
X29132619Y-60309523D01*
X29132619Y-60309523D02*
X29227857Y-60357142D01*
X29227857Y-60357142D02*
X29370714Y-60357142D01*
X29370714Y-60357142D02*
X29465952Y-60309523D01*
X29465952Y-60309523D02*
X29513571Y-60261904D01*
X29513571Y-60261904D02*
X29561190Y-60166666D01*
X29561190Y-60166666D02*
X29561190Y-59785714D01*
X29037380Y-60690476D02*
X29037380Y-61309523D01*
X29037380Y-61309523D02*
X29418333Y-60976190D01*
X29418333Y-60976190D02*
X29418333Y-61119047D01*
X29418333Y-61119047D02*
X29465952Y-61214285D01*
X29465952Y-61214285D02*
X29513571Y-61261904D01*
X29513571Y-61261904D02*
X29608809Y-61309523D01*
X29608809Y-61309523D02*
X29846904Y-61309523D01*
X29846904Y-61309523D02*
X29942142Y-61261904D01*
X29942142Y-61261904D02*
X29989761Y-61214285D01*
X29989761Y-61214285D02*
X30037380Y-61119047D01*
X30037380Y-61119047D02*
X30037380Y-60833333D01*
X30037380Y-60833333D02*
X29989761Y-60738095D01*
X29989761Y-60738095D02*
X29942142Y-60690476D01*
X29370714Y-62166666D02*
X30037380Y-62166666D01*
X28989761Y-61928571D02*
X29704047Y-61690476D01*
X29704047Y-61690476D02*
X29704047Y-62309523D01*
%TO.C,TP5*%
X64531904Y-40369380D02*
X63960476Y-40369380D01*
X64246190Y-41369380D02*
X64246190Y-40369380D01*
X63627142Y-41369380D02*
X63627142Y-40369380D01*
X63627142Y-40369380D02*
X63246190Y-40369380D01*
X63246190Y-40369380D02*
X63150952Y-40417000D01*
X63150952Y-40417000D02*
X63103333Y-40464619D01*
X63103333Y-40464619D02*
X63055714Y-40559857D01*
X63055714Y-40559857D02*
X63055714Y-40702714D01*
X63055714Y-40702714D02*
X63103333Y-40797952D01*
X63103333Y-40797952D02*
X63150952Y-40845571D01*
X63150952Y-40845571D02*
X63246190Y-40893190D01*
X63246190Y-40893190D02*
X63627142Y-40893190D01*
X62150952Y-40369380D02*
X62627142Y-40369380D01*
X62627142Y-40369380D02*
X62674761Y-40845571D01*
X62674761Y-40845571D02*
X62627142Y-40797952D01*
X62627142Y-40797952D02*
X62531904Y-40750333D01*
X62531904Y-40750333D02*
X62293809Y-40750333D01*
X62293809Y-40750333D02*
X62198571Y-40797952D01*
X62198571Y-40797952D02*
X62150952Y-40845571D01*
X62150952Y-40845571D02*
X62103333Y-40940809D01*
X62103333Y-40940809D02*
X62103333Y-41178904D01*
X62103333Y-41178904D02*
X62150952Y-41274142D01*
X62150952Y-41274142D02*
X62198571Y-41321761D01*
X62198571Y-41321761D02*
X62293809Y-41369380D01*
X62293809Y-41369380D02*
X62531904Y-41369380D01*
X62531904Y-41369380D02*
X62627142Y-41321761D01*
X62627142Y-41321761D02*
X62674761Y-41274142D01*
%TO.C,TP10*%
X28338094Y-58519380D02*
X27766666Y-58519380D01*
X28052380Y-59519380D02*
X28052380Y-58519380D01*
X27433332Y-59519380D02*
X27433332Y-58519380D01*
X27433332Y-58519380D02*
X27052380Y-58519380D01*
X27052380Y-58519380D02*
X26957142Y-58567000D01*
X26957142Y-58567000D02*
X26909523Y-58614619D01*
X26909523Y-58614619D02*
X26861904Y-58709857D01*
X26861904Y-58709857D02*
X26861904Y-58852714D01*
X26861904Y-58852714D02*
X26909523Y-58947952D01*
X26909523Y-58947952D02*
X26957142Y-58995571D01*
X26957142Y-58995571D02*
X27052380Y-59043190D01*
X27052380Y-59043190D02*
X27433332Y-59043190D01*
X25909523Y-59519380D02*
X26480951Y-59519380D01*
X26195237Y-59519380D02*
X26195237Y-58519380D01*
X26195237Y-58519380D02*
X26290475Y-58662238D01*
X26290475Y-58662238D02*
X26385713Y-58757476D01*
X26385713Y-58757476D02*
X26480951Y-58805095D01*
X25290475Y-58519380D02*
X25195237Y-58519380D01*
X25195237Y-58519380D02*
X25099999Y-58567000D01*
X25099999Y-58567000D02*
X25052380Y-58614619D01*
X25052380Y-58614619D02*
X25004761Y-58709857D01*
X25004761Y-58709857D02*
X24957142Y-58900333D01*
X24957142Y-58900333D02*
X24957142Y-59138428D01*
X24957142Y-59138428D02*
X25004761Y-59328904D01*
X25004761Y-59328904D02*
X25052380Y-59424142D01*
X25052380Y-59424142D02*
X25099999Y-59471761D01*
X25099999Y-59471761D02*
X25195237Y-59519380D01*
X25195237Y-59519380D02*
X25290475Y-59519380D01*
X25290475Y-59519380D02*
X25385713Y-59471761D01*
X25385713Y-59471761D02*
X25433332Y-59424142D01*
X25433332Y-59424142D02*
X25480951Y-59328904D01*
X25480951Y-59328904D02*
X25528570Y-59138428D01*
X25528570Y-59138428D02*
X25528570Y-58900333D01*
X25528570Y-58900333D02*
X25480951Y-58709857D01*
X25480951Y-58709857D02*
X25433332Y-58614619D01*
X25433332Y-58614619D02*
X25385713Y-58567000D01*
X25385713Y-58567000D02*
X25290475Y-58519380D01*
%TO.C,TP8*%
X52461904Y-50319380D02*
X51890476Y-50319380D01*
X52176190Y-51319380D02*
X52176190Y-50319380D01*
X51557142Y-51319380D02*
X51557142Y-50319380D01*
X51557142Y-50319380D02*
X51176190Y-50319380D01*
X51176190Y-50319380D02*
X51080952Y-50367000D01*
X51080952Y-50367000D02*
X51033333Y-50414619D01*
X51033333Y-50414619D02*
X50985714Y-50509857D01*
X50985714Y-50509857D02*
X50985714Y-50652714D01*
X50985714Y-50652714D02*
X51033333Y-50747952D01*
X51033333Y-50747952D02*
X51080952Y-50795571D01*
X51080952Y-50795571D02*
X51176190Y-50843190D01*
X51176190Y-50843190D02*
X51557142Y-50843190D01*
X50414285Y-50747952D02*
X50509523Y-50700333D01*
X50509523Y-50700333D02*
X50557142Y-50652714D01*
X50557142Y-50652714D02*
X50604761Y-50557476D01*
X50604761Y-50557476D02*
X50604761Y-50509857D01*
X50604761Y-50509857D02*
X50557142Y-50414619D01*
X50557142Y-50414619D02*
X50509523Y-50367000D01*
X50509523Y-50367000D02*
X50414285Y-50319380D01*
X50414285Y-50319380D02*
X50223809Y-50319380D01*
X50223809Y-50319380D02*
X50128571Y-50367000D01*
X50128571Y-50367000D02*
X50080952Y-50414619D01*
X50080952Y-50414619D02*
X50033333Y-50509857D01*
X50033333Y-50509857D02*
X50033333Y-50557476D01*
X50033333Y-50557476D02*
X50080952Y-50652714D01*
X50080952Y-50652714D02*
X50128571Y-50700333D01*
X50128571Y-50700333D02*
X50223809Y-50747952D01*
X50223809Y-50747952D02*
X50414285Y-50747952D01*
X50414285Y-50747952D02*
X50509523Y-50795571D01*
X50509523Y-50795571D02*
X50557142Y-50843190D01*
X50557142Y-50843190D02*
X50604761Y-50938428D01*
X50604761Y-50938428D02*
X50604761Y-51128904D01*
X50604761Y-51128904D02*
X50557142Y-51224142D01*
X50557142Y-51224142D02*
X50509523Y-51271761D01*
X50509523Y-51271761D02*
X50414285Y-51319380D01*
X50414285Y-51319380D02*
X50223809Y-51319380D01*
X50223809Y-51319380D02*
X50128571Y-51271761D01*
X50128571Y-51271761D02*
X50080952Y-51224142D01*
X50080952Y-51224142D02*
X50033333Y-51128904D01*
X50033333Y-51128904D02*
X50033333Y-50938428D01*
X50033333Y-50938428D02*
X50080952Y-50843190D01*
X50080952Y-50843190D02*
X50128571Y-50795571D01*
X50128571Y-50795571D02*
X50223809Y-50747952D01*
%TO.C,TP13*%
X17138094Y-3769380D02*
X16566666Y-3769380D01*
X16852380Y-4769380D02*
X16852380Y-3769380D01*
X16233332Y-4769380D02*
X16233332Y-3769380D01*
X16233332Y-3769380D02*
X15852380Y-3769380D01*
X15852380Y-3769380D02*
X15757142Y-3817000D01*
X15757142Y-3817000D02*
X15709523Y-3864619D01*
X15709523Y-3864619D02*
X15661904Y-3959857D01*
X15661904Y-3959857D02*
X15661904Y-4102714D01*
X15661904Y-4102714D02*
X15709523Y-4197952D01*
X15709523Y-4197952D02*
X15757142Y-4245571D01*
X15757142Y-4245571D02*
X15852380Y-4293190D01*
X15852380Y-4293190D02*
X16233332Y-4293190D01*
X14709523Y-4769380D02*
X15280951Y-4769380D01*
X14995237Y-4769380D02*
X14995237Y-3769380D01*
X14995237Y-3769380D02*
X15090475Y-3912238D01*
X15090475Y-3912238D02*
X15185713Y-4007476D01*
X15185713Y-4007476D02*
X15280951Y-4055095D01*
X14376189Y-3769380D02*
X13757142Y-3769380D01*
X13757142Y-3769380D02*
X14090475Y-4150333D01*
X14090475Y-4150333D02*
X13947618Y-4150333D01*
X13947618Y-4150333D02*
X13852380Y-4197952D01*
X13852380Y-4197952D02*
X13804761Y-4245571D01*
X13804761Y-4245571D02*
X13757142Y-4340809D01*
X13757142Y-4340809D02*
X13757142Y-4578904D01*
X13757142Y-4578904D02*
X13804761Y-4674142D01*
X13804761Y-4674142D02*
X13852380Y-4721761D01*
X13852380Y-4721761D02*
X13947618Y-4769380D01*
X13947618Y-4769380D02*
X14233332Y-4769380D01*
X14233332Y-4769380D02*
X14328570Y-4721761D01*
X14328570Y-4721761D02*
X14376189Y-4674142D01*
%TO.C,TP12*%
X20938094Y-7569380D02*
X20366666Y-7569380D01*
X20652380Y-8569380D02*
X20652380Y-7569380D01*
X20033332Y-8569380D02*
X20033332Y-7569380D01*
X20033332Y-7569380D02*
X19652380Y-7569380D01*
X19652380Y-7569380D02*
X19557142Y-7617000D01*
X19557142Y-7617000D02*
X19509523Y-7664619D01*
X19509523Y-7664619D02*
X19461904Y-7759857D01*
X19461904Y-7759857D02*
X19461904Y-7902714D01*
X19461904Y-7902714D02*
X19509523Y-7997952D01*
X19509523Y-7997952D02*
X19557142Y-8045571D01*
X19557142Y-8045571D02*
X19652380Y-8093190D01*
X19652380Y-8093190D02*
X20033332Y-8093190D01*
X18509523Y-8569380D02*
X19080951Y-8569380D01*
X18795237Y-8569380D02*
X18795237Y-7569380D01*
X18795237Y-7569380D02*
X18890475Y-7712238D01*
X18890475Y-7712238D02*
X18985713Y-7807476D01*
X18985713Y-7807476D02*
X19080951Y-7855095D01*
X18128570Y-7664619D02*
X18080951Y-7617000D01*
X18080951Y-7617000D02*
X17985713Y-7569380D01*
X17985713Y-7569380D02*
X17747618Y-7569380D01*
X17747618Y-7569380D02*
X17652380Y-7617000D01*
X17652380Y-7617000D02*
X17604761Y-7664619D01*
X17604761Y-7664619D02*
X17557142Y-7759857D01*
X17557142Y-7759857D02*
X17557142Y-7855095D01*
X17557142Y-7855095D02*
X17604761Y-7997952D01*
X17604761Y-7997952D02*
X18176189Y-8569380D01*
X18176189Y-8569380D02*
X17557142Y-8569380D01*
%TO.C,TP6*%
X16461904Y-36569380D02*
X15890476Y-36569380D01*
X16176190Y-37569380D02*
X16176190Y-36569380D01*
X15557142Y-37569380D02*
X15557142Y-36569380D01*
X15557142Y-36569380D02*
X15176190Y-36569380D01*
X15176190Y-36569380D02*
X15080952Y-36617000D01*
X15080952Y-36617000D02*
X15033333Y-36664619D01*
X15033333Y-36664619D02*
X14985714Y-36759857D01*
X14985714Y-36759857D02*
X14985714Y-36902714D01*
X14985714Y-36902714D02*
X15033333Y-36997952D01*
X15033333Y-36997952D02*
X15080952Y-37045571D01*
X15080952Y-37045571D02*
X15176190Y-37093190D01*
X15176190Y-37093190D02*
X15557142Y-37093190D01*
X14128571Y-36569380D02*
X14319047Y-36569380D01*
X14319047Y-36569380D02*
X14414285Y-36617000D01*
X14414285Y-36617000D02*
X14461904Y-36664619D01*
X14461904Y-36664619D02*
X14557142Y-36807476D01*
X14557142Y-36807476D02*
X14604761Y-36997952D01*
X14604761Y-36997952D02*
X14604761Y-37378904D01*
X14604761Y-37378904D02*
X14557142Y-37474142D01*
X14557142Y-37474142D02*
X14509523Y-37521761D01*
X14509523Y-37521761D02*
X14414285Y-37569380D01*
X14414285Y-37569380D02*
X14223809Y-37569380D01*
X14223809Y-37569380D02*
X14128571Y-37521761D01*
X14128571Y-37521761D02*
X14080952Y-37474142D01*
X14080952Y-37474142D02*
X14033333Y-37378904D01*
X14033333Y-37378904D02*
X14033333Y-37140809D01*
X14033333Y-37140809D02*
X14080952Y-37045571D01*
X14080952Y-37045571D02*
X14128571Y-36997952D01*
X14128571Y-36997952D02*
X14223809Y-36950333D01*
X14223809Y-36950333D02*
X14414285Y-36950333D01*
X14414285Y-36950333D02*
X14509523Y-36997952D01*
X14509523Y-36997952D02*
X14557142Y-37045571D01*
X14557142Y-37045571D02*
X14604761Y-37140809D01*
%TO.C,JP1*%
X20233333Y-72067380D02*
X20233333Y-72781666D01*
X20233333Y-72781666D02*
X20280952Y-72924523D01*
X20280952Y-72924523D02*
X20376190Y-73019761D01*
X20376190Y-73019761D02*
X20519047Y-73067380D01*
X20519047Y-73067380D02*
X20614285Y-73067380D01*
X19757142Y-73067380D02*
X19757142Y-72067380D01*
X19757142Y-72067380D02*
X19376190Y-72067380D01*
X19376190Y-72067380D02*
X19280952Y-72115000D01*
X19280952Y-72115000D02*
X19233333Y-72162619D01*
X19233333Y-72162619D02*
X19185714Y-72257857D01*
X19185714Y-72257857D02*
X19185714Y-72400714D01*
X19185714Y-72400714D02*
X19233333Y-72495952D01*
X19233333Y-72495952D02*
X19280952Y-72543571D01*
X19280952Y-72543571D02*
X19376190Y-72591190D01*
X19376190Y-72591190D02*
X19757142Y-72591190D01*
X18233333Y-73067380D02*
X18804761Y-73067380D01*
X18519047Y-73067380D02*
X18519047Y-72067380D01*
X18519047Y-72067380D02*
X18614285Y-72210238D01*
X18614285Y-72210238D02*
X18709523Y-72305476D01*
X18709523Y-72305476D02*
X18804761Y-72353095D01*
%TO.C,TP7*%
X56461904Y-50519380D02*
X55890476Y-50519380D01*
X56176190Y-51519380D02*
X56176190Y-50519380D01*
X55557142Y-51519380D02*
X55557142Y-50519380D01*
X55557142Y-50519380D02*
X55176190Y-50519380D01*
X55176190Y-50519380D02*
X55080952Y-50567000D01*
X55080952Y-50567000D02*
X55033333Y-50614619D01*
X55033333Y-50614619D02*
X54985714Y-50709857D01*
X54985714Y-50709857D02*
X54985714Y-50852714D01*
X54985714Y-50852714D02*
X55033333Y-50947952D01*
X55033333Y-50947952D02*
X55080952Y-50995571D01*
X55080952Y-50995571D02*
X55176190Y-51043190D01*
X55176190Y-51043190D02*
X55557142Y-51043190D01*
X54652380Y-50519380D02*
X53985714Y-50519380D01*
X53985714Y-50519380D02*
X54414285Y-51519380D01*
%TO.C,TP14*%
X18738094Y-12969380D02*
X18166666Y-12969380D01*
X18452380Y-13969380D02*
X18452380Y-12969380D01*
X17833332Y-13969380D02*
X17833332Y-12969380D01*
X17833332Y-12969380D02*
X17452380Y-12969380D01*
X17452380Y-12969380D02*
X17357142Y-13017000D01*
X17357142Y-13017000D02*
X17309523Y-13064619D01*
X17309523Y-13064619D02*
X17261904Y-13159857D01*
X17261904Y-13159857D02*
X17261904Y-13302714D01*
X17261904Y-13302714D02*
X17309523Y-13397952D01*
X17309523Y-13397952D02*
X17357142Y-13445571D01*
X17357142Y-13445571D02*
X17452380Y-13493190D01*
X17452380Y-13493190D02*
X17833332Y-13493190D01*
X16309523Y-13969380D02*
X16880951Y-13969380D01*
X16595237Y-13969380D02*
X16595237Y-12969380D01*
X16595237Y-12969380D02*
X16690475Y-13112238D01*
X16690475Y-13112238D02*
X16785713Y-13207476D01*
X16785713Y-13207476D02*
X16880951Y-13255095D01*
X15452380Y-13302714D02*
X15452380Y-13969380D01*
X15690475Y-12921761D02*
X15928570Y-13636047D01*
X15928570Y-13636047D02*
X15309523Y-13636047D01*
%TO.C,TP9*%
X34461904Y-64119380D02*
X33890476Y-64119380D01*
X34176190Y-65119380D02*
X34176190Y-64119380D01*
X33557142Y-65119380D02*
X33557142Y-64119380D01*
X33557142Y-64119380D02*
X33176190Y-64119380D01*
X33176190Y-64119380D02*
X33080952Y-64167000D01*
X33080952Y-64167000D02*
X33033333Y-64214619D01*
X33033333Y-64214619D02*
X32985714Y-64309857D01*
X32985714Y-64309857D02*
X32985714Y-64452714D01*
X32985714Y-64452714D02*
X33033333Y-64547952D01*
X33033333Y-64547952D02*
X33080952Y-64595571D01*
X33080952Y-64595571D02*
X33176190Y-64643190D01*
X33176190Y-64643190D02*
X33557142Y-64643190D01*
X32509523Y-65119380D02*
X32319047Y-65119380D01*
X32319047Y-65119380D02*
X32223809Y-65071761D01*
X32223809Y-65071761D02*
X32176190Y-65024142D01*
X32176190Y-65024142D02*
X32080952Y-64881285D01*
X32080952Y-64881285D02*
X32033333Y-64690809D01*
X32033333Y-64690809D02*
X32033333Y-64309857D01*
X32033333Y-64309857D02*
X32080952Y-64214619D01*
X32080952Y-64214619D02*
X32128571Y-64167000D01*
X32128571Y-64167000D02*
X32223809Y-64119380D01*
X32223809Y-64119380D02*
X32414285Y-64119380D01*
X32414285Y-64119380D02*
X32509523Y-64167000D01*
X32509523Y-64167000D02*
X32557142Y-64214619D01*
X32557142Y-64214619D02*
X32604761Y-64309857D01*
X32604761Y-64309857D02*
X32604761Y-64547952D01*
X32604761Y-64547952D02*
X32557142Y-64643190D01*
X32557142Y-64643190D02*
X32509523Y-64690809D01*
X32509523Y-64690809D02*
X32414285Y-64738428D01*
X32414285Y-64738428D02*
X32223809Y-64738428D01*
X32223809Y-64738428D02*
X32128571Y-64690809D01*
X32128571Y-64690809D02*
X32080952Y-64643190D01*
X32080952Y-64643190D02*
X32033333Y-64547952D01*
%TO.C,TP1*%
X40661904Y-56369380D02*
X40090476Y-56369380D01*
X40376190Y-57369380D02*
X40376190Y-56369380D01*
X39757142Y-57369380D02*
X39757142Y-56369380D01*
X39757142Y-56369380D02*
X39376190Y-56369380D01*
X39376190Y-56369380D02*
X39280952Y-56417000D01*
X39280952Y-56417000D02*
X39233333Y-56464619D01*
X39233333Y-56464619D02*
X39185714Y-56559857D01*
X39185714Y-56559857D02*
X39185714Y-56702714D01*
X39185714Y-56702714D02*
X39233333Y-56797952D01*
X39233333Y-56797952D02*
X39280952Y-56845571D01*
X39280952Y-56845571D02*
X39376190Y-56893190D01*
X39376190Y-56893190D02*
X39757142Y-56893190D01*
X38233333Y-57369380D02*
X38804761Y-57369380D01*
X38519047Y-57369380D02*
X38519047Y-56369380D01*
X38519047Y-56369380D02*
X38614285Y-56512238D01*
X38614285Y-56512238D02*
X38709523Y-56607476D01*
X38709523Y-56607476D02*
X38804761Y-56655095D01*
%TO.C,R35*%
X36767380Y-63357142D02*
X36291190Y-63023809D01*
X36767380Y-62785714D02*
X35767380Y-62785714D01*
X35767380Y-62785714D02*
X35767380Y-63166666D01*
X35767380Y-63166666D02*
X35815000Y-63261904D01*
X35815000Y-63261904D02*
X35862619Y-63309523D01*
X35862619Y-63309523D02*
X35957857Y-63357142D01*
X35957857Y-63357142D02*
X36100714Y-63357142D01*
X36100714Y-63357142D02*
X36195952Y-63309523D01*
X36195952Y-63309523D02*
X36243571Y-63261904D01*
X36243571Y-63261904D02*
X36291190Y-63166666D01*
X36291190Y-63166666D02*
X36291190Y-62785714D01*
X35767380Y-63690476D02*
X35767380Y-64309523D01*
X35767380Y-64309523D02*
X36148333Y-63976190D01*
X36148333Y-63976190D02*
X36148333Y-64119047D01*
X36148333Y-64119047D02*
X36195952Y-64214285D01*
X36195952Y-64214285D02*
X36243571Y-64261904D01*
X36243571Y-64261904D02*
X36338809Y-64309523D01*
X36338809Y-64309523D02*
X36576904Y-64309523D01*
X36576904Y-64309523D02*
X36672142Y-64261904D01*
X36672142Y-64261904D02*
X36719761Y-64214285D01*
X36719761Y-64214285D02*
X36767380Y-64119047D01*
X36767380Y-64119047D02*
X36767380Y-63833333D01*
X36767380Y-63833333D02*
X36719761Y-63738095D01*
X36719761Y-63738095D02*
X36672142Y-63690476D01*
X35767380Y-65214285D02*
X35767380Y-64738095D01*
X35767380Y-64738095D02*
X36243571Y-64690476D01*
X36243571Y-64690476D02*
X36195952Y-64738095D01*
X36195952Y-64738095D02*
X36148333Y-64833333D01*
X36148333Y-64833333D02*
X36148333Y-65071428D01*
X36148333Y-65071428D02*
X36195952Y-65166666D01*
X36195952Y-65166666D02*
X36243571Y-65214285D01*
X36243571Y-65214285D02*
X36338809Y-65261904D01*
X36338809Y-65261904D02*
X36576904Y-65261904D01*
X36576904Y-65261904D02*
X36672142Y-65214285D01*
X36672142Y-65214285D02*
X36719761Y-65166666D01*
X36719761Y-65166666D02*
X36767380Y-65071428D01*
X36767380Y-65071428D02*
X36767380Y-64833333D01*
X36767380Y-64833333D02*
X36719761Y-64738095D01*
X36719761Y-64738095D02*
X36672142Y-64690476D01*
%TO.C,TP11*%
X22638094Y-64567380D02*
X22066666Y-64567380D01*
X22352380Y-65567380D02*
X22352380Y-64567380D01*
X21733332Y-65567380D02*
X21733332Y-64567380D01*
X21733332Y-64567380D02*
X21352380Y-64567380D01*
X21352380Y-64567380D02*
X21257142Y-64615000D01*
X21257142Y-64615000D02*
X21209523Y-64662619D01*
X21209523Y-64662619D02*
X21161904Y-64757857D01*
X21161904Y-64757857D02*
X21161904Y-64900714D01*
X21161904Y-64900714D02*
X21209523Y-64995952D01*
X21209523Y-64995952D02*
X21257142Y-65043571D01*
X21257142Y-65043571D02*
X21352380Y-65091190D01*
X21352380Y-65091190D02*
X21733332Y-65091190D01*
X20209523Y-65567380D02*
X20780951Y-65567380D01*
X20495237Y-65567380D02*
X20495237Y-64567380D01*
X20495237Y-64567380D02*
X20590475Y-64710238D01*
X20590475Y-64710238D02*
X20685713Y-64805476D01*
X20685713Y-64805476D02*
X20780951Y-64853095D01*
X19257142Y-65567380D02*
X19828570Y-65567380D01*
X19542856Y-65567380D02*
X19542856Y-64567380D01*
X19542856Y-64567380D02*
X19638094Y-64710238D01*
X19638094Y-64710238D02*
X19733332Y-64805476D01*
X19733332Y-64805476D02*
X19828570Y-64853095D01*
%TO.C,TP3*%
X63861904Y-50319380D02*
X63290476Y-50319380D01*
X63576190Y-51319380D02*
X63576190Y-50319380D01*
X62957142Y-51319380D02*
X62957142Y-50319380D01*
X62957142Y-50319380D02*
X62576190Y-50319380D01*
X62576190Y-50319380D02*
X62480952Y-50367000D01*
X62480952Y-50367000D02*
X62433333Y-50414619D01*
X62433333Y-50414619D02*
X62385714Y-50509857D01*
X62385714Y-50509857D02*
X62385714Y-50652714D01*
X62385714Y-50652714D02*
X62433333Y-50747952D01*
X62433333Y-50747952D02*
X62480952Y-50795571D01*
X62480952Y-50795571D02*
X62576190Y-50843190D01*
X62576190Y-50843190D02*
X62957142Y-50843190D01*
X62052380Y-50319380D02*
X61433333Y-50319380D01*
X61433333Y-50319380D02*
X61766666Y-50700333D01*
X61766666Y-50700333D02*
X61623809Y-50700333D01*
X61623809Y-50700333D02*
X61528571Y-50747952D01*
X61528571Y-50747952D02*
X61480952Y-50795571D01*
X61480952Y-50795571D02*
X61433333Y-50890809D01*
X61433333Y-50890809D02*
X61433333Y-51128904D01*
X61433333Y-51128904D02*
X61480952Y-51224142D01*
X61480952Y-51224142D02*
X61528571Y-51271761D01*
X61528571Y-51271761D02*
X61623809Y-51319380D01*
X61623809Y-51319380D02*
X61909523Y-51319380D01*
X61909523Y-51319380D02*
X62004761Y-51271761D01*
X62004761Y-51271761D02*
X62052380Y-51224142D01*
%TO.C,TP2*%
X30661904Y-44969380D02*
X30090476Y-44969380D01*
X30376190Y-45969380D02*
X30376190Y-44969380D01*
X29757142Y-45969380D02*
X29757142Y-44969380D01*
X29757142Y-44969380D02*
X29376190Y-44969380D01*
X29376190Y-44969380D02*
X29280952Y-45017000D01*
X29280952Y-45017000D02*
X29233333Y-45064619D01*
X29233333Y-45064619D02*
X29185714Y-45159857D01*
X29185714Y-45159857D02*
X29185714Y-45302714D01*
X29185714Y-45302714D02*
X29233333Y-45397952D01*
X29233333Y-45397952D02*
X29280952Y-45445571D01*
X29280952Y-45445571D02*
X29376190Y-45493190D01*
X29376190Y-45493190D02*
X29757142Y-45493190D01*
X28804761Y-45064619D02*
X28757142Y-45017000D01*
X28757142Y-45017000D02*
X28661904Y-44969380D01*
X28661904Y-44969380D02*
X28423809Y-44969380D01*
X28423809Y-44969380D02*
X28328571Y-45017000D01*
X28328571Y-45017000D02*
X28280952Y-45064619D01*
X28280952Y-45064619D02*
X28233333Y-45159857D01*
X28233333Y-45159857D02*
X28233333Y-45255095D01*
X28233333Y-45255095D02*
X28280952Y-45397952D01*
X28280952Y-45397952D02*
X28852380Y-45969380D01*
X28852380Y-45969380D02*
X28233333Y-45969380D01*
%TO.C,TP4*%
X23861904Y-32919380D02*
X23290476Y-32919380D01*
X23576190Y-33919380D02*
X23576190Y-32919380D01*
X22957142Y-33919380D02*
X22957142Y-32919380D01*
X22957142Y-32919380D02*
X22576190Y-32919380D01*
X22576190Y-32919380D02*
X22480952Y-32967000D01*
X22480952Y-32967000D02*
X22433333Y-33014619D01*
X22433333Y-33014619D02*
X22385714Y-33109857D01*
X22385714Y-33109857D02*
X22385714Y-33252714D01*
X22385714Y-33252714D02*
X22433333Y-33347952D01*
X22433333Y-33347952D02*
X22480952Y-33395571D01*
X22480952Y-33395571D02*
X22576190Y-33443190D01*
X22576190Y-33443190D02*
X22957142Y-33443190D01*
X21528571Y-33252714D02*
X21528571Y-33919380D01*
X21766666Y-32871761D02*
X22004761Y-33586047D01*
X22004761Y-33586047D02*
X21385714Y-33586047D01*
D11*
%TO.C,R34*%
X31622500Y-60745276D02*
X31622500Y-61254724D01*
X30577500Y-60745276D02*
X30577500Y-61254724D01*
%TO.C,TP5*%
X64220000Y-42650000D02*
G75*
G03*
X64220000Y-42650000I-950000J0D01*
G01*
%TO.C,TP10*%
X27550000Y-60800000D02*
G75*
G03*
X27550000Y-60800000I-950000J0D01*
G01*
%TO.C,TP8*%
X52150000Y-52600000D02*
G75*
G03*
X52150000Y-52600000I-950000J0D01*
G01*
%TO.C,TP13*%
X17150000Y-6800000D02*
G75*
G03*
X17150000Y-6800000I-1750000J0D01*
G01*
%TO.C,TP12*%
X20950000Y-10600000D02*
G75*
G03*
X20950000Y-10600000I-1750000J0D01*
G01*
%TO.C,TP6*%
X16950000Y-39600000D02*
G75*
G03*
X16950000Y-39600000I-1750000J0D01*
G01*
%TO.C,JP1*%
X23900000Y-73050000D02*
X23900000Y-72450000D01*
X21800000Y-73750000D02*
X23200000Y-73750000D01*
X21100000Y-72450000D02*
X21100000Y-73050000D01*
X23200000Y-71750000D02*
X21800000Y-71750000D01*
X23200000Y-73750000D02*
G75*
G03*
X23900000Y-73050000I0J700000D01*
G01*
X21800000Y-71750000D02*
G75*
G03*
X21100000Y-72450000I-1J-699999D01*
G01*
X21100000Y-73050000D02*
G75*
G03*
X21800000Y-73750000I699999J-1D01*
G01*
X23900000Y-72450000D02*
G75*
G03*
X23200000Y-71750000I-700000J0D01*
G01*
%TO.C,TP7*%
X56150000Y-52800000D02*
G75*
G03*
X56150000Y-52800000I-950000J0D01*
G01*
%TO.C,TP14*%
X18750000Y-16000000D02*
G75*
G03*
X18750000Y-16000000I-1750000J0D01*
G01*
%TO.C,TP9*%
X34150000Y-66400000D02*
G75*
G03*
X34150000Y-66400000I-950000J0D01*
G01*
%TO.C,TP1*%
X41150000Y-59400000D02*
G75*
G03*
X41150000Y-59400000I-1750000J0D01*
G01*
%TO.C,R35*%
X36922500Y-61054724D02*
X36922500Y-60545276D01*
X35877500Y-61054724D02*
X35877500Y-60545276D01*
%TO.C,TP11*%
X24950000Y-65000000D02*
G75*
G03*
X24950000Y-65000000I-950000J0D01*
G01*
%TO.C,TP3*%
X63550000Y-52600000D02*
G75*
G03*
X63550000Y-52600000I-950000J0D01*
G01*
%TO.C,TP2*%
X31150000Y-48000000D02*
G75*
G03*
X31150000Y-48000000I-1750000J0D01*
G01*
%TO.C,TP4*%
X23550000Y-35200000D02*
G75*
G03*
X23550000Y-35200000I-950000J0D01*
G01*
%TD*%
M02*
