M48
; DRILL file {KiCad 9.0.5} date 2025-10-08T15:34:29+0200
; FORMAT={-:-/ absolute / metric / decimal}
; #@! TF.CreationDate,2025-10-08T15:34:29+02:00
; #@! TF.GenerationSoftware,Kicad,Pcbnew,9.0.5
; #@! TF.FileFunction,Plated,1,2,PTH
FMAT,2
METRIC
; #@! TA.AperFunction,Plated,PTH,ComponentDrill
T1C0.200
; #@! TA.AperFunction,Plated,PTH,ViaDrill
T2C0.400
; #@! TA.AperFunction,Plated,PTH,ComponentDrill
T3C0.400
; #@! TA.AperFunction,Plated,PTH,ComponentDrill
T4C0.500
; #@! TA.AperFunction,Plated,PTH,ComponentDrill
T5C0.900
; #@! TA.AperFunction,Plated,PTH,ComponentDrill
T6C0.950
; #@! TA.AperFunction,Plated,PTH,ComponentDrill
T7C1.000
; #@! TA.AperFunction,Plated,PTH,ComponentDrill
T8C1.100
; #@! TA.AperFunction,Plated,PTH,ComponentDrill
T9C1.100
; #@! TA.AperFunction,Plated,PTH,ComponentDrill
T10C1.300
; #@! TA.AperFunction,Plated,PTH,ComponentDrill
T11C1.630
; #@! TA.AperFunction,Plated,PTH,ComponentDrill
T12C3.200
%
G90
G05
T1
X83.92Y-37.156
X83.92Y-39.256
X86.02Y-37.156
X86.02Y-39.256
T2
X43.434Y-82.296
X47.752Y-60.833
X48.006Y-94.488
X49.276Y-76.2
X49.276Y-84.582
X49.53Y-80.772
X51.308Y-91.186
X54.737Y-60.325
X55.626Y-65.786
X55.88Y-71.12
X56.134Y-79.248
X58.674Y-75.184
X59.69Y-55.118
X60.198Y-80.518
X60.198Y-92.202
X60.452Y-77.724
X61.722Y-59.944
X62.484Y-62.738
X62.484Y-90.678
X62.738Y-65.024
X62.738Y-71.374
X62.992Y-75.438
X62.992Y-96.774
X64.008Y-86.868
X65.786Y-72.898
X65.786Y-83.058
X66.04Y-74.85
X66.294Y-57.912
X66.294Y-92.964
X66.548Y-64.77
X66.675Y-80.892
X66.802Y-90.678
X66.837Y-77.75
X67.056Y-88.392
X67.31Y-69.596
X67.35Y-61.0
X68.58Y-93.726
X69.596Y-75.692
X69.6Y-48.5
X69.788Y-80.197
X70.001Y-82.804
X70.1Y-58.5
X70.1Y-62.25
X70.104Y-77.216
X70.104Y-79.248
X70.866Y-69.342
X70.866Y-90.678
X72.136Y-96.266
X74.1Y-35.9
X74.35Y-30.0
X74.93Y-76.646
X75.184Y-67.31
X76.5Y-57.9
X76.708Y-82.042
X77.3Y-50.1
X77.4Y-38.0
X77.47Y-80.01
X77.724Y-62.738
X77.9Y-46.1
X77.978Y-92.964
X78.1Y-30.5
X78.1Y-34.5
X78.74Y-68.58
X78.994Y-87.122
X79.1Y-72.25
X79.756Y-76.708
X80.1Y-33.5
X80.1Y-44.5
X81.28Y-78.486
X81.407Y-75.946
X81.407Y-100.33
X81.788Y-37.592
X81.788Y-42.672
X82.1Y-57.5
X83.693Y-96.647
X83.82Y-84.836
X84.132Y-89.212
X84.226Y-35.099
X84.85Y-65.25
X85.344Y-42.418
X85.598Y-89.916
X85.852Y-78.74
X86.614Y-77.978
X86.842Y-35.41
X86.868Y-81.28
X87.1Y-29.5
X87.122Y-90.424
X87.63Y-41.91
X87.63Y-91.948
X87.884Y-33.528
X87.884Y-79.756
X88.413Y-39.366
X88.9Y-98.552
X89.35Y-59.25
X89.662Y-75.946
X90.17Y-37.846
X90.85Y-91.694
X90.932Y-69.85
X91.186Y-74.15
X91.186Y-76.962
X91.186Y-80.264
X91.4Y-72.898
X91.694Y-34.544
X92.1Y-55.75
X92.1Y-91.5
X92.71Y-28.702
X92.964Y-33.274
X92.964Y-62.23
X93.35Y-91.25
X93.458Y-58.402
X93.726Y-71.628
X93.865Y-60.762
X94.234Y-84.836
X94.6Y-77.25
X94.85Y-91.25
X94.9Y-73.124
X95.377Y-45.339
X95.6Y-62.5
X95.603Y-61.061
X95.64Y-97.418
X95.85Y-77.25
X96.35Y-78.75
X96.774Y-86.614
X98.1Y-45.75
X98.494Y-73.134
X98.664Y-66.93
X98.806Y-77.978
X99.06Y-87.376
X99.1Y-55.75
X99.1Y-62.812
X99.187Y-43.815
X99.822Y-94.488
X99.85Y-66.425
X100.457Y-97.028
X100.55Y-73.44
X101.1Y-91.5
X101.3Y-66.311
X101.35Y-78.0
X102.1Y-29.5
X102.1Y-58.25
X102.1Y-74.0
X102.108Y-94.488
X102.35Y-60.25
X102.575Y-63.565
X103.378Y-89.408
X103.6Y-77.5
X103.601Y-67.548
X103.632Y-94.488
X104.324Y-63.66
X105.6Y-91.5
X105.85Y-73.25
X105.918Y-80.01
X106.299Y-97.155
X106.426Y-62.865
X107.95Y-66.04
X108.712Y-57.658
T3
X98.495Y-82.807
X98.495Y-84.332
X99.257Y-82.045
X99.257Y-83.57
X99.257Y-85.095
X100.02Y-82.807
X100.02Y-84.332
X100.782Y-82.045
X100.782Y-83.57
X100.782Y-85.095
X101.545Y-82.807
X101.545Y-84.332
T4
X42.7Y-31.5
X42.7Y-98.5
X43.403Y-29.803
X43.403Y-33.197
X43.403Y-96.803
X43.403Y-100.197
X45.1Y-29.1
X45.1Y-33.9
X45.1Y-96.1
X45.1Y-100.9
X46.797Y-29.803
X46.797Y-33.197
X46.797Y-96.803
X46.797Y-100.197
X47.5Y-31.5
X47.5Y-98.5
T5
X101.01Y-43.055
X101.01Y-45.595
X101.01Y-48.135
X101.01Y-50.675
X101.01Y-53.215
X103.55Y-41.785
X103.55Y-44.325
X103.55Y-46.865
X103.55Y-49.405
X103.55Y-51.945
T6
X47.335Y-73.25
X47.335Y-75.75
X47.335Y-78.25
X47.335Y-80.75
X47.335Y-83.25
X47.335Y-85.75
X47.335Y-88.25
X47.335Y-90.75
T7
X52.07Y-52.324
X52.07Y-54.864
X52.07Y-57.404
X52.35Y-46.5
X57.912Y-63.246
X57.912Y-65.786
X60.452Y-63.246
X60.452Y-65.786
X64.35Y-46.5
X74.925Y-41.1
X74.925Y-43.64
X74.925Y-46.18
X74.925Y-48.72
X74.925Y-84.2
X74.925Y-86.74
X74.925Y-89.28
X93.1Y-101.0
X95.64Y-101.0
X98.18Y-101.0
X100.72Y-101.0
X103.26Y-101.0
X105.8Y-101.0
T8
X113.99Y-40.871
X113.99Y-43.411
X113.99Y-51.589
X113.99Y-54.129
T9
X42.435Y-42.75
X42.435Y-49.75
X42.435Y-56.75
X42.445Y-67.013
X47.435Y-39.25
X47.435Y-46.25
X47.435Y-53.25
X47.445Y-63.512
T10
X52.3Y-34.25
X58.3Y-48.45
X64.35Y-34.3
T11
X106.852Y-39.753
X106.852Y-55.247
T12
X45.1Y-31.5
X45.1Y-98.5
M30
