%TF.GenerationSoftware,KiCad,Pcbnew,(7.0.0)*%
%TF.CreationDate,2023-03-14T22:36:42+01:00*%
%TF.ProjectId,Zamkonator,5a616d6b-6f6e-4617-946f-722e6b696361,rev?*%
%TF.SameCoordinates,Original*%
%TF.FileFunction,Soldermask,Top*%
%TF.FilePolarity,Negative*%
%FSLAX46Y46*%
G04 Gerber Fmt 4.6, Leading zero omitted, Abs format (unit mm)*
G04 Created by KiCad (PCBNEW (7.0.0)) date 2023-03-14 22:36:42*
%MOMM*%
%LPD*%
G01*
G04 APERTURE LIST*
G04 Aperture macros list*
%AMRoundRect*
0 Rectangle with rounded corners*
0 $1 Rounding radius*
0 $2 $3 $4 $5 $6 $7 $8 $9 X,Y pos of 4 corners*
0 Add a 4 corners polygon primitive as box body*
4,1,4,$2,$3,$4,$5,$6,$7,$8,$9,$2,$3,0*
0 Add four circle primitives for the rounded corners*
1,1,$1+$1,$2,$3*
1,1,$1+$1,$4,$5*
1,1,$1+$1,$6,$7*
1,1,$1+$1,$8,$9*
0 Add four rect primitives between the rounded corners*
20,1,$1+$1,$2,$3,$4,$5,0*
20,1,$1+$1,$4,$5,$6,$7,0*
20,1,$1+$1,$6,$7,$8,$9,0*
20,1,$1+$1,$8,$9,$2,$3,0*%
%AMOutline4P*
0 Free polygon, 4 corners , with rotation*
0 The origin of the aperture is its center*
0 number of corners: always 4*
0 $1 to $8 corner X, Y*
0 $9 Rotation angle, in degrees counterclockwise*
0 create outline with 4 corners*
4,1,4,$1,$2,$3,$4,$5,$6,$7,$8,$1,$2,$9*%
%AMFreePoly0*
4,1,19,0.500000,-0.750000,0.000000,-0.750000,0.000000,-0.744911,-0.071157,-0.744911,-0.207708,-0.704816,-0.327430,-0.627875,-0.420627,-0.520320,-0.479746,-0.390866,-0.500000,-0.250000,-0.500000,0.250000,-0.479746,0.390866,-0.420627,0.520320,-0.327430,0.627875,-0.207708,0.704816,-0.071157,0.744911,0.000000,0.744911,0.000000,0.750000,0.500000,0.750000,0.500000,-0.750000,0.500000,-0.750000,
$1*%
%AMFreePoly1*
4,1,19,0.000000,0.744911,0.071157,0.744911,0.207708,0.704816,0.327430,0.627875,0.420627,0.520320,0.479746,0.390866,0.500000,0.250000,0.500000,-0.250000,0.479746,-0.390866,0.420627,-0.520320,0.327430,-0.627875,0.207708,-0.704816,0.071157,-0.744911,0.000000,-0.744911,0.000000,-0.750000,-0.500000,-0.750000,-0.500000,0.750000,0.000000,0.750000,0.000000,0.744911,0.000000,0.744911,
$1*%
G04 Aperture macros list end*
%ADD10C,3.000000*%
%ADD11C,2.500000*%
%ADD12C,3.250000*%
%ADD13R,1.500000X1.500000*%
%ADD14C,1.500000*%
%ADD15C,1.600000*%
%ADD16C,2.029000*%
%ADD17Outline4P,-1.800000X-1.150000X1.800000X-0.550000X1.800000X0.550000X-1.800000X1.150000X270.000000*%
%ADD18Outline4P,-1.800000X-1.150000X1.800000X-0.550000X1.800000X0.550000X-1.800000X1.150000X90.000000*%
%ADD19RoundRect,0.237500X-0.250000X-0.237500X0.250000X-0.237500X0.250000X0.237500X-0.250000X0.237500X0*%
%ADD20RoundRect,0.237500X0.250000X0.237500X-0.250000X0.237500X-0.250000X-0.237500X0.250000X-0.237500X0*%
%ADD21RoundRect,0.237500X-0.300000X-0.237500X0.300000X-0.237500X0.300000X0.237500X-0.300000X0.237500X0*%
%ADD22RoundRect,0.218750X0.256250X-0.218750X0.256250X0.218750X-0.256250X0.218750X-0.256250X-0.218750X0*%
%ADD23RoundRect,0.237500X-0.237500X0.300000X-0.237500X-0.300000X0.237500X-0.300000X0.237500X0.300000X0*%
%ADD24R,1.800000X3.500000*%
%ADD25C,0.800000*%
%ADD26C,6.400000*%
%ADD27R,1.700000X1.700000*%
%ADD28O,1.700000X1.700000*%
%ADD29RoundRect,0.062500X-0.062500X0.375000X-0.062500X-0.375000X0.062500X-0.375000X0.062500X0.375000X0*%
%ADD30RoundRect,0.062500X-0.375000X0.062500X-0.375000X-0.062500X0.375000X-0.062500X0.375000X0.062500X0*%
%ADD31R,3.300000X3.300000*%
%ADD32RoundRect,0.237500X0.300000X0.237500X-0.300000X0.237500X-0.300000X-0.237500X0.300000X-0.237500X0*%
%ADD33RoundRect,0.250000X1.000000X-1.950000X1.000000X1.950000X-1.000000X1.950000X-1.000000X-1.950000X0*%
%ADD34RoundRect,0.237500X0.237500X-0.250000X0.237500X0.250000X-0.237500X0.250000X-0.237500X-0.250000X0*%
%ADD35RoundRect,0.218750X0.218750X0.256250X-0.218750X0.256250X-0.218750X-0.256250X0.218750X-0.256250X0*%
%ADD36RoundRect,0.250000X-0.450000X0.325000X-0.450000X-0.325000X0.450000X-0.325000X0.450000X0.325000X0*%
%ADD37RoundRect,0.237500X-0.237500X0.250000X-0.237500X-0.250000X0.237500X-0.250000X0.237500X0.250000X0*%
%ADD38R,0.650000X2.000000*%
%ADD39R,0.900000X1.200000*%
%ADD40Outline4P,-2.150000X-1.800000X2.150000X-0.800000X2.150000X0.800000X-2.150000X1.800000X180.000000*%
%ADD41Outline4P,-2.150000X-1.800000X2.150000X-0.800000X2.150000X0.800000X-2.150000X1.800000X0.000000*%
%ADD42C,1.100000*%
%ADD43R,2.200000X2.200000*%
%ADD44C,2.200000*%
%ADD45R,1.400000X1.150000*%
%ADD46R,1.500000X2.000000*%
%ADD47R,3.800000X2.000000*%
%ADD48FreePoly0,0.000000*%
%ADD49FreePoly1,0.000000*%
%ADD50R,2.000000X1.780000*%
%ADD51RoundRect,0.237500X0.237500X-0.300000X0.237500X0.300000X-0.237500X0.300000X-0.237500X-0.300000X0*%
%ADD52RoundRect,0.007800X-0.122200X0.412200X-0.122200X-0.412200X0.122200X-0.412200X0.122200X0.412200X0*%
%ADD53RoundRect,0.007800X-0.412200X-0.122200X0.412200X-0.122200X0.412200X0.122200X-0.412200X0.122200X0*%
%ADD54R,2.600000X2.600000*%
%ADD55Outline4P,-1.800000X-1.150000X1.800000X-0.550000X1.800000X0.550000X-1.800000X1.150000X0.000000*%
%ADD56Outline4P,-1.800000X-1.150000X1.800000X-0.550000X1.800000X0.550000X-1.800000X1.150000X180.000000*%
%ADD57RoundRect,0.250000X-1.500000X-0.550000X1.500000X-0.550000X1.500000X0.550000X-1.500000X0.550000X0*%
%ADD58RoundRect,0.250000X-0.650000X0.412500X-0.650000X-0.412500X0.650000X-0.412500X0.650000X0.412500X0*%
%ADD59R,0.600000X1.500000*%
%ADD60R,0.900000X1.500000*%
%ADD61R,1.500000X0.900000*%
%ADD62R,4.200000X4.200000*%
%ADD63RoundRect,0.150000X-0.512500X-0.150000X0.512500X-0.150000X0.512500X0.150000X-0.512500X0.150000X0*%
%ADD64R,1.270000X2.540000*%
%ADD65RoundRect,0.150000X-0.150000X0.587500X-0.150000X-0.587500X0.150000X-0.587500X0.150000X0.587500X0*%
%ADD66RoundRect,0.425000X2.425000X-0.425000X2.425000X0.425000X-2.425000X0.425000X-2.425000X-0.425000X0*%
G04 APERTURE END LIST*
D10*
%TO.C,K1*%
X16950000Y-20950000D03*
D11*
X23000000Y-19000000D03*
D10*
X23000000Y-6800000D03*
X10950000Y-6750000D03*
D11*
X11000000Y-19000000D03*
%TD*%
D12*
%TO.C,RJ1*%
X64000000Y-14300000D03*
X64000000Y-25700000D03*
D13*
X72889999Y-14284999D03*
D14*
X70350000Y-15555000D03*
X72890000Y-16825000D03*
X70350000Y-18095000D03*
X72890000Y-19365000D03*
X70350000Y-20635000D03*
X72890000Y-21905000D03*
X70350000Y-23175000D03*
X72890000Y-24445000D03*
X70350000Y-25715000D03*
D15*
X59910000Y-13371000D03*
X59910000Y-15911000D03*
X59910000Y-24089000D03*
X59910000Y-26629000D03*
D16*
X67048000Y-12253000D03*
X67048000Y-27747000D03*
%TD*%
D17*
%TO.C,D7*%
X47800000Y-52800000D03*
D18*
X47800000Y-58600000D03*
%TD*%
D19*
%TO.C,R12*%
X37587500Y-10650000D03*
X39412500Y-10650000D03*
%TD*%
D18*
%TO.C,D6*%
X42300000Y-53200000D03*
D17*
X42300000Y-47400000D03*
%TD*%
D20*
%TO.C,R15*%
X43512500Y-2500000D03*
X41687500Y-2500000D03*
%TD*%
D21*
%TO.C,C32*%
X71337500Y-44400000D03*
X73062500Y-44400000D03*
%TD*%
D22*
%TO.C,L3*%
X54800000Y-6655000D03*
X54800000Y-5080000D03*
%TD*%
D19*
%TO.C,R23*%
X29087500Y-56400000D03*
X30912500Y-56400000D03*
%TD*%
%TO.C,R13*%
X41657500Y-4356165D03*
X43482500Y-4356165D03*
%TD*%
D18*
%TO.C,D8*%
X3500000Y-58500000D03*
D17*
X3500000Y-52700000D03*
%TD*%
D21*
%TO.C,C9*%
X62837500Y-35300000D03*
X64562500Y-35300000D03*
%TD*%
D23*
%TO.C,C8*%
X64000000Y-40137500D03*
X64000000Y-41862500D03*
%TD*%
D21*
%TO.C,C17*%
X47537500Y-13200000D03*
X49262500Y-13200000D03*
%TD*%
D23*
%TO.C,C21*%
X34000000Y-32337500D03*
X34000000Y-34062500D03*
%TD*%
D20*
%TO.C,R28*%
X20112500Y-45600000D03*
X18287500Y-45600000D03*
%TD*%
D24*
%TO.C,D5*%
X46799999Y-45549999D03*
X46799999Y-40549999D03*
%TD*%
D23*
%TO.C,C6*%
X53600000Y-34737500D03*
X53600000Y-36462500D03*
%TD*%
%TO.C,C24*%
X49800000Y-45437500D03*
X49800000Y-47162500D03*
%TD*%
%TO.C,C15*%
X40000000Y-2387500D03*
X40000000Y-4112500D03*
%TD*%
D25*
%TO.C,H3*%
X1600000Y-71000000D03*
X5697056Y-69302944D03*
X2302944Y-69302944D03*
X2302944Y-72697056D03*
D26*
X4000000Y-71000000D03*
D25*
X4000000Y-73400000D03*
X6400000Y-71000000D03*
X4000000Y-68600000D03*
X5697056Y-72697056D03*
%TD*%
D23*
%TO.C,C18*%
X51200000Y-11537500D03*
X51200000Y-13262500D03*
%TD*%
D27*
%TO.C,J3*%
X64624999Y-72749999D03*
D28*
X62084999Y-72749999D03*
X59544999Y-72749999D03*
X57004999Y-72749999D03*
X54464999Y-72749999D03*
X51924999Y-72749999D03*
X49384999Y-72749999D03*
X46844999Y-72749999D03*
%TD*%
D29*
%TO.C,U1*%
X59750000Y-35562500D03*
X59250000Y-35562500D03*
X58750000Y-35562500D03*
X58250000Y-35562500D03*
X57750000Y-35562500D03*
X57250000Y-35562500D03*
X56750000Y-35562500D03*
X56250000Y-35562500D03*
D30*
X55562500Y-36250000D03*
X55562500Y-36750000D03*
X55562500Y-37250000D03*
X55562500Y-37750000D03*
X55562500Y-38250000D03*
X55562500Y-38750000D03*
X55562500Y-39250000D03*
X55562500Y-39750000D03*
D29*
X56250000Y-40437500D03*
X56750000Y-40437500D03*
X57250000Y-40437500D03*
X57750000Y-40437500D03*
X58250000Y-40437500D03*
X58750000Y-40437500D03*
X59250000Y-40437500D03*
X59750000Y-40437500D03*
D30*
X60437500Y-39750000D03*
X60437500Y-39250000D03*
X60437500Y-38750000D03*
X60437500Y-38250000D03*
X60437500Y-37750000D03*
X60437500Y-37250000D03*
X60437500Y-36750000D03*
X60437500Y-36250000D03*
D31*
X57999999Y-37999999D03*
%TD*%
D32*
%TO.C,C30*%
X30862500Y-52800000D03*
X29137500Y-52800000D03*
%TD*%
D21*
%TO.C,C4*%
X65637500Y-38500000D03*
X67362500Y-38500000D03*
%TD*%
D33*
%TO.C,C14*%
X31000000Y-11700000D03*
X31000000Y-3300000D03*
%TD*%
D34*
%TO.C,R17*%
X27100000Y-30012500D03*
X27100000Y-28187500D03*
%TD*%
D21*
%TO.C,C29*%
X24537500Y-45500000D03*
X26262500Y-45500000D03*
%TD*%
D35*
%TO.C,L1*%
X67587500Y-44000000D03*
X66012500Y-44000000D03*
%TD*%
D20*
%TO.C,R21*%
X27212500Y-34600000D03*
X25387500Y-34600000D03*
%TD*%
D36*
%TO.C,L4*%
X42600000Y-39475000D03*
X42600000Y-41525000D03*
%TD*%
D37*
%TO.C,R16*%
X49600000Y-8287500D03*
X49600000Y-10112500D03*
%TD*%
D21*
%TO.C,C7*%
X66137500Y-42000000D03*
X67862500Y-42000000D03*
%TD*%
%TO.C,C33*%
X71337500Y-46200000D03*
X73062500Y-46200000D03*
%TD*%
D38*
%TO.C,D1*%
X70049999Y-41709999D03*
X71949999Y-41709999D03*
X70999999Y-38289999D03*
%TD*%
D20*
%TO.C,R9*%
X64112500Y-45500000D03*
X62287500Y-45500000D03*
%TD*%
D21*
%TO.C,C16*%
X41707500Y-6356165D03*
X43432500Y-6356165D03*
%TD*%
D37*
%TO.C,R19*%
X49800000Y-41300000D03*
X49800000Y-43125000D03*
%TD*%
D21*
%TO.C,C2*%
X70737500Y-36200000D03*
X72462500Y-36200000D03*
%TD*%
D19*
%TO.C,R11*%
X38075000Y-8800000D03*
X39900000Y-8800000D03*
%TD*%
%TO.C,R4*%
X54287500Y-31200000D03*
X56112500Y-31200000D03*
%TD*%
D39*
%TO.C,D4*%
X44649999Y-16399999D03*
X41349999Y-16399999D03*
%TD*%
D34*
%TO.C,R26*%
X22400000Y-44112500D03*
X22400000Y-42287500D03*
%TD*%
D19*
%TO.C,R5*%
X57887500Y-31400000D03*
X59712500Y-31400000D03*
%TD*%
D37*
%TO.C,R25*%
X52662500Y-66287500D03*
X52662500Y-68112500D03*
%TD*%
D32*
%TO.C,C28*%
X34862500Y-44500000D03*
X33137500Y-44500000D03*
%TD*%
D40*
%TO.C,D2*%
X64800000Y-5400000D03*
D41*
X58400000Y-5400000D03*
%TD*%
D20*
%TO.C,R22*%
X30912500Y-54600000D03*
X29087500Y-54600000D03*
%TD*%
D19*
%TO.C,R10*%
X38075000Y-12400000D03*
X39900000Y-12400000D03*
%TD*%
D42*
%TO.C,J_LATCH1*%
X1460000Y-14540000D03*
X1460000Y-12000000D03*
D43*
X3999999Y-11999999D03*
D44*
X4000000Y-14540000D03*
%TD*%
D19*
%TO.C,R6*%
X59187500Y-33300000D03*
X61012500Y-33300000D03*
%TD*%
D34*
%TO.C,R29*%
X7700000Y-53412500D03*
X7700000Y-51587500D03*
%TD*%
D45*
%TO.C,X1*%
X48149999Y-67849999D03*
X50349999Y-67849999D03*
X50349999Y-66249999D03*
X48149999Y-66249999D03*
%TD*%
D46*
%TO.C,Q1*%
X8699999Y-31149999D03*
X10999999Y-31149999D03*
D47*
X10999999Y-24849999D03*
D46*
X13299999Y-31149999D03*
%TD*%
D48*
%TO.C,JP2*%
X16750000Y-25400000D03*
D49*
X18050000Y-25400000D03*
%TD*%
D37*
%TO.C,R24*%
X46062500Y-66187500D03*
X46062500Y-68012500D03*
%TD*%
D39*
%TO.C,D3*%
X51149999Y-15899999D03*
X47849999Y-15899999D03*
%TD*%
D50*
%TO.C,U7*%
X19764999Y-42809999D03*
X19764999Y-40269999D03*
X19764999Y-37729999D03*
X19764999Y-35189999D03*
X10234999Y-35189999D03*
X10234999Y-37729999D03*
X10234999Y-40269999D03*
X10234999Y-42809999D03*
%TD*%
D34*
%TO.C,R32*%
X6000000Y-32162500D03*
X6000000Y-30337500D03*
%TD*%
D23*
%TO.C,C19*%
X37200000Y-14537500D03*
X37200000Y-16262500D03*
%TD*%
D19*
%TO.C,R2*%
X71387500Y-31600000D03*
X73212500Y-31600000D03*
%TD*%
D51*
%TO.C,C31*%
X35400000Y-52462500D03*
X35400000Y-50737500D03*
%TD*%
D19*
%TO.C,R20*%
X25387500Y-32300000D03*
X27212500Y-32300000D03*
%TD*%
%TO.C,R8*%
X66387500Y-36700000D03*
X68212500Y-36700000D03*
%TD*%
D25*
%TO.C,H4*%
X1600000Y-4000000D03*
X6400000Y-4000000D03*
X5697056Y-2302944D03*
X4000000Y-1600000D03*
X5697056Y-5697056D03*
D26*
X4000000Y-4000000D03*
D25*
X4000000Y-6400000D03*
X2302944Y-2302944D03*
X2302944Y-5697056D03*
%TD*%
D34*
%TO.C,R27*%
X22200000Y-39412500D03*
X22200000Y-37587500D03*
%TD*%
D21*
%TO.C,C35*%
X48137500Y-69800000D03*
X49862500Y-69800000D03*
%TD*%
D20*
%TO.C,R7*%
X69112500Y-33400000D03*
X67287500Y-33400000D03*
%TD*%
D52*
%TO.C,U2*%
X44870000Y-8771165D03*
X44370000Y-8771165D03*
X43870000Y-8771165D03*
X43370000Y-8771165D03*
X42870000Y-8771165D03*
D53*
X41935000Y-9706165D03*
X41935000Y-10206165D03*
X41935000Y-10706165D03*
X41935000Y-11206165D03*
X41935000Y-11706165D03*
D52*
X42870000Y-12641165D03*
X43370000Y-12641165D03*
X43870000Y-12641165D03*
X44370000Y-12641165D03*
X44870000Y-12641165D03*
D53*
X45805000Y-11706165D03*
X45805000Y-11206165D03*
X45805000Y-10706165D03*
X45805000Y-10206165D03*
X45805000Y-9706165D03*
D54*
X43869999Y-10706164D03*
%TD*%
D21*
%TO.C,C22*%
X28237500Y-36300000D03*
X29962500Y-36300000D03*
%TD*%
D37*
%TO.C,R14*%
X47600000Y-8287500D03*
X47600000Y-10112500D03*
%TD*%
D55*
%TO.C,D9*%
X12100000Y-62300000D03*
D56*
X17900000Y-62300000D03*
%TD*%
D25*
%TO.C,H2*%
X72697056Y-69302944D03*
X68600000Y-71000000D03*
X71000000Y-73400000D03*
X72697056Y-72697056D03*
D26*
X71000000Y-71000000D03*
D25*
X71000000Y-68600000D03*
X69302944Y-69302944D03*
X69302944Y-72697056D03*
X73400000Y-71000000D03*
%TD*%
D32*
%TO.C,C23*%
X42262500Y-44200000D03*
X40537500Y-44200000D03*
%TD*%
D20*
%TO.C,R31*%
X11012500Y-45600000D03*
X9187500Y-45600000D03*
%TD*%
D51*
%TO.C,C13*%
X45800000Y-5862500D03*
X45800000Y-4137500D03*
%TD*%
D23*
%TO.C,C10*%
X53500000Y-42337500D03*
X53500000Y-44062500D03*
%TD*%
D36*
%TO.C,L5*%
X36300000Y-39675000D03*
X36300000Y-41725000D03*
%TD*%
D32*
%TO.C,C34*%
X69262500Y-46200000D03*
X67537500Y-46200000D03*
%TD*%
D51*
%TO.C,C5*%
X63500000Y-33262500D03*
X63500000Y-31537500D03*
%TD*%
D50*
%TO.C,U8*%
X10234999Y-48189999D03*
X10234999Y-50729999D03*
X10234999Y-53269999D03*
X10234999Y-55809999D03*
X19764999Y-55809999D03*
X19764999Y-53269999D03*
X19764999Y-50729999D03*
X19764999Y-48189999D03*
%TD*%
D27*
%TO.C,J4*%
X27149999Y-72524999D03*
D28*
X27149999Y-69984999D03*
X29689999Y-72524999D03*
X29689999Y-69984999D03*
X32229999Y-72524999D03*
X32229999Y-69984999D03*
X34769999Y-72524999D03*
X34769999Y-69984999D03*
X37309999Y-72524999D03*
X37309999Y-69984999D03*
X39849999Y-72524999D03*
X39849999Y-69984999D03*
%TD*%
D24*
%TO.C,D10*%
X3999999Y-24499999D03*
X3999999Y-19499999D03*
%TD*%
D57*
%TO.C,C27*%
X25700000Y-40900000D03*
X31100000Y-40900000D03*
%TD*%
D22*
%TO.C,L2*%
X50600000Y-6655000D03*
X50600000Y-5080000D03*
%TD*%
D34*
%TO.C,R30*%
X23400000Y-55112500D03*
X23400000Y-53287500D03*
%TD*%
D37*
%TO.C,R3*%
X52600000Y-31287500D03*
X52600000Y-33112500D03*
%TD*%
D58*
%TO.C,C20*%
X34400000Y-24237500D03*
X34400000Y-27362500D03*
%TD*%
D34*
%TO.C,R18*%
X34000000Y-37912500D03*
X34000000Y-36087500D03*
%TD*%
D59*
%TO.C,U3*%
X29764999Y-29712499D03*
X31034999Y-29712499D03*
X31034999Y-23362499D03*
X29764999Y-23362499D03*
%TD*%
D21*
%TO.C,C3*%
X65537500Y-31500000D03*
X67262500Y-31500000D03*
%TD*%
D19*
%TO.C,R33*%
X55287500Y-68800000D03*
X57112500Y-68800000D03*
%TD*%
D20*
%TO.C,R1*%
X73112500Y-33400000D03*
X71287500Y-33400000D03*
%TD*%
D32*
%TO.C,C25*%
X40362500Y-42500000D03*
X38637500Y-42500000D03*
%TD*%
%TO.C,C26*%
X40362500Y-39600000D03*
X38637500Y-39600000D03*
%TD*%
D60*
%TO.C,U6*%
X73449999Y-48249999D03*
X72179999Y-48249999D03*
X70909999Y-48249999D03*
X69639999Y-48249999D03*
X68369999Y-48249999D03*
X67099999Y-48249999D03*
X65829999Y-48249999D03*
X64559999Y-48249999D03*
X63289999Y-48249999D03*
X62019999Y-48249999D03*
X60749999Y-48249999D03*
X59479999Y-48249999D03*
X58209999Y-48249999D03*
X56939999Y-48249999D03*
D61*
X55689999Y-51289999D03*
X55689999Y-52559999D03*
X55689999Y-53829999D03*
X55689999Y-55099999D03*
X55689999Y-56369999D03*
X55689999Y-57639999D03*
X55689999Y-58909999D03*
X55689999Y-60179999D03*
X55689999Y-61449999D03*
X55689999Y-62719999D03*
D60*
X56939999Y-65749999D03*
X58209999Y-65749999D03*
X59479999Y-65749999D03*
X60749999Y-65749999D03*
X62019999Y-65749999D03*
X63289999Y-65749999D03*
X64559999Y-65749999D03*
X65829999Y-65749999D03*
X67099999Y-65749999D03*
X68369999Y-65749999D03*
X69639999Y-65749999D03*
X70909999Y-65749999D03*
X72179999Y-65749999D03*
X73449999Y-65749999D03*
D25*
X66110000Y-55557500D03*
X66872500Y-54795000D03*
X66872500Y-57845000D03*
X64585000Y-55557500D03*
X65347500Y-56320000D03*
X65347500Y-54795000D03*
X66110000Y-57082500D03*
X64585000Y-57082500D03*
X66872500Y-56320000D03*
X67635000Y-57082500D03*
X65347500Y-57845000D03*
X67635000Y-55557500D03*
D62*
X66109999Y-56319999D03*
%TD*%
D63*
%TO.C,U5*%
X24062500Y-47250000D03*
X24062500Y-48200000D03*
X24062500Y-49150000D03*
X26337500Y-49150000D03*
X26337500Y-48200000D03*
X26337500Y-47250000D03*
%TD*%
D25*
%TO.C,H1*%
X73400000Y-4000000D03*
D26*
X71000000Y-4000000D03*
D25*
X69302944Y-2302944D03*
X72697056Y-2302944D03*
X71000000Y-6400000D03*
X72697056Y-5697056D03*
X68600000Y-4000000D03*
X71000000Y-1600000D03*
X69302944Y-5697056D03*
%TD*%
D27*
%TO.C,J5*%
X33824999Y-13599999D03*
D28*
X33824999Y-16139999D03*
X33824999Y-18679999D03*
X33824999Y-21219999D03*
%TD*%
D23*
%TO.C,C1*%
X53500000Y-38637500D03*
X53500000Y-40362500D03*
%TD*%
D27*
%TO.C,J6*%
X33824999Y-56699999D03*
D28*
X33824999Y-59239999D03*
X33824999Y-61779999D03*
%TD*%
D51*
%TO.C,C12*%
X48010000Y-5862500D03*
X48010000Y-4137500D03*
%TD*%
D43*
%TO.C,J1*%
X3599999Y-35559999D03*
D44*
X3600000Y-38100000D03*
X3600000Y-40640000D03*
X3600000Y-43180000D03*
X3600000Y-45720000D03*
X3600000Y-48260000D03*
%TD*%
D64*
%TO.C,T1*%
X38819999Y-20314999D03*
X41309999Y-20314999D03*
X43799999Y-20314999D03*
X46289999Y-20314999D03*
X48779999Y-20314999D03*
X48779999Y-35684999D03*
X46289999Y-35684999D03*
X43799999Y-35684999D03*
X41309999Y-35684999D03*
X38819999Y-35684999D03*
%TD*%
D65*
%TO.C,U4*%
X31050000Y-32362500D03*
X29150000Y-32362500D03*
X30100000Y-34237500D03*
%TD*%
D51*
%TO.C,C11*%
X52800000Y-6730000D03*
X52800000Y-5005000D03*
%TD*%
D21*
%TO.C,C36*%
X48137500Y-64050000D03*
X49862500Y-64050000D03*
%TD*%
D66*
%TO.C,L6*%
X31200000Y-47200000D03*
X31200000Y-50000000D03*
%TD*%
M02*
