%TF.GenerationSoftware,KiCad,Pcbnew,9.0.2*%
%TF.CreationDate,2025-06-24T15:52:54+02:00*%
%TF.ProjectId,Zamkonator,5a616d6b-6f6e-4617-946f-722e6b696361,rev?*%
%TF.SameCoordinates,Original*%
%TF.FileFunction,Soldermask,Bot*%
%TF.FilePolarity,Negative*%
%FSLAX46Y46*%
G04 Gerber Fmt 4.6, Leading zero omitted, Abs format (unit mm)*
G04 Created by KiCad (PCBNEW 9.0.2) date 2025-06-24 15:52:54*
%MOMM*%
%LPD*%
G01*
G04 APERTURE LIST*
G04 Aperture macros list*
%AMRoundRect*
0 Rectangle with rounded corners*
0 $1 Rounding radius*
0 $2 $3 $4 $5 $6 $7 $8 $9 X,Y pos of 4 corners*
0 Add a 4 corners polygon primitive as box body*
4,1,4,$2,$3,$4,$5,$6,$7,$8,$9,$2,$3,0*
0 Add four circle primitives for the rounded corners*
1,1,$1+$1,$2,$3*
1,1,$1+$1,$4,$5*
1,1,$1+$1,$6,$7*
1,1,$1+$1,$8,$9*
0 Add four rect primitives between the rounded corners*
20,1,$1+$1,$2,$3,$4,$5,0*
20,1,$1+$1,$4,$5,$6,$7,0*
20,1,$1+$1,$6,$7,$8,$9,0*
20,1,$1+$1,$8,$9,$2,$3,0*%
%AMFreePoly0*
4,1,23,0.550000,-0.750000,0.000000,-0.750000,0.000000,-0.745722,-0.065263,-0.745722,-0.191342,-0.711940,-0.304381,-0.646677,-0.396677,-0.554381,-0.461940,-0.441342,-0.495722,-0.315263,-0.495722,-0.250000,-0.500000,-0.250000,-0.500000,0.250000,-0.495722,0.250000,-0.495722,0.315263,-0.461940,0.441342,-0.396677,0.554381,-0.304381,0.646677,-0.191342,0.711940,-0.065263,0.745722,0.000000,0.745722,
0.000000,0.750000,0.550000,0.750000,0.550000,-0.750000,0.550000,-0.750000,$1*%
%AMFreePoly1*
4,1,23,0.000000,0.745722,0.065263,0.745722,0.191342,0.711940,0.304381,0.646677,0.396677,0.554381,0.461940,0.441342,0.495722,0.315263,0.495722,0.250000,0.500000,0.250000,0.500000,-0.250000,0.495722,-0.250000,0.495722,-0.315263,0.461940,-0.441342,0.396677,-0.554381,0.304381,-0.646677,0.191342,-0.711940,0.065263,-0.745722,0.000000,-0.745722,0.000000,-0.750000,-0.550000,-0.750000,
-0.550000,0.750000,0.000000,0.750000,0.000000,0.745722,0.000000,0.745722,$1*%
%AMFreePoly2*
4,1,23,0.500000,-0.750000,0.000000,-0.750000,0.000000,-0.745722,-0.065263,-0.745722,-0.191342,-0.711940,-0.304381,-0.646677,-0.396677,-0.554381,-0.461940,-0.441342,-0.495722,-0.315263,-0.495722,-0.250000,-0.500000,-0.250000,-0.500000,0.250000,-0.495722,0.250000,-0.495722,0.315263,-0.461940,0.441342,-0.396677,0.554381,-0.304381,0.646677,-0.191342,0.711940,-0.065263,0.745722,0.000000,0.745722,
0.000000,0.750000,0.500000,0.750000,0.500000,-0.750000,0.500000,-0.750000,$1*%
%AMFreePoly3*
4,1,23,0.000000,0.745722,0.065263,0.745722,0.191342,0.711940,0.304381,0.646677,0.396677,0.554381,0.461940,0.441342,0.495722,0.315263,0.495722,0.250000,0.500000,0.250000,0.500000,-0.250000,0.495722,-0.250000,0.495722,-0.315263,0.461940,-0.441342,0.396677,-0.554381,0.304381,-0.646677,0.191342,-0.711940,0.065263,-0.745722,0.000000,-0.745722,0.000000,-0.750000,-0.500000,-0.750000,
-0.500000,0.750000,0.000000,0.750000,0.000000,0.745722,0.000000,0.745722,$1*%
G04 Aperture macros list end*
%ADD10C,3.000000*%
%ADD11C,2.500000*%
%ADD12C,3.250000*%
%ADD13R,1.500000X1.500000*%
%ADD14C,1.500000*%
%ADD15C,1.600000*%
%ADD16C,2.029000*%
%ADD17C,0.800000*%
%ADD18C,6.400000*%
%ADD19R,1.700000X1.700000*%
%ADD20O,1.700000X1.700000*%
%ADD21C,1.100000*%
%ADD22R,2.200000X2.200000*%
%ADD23C,2.200000*%
%ADD24C,3.200000*%
%ADD25RoundRect,0.237500X-0.237500X0.250000X-0.237500X-0.250000X0.237500X-0.250000X0.237500X0.250000X0*%
%ADD26FreePoly0,0.000000*%
%ADD27R,1.000000X1.500000*%
%ADD28FreePoly1,0.000000*%
%ADD29RoundRect,0.237500X0.237500X-0.250000X0.237500X0.250000X-0.237500X0.250000X-0.237500X-0.250000X0*%
%ADD30FreePoly2,270.000000*%
%ADD31FreePoly3,270.000000*%
G04 APERTURE END LIST*
D10*
%TO.C,K1*%
X16950000Y-20950000D03*
D11*
X23000000Y-19000000D03*
D10*
X23000000Y-6800000D03*
X10950000Y-6750000D03*
D11*
X11000000Y-19000000D03*
%TD*%
D12*
%TO.C,RJ1*%
X68800000Y-25700000D03*
X68800000Y-14300000D03*
D13*
X59910000Y-25715000D03*
D14*
X62450000Y-24445000D03*
X59910000Y-23175000D03*
X62450000Y-21905000D03*
X59910000Y-20635000D03*
X62450000Y-19365000D03*
X59910000Y-18095000D03*
X62450000Y-16825000D03*
X59910000Y-15555000D03*
X62450000Y-14285000D03*
D15*
X72890000Y-26629000D03*
X72890000Y-24089000D03*
X72890000Y-15911000D03*
X72890000Y-13371000D03*
D16*
X65752000Y-27747000D03*
X65752000Y-12253000D03*
%TD*%
D17*
%TO.C,H3*%
X1600000Y-71000000D03*
X2302944Y-69302944D03*
X2302944Y-72697056D03*
X4000000Y-68600000D03*
D18*
X4000000Y-71000000D03*
D17*
X4000000Y-73400000D03*
X5697056Y-69302944D03*
X5697056Y-72697056D03*
X6400000Y-71000000D03*
%TD*%
D19*
%TO.C,J3*%
X52000000Y-73500000D03*
D20*
X54540000Y-73500000D03*
X57080000Y-73500000D03*
X59620000Y-73500000D03*
X62160000Y-73500000D03*
X64700000Y-73500000D03*
%TD*%
D21*
%TO.C,J_LATCH1*%
X1460000Y-12000000D03*
X1460000Y-14540000D03*
D22*
X4000000Y-12000000D03*
D23*
X4000000Y-14540000D03*
%TD*%
D17*
%TO.C,H4*%
X1600000Y-4000000D03*
X2302944Y-2302944D03*
X2302944Y-5697056D03*
X4000000Y-1600000D03*
D18*
X4000000Y-4000000D03*
D17*
X4000000Y-6400000D03*
X5697056Y-2302944D03*
X5697056Y-5697056D03*
X6400000Y-4000000D03*
%TD*%
%TO.C,H2*%
X68600000Y-71000000D03*
X69302944Y-69302944D03*
X69302944Y-72697056D03*
X71000000Y-68600000D03*
D18*
X71000000Y-71000000D03*
D17*
X71000000Y-73400000D03*
X72697056Y-69302944D03*
X72697056Y-72697056D03*
X73400000Y-71000000D03*
%TD*%
D24*
%TO.C,H1*%
X71000000Y-4000000D03*
%TD*%
D19*
%TO.C,J5*%
X33825000Y-13600000D03*
D20*
X33825000Y-16140000D03*
X33825000Y-18680000D03*
X33825000Y-21220000D03*
%TD*%
D19*
%TO.C,J6*%
X33825000Y-56700000D03*
D20*
X33825000Y-59240000D03*
X33825000Y-61780000D03*
%TD*%
D22*
%TO.C,J1*%
X3600000Y-35560000D03*
D23*
X3600000Y-38100000D03*
X3600000Y-40640000D03*
X3600000Y-43180000D03*
X3600000Y-45720000D03*
X3600000Y-48260000D03*
%TD*%
D14*
%TO.C,TP20*%
X30250000Y-20000000D03*
%TD*%
D25*
%TO.C,R34*%
X31100000Y-60087500D03*
X31100000Y-61912500D03*
%TD*%
D14*
%TO.C,TP5*%
X63270000Y-42650000D03*
%TD*%
%TO.C,TP18*%
X37500000Y-5000000D03*
%TD*%
%TO.C,TP8*%
X22000000Y-35000000D03*
%TD*%
D10*
%TO.C,TP13*%
X15400000Y-6800000D03*
%TD*%
D14*
%TO.C,TP17*%
X34500000Y-6500000D03*
%TD*%
D10*
%TO.C,TP12*%
X19200000Y-10600000D03*
%TD*%
D14*
%TO.C,TP11*%
X72250000Y-63000000D03*
%TD*%
%TO.C,TP15*%
X57300000Y-46500000D03*
%TD*%
%TO.C,TP21*%
X30750000Y-15500000D03*
%TD*%
%TO.C,TP3*%
X58000000Y-70500000D03*
%TD*%
%TO.C,TP7*%
X52300000Y-62100000D03*
%TD*%
%TO.C,TP4*%
X3250000Y-31000000D03*
%TD*%
D26*
%TO.C,JP5*%
X51100000Y-59400000D03*
D27*
X52400000Y-59400000D03*
D28*
X53700000Y-59400000D03*
%TD*%
D26*
%TO.C,JP4*%
X51100000Y-56300000D03*
D27*
X52400000Y-56300000D03*
D28*
X53700000Y-56300000D03*
%TD*%
D10*
%TO.C,TP2*%
X29500000Y-39000000D03*
%TD*%
%TO.C,TP14*%
X17000000Y-16000000D03*
%TD*%
D14*
%TO.C,TP9*%
X16500000Y-53500000D03*
%TD*%
%TO.C,TP16*%
X61400000Y-51700000D03*
%TD*%
%TO.C,TP23*%
X63500000Y-2250000D03*
%TD*%
D10*
%TO.C,TP1*%
X45500000Y-29500000D03*
%TD*%
D14*
%TO.C,TP22*%
X33500000Y-29750000D03*
%TD*%
D29*
%TO.C,R35*%
X36400000Y-61712500D03*
X36400000Y-59887500D03*
%TD*%
D30*
%TO.C,JP6*%
X16000000Y-60750000D03*
D31*
X16000000Y-62050000D03*
%TD*%
D14*
%TO.C,TP19*%
X46500000Y-15000000D03*
%TD*%
D30*
%TO.C,JP7*%
X23750000Y-60700000D03*
D31*
X23750000Y-62000000D03*
%TD*%
D14*
%TO.C,TP10*%
X16750000Y-51000000D03*
%TD*%
D10*
%TO.C,TP6*%
X34000000Y-52500000D03*
%TD*%
M02*
