%TF.GenerationSoftware,KiCad,Pcbnew,10.0.3*%
%TF.CreationDate,2026-05-26T13:40:20+02:00*%
%TF.ProjectId,Zamkonator,5a616d6b-6f6e-4617-946f-722e6b696361,rev?*%
%TF.SameCoordinates,Original*%
%TF.FileFunction,Soldermask,Top*%
%TF.FilePolarity,Negative*%
%FSLAX46Y46*%
G04 Gerber Fmt 4.6, Leading zero omitted, Abs format (unit mm)*
G04 Created by KiCad (PCBNEW 10.0.3) date 2026-05-26 13:40:20*
%MOMM*%
%LPD*%
G01*
G04 APERTURE LIST*
G04 Aperture macros list*
%AMRoundRect*
0 Rectangle with rounded corners*
0 $1 Rounding radius*
0 $2 $3 $4 $5 $6 $7 $8 $9 X,Y pos of 4 corners*
0 Add a 4 corners polygon primitive as box body*
4,1,4,$2,$3,$4,$5,$6,$7,$8,$9,$2,$3,0*
0 Add four circle primitives for the rounded corners*
1,1,$1+$1,$2,$3*
1,1,$1+$1,$4,$5*
1,1,$1+$1,$6,$7*
1,1,$1+$1,$8,$9*
0 Add four rect primitives between the rounded corners*
20,1,$1+$1,$2,$3,$4,$5,0*
20,1,$1+$1,$4,$5,$6,$7,0*
20,1,$1+$1,$6,$7,$8,$9,0*
20,1,$1+$1,$8,$9,$2,$3,0*%
%AMOutline4P*
0 Free polygon, 4 corners , with rotation*
0 The origin of the aperture is its center*
0 number of corners: always 4*
0 $1 to $8 corner X, Y*
0 $9 Rotation angle, in degrees counterclockwise*
0 create outline with 4 corners*
4,1,4,$1,$2,$3,$4,$5,$6,$7,$8,$1,$2,$9*%
%AMFreePoly0*
4,1,23,0.500000,-0.750000,0.000000,-0.750000,0.000000,-0.745722,-0.065263,-0.745722,-0.191342,-0.711940,-0.304381,-0.646677,-0.396677,-0.554381,-0.461940,-0.441342,-0.495722,-0.315263,-0.495722,-0.250000,-0.500000,-0.250000,-0.500000,0.250000,-0.495722,0.250000,-0.495722,0.315263,-0.461940,0.441342,-0.396677,0.554381,-0.304381,0.646677,-0.191342,0.711940,-0.065263,0.745722,0.000000,0.745722,
0.000000,0.750000,0.500000,0.750000,0.500000,-0.750000,0.500000,-0.750000,$1*%
%AMFreePoly1*
4,1,23,0.000000,0.745722,0.065263,0.745722,0.191342,0.711940,0.304381,0.646677,0.396677,0.554381,0.461940,0.441342,0.495722,0.315263,0.495722,0.250000,0.500000,0.250000,0.500000,-0.250000,0.495722,-0.250000,0.495722,-0.315263,0.461940,-0.441342,0.396677,-0.554381,0.304381,-0.646677,0.191342,-0.711940,0.065263,-0.745722,0.000000,-0.745722,0.000000,-0.750000,-0.500000,-0.750000,
-0.500000,0.750000,0.000000,0.750000,0.000000,0.745722,0.000000,0.745722,$1*%
G04 Aperture macros list end*
%ADD10C,0.200000*%
%ADD11C,1.000000*%
%ADD12R,0.600000X1.150000*%
%ADD13R,0.300000X1.150000*%
%ADD14R,1.500000X1.500000*%
%ADD15C,0.650000*%
%ADD16RoundRect,0.218750X-0.218750X-0.256250X0.218750X-0.256250X0.218750X0.256250X-0.218750X0.256250X0*%
%ADD17C,3.000000*%
%ADD18C,2.500000*%
%ADD19C,3.250000*%
%ADD20C,1.500000*%
%ADD21C,1.600000*%
%ADD22C,2.029000*%
%ADD23C,1.800000*%
%ADD24RoundRect,0.112500X0.187500X0.112500X-0.187500X0.112500X-0.187500X-0.112500X0.187500X-0.112500X0*%
%ADD25RoundRect,0.225000X0.225000X0.250000X-0.225000X0.250000X-0.225000X-0.250000X0.225000X-0.250000X0*%
%ADD26RoundRect,0.237500X-0.250000X-0.237500X0.250000X-0.237500X0.250000X0.237500X-0.250000X0.237500X0*%
%ADD27RoundRect,0.112500X0.112500X-0.187500X0.112500X0.187500X-0.112500X0.187500X-0.112500X-0.187500X0*%
%ADD28RoundRect,0.237500X0.250000X0.237500X-0.250000X0.237500X-0.250000X-0.237500X0.250000X-0.237500X0*%
%ADD29RoundRect,0.237500X0.237500X-0.300000X0.237500X0.300000X-0.237500X0.300000X-0.237500X-0.300000X0*%
%ADD30RoundRect,0.218750X0.218750X0.256250X-0.218750X0.256250X-0.218750X-0.256250X0.218750X-0.256250X0*%
%ADD31RoundRect,0.112500X-0.187500X-0.112500X0.187500X-0.112500X0.187500X0.112500X-0.187500X0.112500X0*%
%ADD32R,1.700000X1.700000*%
%ADD33C,1.700000*%
%ADD34RoundRect,0.237500X-0.300000X-0.237500X0.300000X-0.237500X0.300000X0.237500X-0.300000X0.237500X0*%
%ADD35RoundRect,0.237500X-0.237500X0.300000X-0.237500X-0.300000X0.237500X-0.300000X0.237500X0.300000X0*%
%ADD36RoundRect,0.237500X0.237500X-0.250000X0.237500X0.250000X-0.237500X0.250000X-0.237500X-0.250000X0*%
%ADD37R,1.800000X3.500000*%
%ADD38RoundRect,0.150000X-0.587500X-0.150000X0.587500X-0.150000X0.587500X0.150000X-0.587500X0.150000X0*%
%ADD39RoundRect,0.250000X-0.725000X0.600000X-0.725000X-0.600000X0.725000X-0.600000X0.725000X0.600000X0*%
%ADD40O,1.950000X1.700000*%
%ADD41C,0.800000*%
%ADD42C,6.400000*%
%ADD43O,1.700000X1.700000*%
%ADD44RoundRect,0.237500X0.300000X0.237500X-0.300000X0.237500X-0.300000X-0.237500X0.300000X-0.237500X0*%
%ADD45RoundRect,0.250000X1.000000X-1.950000X1.000000X1.950000X-1.000000X1.950000X-1.000000X-1.950000X0*%
%ADD46RoundRect,0.200000X-0.275000X0.200000X-0.275000X-0.200000X0.275000X-0.200000X0.275000X0.200000X0*%
%ADD47RoundRect,0.150000X-0.675000X-0.150000X0.675000X-0.150000X0.675000X0.150000X-0.675000X0.150000X0*%
%ADD48RoundRect,0.250000X-0.450000X0.325000X-0.450000X-0.325000X0.450000X-0.325000X0.450000X0.325000X0*%
%ADD49RoundRect,0.237500X-0.237500X0.250000X-0.237500X-0.250000X0.237500X-0.250000X0.237500X0.250000X0*%
%ADD50R,0.650000X2.000000*%
%ADD51RoundRect,0.225000X-0.225000X-0.250000X0.225000X-0.250000X0.225000X0.250000X-0.225000X0.250000X0*%
%ADD52R,0.900000X1.200000*%
%ADD53FreePoly0,90.000000*%
%ADD54FreePoly1,90.000000*%
%ADD55RoundRect,0.150000X0.675000X0.150000X-0.675000X0.150000X-0.675000X-0.150000X0.675000X-0.150000X0*%
%ADD56Outline4P,-2.150000X-1.800000X2.150000X-0.800000X2.150000X0.800000X-2.150000X1.800000X180.000000*%
%ADD57Outline4P,-2.150000X-1.800000X2.150000X-0.800000X2.150000X0.800000X-2.150000X1.800000X0.000000*%
%ADD58RoundRect,0.250000X1.500000X0.650000X-1.500000X0.650000X-1.500000X-0.650000X1.500000X-0.650000X0*%
%ADD59R,1.000000X0.900000*%
%ADD60RoundRect,0.062500X-0.062500X0.325000X-0.062500X-0.325000X0.062500X-0.325000X0.062500X0.325000X0*%
%ADD61RoundRect,0.062500X-0.325000X0.062500X-0.325000X-0.062500X0.325000X-0.062500X0.325000X0.062500X0*%
%ADD62R,2.450000X2.450000*%
%ADD63RoundRect,0.062500X-0.062500X0.375000X-0.062500X-0.375000X0.062500X-0.375000X0.062500X0.375000X0*%
%ADD64RoundRect,0.062500X-0.375000X0.062500X-0.375000X-0.062500X0.375000X-0.062500X0.375000X0.062500X0*%
%ADD65R,3.300000X3.300000*%
%ADD66C,1.200000*%
%ADD67R,0.700000X1.600000*%
%ADD68R,1.200000X1.500000*%
%ADD69R,1.200000X2.200000*%
%ADD70R,1.600000X1.500000*%
%ADD71RoundRect,0.062500X-0.062500X0.362500X-0.062500X-0.362500X0.062500X-0.362500X0.062500X0.362500X0*%
%ADD72RoundRect,0.062500X-0.362500X0.062500X-0.362500X-0.062500X0.362500X-0.062500X0.362500X0.062500X0*%
%ADD73R,2.600000X2.600000*%
%ADD74C,3.200000*%
%ADD75RoundRect,0.062500X0.062500X-0.350000X0.062500X0.350000X-0.062500X0.350000X-0.062500X-0.350000X0*%
%ADD76RoundRect,0.062500X0.350000X-0.062500X0.350000X0.062500X-0.350000X0.062500X-0.350000X-0.062500X0*%
%ADD77RoundRect,0.150000X0.150000X-0.587500X0.150000X0.587500X-0.150000X0.587500X-0.150000X-0.587500X0*%
%ADD78RoundRect,0.200000X0.275000X-0.200000X0.275000X0.200000X-0.275000X0.200000X-0.275000X-0.200000X0*%
%ADD79RoundRect,0.250000X-0.550000X1.500000X-0.550000X-1.500000X0.550000X-1.500000X0.550000X1.500000X0*%
%ADD80RoundRect,0.250000X-0.650000X0.412500X-0.650000X-0.412500X0.650000X-0.412500X0.650000X0.412500X0*%
%ADD81RoundRect,0.150000X0.150000X-0.675000X0.150000X0.675000X-0.150000X0.675000X-0.150000X-0.675000X0*%
%ADD82RoundRect,0.250000X-1.500000X-0.650000X1.500000X-0.650000X1.500000X0.650000X-1.500000X0.650000X0*%
%ADD83R,0.900000X1.500000*%
%ADD84R,1.500000X0.900000*%
%ADD85R,4.200000X4.200000*%
%ADD86RoundRect,0.150000X-0.150000X0.512500X-0.150000X-0.512500X0.150000X-0.512500X0.150000X0.512500X0*%
%ADD87R,1.270000X2.540000*%
%ADD88RoundRect,0.150000X-0.150000X0.587500X-0.150000X-0.587500X0.150000X-0.587500X0.150000X0.587500X0*%
%ADD89R,2.844800X2.057400*%
G04 APERTURE END LIST*
D10*
G36*
X77681864Y-121719023D02*
G01*
X77746043Y-121783202D01*
X77783958Y-121934861D01*
X77783958Y-122243575D01*
X77746042Y-122395235D01*
X77681866Y-122459413D01*
X77622256Y-122489219D01*
X77478994Y-122489219D01*
X77419384Y-122459414D01*
X77355207Y-122395236D01*
X77317292Y-122243575D01*
X77317292Y-121934862D01*
X77355207Y-121783202D01*
X77419386Y-121719023D01*
X77478994Y-121689219D01*
X77622256Y-121689219D01*
X77681864Y-121719023D01*
G37*
G36*
X81396150Y-121719023D02*
G01*
X81460329Y-121783202D01*
X81498244Y-121934861D01*
X81498244Y-122243575D01*
X81460328Y-122395235D01*
X81396152Y-122459413D01*
X81336542Y-122489219D01*
X81193280Y-122489219D01*
X81133670Y-122459414D01*
X81069493Y-122395236D01*
X81031578Y-122243575D01*
X81031578Y-121934862D01*
X81069493Y-121783202D01*
X81133672Y-121719023D01*
X81193280Y-121689219D01*
X81336542Y-121689219D01*
X81396150Y-121719023D01*
G37*
G36*
X82443770Y-121719024D02*
G01*
X82468439Y-121743692D01*
X82498244Y-121803302D01*
X82498244Y-121898945D01*
X82468439Y-121958554D01*
X82443770Y-121983222D01*
X82384161Y-122013028D01*
X82126816Y-122013028D01*
X82126816Y-121689219D01*
X82384161Y-121689219D01*
X82443770Y-121719024D01*
G37*
G36*
X74554740Y-122203504D02*
G01*
X74356035Y-122203504D01*
X74455387Y-121905446D01*
X74554740Y-122203504D01*
G37*
G36*
X79649978Y-122203504D02*
G01*
X79451273Y-122203504D01*
X79550625Y-121905446D01*
X79649978Y-122203504D01*
G37*
G36*
X82809355Y-122800330D02*
G01*
X73006181Y-122800330D01*
X73006181Y-122589324D01*
X73117292Y-122589324D01*
X73119213Y-122598929D01*
X73119213Y-122608728D01*
X73123002Y-122617876D01*
X73124944Y-122627584D01*
X73130395Y-122635724D01*
X73134145Y-122644776D01*
X73141144Y-122651775D01*
X73146655Y-122660004D01*
X73154808Y-122665439D01*
X73161735Y-122672366D01*
X73170881Y-122676154D01*
X73179120Y-122681647D01*
X73188730Y-122683548D01*
X73197783Y-122687298D01*
X73217292Y-122689219D01*
X73217397Y-122689219D01*
X73883958Y-122689219D01*
X73903467Y-122687298D01*
X73939515Y-122672366D01*
X73967105Y-122644776D01*
X73982037Y-122608728D01*
X73982037Y-122576712D01*
X74022839Y-122576712D01*
X74025605Y-122615632D01*
X74043055Y-122650531D01*
X74072531Y-122676096D01*
X74109547Y-122688434D01*
X74148467Y-122685668D01*
X74183366Y-122668218D01*
X74208931Y-122638742D01*
X74216922Y-122620842D01*
X74289368Y-122403504D01*
X74621406Y-122403504D01*
X74693852Y-122620841D01*
X74701843Y-122638742D01*
X74727408Y-122668218D01*
X74762307Y-122685667D01*
X74801227Y-122688434D01*
X74838243Y-122676095D01*
X74867719Y-122650530D01*
X74885169Y-122615631D01*
X74887935Y-122576711D01*
X74883588Y-122557596D01*
X74560796Y-121589219D01*
X75022054Y-121589219D01*
X75022054Y-122589219D01*
X75023975Y-122608728D01*
X75038907Y-122644776D01*
X75066497Y-122672366D01*
X75102545Y-122687298D01*
X75141563Y-122687298D01*
X75177611Y-122672366D01*
X75205201Y-122644776D01*
X75220133Y-122608728D01*
X75222054Y-122589219D01*
X75222054Y-122039975D01*
X75364769Y-122345793D01*
X75369001Y-122352938D01*
X75369881Y-122355356D01*
X75371446Y-122357065D01*
X75374760Y-122362659D01*
X75385970Y-122372925D01*
X75396232Y-122384131D01*
X75400257Y-122386009D01*
X75403535Y-122389011D01*
X75417817Y-122394204D01*
X75431590Y-122400632D01*
X75436029Y-122400827D01*
X75440204Y-122402345D01*
X75455387Y-122401677D01*
X75470570Y-122402345D01*
X75474743Y-122400827D01*
X75479185Y-122400632D01*
X75492969Y-122394199D01*
X75507239Y-122389010D01*
X75510512Y-122386012D01*
X75514542Y-122384132D01*
X75524811Y-122372917D01*
X75536014Y-122362659D01*
X75539325Y-122357068D01*
X75540894Y-122355356D01*
X75541774Y-122352934D01*
X75546005Y-122345793D01*
X75688720Y-122039974D01*
X75688720Y-122589219D01*
X75690641Y-122608728D01*
X75705573Y-122644776D01*
X75733163Y-122672366D01*
X75769211Y-122687298D01*
X75808229Y-122687298D01*
X75844277Y-122672366D01*
X75871867Y-122644776D01*
X75886799Y-122608728D01*
X75888720Y-122589219D01*
X75888720Y-121589219D01*
X76164911Y-121589219D01*
X76164911Y-122589219D01*
X76166832Y-122608728D01*
X76181764Y-122644776D01*
X76209354Y-122672366D01*
X76245402Y-122687298D01*
X76284420Y-122687298D01*
X76320468Y-122672366D01*
X76348058Y-122644776D01*
X76362990Y-122608728D01*
X76364911Y-122589219D01*
X76364911Y-122202069D01*
X76396948Y-122170031D01*
X76756339Y-122649219D01*
X76769581Y-122663674D01*
X76803156Y-122683553D01*
X76841782Y-122689071D01*
X76879579Y-122679388D01*
X76910794Y-122655977D01*
X76930673Y-122622403D01*
X76936191Y-122583777D01*
X76926508Y-122545979D01*
X76916339Y-122529219D01*
X76539805Y-122027174D01*
X76644427Y-121922552D01*
X77117292Y-121922552D01*
X77117292Y-122255885D01*
X77117627Y-122259287D01*
X77117410Y-122260746D01*
X77118489Y-122268043D01*
X77119213Y-122275394D01*
X77119777Y-122276757D01*
X77120278Y-122280139D01*
X77167897Y-122470614D01*
X77174492Y-122489075D01*
X77178917Y-122495047D01*
X77181763Y-122501918D01*
X77194200Y-122517071D01*
X77289438Y-122612311D01*
X77297106Y-122618604D01*
X77298837Y-122620600D01*
X77301844Y-122622493D01*
X77304591Y-122624747D01*
X77307031Y-122625757D01*
X77315428Y-122631043D01*
X77410665Y-122678662D01*
X77428974Y-122685668D01*
X77432557Y-122685922D01*
X77435878Y-122687298D01*
X77455387Y-122689219D01*
X77645863Y-122689219D01*
X77665372Y-122687298D01*
X77668692Y-122685922D01*
X77672276Y-122685668D01*
X77690584Y-122678662D01*
X77785822Y-122631043D01*
X77794217Y-122625758D01*
X77796659Y-122624747D01*
X77799406Y-122622491D01*
X77802412Y-122620600D01*
X77804142Y-122618605D01*
X77811812Y-122612310D01*
X77907050Y-122517071D01*
X77919487Y-122501918D01*
X77922332Y-122495047D01*
X77926758Y-122489075D01*
X77933353Y-122470615D01*
X77980972Y-122280139D01*
X77981472Y-122276757D01*
X77982037Y-122275394D01*
X77982760Y-122268043D01*
X77983840Y-122260746D01*
X77983622Y-122259287D01*
X77983958Y-122255885D01*
X77983958Y-121922552D01*
X77983622Y-121919149D01*
X77983840Y-121917691D01*
X77982760Y-121910393D01*
X77982037Y-121903043D01*
X77981472Y-121901679D01*
X77980972Y-121898298D01*
X77933353Y-121707822D01*
X77926758Y-121689362D01*
X77922331Y-121683387D01*
X77919486Y-121676519D01*
X77907050Y-121661365D01*
X77834904Y-121589219D01*
X78212530Y-121589219D01*
X78212530Y-122589219D01*
X78214451Y-122608728D01*
X78229383Y-122644776D01*
X78256973Y-122672366D01*
X78293021Y-122687298D01*
X78332039Y-122687298D01*
X78368087Y-122672366D01*
X78395677Y-122644776D01*
X78410609Y-122608728D01*
X78412530Y-122589219D01*
X78412530Y-121965775D01*
X78797134Y-122638833D01*
X78800052Y-122642943D01*
X78800811Y-122644776D01*
X78802677Y-122646642D01*
X78808481Y-122654818D01*
X78818997Y-122662962D01*
X78828401Y-122672366D01*
X78834288Y-122674804D01*
X78839330Y-122678709D01*
X78852162Y-122682208D01*
X78864449Y-122687298D01*
X78870825Y-122687298D01*
X78876974Y-122688975D01*
X78890167Y-122687298D01*
X78903467Y-122687298D01*
X78909355Y-122684858D01*
X78915680Y-122684055D01*
X78927229Y-122677454D01*
X78939515Y-122672366D01*
X78944022Y-122667858D01*
X78949557Y-122664696D01*
X78957701Y-122654179D01*
X78967105Y-122644776D01*
X78969543Y-122638888D01*
X78973448Y-122633847D01*
X78976947Y-122621014D01*
X78982037Y-122608728D01*
X78983019Y-122598750D01*
X78983714Y-122596204D01*
X78983463Y-122594236D01*
X78983958Y-122589219D01*
X78983958Y-122576712D01*
X79118077Y-122576712D01*
X79120843Y-122615632D01*
X79138293Y-122650531D01*
X79167769Y-122676096D01*
X79204785Y-122688434D01*
X79243705Y-122685668D01*
X79278604Y-122668218D01*
X79304169Y-122638742D01*
X79312160Y-122620842D01*
X79384606Y-122403504D01*
X79716644Y-122403504D01*
X79789090Y-122620841D01*
X79797081Y-122638742D01*
X79822646Y-122668218D01*
X79857545Y-122685667D01*
X79896465Y-122688434D01*
X79933481Y-122676095D01*
X79962957Y-122650530D01*
X79980407Y-122615631D01*
X79983173Y-122576711D01*
X79978826Y-122557596D01*
X79649531Y-121569710D01*
X79976356Y-121569710D01*
X79976356Y-121608728D01*
X79991288Y-121644776D01*
X80018878Y-121672366D01*
X80054926Y-121687298D01*
X80074435Y-121689219D01*
X80260149Y-121689219D01*
X80260149Y-122589219D01*
X80262070Y-122608728D01*
X80277002Y-122644776D01*
X80304592Y-122672366D01*
X80340640Y-122687298D01*
X80379658Y-122687298D01*
X80415706Y-122672366D01*
X80443296Y-122644776D01*
X80458228Y-122608728D01*
X80460149Y-122589219D01*
X80460149Y-121922552D01*
X80831578Y-121922552D01*
X80831578Y-122255885D01*
X80831913Y-122259287D01*
X80831696Y-122260746D01*
X80832775Y-122268043D01*
X80833499Y-122275394D01*
X80834063Y-122276757D01*
X80834564Y-122280139D01*
X80882183Y-122470614D01*
X80888778Y-122489075D01*
X80893203Y-122495047D01*
X80896049Y-122501918D01*
X80908486Y-122517071D01*
X81003724Y-122612311D01*
X81011392Y-122618604D01*
X81013123Y-122620600D01*
X81016130Y-122622493D01*
X81018877Y-122624747D01*
X81021317Y-122625757D01*
X81029714Y-122631043D01*
X81124951Y-122678662D01*
X81143260Y-122685668D01*
X81146843Y-122685922D01*
X81150164Y-122687298D01*
X81169673Y-122689219D01*
X81360149Y-122689219D01*
X81379658Y-122687298D01*
X81382978Y-122685922D01*
X81386562Y-122685668D01*
X81404870Y-122678662D01*
X81500108Y-122631043D01*
X81508503Y-122625758D01*
X81510945Y-122624747D01*
X81513692Y-122622491D01*
X81516698Y-122620600D01*
X81518428Y-122618605D01*
X81526098Y-122612310D01*
X81621336Y-122517071D01*
X81633773Y-122501918D01*
X81636618Y-122495047D01*
X81641044Y-122489075D01*
X81647639Y-122470615D01*
X81695258Y-122280139D01*
X81695758Y-122276757D01*
X81696323Y-122275394D01*
X81697046Y-122268043D01*
X81698126Y-122260746D01*
X81697908Y-122259287D01*
X81698244Y-122255885D01*
X81698244Y-121922552D01*
X81697908Y-121919149D01*
X81698126Y-121917691D01*
X81697046Y-121910393D01*
X81696323Y-121903043D01*
X81695758Y-121901679D01*
X81695258Y-121898298D01*
X81647639Y-121707822D01*
X81641044Y-121689362D01*
X81636617Y-121683387D01*
X81633772Y-121676519D01*
X81621336Y-121661365D01*
X81549190Y-121589219D01*
X81926816Y-121589219D01*
X81926816Y-122589219D01*
X81928737Y-122608728D01*
X81943669Y-122644776D01*
X81971259Y-122672366D01*
X82007307Y-122687298D01*
X82046325Y-122687298D01*
X82082373Y-122672366D01*
X82109963Y-122644776D01*
X82124895Y-122608728D01*
X82126816Y-122589219D01*
X82126816Y-122213028D01*
X82212846Y-122213028D01*
X82516321Y-122646565D01*
X82529082Y-122661446D01*
X82561987Y-122682415D01*
X82600412Y-122689196D01*
X82638506Y-122680756D01*
X82670471Y-122658381D01*
X82691440Y-122625476D01*
X82698221Y-122587052D01*
X82689781Y-122548957D01*
X82680167Y-122531873D01*
X82450199Y-122203347D01*
X82452489Y-122202471D01*
X82547727Y-122154852D01*
X82556123Y-122149566D01*
X82558563Y-122148556D01*
X82561309Y-122146302D01*
X82564317Y-122144409D01*
X82566046Y-122142414D01*
X82573717Y-122136120D01*
X82621335Y-122088501D01*
X82627627Y-122080834D01*
X82629625Y-122079102D01*
X82631518Y-122076093D01*
X82633772Y-122073348D01*
X82634782Y-122070907D01*
X82640068Y-122062511D01*
X82687687Y-121967274D01*
X82694693Y-121948965D01*
X82694947Y-121945381D01*
X82696323Y-121942061D01*
X82698244Y-121922552D01*
X82698244Y-121779695D01*
X82696323Y-121760186D01*
X82694947Y-121756865D01*
X82694693Y-121753282D01*
X82687687Y-121734973D01*
X82640068Y-121639736D01*
X82634782Y-121631339D01*
X82633772Y-121628899D01*
X82631518Y-121626153D01*
X82629625Y-121623145D01*
X82627627Y-121621412D01*
X82621335Y-121613746D01*
X82573717Y-121566127D01*
X82566046Y-121559832D01*
X82564317Y-121557838D01*
X82561309Y-121555944D01*
X82558563Y-121553691D01*
X82556123Y-121552680D01*
X82547727Y-121547395D01*
X82452489Y-121499776D01*
X82434181Y-121492770D01*
X82430597Y-121492515D01*
X82427277Y-121491140D01*
X82407768Y-121489219D01*
X82026816Y-121489219D01*
X82007307Y-121491140D01*
X81971259Y-121506072D01*
X81943669Y-121533662D01*
X81928737Y-121569710D01*
X81926816Y-121589219D01*
X81549190Y-121589219D01*
X81526098Y-121566127D01*
X81518427Y-121559832D01*
X81516698Y-121557838D01*
X81513690Y-121555944D01*
X81510944Y-121553691D01*
X81508504Y-121552680D01*
X81500108Y-121547395D01*
X81404870Y-121499776D01*
X81386562Y-121492770D01*
X81382978Y-121492515D01*
X81379658Y-121491140D01*
X81360149Y-121489219D01*
X81169673Y-121489219D01*
X81150164Y-121491140D01*
X81146843Y-121492515D01*
X81143260Y-121492770D01*
X81124951Y-121499776D01*
X81029714Y-121547395D01*
X81021315Y-121552681D01*
X81018878Y-121553691D01*
X81016134Y-121555942D01*
X81013123Y-121557838D01*
X81011390Y-121559835D01*
X81003724Y-121566127D01*
X80908486Y-121661365D01*
X80896050Y-121676519D01*
X80893204Y-121683387D01*
X80888778Y-121689362D01*
X80882183Y-121707823D01*
X80834564Y-121898298D01*
X80834063Y-121901679D01*
X80833499Y-121903043D01*
X80832775Y-121910393D01*
X80831696Y-121917691D01*
X80831913Y-121919149D01*
X80831578Y-121922552D01*
X80460149Y-121922552D01*
X80460149Y-121689219D01*
X80645863Y-121689219D01*
X80665372Y-121687298D01*
X80701420Y-121672366D01*
X80729010Y-121644776D01*
X80743942Y-121608728D01*
X80743942Y-121569710D01*
X80729010Y-121533662D01*
X80701420Y-121506072D01*
X80665372Y-121491140D01*
X80645863Y-121489219D01*
X80074435Y-121489219D01*
X80054926Y-121491140D01*
X80018878Y-121506072D01*
X79991288Y-121533662D01*
X79976356Y-121569710D01*
X79649531Y-121569710D01*
X79645493Y-121557596D01*
X79637502Y-121539696D01*
X79632817Y-121534294D01*
X79629624Y-121527908D01*
X79620155Y-121519695D01*
X79611937Y-121510220D01*
X79605545Y-121507023D01*
X79600148Y-121502343D01*
X79588254Y-121498378D01*
X79577038Y-121492770D01*
X79569910Y-121492263D01*
X79563132Y-121490004D01*
X79550627Y-121490893D01*
X79538118Y-121490004D01*
X79531336Y-121492264D01*
X79524212Y-121492771D01*
X79513003Y-121498374D01*
X79501102Y-121502342D01*
X79495701Y-121507025D01*
X79489313Y-121510220D01*
X79481097Y-121519691D01*
X79471626Y-121527907D01*
X79468431Y-121534296D01*
X79463748Y-121539696D01*
X79455757Y-121557597D01*
X79122424Y-122557596D01*
X79118077Y-122576712D01*
X78983958Y-122576712D01*
X78983958Y-121589219D01*
X78982037Y-121569710D01*
X78967105Y-121533662D01*
X78939515Y-121506072D01*
X78903467Y-121491140D01*
X78864449Y-121491140D01*
X78828401Y-121506072D01*
X78800811Y-121533662D01*
X78785879Y-121569710D01*
X78783958Y-121589219D01*
X78783958Y-122212662D01*
X78399354Y-121539605D01*
X78396435Y-121535494D01*
X78395677Y-121533662D01*
X78393810Y-121531795D01*
X78388007Y-121523620D01*
X78377492Y-121515477D01*
X78368087Y-121506072D01*
X78362196Y-121503632D01*
X78357158Y-121499730D01*
X78344329Y-121496231D01*
X78332039Y-121491140D01*
X78325664Y-121491140D01*
X78319515Y-121489463D01*
X78306322Y-121491140D01*
X78293021Y-121491140D01*
X78287132Y-121493579D01*
X78280808Y-121494383D01*
X78269258Y-121500983D01*
X78256973Y-121506072D01*
X78252465Y-121510579D01*
X78246931Y-121513742D01*
X78238788Y-121524256D01*
X78229383Y-121533662D01*
X78226943Y-121539552D01*
X78223041Y-121544591D01*
X78219542Y-121557419D01*
X78214451Y-121569710D01*
X78213468Y-121579687D01*
X78212774Y-121582234D01*
X78213024Y-121584201D01*
X78212530Y-121589219D01*
X77834904Y-121589219D01*
X77811812Y-121566127D01*
X77804141Y-121559832D01*
X77802412Y-121557838D01*
X77799404Y-121555944D01*
X77796658Y-121553691D01*
X77794218Y-121552680D01*
X77785822Y-121547395D01*
X77690584Y-121499776D01*
X77672276Y-121492770D01*
X77668692Y-121492515D01*
X77665372Y-121491140D01*
X77645863Y-121489219D01*
X77455387Y-121489219D01*
X77435878Y-121491140D01*
X77432557Y-121492515D01*
X77428974Y-121492770D01*
X77410665Y-121499776D01*
X77315428Y-121547395D01*
X77307029Y-121552681D01*
X77304592Y-121553691D01*
X77301848Y-121555942D01*
X77298837Y-121557838D01*
X77297104Y-121559835D01*
X77289438Y-121566127D01*
X77194200Y-121661365D01*
X77181764Y-121676519D01*
X77178918Y-121683387D01*
X77174492Y-121689362D01*
X77167897Y-121707823D01*
X77120278Y-121898298D01*
X77119777Y-121901679D01*
X77119213Y-121903043D01*
X77118489Y-121910393D01*
X77117410Y-121917691D01*
X77117627Y-121919149D01*
X77117292Y-121922552D01*
X76644427Y-121922552D01*
X76907050Y-121659930D01*
X76919486Y-121644777D01*
X76934417Y-121608728D01*
X76934417Y-121569710D01*
X76919486Y-121533662D01*
X76891896Y-121506072D01*
X76855848Y-121491141D01*
X76816830Y-121491141D01*
X76780781Y-121506072D01*
X76765628Y-121518508D01*
X76364911Y-121919225D01*
X76364911Y-121589219D01*
X76362990Y-121569710D01*
X76348058Y-121533662D01*
X76320468Y-121506072D01*
X76284420Y-121491140D01*
X76245402Y-121491140D01*
X76209354Y-121506072D01*
X76181764Y-121533662D01*
X76166832Y-121569710D01*
X76164911Y-121589219D01*
X75888720Y-121589219D01*
X75887457Y-121576395D01*
X75887561Y-121574036D01*
X75887100Y-121572768D01*
X75886799Y-121569710D01*
X75880158Y-121553679D01*
X75874227Y-121537367D01*
X75872720Y-121535721D01*
X75871867Y-121533662D01*
X75859605Y-121521400D01*
X75847875Y-121508591D01*
X75845851Y-121507646D01*
X75844277Y-121506072D01*
X75828261Y-121499437D01*
X75812518Y-121492091D01*
X75810288Y-121491993D01*
X75808229Y-121491140D01*
X75790877Y-121491140D01*
X75773537Y-121490378D01*
X75771441Y-121491140D01*
X75769211Y-121491140D01*
X75753180Y-121497780D01*
X75736868Y-121503712D01*
X75735222Y-121505218D01*
X75733163Y-121506072D01*
X75720895Y-121518339D01*
X75708093Y-121530064D01*
X75706526Y-121532708D01*
X75705573Y-121533662D01*
X75704669Y-121535843D01*
X75698102Y-121546930D01*
X75455386Y-122067033D01*
X75212672Y-121546930D01*
X75206104Y-121535843D01*
X75205201Y-121533662D01*
X75204247Y-121532708D01*
X75202681Y-121530064D01*
X75189884Y-121518345D01*
X75177611Y-121506072D01*
X75175549Y-121505218D01*
X75173906Y-121503713D01*
X75157604Y-121497784D01*
X75141563Y-121491140D01*
X75139332Y-121491140D01*
X75137237Y-121490378D01*
X75119897Y-121491140D01*
X75102545Y-121491140D01*
X75100485Y-121491993D01*
X75098257Y-121492091D01*
X75082526Y-121499432D01*
X75066497Y-121506072D01*
X75064920Y-121507648D01*
X75062899Y-121508592D01*
X75051180Y-121521388D01*
X75038907Y-121533662D01*
X75038053Y-121535723D01*
X75036548Y-121537367D01*
X75030619Y-121553668D01*
X75023975Y-121569710D01*
X75023673Y-121572768D01*
X75023213Y-121574036D01*
X75023316Y-121576395D01*
X75022054Y-121589219D01*
X74560796Y-121589219D01*
X74550255Y-121557596D01*
X74542264Y-121539696D01*
X74537579Y-121534294D01*
X74534386Y-121527908D01*
X74524917Y-121519695D01*
X74516699Y-121510220D01*
X74510307Y-121507023D01*
X74504910Y-121502343D01*
X74493016Y-121498378D01*
X74481800Y-121492770D01*
X74474672Y-121492263D01*
X74467894Y-121490004D01*
X74455389Y-121490893D01*
X74442880Y-121490004D01*
X74436098Y-121492264D01*
X74428974Y-121492771D01*
X74417765Y-121498374D01*
X74405864Y-121502342D01*
X74400463Y-121507025D01*
X74394075Y-121510220D01*
X74385859Y-121519691D01*
X74376388Y-121527907D01*
X74373193Y-121534296D01*
X74368510Y-121539696D01*
X74360519Y-121557597D01*
X74027186Y-122557596D01*
X74022839Y-122576712D01*
X73982037Y-122576712D01*
X73982037Y-122569710D01*
X73967105Y-122533662D01*
X73939515Y-122506072D01*
X73903467Y-122491140D01*
X73883958Y-122489219D01*
X73404144Y-122489219D01*
X73967163Y-121644689D01*
X73976386Y-121627391D01*
X73978287Y-121617780D01*
X73982037Y-121608728D01*
X73982037Y-121598824D01*
X73983958Y-121589114D01*
X73982037Y-121579509D01*
X73982037Y-121569710D01*
X73978247Y-121560561D01*
X73976306Y-121550854D01*
X73970854Y-121542713D01*
X73967105Y-121533662D01*
X73960105Y-121526662D01*
X73954595Y-121518434D01*
X73946441Y-121512998D01*
X73939515Y-121506072D01*
X73930368Y-121502283D01*
X73922130Y-121496791D01*
X73912519Y-121494889D01*
X73903467Y-121491140D01*
X73883958Y-121489219D01*
X73217292Y-121489219D01*
X73197783Y-121491140D01*
X73161735Y-121506072D01*
X73134145Y-121533662D01*
X73119213Y-121569710D01*
X73119213Y-121608728D01*
X73134145Y-121644776D01*
X73161735Y-121672366D01*
X73197783Y-121687298D01*
X73217292Y-121689219D01*
X73697106Y-121689219D01*
X73134087Y-122533749D01*
X73124864Y-122551047D01*
X73122962Y-122560657D01*
X73119213Y-122569710D01*
X73119213Y-122579613D01*
X73117292Y-122589324D01*
X73006181Y-122589324D01*
X73006181Y-121378108D01*
X82809355Y-121378108D01*
X82809355Y-122800330D01*
G37*
%TO.C,JP1*%
G36*
X102750000Y-104850000D02*
G01*
X104250000Y-104850000D01*
X104250000Y-105150000D01*
X102750000Y-105150000D01*
X102750000Y-104850000D01*
G37*
%TO.C,JP2*%
G36*
X99750000Y-104850000D02*
G01*
X101250000Y-104850000D01*
X101250000Y-105150000D01*
X99750000Y-105150000D01*
X99750000Y-104850000D01*
G37*
%TD*%
D11*
%TO.C,TP25*%
X108500000Y-110000000D03*
%TD*%
%TO.C,TP24*%
X106000000Y-110000000D03*
%TD*%
D12*
%TO.C,USB1*%
X93795000Y-121500000D03*
X94595000Y-121500000D03*
X100195000Y-121500000D03*
X99395000Y-121500000D03*
D13*
X98745000Y-121500000D03*
X95245000Y-121500000D03*
X97745000Y-121500000D03*
X97245000Y-121500000D03*
X96745000Y-121500000D03*
X96245000Y-121500000D03*
X95745000Y-121500000D03*
X98245000Y-121500000D03*
D14*
X91875000Y-122070000D03*
X102115000Y-122070000D03*
X102115000Y-126000000D03*
X91875000Y-126000000D03*
D15*
X99885000Y-122570000D03*
X94105000Y-122570000D03*
%TD*%
D16*
%TO.C,D3*%
X50675750Y-126249250D03*
X52250750Y-126249250D03*
%TD*%
D17*
%TO.C,K1*%
X58300000Y-48450000D03*
D18*
X64350000Y-46500000D03*
D17*
X64350000Y-34300000D03*
X52300000Y-34250000D03*
D18*
X52350000Y-46500000D03*
%TD*%
D19*
%TO.C,RJ1*%
X109900000Y-53200000D03*
X109900000Y-41800000D03*
D14*
X101010000Y-53215000D03*
D20*
X103550000Y-51945000D03*
X101010000Y-50675000D03*
X103550000Y-49405000D03*
X101010000Y-48135000D03*
X103550000Y-46865000D03*
X101010000Y-45595000D03*
X103550000Y-44325000D03*
X101010000Y-43055000D03*
X103550000Y-41785000D03*
D21*
X113990000Y-54129000D03*
X113990000Y-51589000D03*
X113990000Y-43411000D03*
X113990000Y-40871000D03*
D22*
X106852000Y-55247000D03*
X106852000Y-39753000D03*
%TD*%
D23*
%TO.C,J8*%
X47435000Y-39250000D03*
X42435000Y-42750000D03*
X47435000Y-46250000D03*
X42435000Y-49750000D03*
X47435000Y-53250000D03*
X42435000Y-56750000D03*
%TD*%
D24*
%TO.C,D12*%
X87650000Y-87750000D03*
X85550000Y-87750000D03*
%TD*%
D25*
%TO.C,C39*%
X104775000Y-114000000D03*
X103225000Y-114000000D03*
%TD*%
D26*
%TO.C,R19*%
X78687500Y-38150000D03*
X80512500Y-38150000D03*
%TD*%
D27*
%TO.C,D11*%
X72350000Y-75800000D03*
X72350000Y-73700000D03*
%TD*%
D28*
%TO.C,R22*%
X84612500Y-30000000D03*
X82787500Y-30000000D03*
%TD*%
D29*
%TO.C,C34*%
X107350000Y-73112500D03*
X107350000Y-71387500D03*
%TD*%
D30*
%TO.C,L3*%
X95529500Y-38100000D03*
X93954500Y-38100000D03*
%TD*%
D31*
%TO.C,D19*%
X52200000Y-82250000D03*
X54300000Y-82250000D03*
%TD*%
D32*
%TO.C,J4*%
X57912000Y-65786000D03*
D33*
X57912000Y-63246000D03*
X60452000Y-65786000D03*
X60452000Y-63246000D03*
%TD*%
D26*
%TO.C,R30*%
X82907500Y-79009667D03*
X84732500Y-79009667D03*
%TD*%
%TO.C,R20*%
X82757500Y-31856165D03*
X84582500Y-31856165D03*
%TD*%
D31*
%TO.C,D15*%
X52036000Y-103296800D03*
X54136000Y-103296800D03*
%TD*%
D34*
%TO.C,C10*%
X103487500Y-57500000D03*
X105212500Y-57500000D03*
%TD*%
%TO.C,C9*%
X103487500Y-62750000D03*
X105212500Y-62750000D03*
%TD*%
%TO.C,C19*%
X88637500Y-40700000D03*
X90362500Y-40700000D03*
%TD*%
D35*
%TO.C,C23*%
X75100000Y-59837500D03*
X75100000Y-61562500D03*
%TD*%
D11*
%TO.C,TP22*%
X103500000Y-110000000D03*
%TD*%
D36*
%TO.C,R7*%
X53749250Y-119999750D03*
X53749250Y-118174750D03*
%TD*%
D37*
%TO.C,D10*%
X86850000Y-72750000D03*
X86850000Y-67750000D03*
%TD*%
D38*
%TO.C,Q2*%
X83625000Y-114050000D03*
X83625000Y-115950000D03*
X85500000Y-115000000D03*
%TD*%
D39*
%TO.C,J7*%
X47335000Y-96750000D03*
D40*
X47335000Y-99250000D03*
X47335000Y-101750000D03*
X47335000Y-104250000D03*
X47335000Y-106750000D03*
X47335000Y-109250000D03*
X47335000Y-111750000D03*
X47335000Y-114250000D03*
%TD*%
D34*
%TO.C,C7*%
X95737500Y-57500000D03*
X97462500Y-57500000D03*
%TD*%
D31*
%TO.C,D13*%
X52002000Y-108844000D03*
X54102000Y-108844000D03*
%TD*%
D35*
%TO.C,C25*%
X89600000Y-71137500D03*
X89600000Y-72862500D03*
%TD*%
%TO.C,C17*%
X81100000Y-29887500D03*
X81100000Y-31612500D03*
%TD*%
D41*
%TO.C,H3*%
X42700000Y-123500000D03*
X43402944Y-121802944D03*
X43402944Y-125197056D03*
X45100000Y-121100000D03*
D42*
X45100000Y-123500000D03*
D41*
X45100000Y-125900000D03*
X46797056Y-121802944D03*
X46797056Y-125197056D03*
X47500000Y-123500000D03*
%TD*%
D35*
%TO.C,C20*%
X92202000Y-39269500D03*
X92202000Y-40994500D03*
%TD*%
D32*
%TO.C,J5*%
X93100000Y-101000000D03*
D43*
X95640000Y-101000000D03*
X98180000Y-101000000D03*
X100720000Y-101000000D03*
X103260000Y-101000000D03*
X105800000Y-101000000D03*
%TD*%
D44*
%TO.C,C32*%
X84682500Y-77343000D03*
X82957500Y-77343000D03*
%TD*%
D34*
%TO.C,C6*%
X103487500Y-61000000D03*
X105212500Y-61000000D03*
%TD*%
D45*
%TO.C,C16*%
X72100000Y-39200000D03*
X72100000Y-30800000D03*
%TD*%
D36*
%TO.C,R24*%
X68200000Y-57512500D03*
X68200000Y-55687500D03*
%TD*%
%TO.C,R6*%
X51971250Y-119999750D03*
X51971250Y-118174750D03*
%TD*%
D46*
%TO.C,R50*%
X89500000Y-122675000D03*
X89500000Y-124325000D03*
%TD*%
D47*
%TO.C,U10*%
X56311000Y-99958500D03*
X56311000Y-101228500D03*
X62561000Y-101228500D03*
X62561000Y-99958500D03*
%TD*%
D34*
%TO.C,C31*%
X82957500Y-82343000D03*
X84682500Y-82343000D03*
%TD*%
D30*
%TO.C,L1*%
X105137500Y-66500000D03*
X103562500Y-66500000D03*
%TD*%
D28*
%TO.C,R28*%
X68312500Y-62100000D03*
X66487500Y-62100000D03*
%TD*%
D38*
%TO.C,Q3*%
X83625000Y-109050000D03*
X83625000Y-110950000D03*
X85500000Y-110000000D03*
%TD*%
D48*
%TO.C,L4*%
X83700000Y-66975000D03*
X83700000Y-69025000D03*
%TD*%
D49*
%TO.C,R23*%
X91440000Y-35663500D03*
X91440000Y-37488500D03*
%TD*%
D34*
%TO.C,C8*%
X103487500Y-64500000D03*
X105212500Y-64500000D03*
%TD*%
%TO.C,C35*%
X99737500Y-69250000D03*
X101462500Y-69250000D03*
%TD*%
D50*
%TO.C,D6*%
X105300000Y-69250000D03*
X103400000Y-69250000D03*
X104350000Y-72670000D03*
%TD*%
D28*
%TO.C,R9*%
X101512500Y-67500000D03*
X99687500Y-67500000D03*
%TD*%
D34*
%TO.C,C18*%
X82807500Y-33856165D03*
X84532500Y-33856165D03*
%TD*%
D49*
%TO.C,R25*%
X89600000Y-67337500D03*
X89600000Y-69162500D03*
%TD*%
D35*
%TO.C,C4*%
X107350000Y-67887500D03*
X107350000Y-69612500D03*
%TD*%
D26*
%TO.C,R18*%
X79175000Y-36300000D03*
X81000000Y-36300000D03*
%TD*%
D28*
%TO.C,R13*%
X97512500Y-54000000D03*
X95687500Y-54000000D03*
%TD*%
D51*
%TO.C,C41*%
X103225000Y-118000000D03*
X104775000Y-118000000D03*
%TD*%
D52*
%TO.C,D9*%
X80200000Y-42500000D03*
X83500000Y-42500000D03*
%TD*%
D28*
%TO.C,R34*%
X68412500Y-109000000D03*
X66587500Y-109000000D03*
%TD*%
D44*
%TO.C,C2*%
X69162500Y-73900000D03*
X67437500Y-73900000D03*
%TD*%
D28*
%TO.C,R12*%
X97512500Y-48750000D03*
X95687500Y-48750000D03*
%TD*%
D53*
%TO.C,JP1*%
X103500000Y-105650000D03*
D54*
X103500000Y-104350000D03*
%TD*%
D26*
%TO.C,R1*%
X95353500Y-94996000D03*
X97178500Y-94996000D03*
%TD*%
D49*
%TO.C,R33*%
X86847500Y-93385500D03*
X86847500Y-95210500D03*
%TD*%
D34*
%TO.C,C1*%
X67437500Y-85500000D03*
X69162500Y-85500000D03*
%TD*%
D44*
%TO.C,C30*%
X75712500Y-80250000D03*
X73987500Y-80250000D03*
%TD*%
D55*
%TO.C,U9*%
X62561000Y-105092250D03*
X62561000Y-103822250D03*
X56311000Y-103822250D03*
X56311000Y-105092250D03*
%TD*%
D56*
%TO.C,D7*%
X105900000Y-32900000D03*
D57*
X99500000Y-32900000D03*
%TD*%
D23*
%TO.C,J9*%
X47500000Y-63520833D03*
X42500000Y-67020833D03*
%TD*%
D28*
%TO.C,R29*%
X84732500Y-80676333D03*
X82907500Y-80676333D03*
%TD*%
D47*
%TO.C,U11*%
X56311000Y-96079750D03*
X56311000Y-97349750D03*
X62561000Y-97349750D03*
X62561000Y-96079750D03*
%TD*%
D26*
%TO.C,R17*%
X79175000Y-39900000D03*
X81000000Y-39900000D03*
%TD*%
D23*
%TO.C,J11*%
X47500000Y-84062500D03*
X42500000Y-87562500D03*
%TD*%
D28*
%TO.C,R11*%
X97512500Y-50500000D03*
X95687500Y-50500000D03*
%TD*%
%TO.C,R37*%
X53976000Y-100743200D03*
X52151000Y-100743200D03*
%TD*%
D58*
%TO.C,D20*%
X63700000Y-52600000D03*
X58700000Y-52600000D03*
%TD*%
D27*
%TO.C,D17*%
X54102000Y-70392000D03*
X54102000Y-68292000D03*
%TD*%
D47*
%TO.C,U14*%
X56311000Y-85230000D03*
X56311000Y-86500000D03*
X62561000Y-86500000D03*
X62561000Y-85230000D03*
%TD*%
D59*
%TO.C,X1*%
X82360000Y-95623000D03*
X84510000Y-95623000D03*
X84510000Y-94073000D03*
X82360000Y-94073000D03*
%TD*%
D24*
%TO.C,D14*%
X54091000Y-106070400D03*
X51991000Y-106070400D03*
%TD*%
D60*
%TO.C,U1*%
X68087500Y-75762500D03*
X67587500Y-75762500D03*
X67087500Y-75762500D03*
X66587500Y-75762500D03*
X66087500Y-75762500D03*
X65587500Y-75762500D03*
D61*
X64850000Y-76500000D03*
X64850000Y-77000000D03*
X64850000Y-77500000D03*
X64850000Y-78000000D03*
X64850000Y-78500000D03*
X64850000Y-79000000D03*
D60*
X65587500Y-79737500D03*
X66087500Y-79737500D03*
X66587500Y-79737500D03*
X67087500Y-79737500D03*
X67587500Y-79737500D03*
X68087500Y-79737500D03*
D61*
X68825000Y-79000000D03*
X68825000Y-78500000D03*
X68825000Y-78000000D03*
X68825000Y-77500000D03*
X68825000Y-77000000D03*
X68825000Y-76500000D03*
D62*
X66837500Y-77750000D03*
%TD*%
D55*
%TO.C,U8*%
X62561000Y-108971000D03*
X62561000Y-107701000D03*
X56311000Y-107701000D03*
X56311000Y-108971000D03*
%TD*%
D11*
%TO.C,TP23*%
X96000000Y-110000000D03*
%TD*%
D53*
%TO.C,JP2*%
X100500000Y-105650000D03*
D54*
X100500000Y-104350000D03*
%TD*%
D26*
%TO.C,R43*%
X57253500Y-56642000D03*
X59078500Y-56642000D03*
%TD*%
D63*
%TO.C,U2*%
X100850000Y-60375000D03*
X100350000Y-60375000D03*
X99850000Y-60375000D03*
X99350000Y-60375000D03*
X98850000Y-60375000D03*
X98350000Y-60375000D03*
X97850000Y-60375000D03*
X97350000Y-60375000D03*
D64*
X96662500Y-61062500D03*
X96662500Y-61562500D03*
X96662500Y-62062500D03*
X96662500Y-62562500D03*
X96662500Y-63062500D03*
X96662500Y-63562500D03*
X96662500Y-64062500D03*
X96662500Y-64562500D03*
D63*
X97350000Y-65250000D03*
X97850000Y-65250000D03*
X98350000Y-65250000D03*
X98850000Y-65250000D03*
X99350000Y-65250000D03*
X99850000Y-65250000D03*
X100350000Y-65250000D03*
X100850000Y-65250000D03*
D64*
X101537500Y-64562500D03*
X101537500Y-64062500D03*
X101537500Y-63562500D03*
X101537500Y-63062500D03*
X101537500Y-62562500D03*
X101537500Y-62062500D03*
X101537500Y-61562500D03*
X101537500Y-61062500D03*
D65*
X99100000Y-62812500D03*
%TD*%
D36*
%TO.C,R32*%
X80247500Y-95810500D03*
X80247500Y-93985500D03*
%TD*%
D52*
%TO.C,D8*%
X89280000Y-43688000D03*
X85980000Y-43688000D03*
%TD*%
D26*
%TO.C,R44*%
X57253500Y-58674000D03*
X59078500Y-58674000D03*
%TD*%
D35*
%TO.C,C21*%
X78300000Y-42037500D03*
X78300000Y-43762500D03*
%TD*%
D49*
%TO.C,R38*%
X63500000Y-91087500D03*
X63500000Y-92912500D03*
%TD*%
D66*
%TO.C,J3*%
X58800000Y-123400000D03*
X66800000Y-123400000D03*
D67*
X66000000Y-112400000D03*
X64900000Y-112400000D03*
X63800000Y-112400000D03*
X62700000Y-112400000D03*
X61600000Y-112400000D03*
X60500000Y-112400000D03*
X59400000Y-112400000D03*
X58300000Y-112400000D03*
X57200000Y-112400000D03*
D68*
X56000000Y-113400000D03*
D69*
X56000000Y-123000000D03*
D70*
X70600000Y-113400000D03*
D69*
X71500000Y-123000000D03*
%TD*%
D28*
%TO.C,R16*%
X115012500Y-57750000D03*
X113187500Y-57750000D03*
%TD*%
D36*
%TO.C,R36*%
X67000000Y-92912500D03*
X67000000Y-91087500D03*
%TD*%
D34*
%TO.C,C33*%
X85737500Y-85250000D03*
X87462500Y-85250000D03*
%TD*%
D31*
%TO.C,D18*%
X51500000Y-77500000D03*
X53600000Y-77500000D03*
%TD*%
D36*
%TO.C,R40*%
X51816000Y-70254500D03*
X51816000Y-68429500D03*
%TD*%
D26*
%TO.C,R27*%
X66487500Y-59800000D03*
X68312500Y-59800000D03*
%TD*%
%TO.C,R10*%
X103437500Y-59250000D03*
X105262500Y-59250000D03*
%TD*%
D41*
%TO.C,H4*%
X42700000Y-31500000D03*
X43402944Y-29802944D03*
X43402944Y-33197056D03*
X45100000Y-29100000D03*
D42*
X45100000Y-31500000D03*
D41*
X45100000Y-33900000D03*
X46797056Y-29802944D03*
X46797056Y-33197056D03*
X47500000Y-31500000D03*
%TD*%
D28*
%TO.C,R35*%
X68412500Y-105000000D03*
X66587500Y-105000000D03*
%TD*%
D34*
%TO.C,C37*%
X82322500Y-97598000D03*
X84047500Y-97598000D03*
%TD*%
D36*
%TO.C,R8*%
X94600000Y-61662500D03*
X94600000Y-59837500D03*
%TD*%
D71*
%TO.C,U3*%
X85970000Y-36281165D03*
X85470000Y-36281165D03*
X84970000Y-36281165D03*
X84470000Y-36281165D03*
X83970000Y-36281165D03*
D72*
X83045000Y-37206165D03*
X83045000Y-37706165D03*
X83045000Y-38206165D03*
X83045000Y-38706165D03*
X83045000Y-39206165D03*
D71*
X83970000Y-40131165D03*
X84470000Y-40131165D03*
X84970000Y-40131165D03*
X85470000Y-40131165D03*
X85970000Y-40131165D03*
D72*
X86895000Y-39206165D03*
X86895000Y-38706165D03*
X86895000Y-38206165D03*
X86895000Y-37706165D03*
X86895000Y-37206165D03*
D73*
X84970000Y-38206165D03*
%TD*%
D46*
%TO.C,R49*%
X87000000Y-111675000D03*
X87000000Y-113325000D03*
%TD*%
D34*
%TO.C,C24*%
X69337500Y-63800000D03*
X71062500Y-63800000D03*
%TD*%
D49*
%TO.C,R21*%
X88646000Y-35409500D03*
X88646000Y-37234500D03*
%TD*%
D31*
%TO.C,D16*%
X52036000Y-98189600D03*
X54136000Y-98189600D03*
%TD*%
D28*
%TO.C,R41*%
X53912500Y-72500000D03*
X52087500Y-72500000D03*
%TD*%
D47*
%TO.C,U13*%
X56311000Y-72465500D03*
X56311000Y-73735500D03*
X62561000Y-73735500D03*
X62561000Y-72465500D03*
%TD*%
D74*
%TO.C,H2*%
X112100000Y-123500000D03*
%TD*%
D44*
%TO.C,C27*%
X83362500Y-71700000D03*
X81637500Y-71700000D03*
%TD*%
D28*
%TO.C,R39*%
X53976000Y-95636000D03*
X52151000Y-95636000D03*
%TD*%
D35*
%TO.C,C15*%
X86900000Y-31637500D03*
X86900000Y-33362500D03*
%TD*%
D75*
%TO.C,U15*%
X97495000Y-115875000D03*
X97995000Y-115875000D03*
X98495000Y-115875000D03*
X98995000Y-115875000D03*
X99495000Y-115875000D03*
X99995000Y-115875000D03*
D76*
X100682500Y-115187500D03*
X100682500Y-114687500D03*
X100682500Y-114187500D03*
X100682500Y-113687500D03*
X100682500Y-113187500D03*
X100682500Y-112687500D03*
D75*
X99995000Y-112000000D03*
X99495000Y-112000000D03*
X98995000Y-112000000D03*
X98495000Y-112000000D03*
X97995000Y-112000000D03*
X97495000Y-112000000D03*
D76*
X96807500Y-112687500D03*
X96807500Y-113187500D03*
X96807500Y-113687500D03*
X96807500Y-114187500D03*
X96807500Y-114687500D03*
X96807500Y-115187500D03*
D73*
X98745000Y-113937500D03*
%TD*%
D51*
%TO.C,C40*%
X104775000Y-116000000D03*
X103225000Y-116000000D03*
%TD*%
D35*
%TO.C,C5*%
X94600000Y-66837500D03*
X94600000Y-68562500D03*
%TD*%
D77*
%TO.C,Q1*%
X60978000Y-57393500D03*
X62878000Y-57393500D03*
X61928000Y-55518500D03*
%TD*%
D48*
%TO.C,L5*%
X77216000Y-66793000D03*
X77216000Y-68843000D03*
%TD*%
D16*
%TO.C,D2*%
X50675750Y-123151250D03*
X52250750Y-123151250D03*
%TD*%
D34*
%TO.C,C36*%
X99737500Y-71000000D03*
X101462500Y-71000000D03*
%TD*%
%TO.C,C11*%
X95737500Y-55750000D03*
X97462500Y-55750000D03*
%TD*%
D46*
%TO.C,R51*%
X104000000Y-122175000D03*
X104000000Y-123825000D03*
%TD*%
D78*
%TO.C,R48*%
X81500000Y-113325000D03*
X81500000Y-111675000D03*
%TD*%
D79*
%TO.C,C29*%
X77100000Y-72050000D03*
X77100000Y-77450000D03*
%TD*%
D30*
%TO.C,L2*%
X95529500Y-41148000D03*
X93954500Y-41148000D03*
%TD*%
D11*
%TO.C,TP21*%
X101000000Y-110000000D03*
%TD*%
D28*
%TO.C,R14*%
X97512500Y-52250000D03*
X95687500Y-52250000D03*
%TD*%
D80*
%TO.C,C22*%
X75500000Y-51737500D03*
X75500000Y-54862500D03*
%TD*%
D36*
%TO.C,R26*%
X75100000Y-65412500D03*
X75100000Y-63587500D03*
%TD*%
D81*
%TO.C,U4*%
X70865000Y-57162500D03*
X72135000Y-57162500D03*
X72135000Y-50912500D03*
X70865000Y-50912500D03*
%TD*%
D44*
%TO.C,C12*%
X97462500Y-47000000D03*
X95737500Y-47000000D03*
%TD*%
D28*
%TO.C,R2*%
X84709000Y-75565000D03*
X82884000Y-75565000D03*
%TD*%
D11*
%TO.C,TP26*%
X95000000Y-118000000D03*
%TD*%
D28*
%TO.C,R31*%
X97178500Y-96774000D03*
X95353500Y-96774000D03*
%TD*%
%TO.C,R15*%
X115012500Y-59500000D03*
X113187500Y-59500000D03*
%TD*%
D44*
%TO.C,C26*%
X81462500Y-70000000D03*
X79737500Y-70000000D03*
%TD*%
%TO.C,C28*%
X81462500Y-67100000D03*
X79737500Y-67100000D03*
%TD*%
D82*
%TO.C,D4*%
X91500000Y-105000000D03*
X96500000Y-105000000D03*
%TD*%
D11*
%TO.C,TP27*%
X99500000Y-118500000D03*
%TD*%
D83*
%TO.C,U7*%
X107360000Y-75500000D03*
X106090000Y-75500000D03*
X104820000Y-75500000D03*
X103550000Y-75500000D03*
X102280000Y-75500000D03*
X101010000Y-75500000D03*
X99740000Y-75500000D03*
X98470000Y-75500000D03*
X97200000Y-75500000D03*
X95930000Y-75500000D03*
X94660000Y-75500000D03*
X93390000Y-75500000D03*
X92120000Y-75500000D03*
X90850000Y-75500000D03*
D84*
X89600000Y-78540000D03*
X89600000Y-79810000D03*
X89600000Y-81080000D03*
X89600000Y-82350000D03*
X89600000Y-83620000D03*
X89600000Y-84890000D03*
X89600000Y-86160000D03*
X89600000Y-87430000D03*
X89600000Y-88700000D03*
X89600000Y-89970000D03*
D83*
X90850000Y-93000000D03*
X92120000Y-93000000D03*
X93390000Y-93000000D03*
X94660000Y-93000000D03*
X95930000Y-93000000D03*
X97200000Y-93000000D03*
X98470000Y-93000000D03*
X99740000Y-93000000D03*
X101010000Y-93000000D03*
X102280000Y-93000000D03*
X103550000Y-93000000D03*
X104820000Y-93000000D03*
X106090000Y-93000000D03*
X107360000Y-93000000D03*
D41*
X100782500Y-82045000D03*
X99257500Y-82045000D03*
X101545000Y-82807500D03*
X100020000Y-82807500D03*
X98495000Y-82807500D03*
X100782500Y-83570000D03*
D85*
X100020000Y-83570000D03*
D41*
X99257500Y-83570000D03*
X101545000Y-84332500D03*
X100020000Y-84332500D03*
X98495000Y-84332500D03*
X100782500Y-85095000D03*
X99257500Y-85095000D03*
%TD*%
D47*
%TO.C,U12*%
X56311000Y-68701000D03*
X56311000Y-69971000D03*
X62561000Y-69971000D03*
X62561000Y-68701000D03*
%TD*%
D86*
%TO.C,U6*%
X81050000Y-79862500D03*
X80100000Y-79862500D03*
X79150000Y-79862500D03*
X79150000Y-82137500D03*
X80100000Y-82137500D03*
X81050000Y-82137500D03*
%TD*%
D74*
%TO.C,H1*%
X112100000Y-31500000D03*
%TD*%
D31*
%TO.C,D5*%
X53052000Y-64770000D03*
X55152000Y-64770000D03*
%TD*%
D32*
%TO.C,J1*%
X74925000Y-41100000D03*
D43*
X74925000Y-43640000D03*
X74925000Y-46180000D03*
X74925000Y-48720000D03*
%TD*%
D23*
%TO.C,J10*%
X47500000Y-73791667D03*
X42500000Y-77291667D03*
%TD*%
D28*
%TO.C,R5*%
X73429500Y-91821000D03*
X71604500Y-91821000D03*
%TD*%
%TO.C,R42*%
X53912500Y-85000000D03*
X52087500Y-85000000D03*
%TD*%
D35*
%TO.C,C3*%
X94600000Y-63387500D03*
X94600000Y-65112500D03*
%TD*%
D32*
%TO.C,J2*%
X74925000Y-84200000D03*
D43*
X74925000Y-86740000D03*
X74925000Y-89280000D03*
%TD*%
D35*
%TO.C,C14*%
X90678000Y-31649500D03*
X90678000Y-33374500D03*
%TD*%
D32*
%TO.C,J6*%
X52070000Y-52324000D03*
D33*
X52070000Y-54864000D03*
X52070000Y-57404000D03*
%TD*%
D87*
%TO.C,T1*%
X79920000Y-47815000D03*
X82410000Y-47815000D03*
X84900000Y-47815000D03*
X87390000Y-47815000D03*
X89880000Y-47815000D03*
X89880000Y-63185000D03*
X87390000Y-63185000D03*
X84900000Y-63185000D03*
X82410000Y-63185000D03*
X79920000Y-63185000D03*
%TD*%
D88*
%TO.C,U5*%
X72150000Y-59862500D03*
X70250000Y-59862500D03*
X71200000Y-61737500D03*
%TD*%
D29*
%TO.C,C13*%
X97282000Y-40994500D03*
X97282000Y-39269500D03*
%TD*%
D34*
%TO.C,C38*%
X82322500Y-91848000D03*
X84047500Y-91848000D03*
%TD*%
D89*
%TO.C,L6*%
X80350000Y-84929900D03*
X80350000Y-89070100D03*
%TD*%
M02*
