%TF.GenerationSoftware,KiCad,Pcbnew,10.0.3*%
%TF.CreationDate,2026-05-26T13:40:20+02:00*%
%TF.ProjectId,Zamkonator,5a616d6b-6f6e-4617-946f-722e6b696361,rev?*%
%TF.SameCoordinates,Original*%
%TF.FileFunction,Legend,Bot*%
%TF.FilePolarity,Positive*%
%FSLAX46Y46*%
G04 Gerber Fmt 4.6, Leading zero omitted, Abs format (unit mm)*
G04 Created by KiCad (PCBNEW 10.0.3) date 2026-05-26 13:40:20*
%MOMM*%
%LPD*%
G01*
G04 APERTURE LIST*
%ADD10C,0.150000*%
%ADD11C,0.120000*%
G04 APERTURE END LIST*
D10*
X45863220Y-39854819D02*
X45863220Y-38854819D01*
X45863220Y-38854819D02*
X45291792Y-39854819D01*
X45291792Y-39854819D02*
X45291792Y-38854819D01*
X44244173Y-39759580D02*
X44291792Y-39807200D01*
X44291792Y-39807200D02*
X44434649Y-39854819D01*
X44434649Y-39854819D02*
X44529887Y-39854819D01*
X44529887Y-39854819D02*
X44672744Y-39807200D01*
X44672744Y-39807200D02*
X44767982Y-39711961D01*
X44767982Y-39711961D02*
X44815601Y-39616723D01*
X44815601Y-39616723D02*
X44863220Y-39426247D01*
X44863220Y-39426247D02*
X44863220Y-39283390D01*
X44863220Y-39283390D02*
X44815601Y-39092914D01*
X44815601Y-39092914D02*
X44767982Y-38997676D01*
X44767982Y-38997676D02*
X44672744Y-38902438D01*
X44672744Y-38902438D02*
X44529887Y-38854819D01*
X44529887Y-38854819D02*
X44434649Y-38854819D01*
X44434649Y-38854819D02*
X44291792Y-38902438D01*
X44291792Y-38902438D02*
X44244173Y-38950057D01*
X45291792Y-46759580D02*
X45339411Y-46807200D01*
X45339411Y-46807200D02*
X45482268Y-46854819D01*
X45482268Y-46854819D02*
X45577506Y-46854819D01*
X45577506Y-46854819D02*
X45720363Y-46807200D01*
X45720363Y-46807200D02*
X45815601Y-46711961D01*
X45815601Y-46711961D02*
X45863220Y-46616723D01*
X45863220Y-46616723D02*
X45910839Y-46426247D01*
X45910839Y-46426247D02*
X45910839Y-46283390D01*
X45910839Y-46283390D02*
X45863220Y-46092914D01*
X45863220Y-46092914D02*
X45815601Y-45997676D01*
X45815601Y-45997676D02*
X45720363Y-45902438D01*
X45720363Y-45902438D02*
X45577506Y-45854819D01*
X45577506Y-45854819D02*
X45482268Y-45854819D01*
X45482268Y-45854819D02*
X45339411Y-45902438D01*
X45339411Y-45902438D02*
X45291792Y-45950057D01*
X45339411Y-52902438D02*
X45434649Y-52854819D01*
X45434649Y-52854819D02*
X45577506Y-52854819D01*
X45577506Y-52854819D02*
X45720363Y-52902438D01*
X45720363Y-52902438D02*
X45815601Y-52997676D01*
X45815601Y-52997676D02*
X45863220Y-53092914D01*
X45863220Y-53092914D02*
X45910839Y-53283390D01*
X45910839Y-53283390D02*
X45910839Y-53426247D01*
X45910839Y-53426247D02*
X45863220Y-53616723D01*
X45863220Y-53616723D02*
X45815601Y-53711961D01*
X45815601Y-53711961D02*
X45720363Y-53807200D01*
X45720363Y-53807200D02*
X45577506Y-53854819D01*
X45577506Y-53854819D02*
X45482268Y-53854819D01*
X45482268Y-53854819D02*
X45339411Y-53807200D01*
X45339411Y-53807200D02*
X45291792Y-53759580D01*
X45291792Y-53759580D02*
X45291792Y-53426247D01*
X45291792Y-53426247D02*
X45482268Y-53426247D01*
X44863220Y-53854819D02*
X44863220Y-52854819D01*
X44863220Y-52854819D02*
X44291792Y-53854819D01*
X44291792Y-53854819D02*
X44291792Y-52854819D01*
X43815601Y-53854819D02*
X43815601Y-52854819D01*
X43815601Y-52854819D02*
X43577506Y-52854819D01*
X43577506Y-52854819D02*
X43434649Y-52902438D01*
X43434649Y-52902438D02*
X43339411Y-52997676D01*
X43339411Y-52997676D02*
X43291792Y-53092914D01*
X43291792Y-53092914D02*
X43244173Y-53283390D01*
X43244173Y-53283390D02*
X43244173Y-53426247D01*
X43244173Y-53426247D02*
X43291792Y-53616723D01*
X43291792Y-53616723D02*
X43339411Y-53711961D01*
X43339411Y-53711961D02*
X43434649Y-53807200D01*
X43434649Y-53807200D02*
X43577506Y-53854819D01*
X43577506Y-53854819D02*
X43815601Y-53854819D01*
X45863220Y-64054819D02*
X45863220Y-63054819D01*
X45387030Y-64054819D02*
X45387030Y-63054819D01*
X45387030Y-63054819D02*
X44815602Y-64054819D01*
X44815602Y-64054819D02*
X44815602Y-63054819D01*
X44339411Y-64054819D02*
X44339411Y-63054819D01*
X44339411Y-63054819D02*
X43958459Y-63054819D01*
X43958459Y-63054819D02*
X43863221Y-63102438D01*
X43863221Y-63102438D02*
X43815602Y-63150057D01*
X43815602Y-63150057D02*
X43767983Y-63245295D01*
X43767983Y-63245295D02*
X43767983Y-63388152D01*
X43767983Y-63388152D02*
X43815602Y-63483390D01*
X43815602Y-63483390D02*
X43863221Y-63531009D01*
X43863221Y-63531009D02*
X43958459Y-63578628D01*
X43958459Y-63578628D02*
X44339411Y-63578628D01*
X45355826Y-43254819D02*
X45355826Y-42254819D01*
X45355826Y-42254819D02*
X44784398Y-43254819D01*
X44784398Y-43254819D02*
X44784398Y-42254819D01*
X44117731Y-42254819D02*
X43927255Y-42254819D01*
X43927255Y-42254819D02*
X43832017Y-42302438D01*
X43832017Y-42302438D02*
X43736779Y-42397676D01*
X43736779Y-42397676D02*
X43689160Y-42588152D01*
X43689160Y-42588152D02*
X43689160Y-42921485D01*
X43689160Y-42921485D02*
X43736779Y-43111961D01*
X43736779Y-43111961D02*
X43832017Y-43207200D01*
X43832017Y-43207200D02*
X43927255Y-43254819D01*
X43927255Y-43254819D02*
X44117731Y-43254819D01*
X44117731Y-43254819D02*
X44212969Y-43207200D01*
X44212969Y-43207200D02*
X44308207Y-43111961D01*
X44308207Y-43111961D02*
X44355826Y-42921485D01*
X44355826Y-42921485D02*
X44355826Y-42588152D01*
X44355826Y-42588152D02*
X44308207Y-42397676D01*
X44308207Y-42397676D02*
X44212969Y-42302438D01*
X44212969Y-42302438D02*
X44117731Y-42254819D01*
X45784398Y-49302438D02*
X45879636Y-49254819D01*
X45879636Y-49254819D02*
X46022493Y-49254819D01*
X46022493Y-49254819D02*
X46165350Y-49302438D01*
X46165350Y-49302438D02*
X46260588Y-49397676D01*
X46260588Y-49397676D02*
X46308207Y-49492914D01*
X46308207Y-49492914D02*
X46355826Y-49683390D01*
X46355826Y-49683390D02*
X46355826Y-49826247D01*
X46355826Y-49826247D02*
X46308207Y-50016723D01*
X46308207Y-50016723D02*
X46260588Y-50111961D01*
X46260588Y-50111961D02*
X46165350Y-50207200D01*
X46165350Y-50207200D02*
X46022493Y-50254819D01*
X46022493Y-50254819D02*
X45927255Y-50254819D01*
X45927255Y-50254819D02*
X45784398Y-50207200D01*
X45784398Y-50207200D02*
X45736779Y-50159580D01*
X45736779Y-50159580D02*
X45736779Y-49826247D01*
X45736779Y-49826247D02*
X45927255Y-49826247D01*
X45308207Y-50254819D02*
X45308207Y-49254819D01*
X45308207Y-49254819D02*
X44736779Y-50254819D01*
X44736779Y-50254819D02*
X44736779Y-49254819D01*
X44260588Y-50254819D02*
X44260588Y-49254819D01*
X44260588Y-49254819D02*
X44022493Y-49254819D01*
X44022493Y-49254819D02*
X43879636Y-49302438D01*
X43879636Y-49302438D02*
X43784398Y-49397676D01*
X43784398Y-49397676D02*
X43736779Y-49492914D01*
X43736779Y-49492914D02*
X43689160Y-49683390D01*
X43689160Y-49683390D02*
X43689160Y-49826247D01*
X43689160Y-49826247D02*
X43736779Y-50016723D01*
X43736779Y-50016723D02*
X43784398Y-50111961D01*
X43784398Y-50111961D02*
X43879636Y-50207200D01*
X43879636Y-50207200D02*
X44022493Y-50254819D01*
X44022493Y-50254819D02*
X44260588Y-50254819D01*
X47260588Y-56873866D02*
X46498684Y-56873866D01*
X46879636Y-57254819D02*
X46879636Y-56492914D01*
X45498684Y-57254819D02*
X46070112Y-57254819D01*
X45784398Y-57254819D02*
X45784398Y-56254819D01*
X45784398Y-56254819D02*
X45879636Y-56397676D01*
X45879636Y-56397676D02*
X45974874Y-56492914D01*
X45974874Y-56492914D02*
X46070112Y-56540533D01*
X45117731Y-56350057D02*
X45070112Y-56302438D01*
X45070112Y-56302438D02*
X44974874Y-56254819D01*
X44974874Y-56254819D02*
X44736779Y-56254819D01*
X44736779Y-56254819D02*
X44641541Y-56302438D01*
X44641541Y-56302438D02*
X44593922Y-56350057D01*
X44593922Y-56350057D02*
X44546303Y-56445295D01*
X44546303Y-56445295D02*
X44546303Y-56540533D01*
X44546303Y-56540533D02*
X44593922Y-56683390D01*
X44593922Y-56683390D02*
X45165350Y-57254819D01*
X45165350Y-57254819D02*
X44546303Y-57254819D01*
X44260588Y-56254819D02*
X43927255Y-57254819D01*
X43927255Y-57254819D02*
X43593922Y-56254819D01*
X45984398Y-66502438D02*
X46079636Y-66454819D01*
X46079636Y-66454819D02*
X46222493Y-66454819D01*
X46222493Y-66454819D02*
X46365350Y-66502438D01*
X46365350Y-66502438D02*
X46460588Y-66597676D01*
X46460588Y-66597676D02*
X46508207Y-66692914D01*
X46508207Y-66692914D02*
X46555826Y-66883390D01*
X46555826Y-66883390D02*
X46555826Y-67026247D01*
X46555826Y-67026247D02*
X46508207Y-67216723D01*
X46508207Y-67216723D02*
X46460588Y-67311961D01*
X46460588Y-67311961D02*
X46365350Y-67407200D01*
X46365350Y-67407200D02*
X46222493Y-67454819D01*
X46222493Y-67454819D02*
X46127255Y-67454819D01*
X46127255Y-67454819D02*
X45984398Y-67407200D01*
X45984398Y-67407200D02*
X45936779Y-67359580D01*
X45936779Y-67359580D02*
X45936779Y-67026247D01*
X45936779Y-67026247D02*
X46127255Y-67026247D01*
X45508207Y-67454819D02*
X45508207Y-66454819D01*
X45508207Y-66454819D02*
X44936779Y-67454819D01*
X44936779Y-67454819D02*
X44936779Y-66454819D01*
X44460588Y-67454819D02*
X44460588Y-66454819D01*
X44460588Y-66454819D02*
X44222493Y-66454819D01*
X44222493Y-66454819D02*
X44079636Y-66502438D01*
X44079636Y-66502438D02*
X43984398Y-66597676D01*
X43984398Y-66597676D02*
X43936779Y-66692914D01*
X43936779Y-66692914D02*
X43889160Y-66883390D01*
X43889160Y-66883390D02*
X43889160Y-67026247D01*
X43889160Y-67026247D02*
X43936779Y-67216723D01*
X43936779Y-67216723D02*
X43984398Y-67311961D01*
X43984398Y-67311961D02*
X44079636Y-67407200D01*
X44079636Y-67407200D02*
X44222493Y-67454819D01*
X44222493Y-67454819D02*
X44460588Y-67454819D01*
X51384398Y-96056438D02*
X51479636Y-96008819D01*
X51479636Y-96008819D02*
X51622493Y-96008819D01*
X51622493Y-96008819D02*
X51765350Y-96056438D01*
X51765350Y-96056438D02*
X51860588Y-96151676D01*
X51860588Y-96151676D02*
X51908207Y-96246914D01*
X51908207Y-96246914D02*
X51955826Y-96437390D01*
X51955826Y-96437390D02*
X51955826Y-96580247D01*
X51955826Y-96580247D02*
X51908207Y-96770723D01*
X51908207Y-96770723D02*
X51860588Y-96865961D01*
X51860588Y-96865961D02*
X51765350Y-96961200D01*
X51765350Y-96961200D02*
X51622493Y-97008819D01*
X51622493Y-97008819D02*
X51527255Y-97008819D01*
X51527255Y-97008819D02*
X51384398Y-96961200D01*
X51384398Y-96961200D02*
X51336779Y-96913580D01*
X51336779Y-96913580D02*
X51336779Y-96580247D01*
X51336779Y-96580247D02*
X51527255Y-96580247D01*
X50908207Y-97008819D02*
X50908207Y-96008819D01*
X50908207Y-96008819D02*
X50336779Y-97008819D01*
X50336779Y-97008819D02*
X50336779Y-96008819D01*
X49860588Y-97008819D02*
X49860588Y-96008819D01*
X49860588Y-96008819D02*
X49622493Y-96008819D01*
X49622493Y-96008819D02*
X49479636Y-96056438D01*
X49479636Y-96056438D02*
X49384398Y-96151676D01*
X49384398Y-96151676D02*
X49336779Y-96246914D01*
X49336779Y-96246914D02*
X49289160Y-96437390D01*
X49289160Y-96437390D02*
X49289160Y-96580247D01*
X49289160Y-96580247D02*
X49336779Y-96770723D01*
X49336779Y-96770723D02*
X49384398Y-96865961D01*
X49384398Y-96865961D02*
X49479636Y-96961200D01*
X49479636Y-96961200D02*
X49622493Y-97008819D01*
X49622493Y-97008819D02*
X49860588Y-97008819D01*
X52432017Y-99421819D02*
X52432017Y-98421819D01*
X52432017Y-98421819D02*
X52193922Y-98421819D01*
X52193922Y-98421819D02*
X52051065Y-98469438D01*
X52051065Y-98469438D02*
X51955827Y-98564676D01*
X51955827Y-98564676D02*
X51908208Y-98659914D01*
X51908208Y-98659914D02*
X51860589Y-98850390D01*
X51860589Y-98850390D02*
X51860589Y-98993247D01*
X51860589Y-98993247D02*
X51908208Y-99183723D01*
X51908208Y-99183723D02*
X51955827Y-99278961D01*
X51955827Y-99278961D02*
X52051065Y-99374200D01*
X52051065Y-99374200D02*
X52193922Y-99421819D01*
X52193922Y-99421819D02*
X52432017Y-99421819D01*
X51479636Y-99136104D02*
X51003446Y-99136104D01*
X51574874Y-99421819D02*
X51241541Y-98421819D01*
X51241541Y-98421819D02*
X50908208Y-99421819D01*
X50717731Y-98421819D02*
X50146303Y-98421819D01*
X50432017Y-99421819D02*
X50432017Y-98421819D01*
X49622493Y-98421819D02*
X49527255Y-98421819D01*
X49527255Y-98421819D02*
X49432017Y-98469438D01*
X49432017Y-98469438D02*
X49384398Y-98517057D01*
X49384398Y-98517057D02*
X49336779Y-98612295D01*
X49336779Y-98612295D02*
X49289160Y-98802771D01*
X49289160Y-98802771D02*
X49289160Y-99040866D01*
X49289160Y-99040866D02*
X49336779Y-99231342D01*
X49336779Y-99231342D02*
X49384398Y-99326580D01*
X49384398Y-99326580D02*
X49432017Y-99374200D01*
X49432017Y-99374200D02*
X49527255Y-99421819D01*
X49527255Y-99421819D02*
X49622493Y-99421819D01*
X49622493Y-99421819D02*
X49717731Y-99374200D01*
X49717731Y-99374200D02*
X49765350Y-99326580D01*
X49765350Y-99326580D02*
X49812969Y-99231342D01*
X49812969Y-99231342D02*
X49860588Y-99040866D01*
X49860588Y-99040866D02*
X49860588Y-98802771D01*
X49860588Y-98802771D02*
X49812969Y-98612295D01*
X49812969Y-98612295D02*
X49765350Y-98517057D01*
X49765350Y-98517057D02*
X49717731Y-98469438D01*
X49717731Y-98469438D02*
X49622493Y-98421819D01*
X51098684Y-102088819D02*
X51670112Y-102088819D01*
X51384398Y-102088819D02*
X51384398Y-101088819D01*
X51384398Y-101088819D02*
X51479636Y-101231676D01*
X51479636Y-101231676D02*
X51574874Y-101326914D01*
X51574874Y-101326914D02*
X51670112Y-101374533D01*
X50717731Y-101184057D02*
X50670112Y-101136438D01*
X50670112Y-101136438D02*
X50574874Y-101088819D01*
X50574874Y-101088819D02*
X50336779Y-101088819D01*
X50336779Y-101088819D02*
X50241541Y-101136438D01*
X50241541Y-101136438D02*
X50193922Y-101184057D01*
X50193922Y-101184057D02*
X50146303Y-101279295D01*
X50146303Y-101279295D02*
X50146303Y-101374533D01*
X50146303Y-101374533D02*
X50193922Y-101517390D01*
X50193922Y-101517390D02*
X50765350Y-102088819D01*
X50765350Y-102088819D02*
X50146303Y-102088819D01*
X49860588Y-101088819D02*
X49527255Y-102088819D01*
X49527255Y-102088819D02*
X49193922Y-101088819D01*
X52432017Y-104628819D02*
X52432017Y-103628819D01*
X52432017Y-103628819D02*
X52193922Y-103628819D01*
X52193922Y-103628819D02*
X52051065Y-103676438D01*
X52051065Y-103676438D02*
X51955827Y-103771676D01*
X51955827Y-103771676D02*
X51908208Y-103866914D01*
X51908208Y-103866914D02*
X51860589Y-104057390D01*
X51860589Y-104057390D02*
X51860589Y-104200247D01*
X51860589Y-104200247D02*
X51908208Y-104390723D01*
X51908208Y-104390723D02*
X51955827Y-104485961D01*
X51955827Y-104485961D02*
X52051065Y-104581200D01*
X52051065Y-104581200D02*
X52193922Y-104628819D01*
X52193922Y-104628819D02*
X52432017Y-104628819D01*
X51479636Y-104343104D02*
X51003446Y-104343104D01*
X51574874Y-104628819D02*
X51241541Y-103628819D01*
X51241541Y-103628819D02*
X50908208Y-104628819D01*
X50717731Y-103628819D02*
X50146303Y-103628819D01*
X50432017Y-104628819D02*
X50432017Y-103628819D01*
X49289160Y-104628819D02*
X49860588Y-104628819D01*
X49574874Y-104628819D02*
X49574874Y-103628819D01*
X49574874Y-103628819D02*
X49670112Y-103771676D01*
X49670112Y-103771676D02*
X49765350Y-103866914D01*
X49765350Y-103866914D02*
X49860588Y-103914533D01*
X51527255Y-106391009D02*
X51384398Y-106438628D01*
X51384398Y-106438628D02*
X51336779Y-106486247D01*
X51336779Y-106486247D02*
X51289160Y-106581485D01*
X51289160Y-106581485D02*
X51289160Y-106724342D01*
X51289160Y-106724342D02*
X51336779Y-106819580D01*
X51336779Y-106819580D02*
X51384398Y-106867200D01*
X51384398Y-106867200D02*
X51479636Y-106914819D01*
X51479636Y-106914819D02*
X51860588Y-106914819D01*
X51860588Y-106914819D02*
X51860588Y-105914819D01*
X51860588Y-105914819D02*
X51527255Y-105914819D01*
X51527255Y-105914819D02*
X51432017Y-105962438D01*
X51432017Y-105962438D02*
X51384398Y-106010057D01*
X51384398Y-106010057D02*
X51336779Y-106105295D01*
X51336779Y-106105295D02*
X51336779Y-106200533D01*
X51336779Y-106200533D02*
X51384398Y-106295771D01*
X51384398Y-106295771D02*
X51432017Y-106343390D01*
X51432017Y-106343390D02*
X51527255Y-106391009D01*
X51527255Y-106391009D02*
X51860588Y-106391009D01*
X50860588Y-105914819D02*
X50860588Y-106724342D01*
X50860588Y-106724342D02*
X50812969Y-106819580D01*
X50812969Y-106819580D02*
X50765350Y-106867200D01*
X50765350Y-106867200D02*
X50670112Y-106914819D01*
X50670112Y-106914819D02*
X50479636Y-106914819D01*
X50479636Y-106914819D02*
X50384398Y-106867200D01*
X50384398Y-106867200D02*
X50336779Y-106819580D01*
X50336779Y-106819580D02*
X50289160Y-106724342D01*
X50289160Y-106724342D02*
X50289160Y-105914819D01*
X49908207Y-105914819D02*
X49241541Y-105914819D01*
X49241541Y-105914819D02*
X49908207Y-106914819D01*
X49908207Y-106914819D02*
X49241541Y-106914819D01*
X51098684Y-109454819D02*
X51574874Y-109454819D01*
X51574874Y-109454819D02*
X51574874Y-108454819D01*
X50765350Y-108931009D02*
X50432017Y-108931009D01*
X50289160Y-109454819D02*
X50765350Y-109454819D01*
X50765350Y-109454819D02*
X50765350Y-108454819D01*
X50765350Y-108454819D02*
X50289160Y-108454819D01*
X49860588Y-109454819D02*
X49860588Y-108454819D01*
X49860588Y-108454819D02*
X49622493Y-108454819D01*
X49622493Y-108454819D02*
X49479636Y-108502438D01*
X49479636Y-108502438D02*
X49384398Y-108597676D01*
X49384398Y-108597676D02*
X49336779Y-108692914D01*
X49336779Y-108692914D02*
X49289160Y-108883390D01*
X49289160Y-108883390D02*
X49289160Y-109026247D01*
X49289160Y-109026247D02*
X49336779Y-109216723D01*
X49336779Y-109216723D02*
X49384398Y-109311961D01*
X49384398Y-109311961D02*
X49479636Y-109407200D01*
X49479636Y-109407200D02*
X49622493Y-109454819D01*
X49622493Y-109454819D02*
X49860588Y-109454819D01*
X73442856Y-49831009D02*
X73109523Y-49831009D01*
X72966666Y-50354819D02*
X73442856Y-50354819D01*
X73442856Y-50354819D02*
X73442856Y-49354819D01*
X73442856Y-49354819D02*
X72966666Y-49354819D01*
X71966666Y-50354819D02*
X72299999Y-49878628D01*
X72538094Y-50354819D02*
X72538094Y-49354819D01*
X72538094Y-49354819D02*
X72157142Y-49354819D01*
X72157142Y-49354819D02*
X72061904Y-49402438D01*
X72061904Y-49402438D02*
X72014285Y-49450057D01*
X72014285Y-49450057D02*
X71966666Y-49545295D01*
X71966666Y-49545295D02*
X71966666Y-49688152D01*
X71966666Y-49688152D02*
X72014285Y-49783390D01*
X72014285Y-49783390D02*
X72061904Y-49831009D01*
X72061904Y-49831009D02*
X72157142Y-49878628D01*
X72157142Y-49878628D02*
X72538094Y-49878628D01*
X71347618Y-49354819D02*
X71157142Y-49354819D01*
X71157142Y-49354819D02*
X71061904Y-49402438D01*
X71061904Y-49402438D02*
X70966666Y-49497676D01*
X70966666Y-49497676D02*
X70919047Y-49688152D01*
X70919047Y-49688152D02*
X70919047Y-50021485D01*
X70919047Y-50021485D02*
X70966666Y-50211961D01*
X70966666Y-50211961D02*
X71061904Y-50307200D01*
X71061904Y-50307200D02*
X71157142Y-50354819D01*
X71157142Y-50354819D02*
X71347618Y-50354819D01*
X71347618Y-50354819D02*
X71442856Y-50307200D01*
X71442856Y-50307200D02*
X71538094Y-50211961D01*
X71538094Y-50211961D02*
X71585713Y-50021485D01*
X71585713Y-50021485D02*
X71585713Y-49688152D01*
X71585713Y-49688152D02*
X71538094Y-49497676D01*
X71538094Y-49497676D02*
X71442856Y-49402438D01*
X71442856Y-49402438D02*
X71347618Y-49354819D01*
X70490475Y-49354819D02*
X70490475Y-50164342D01*
X70490475Y-50164342D02*
X70442856Y-50259580D01*
X70442856Y-50259580D02*
X70395237Y-50307200D01*
X70395237Y-50307200D02*
X70299999Y-50354819D01*
X70299999Y-50354819D02*
X70109523Y-50354819D01*
X70109523Y-50354819D02*
X70014285Y-50307200D01*
X70014285Y-50307200D02*
X69966666Y-50259580D01*
X69966666Y-50259580D02*
X69919047Y-50164342D01*
X69919047Y-50164342D02*
X69919047Y-49354819D01*
X69585713Y-49354819D02*
X69014285Y-49354819D01*
X69299999Y-50354819D02*
X69299999Y-49354819D01*
X71224819Y-88333333D02*
X70748628Y-88000000D01*
X71224819Y-87761905D02*
X70224819Y-87761905D01*
X70224819Y-87761905D02*
X70224819Y-88142857D01*
X70224819Y-88142857D02*
X70272438Y-88238095D01*
X70272438Y-88238095D02*
X70320057Y-88285714D01*
X70320057Y-88285714D02*
X70415295Y-88333333D01*
X70415295Y-88333333D02*
X70558152Y-88333333D01*
X70558152Y-88333333D02*
X70653390Y-88285714D01*
X70653390Y-88285714D02*
X70701009Y-88238095D01*
X70701009Y-88238095D02*
X70748628Y-88142857D01*
X70748628Y-88142857D02*
X70748628Y-87761905D01*
X70224819Y-88666667D02*
X70224819Y-89285714D01*
X70224819Y-89285714D02*
X70605771Y-88952381D01*
X70605771Y-88952381D02*
X70605771Y-89095238D01*
X70605771Y-89095238D02*
X70653390Y-89190476D01*
X70653390Y-89190476D02*
X70701009Y-89238095D01*
X70701009Y-89238095D02*
X70796247Y-89285714D01*
X70796247Y-89285714D02*
X71034342Y-89285714D01*
X71034342Y-89285714D02*
X71129580Y-89238095D01*
X71129580Y-89238095D02*
X71177200Y-89190476D01*
X71177200Y-89190476D02*
X71224819Y-89095238D01*
X71224819Y-89095238D02*
X71224819Y-88809524D01*
X71224819Y-88809524D02*
X71177200Y-88714286D01*
X71177200Y-88714286D02*
X71129580Y-88666667D01*
X112561541Y-70604819D02*
X112561541Y-69604819D01*
X112561541Y-69604819D02*
X112180589Y-69604819D01*
X112180589Y-69604819D02*
X112085351Y-69652438D01*
X112085351Y-69652438D02*
X112037732Y-69700057D01*
X112037732Y-69700057D02*
X111990113Y-69795295D01*
X111990113Y-69795295D02*
X111990113Y-69938152D01*
X111990113Y-69938152D02*
X112037732Y-70033390D01*
X112037732Y-70033390D02*
X112085351Y-70081009D01*
X112085351Y-70081009D02*
X112180589Y-70128628D01*
X112180589Y-70128628D02*
X112561541Y-70128628D01*
X111561541Y-70604819D02*
X111561541Y-69604819D01*
X111561541Y-70081009D02*
X110990113Y-70081009D01*
X110990113Y-70604819D02*
X110990113Y-69604819D01*
X110323446Y-70128628D02*
X110323446Y-70604819D01*
X110656779Y-69604819D02*
X110323446Y-70128628D01*
X110323446Y-70128628D02*
X109990113Y-69604819D01*
X109894875Y-70700057D02*
X109132970Y-70700057D01*
X108942493Y-70319104D02*
X108466303Y-70319104D01*
X109037731Y-70604819D02*
X108704398Y-69604819D01*
X108704398Y-69604819D02*
X108371065Y-70604819D01*
X108180588Y-69604819D02*
X107847255Y-70604819D01*
X107847255Y-70604819D02*
X107513922Y-69604819D01*
X107180588Y-70604819D02*
X107180588Y-69604819D01*
X107180588Y-69604819D02*
X106942493Y-69604819D01*
X106942493Y-69604819D02*
X106799636Y-69652438D01*
X106799636Y-69652438D02*
X106704398Y-69747676D01*
X106704398Y-69747676D02*
X106656779Y-69842914D01*
X106656779Y-69842914D02*
X106609160Y-70033390D01*
X106609160Y-70033390D02*
X106609160Y-70176247D01*
X106609160Y-70176247D02*
X106656779Y-70366723D01*
X106656779Y-70366723D02*
X106704398Y-70461961D01*
X106704398Y-70461961D02*
X106799636Y-70557200D01*
X106799636Y-70557200D02*
X106942493Y-70604819D01*
X106942493Y-70604819D02*
X107180588Y-70604819D01*
X106180588Y-70604819D02*
X106180588Y-69604819D01*
X106180588Y-69604819D02*
X105942493Y-69604819D01*
X105942493Y-69604819D02*
X105799636Y-69652438D01*
X105799636Y-69652438D02*
X105704398Y-69747676D01*
X105704398Y-69747676D02*
X105656779Y-69842914D01*
X105656779Y-69842914D02*
X105609160Y-70033390D01*
X105609160Y-70033390D02*
X105609160Y-70176247D01*
X105609160Y-70176247D02*
X105656779Y-70366723D01*
X105656779Y-70366723D02*
X105704398Y-70461961D01*
X105704398Y-70461961D02*
X105799636Y-70557200D01*
X105799636Y-70557200D02*
X105942493Y-70604819D01*
X105942493Y-70604819D02*
X106180588Y-70604819D01*
X80787732Y-81719009D02*
X80644875Y-81766628D01*
X80644875Y-81766628D02*
X80597256Y-81814247D01*
X80597256Y-81814247D02*
X80549637Y-81909485D01*
X80549637Y-81909485D02*
X80549637Y-82052342D01*
X80549637Y-82052342D02*
X80597256Y-82147580D01*
X80597256Y-82147580D02*
X80644875Y-82195200D01*
X80644875Y-82195200D02*
X80740113Y-82242819D01*
X80740113Y-82242819D02*
X81121065Y-82242819D01*
X81121065Y-82242819D02*
X81121065Y-81242819D01*
X81121065Y-81242819D02*
X80787732Y-81242819D01*
X80787732Y-81242819D02*
X80692494Y-81290438D01*
X80692494Y-81290438D02*
X80644875Y-81338057D01*
X80644875Y-81338057D02*
X80597256Y-81433295D01*
X80597256Y-81433295D02*
X80597256Y-81528533D01*
X80597256Y-81528533D02*
X80644875Y-81623771D01*
X80644875Y-81623771D02*
X80692494Y-81671390D01*
X80692494Y-81671390D02*
X80787732Y-81719009D01*
X80787732Y-81719009D02*
X81121065Y-81719009D01*
X80121065Y-81242819D02*
X80121065Y-82052342D01*
X80121065Y-82052342D02*
X80073446Y-82147580D01*
X80073446Y-82147580D02*
X80025827Y-82195200D01*
X80025827Y-82195200D02*
X79930589Y-82242819D01*
X79930589Y-82242819D02*
X79740113Y-82242819D01*
X79740113Y-82242819D02*
X79644875Y-82195200D01*
X79644875Y-82195200D02*
X79597256Y-82147580D01*
X79597256Y-82147580D02*
X79549637Y-82052342D01*
X79549637Y-82052342D02*
X79549637Y-81242819D01*
X79168684Y-81242819D02*
X78502018Y-81242819D01*
X78502018Y-81242819D02*
X79168684Y-82242819D01*
X79168684Y-82242819D02*
X78502018Y-82242819D01*
X78216303Y-81242819D02*
X77549637Y-81242819D01*
X77549637Y-81242819D02*
X78216303Y-82242819D01*
X78216303Y-82242819D02*
X77549637Y-82242819D01*
X77168684Y-81719009D02*
X76835351Y-81719009D01*
X76692494Y-82242819D02*
X77168684Y-82242819D01*
X77168684Y-82242819D02*
X77168684Y-81242819D01*
X77168684Y-81242819D02*
X76692494Y-81242819D01*
X75692494Y-82242819D02*
X76025827Y-81766628D01*
X76263922Y-82242819D02*
X76263922Y-81242819D01*
X76263922Y-81242819D02*
X75882970Y-81242819D01*
X75882970Y-81242819D02*
X75787732Y-81290438D01*
X75787732Y-81290438D02*
X75740113Y-81338057D01*
X75740113Y-81338057D02*
X75692494Y-81433295D01*
X75692494Y-81433295D02*
X75692494Y-81576152D01*
X75692494Y-81576152D02*
X75740113Y-81671390D01*
X75740113Y-81671390D02*
X75787732Y-81719009D01*
X75787732Y-81719009D02*
X75882970Y-81766628D01*
X75882970Y-81766628D02*
X76263922Y-81766628D01*
X75502018Y-82338057D02*
X74740113Y-82338057D01*
X73930589Y-82147580D02*
X73978208Y-82195200D01*
X73978208Y-82195200D02*
X74121065Y-82242819D01*
X74121065Y-82242819D02*
X74216303Y-82242819D01*
X74216303Y-82242819D02*
X74359160Y-82195200D01*
X74359160Y-82195200D02*
X74454398Y-82099961D01*
X74454398Y-82099961D02*
X74502017Y-82004723D01*
X74502017Y-82004723D02*
X74549636Y-81814247D01*
X74549636Y-81814247D02*
X74549636Y-81671390D01*
X74549636Y-81671390D02*
X74502017Y-81480914D01*
X74502017Y-81480914D02*
X74454398Y-81385676D01*
X74454398Y-81385676D02*
X74359160Y-81290438D01*
X74359160Y-81290438D02*
X74216303Y-81242819D01*
X74216303Y-81242819D02*
X74121065Y-81242819D01*
X74121065Y-81242819D02*
X73978208Y-81290438D01*
X73978208Y-81290438D02*
X73930589Y-81338057D01*
X73644874Y-81242819D02*
X73073446Y-81242819D01*
X73359160Y-82242819D02*
X73359160Y-81242819D01*
X72263922Y-82242819D02*
X72740112Y-82242819D01*
X72740112Y-82242819D02*
X72740112Y-81242819D01*
X57395238Y-31554819D02*
X57728571Y-31078628D01*
X57966666Y-31554819D02*
X57966666Y-30554819D01*
X57966666Y-30554819D02*
X57585714Y-30554819D01*
X57585714Y-30554819D02*
X57490476Y-30602438D01*
X57490476Y-30602438D02*
X57442857Y-30650057D01*
X57442857Y-30650057D02*
X57395238Y-30745295D01*
X57395238Y-30745295D02*
X57395238Y-30888152D01*
X57395238Y-30888152D02*
X57442857Y-30983390D01*
X57442857Y-30983390D02*
X57490476Y-31031009D01*
X57490476Y-31031009D02*
X57585714Y-31078628D01*
X57585714Y-31078628D02*
X57966666Y-31078628D01*
X57204762Y-31650057D02*
X56442857Y-31650057D01*
X56204761Y-31554819D02*
X56204761Y-30554819D01*
X56204761Y-30554819D02*
X55633333Y-31554819D01*
X55633333Y-31554819D02*
X55633333Y-30554819D01*
X54585714Y-31459580D02*
X54633333Y-31507200D01*
X54633333Y-31507200D02*
X54776190Y-31554819D01*
X54776190Y-31554819D02*
X54871428Y-31554819D01*
X54871428Y-31554819D02*
X55014285Y-31507200D01*
X55014285Y-31507200D02*
X55109523Y-31411961D01*
X55109523Y-31411961D02*
X55157142Y-31316723D01*
X55157142Y-31316723D02*
X55204761Y-31126247D01*
X55204761Y-31126247D02*
X55204761Y-30983390D01*
X55204761Y-30983390D02*
X55157142Y-30792914D01*
X55157142Y-30792914D02*
X55109523Y-30697676D01*
X55109523Y-30697676D02*
X55014285Y-30602438D01*
X55014285Y-30602438D02*
X54871428Y-30554819D01*
X54871428Y-30554819D02*
X54776190Y-30554819D01*
X54776190Y-30554819D02*
X54633333Y-30602438D01*
X54633333Y-30602438D02*
X54585714Y-30650057D01*
X56969047Y-38454819D02*
X57302380Y-37978628D01*
X57540475Y-38454819D02*
X57540475Y-37454819D01*
X57540475Y-37454819D02*
X57159523Y-37454819D01*
X57159523Y-37454819D02*
X57064285Y-37502438D01*
X57064285Y-37502438D02*
X57016666Y-37550057D01*
X57016666Y-37550057D02*
X56969047Y-37645295D01*
X56969047Y-37645295D02*
X56969047Y-37788152D01*
X56969047Y-37788152D02*
X57016666Y-37883390D01*
X57016666Y-37883390D02*
X57064285Y-37931009D01*
X57064285Y-37931009D02*
X57159523Y-37978628D01*
X57159523Y-37978628D02*
X57540475Y-37978628D01*
X56778571Y-38550057D02*
X56016666Y-38550057D01*
X55778570Y-38454819D02*
X55778570Y-37454819D01*
X55778570Y-37454819D02*
X55207142Y-38454819D01*
X55207142Y-38454819D02*
X55207142Y-37454819D01*
X54540475Y-37454819D02*
X54349999Y-37454819D01*
X54349999Y-37454819D02*
X54254761Y-37502438D01*
X54254761Y-37502438D02*
X54159523Y-37597676D01*
X54159523Y-37597676D02*
X54111904Y-37788152D01*
X54111904Y-37788152D02*
X54111904Y-38121485D01*
X54111904Y-38121485D02*
X54159523Y-38311961D01*
X54159523Y-38311961D02*
X54254761Y-38407200D01*
X54254761Y-38407200D02*
X54349999Y-38454819D01*
X54349999Y-38454819D02*
X54540475Y-38454819D01*
X54540475Y-38454819D02*
X54635713Y-38407200D01*
X54635713Y-38407200D02*
X54730951Y-38311961D01*
X54730951Y-38311961D02*
X54778570Y-38121485D01*
X54778570Y-38121485D02*
X54778570Y-37788152D01*
X54778570Y-37788152D02*
X54730951Y-37597676D01*
X54730951Y-37597676D02*
X54635713Y-37502438D01*
X54635713Y-37502438D02*
X54540475Y-37454819D01*
X70119030Y-84782819D02*
X70595220Y-84782819D01*
X70595220Y-84782819D02*
X70595220Y-83782819D01*
X69785696Y-84259009D02*
X69452363Y-84259009D01*
X69309506Y-84782819D02*
X69785696Y-84782819D01*
X69785696Y-84782819D02*
X69785696Y-83782819D01*
X69785696Y-83782819D02*
X69309506Y-83782819D01*
X68880934Y-84782819D02*
X68880934Y-83782819D01*
X68880934Y-83782819D02*
X68642839Y-83782819D01*
X68642839Y-83782819D02*
X68499982Y-83830438D01*
X68499982Y-83830438D02*
X68404744Y-83925676D01*
X68404744Y-83925676D02*
X68357125Y-84020914D01*
X68357125Y-84020914D02*
X68309506Y-84211390D01*
X68309506Y-84211390D02*
X68309506Y-84354247D01*
X68309506Y-84354247D02*
X68357125Y-84544723D01*
X68357125Y-84544723D02*
X68404744Y-84639961D01*
X68404744Y-84639961D02*
X68499982Y-84735200D01*
X68499982Y-84735200D02*
X68642839Y-84782819D01*
X68642839Y-84782819D02*
X68880934Y-84782819D01*
X68119030Y-84878057D02*
X67357125Y-84878057D01*
X66547601Y-84687580D02*
X66595220Y-84735200D01*
X66595220Y-84735200D02*
X66738077Y-84782819D01*
X66738077Y-84782819D02*
X66833315Y-84782819D01*
X66833315Y-84782819D02*
X66976172Y-84735200D01*
X66976172Y-84735200D02*
X67071410Y-84639961D01*
X67071410Y-84639961D02*
X67119029Y-84544723D01*
X67119029Y-84544723D02*
X67166648Y-84354247D01*
X67166648Y-84354247D02*
X67166648Y-84211390D01*
X67166648Y-84211390D02*
X67119029Y-84020914D01*
X67119029Y-84020914D02*
X67071410Y-83925676D01*
X67071410Y-83925676D02*
X66976172Y-83830438D01*
X66976172Y-83830438D02*
X66833315Y-83782819D01*
X66833315Y-83782819D02*
X66738077Y-83782819D01*
X66738077Y-83782819D02*
X66595220Y-83830438D01*
X66595220Y-83830438D02*
X66547601Y-83878057D01*
X66261886Y-83782819D02*
X65690458Y-83782819D01*
X65976172Y-84782819D02*
X65976172Y-83782819D01*
X64880934Y-84782819D02*
X65357124Y-84782819D01*
X65357124Y-84782819D02*
X65357124Y-83782819D01*
X111120112Y-79131009D02*
X110786779Y-79131009D01*
X110643922Y-79654819D02*
X111120112Y-79654819D01*
X111120112Y-79654819D02*
X111120112Y-78654819D01*
X111120112Y-78654819D02*
X110643922Y-78654819D01*
X110215350Y-79654819D02*
X110215350Y-78654819D01*
X110215350Y-78654819D02*
X109882017Y-79369104D01*
X109882017Y-79369104D02*
X109548684Y-78654819D01*
X109548684Y-78654819D02*
X109548684Y-79654819D01*
X109120112Y-79369104D02*
X108643922Y-79369104D01*
X109215350Y-79654819D02*
X108882017Y-78654819D01*
X108882017Y-78654819D02*
X108548684Y-79654819D01*
X107643922Y-79559580D02*
X107691541Y-79607200D01*
X107691541Y-79607200D02*
X107834398Y-79654819D01*
X107834398Y-79654819D02*
X107929636Y-79654819D01*
X107929636Y-79654819D02*
X108072493Y-79607200D01*
X108072493Y-79607200D02*
X108167731Y-79511961D01*
X108167731Y-79511961D02*
X108215350Y-79416723D01*
X108215350Y-79416723D02*
X108262969Y-79226247D01*
X108262969Y-79226247D02*
X108262969Y-79083390D01*
X108262969Y-79083390D02*
X108215350Y-78892914D01*
X108215350Y-78892914D02*
X108167731Y-78797676D01*
X108167731Y-78797676D02*
X108072493Y-78702438D01*
X108072493Y-78702438D02*
X107929636Y-78654819D01*
X107929636Y-78654819D02*
X107834398Y-78654819D01*
X107834398Y-78654819D02*
X107691541Y-78702438D01*
X107691541Y-78702438D02*
X107643922Y-78750057D01*
X107453446Y-79750057D02*
X106691541Y-79750057D01*
X106453445Y-79654819D02*
X106453445Y-78654819D01*
X106453445Y-78654819D02*
X106120112Y-79369104D01*
X106120112Y-79369104D02*
X105786779Y-78654819D01*
X105786779Y-78654819D02*
X105786779Y-79654819D01*
X105310588Y-79654819D02*
X105310588Y-78654819D01*
X105310588Y-78654819D02*
X105072493Y-78654819D01*
X105072493Y-78654819D02*
X104929636Y-78702438D01*
X104929636Y-78702438D02*
X104834398Y-78797676D01*
X104834398Y-78797676D02*
X104786779Y-78892914D01*
X104786779Y-78892914D02*
X104739160Y-79083390D01*
X104739160Y-79083390D02*
X104739160Y-79226247D01*
X104739160Y-79226247D02*
X104786779Y-79416723D01*
X104786779Y-79416723D02*
X104834398Y-79511961D01*
X104834398Y-79511961D02*
X104929636Y-79607200D01*
X104929636Y-79607200D02*
X105072493Y-79654819D01*
X105072493Y-79654819D02*
X105310588Y-79654819D01*
X103739160Y-79559580D02*
X103786779Y-79607200D01*
X103786779Y-79607200D02*
X103929636Y-79654819D01*
X103929636Y-79654819D02*
X104024874Y-79654819D01*
X104024874Y-79654819D02*
X104167731Y-79607200D01*
X104167731Y-79607200D02*
X104262969Y-79511961D01*
X104262969Y-79511961D02*
X104310588Y-79416723D01*
X104310588Y-79416723D02*
X104358207Y-79226247D01*
X104358207Y-79226247D02*
X104358207Y-79083390D01*
X104358207Y-79083390D02*
X104310588Y-78892914D01*
X104310588Y-78892914D02*
X104262969Y-78797676D01*
X104262969Y-78797676D02*
X104167731Y-78702438D01*
X104167731Y-78702438D02*
X104024874Y-78654819D01*
X104024874Y-78654819D02*
X103929636Y-78654819D01*
X103929636Y-78654819D02*
X103786779Y-78702438D01*
X103786779Y-78702438D02*
X103739160Y-78750057D01*
X93201220Y-98229009D02*
X92867887Y-98229009D01*
X92725030Y-98752819D02*
X93201220Y-98752819D01*
X93201220Y-98752819D02*
X93201220Y-97752819D01*
X93201220Y-97752819D02*
X92725030Y-97752819D01*
X92344077Y-98705200D02*
X92201220Y-98752819D01*
X92201220Y-98752819D02*
X91963125Y-98752819D01*
X91963125Y-98752819D02*
X91867887Y-98705200D01*
X91867887Y-98705200D02*
X91820268Y-98657580D01*
X91820268Y-98657580D02*
X91772649Y-98562342D01*
X91772649Y-98562342D02*
X91772649Y-98467104D01*
X91772649Y-98467104D02*
X91820268Y-98371866D01*
X91820268Y-98371866D02*
X91867887Y-98324247D01*
X91867887Y-98324247D02*
X91963125Y-98276628D01*
X91963125Y-98276628D02*
X92153601Y-98229009D01*
X92153601Y-98229009D02*
X92248839Y-98181390D01*
X92248839Y-98181390D02*
X92296458Y-98133771D01*
X92296458Y-98133771D02*
X92344077Y-98038533D01*
X92344077Y-98038533D02*
X92344077Y-97943295D01*
X92344077Y-97943295D02*
X92296458Y-97848057D01*
X92296458Y-97848057D02*
X92248839Y-97800438D01*
X92248839Y-97800438D02*
X92153601Y-97752819D01*
X92153601Y-97752819D02*
X91915506Y-97752819D01*
X91915506Y-97752819D02*
X91772649Y-97800438D01*
X91344077Y-98752819D02*
X91344077Y-97752819D01*
X91344077Y-97752819D02*
X90963125Y-97752819D01*
X90963125Y-97752819D02*
X90867887Y-97800438D01*
X90867887Y-97800438D02*
X90820268Y-97848057D01*
X90820268Y-97848057D02*
X90772649Y-97943295D01*
X90772649Y-97943295D02*
X90772649Y-98086152D01*
X90772649Y-98086152D02*
X90820268Y-98181390D01*
X90820268Y-98181390D02*
X90867887Y-98229009D01*
X90867887Y-98229009D02*
X90963125Y-98276628D01*
X90963125Y-98276628D02*
X91344077Y-98276628D01*
X90582173Y-98848057D02*
X89820268Y-98848057D01*
X89582172Y-98229009D02*
X89248839Y-98229009D01*
X89105982Y-98752819D02*
X89582172Y-98752819D01*
X89582172Y-98752819D02*
X89582172Y-97752819D01*
X89582172Y-97752819D02*
X89105982Y-97752819D01*
X88677410Y-98752819D02*
X88677410Y-97752819D01*
X88677410Y-97752819D02*
X88105982Y-98752819D01*
X88105982Y-98752819D02*
X88105982Y-97752819D01*
X90241792Y-90359580D02*
X90289411Y-90407200D01*
X90289411Y-90407200D02*
X90432268Y-90454819D01*
X90432268Y-90454819D02*
X90527506Y-90454819D01*
X90527506Y-90454819D02*
X90670363Y-90407200D01*
X90670363Y-90407200D02*
X90765601Y-90311961D01*
X90765601Y-90311961D02*
X90813220Y-90216723D01*
X90813220Y-90216723D02*
X90860839Y-90026247D01*
X90860839Y-90026247D02*
X90860839Y-89883390D01*
X90860839Y-89883390D02*
X90813220Y-89692914D01*
X90813220Y-89692914D02*
X90765601Y-89597676D01*
X90765601Y-89597676D02*
X90670363Y-89502438D01*
X90670363Y-89502438D02*
X90527506Y-89454819D01*
X90527506Y-89454819D02*
X90432268Y-89454819D01*
X90432268Y-89454819D02*
X90289411Y-89502438D01*
X90289411Y-89502438D02*
X90241792Y-89550057D01*
X89337030Y-90454819D02*
X89813220Y-90454819D01*
X89813220Y-90454819D02*
X89813220Y-89454819D01*
X89003696Y-90454819D02*
X89003696Y-89454819D01*
X88432268Y-90454819D02*
X88860839Y-89883390D01*
X88432268Y-89454819D02*
X89003696Y-90026247D01*
X88241792Y-90550057D02*
X87479887Y-90550057D01*
X87241791Y-89931009D02*
X86908458Y-89931009D01*
X86765601Y-90454819D02*
X87241791Y-90454819D01*
X87241791Y-90454819D02*
X87241791Y-89454819D01*
X87241791Y-89454819D02*
X86765601Y-89454819D01*
X86337029Y-90454819D02*
X86337029Y-89454819D01*
X86337029Y-89454819D02*
X85765601Y-90454819D01*
X85765601Y-90454819D02*
X85765601Y-89454819D01*
X71305429Y-63192819D02*
X71638762Y-62716628D01*
X71876857Y-63192819D02*
X71876857Y-62192819D01*
X71876857Y-62192819D02*
X71495905Y-62192819D01*
X71495905Y-62192819D02*
X71400667Y-62240438D01*
X71400667Y-62240438D02*
X71353048Y-62288057D01*
X71353048Y-62288057D02*
X71305429Y-62383295D01*
X71305429Y-62383295D02*
X71305429Y-62526152D01*
X71305429Y-62526152D02*
X71353048Y-62621390D01*
X71353048Y-62621390D02*
X71400667Y-62669009D01*
X71400667Y-62669009D02*
X71495905Y-62716628D01*
X71495905Y-62716628D02*
X71876857Y-62716628D01*
X70876857Y-62669009D02*
X70543524Y-62669009D01*
X70400667Y-63192819D02*
X70876857Y-63192819D01*
X70876857Y-63192819D02*
X70876857Y-62192819D01*
X70876857Y-62192819D02*
X70400667Y-62192819D01*
X69495905Y-63192819D02*
X69972095Y-63192819D01*
X69972095Y-63192819D02*
X69972095Y-62192819D01*
X69210190Y-62907104D02*
X68734000Y-62907104D01*
X69305428Y-63192819D02*
X68972095Y-62192819D01*
X68972095Y-62192819D02*
X68638762Y-63192819D01*
X68114952Y-62716628D02*
X68114952Y-63192819D01*
X68448285Y-62192819D02*
X68114952Y-62716628D01*
X68114952Y-62716628D02*
X67781619Y-62192819D01*
X67686381Y-63288057D02*
X66924476Y-63288057D01*
X66114952Y-63097580D02*
X66162571Y-63145200D01*
X66162571Y-63145200D02*
X66305428Y-63192819D01*
X66305428Y-63192819D02*
X66400666Y-63192819D01*
X66400666Y-63192819D02*
X66543523Y-63145200D01*
X66543523Y-63145200D02*
X66638761Y-63049961D01*
X66638761Y-63049961D02*
X66686380Y-62954723D01*
X66686380Y-62954723D02*
X66733999Y-62764247D01*
X66733999Y-62764247D02*
X66733999Y-62621390D01*
X66733999Y-62621390D02*
X66686380Y-62430914D01*
X66686380Y-62430914D02*
X66638761Y-62335676D01*
X66638761Y-62335676D02*
X66543523Y-62240438D01*
X66543523Y-62240438D02*
X66400666Y-62192819D01*
X66400666Y-62192819D02*
X66305428Y-62192819D01*
X66305428Y-62192819D02*
X66162571Y-62240438D01*
X66162571Y-62240438D02*
X66114952Y-62288057D01*
X65829237Y-62192819D02*
X65257809Y-62192819D01*
X65543523Y-63192819D02*
X65543523Y-62192819D01*
X64448285Y-63192819D02*
X64924475Y-63192819D01*
X64924475Y-63192819D02*
X64924475Y-62192819D01*
X69618588Y-67891866D02*
X68856684Y-67891866D01*
X69237636Y-68272819D02*
X69237636Y-67510914D01*
X67856684Y-68272819D02*
X68428112Y-68272819D01*
X68142398Y-68272819D02*
X68142398Y-67272819D01*
X68142398Y-67272819D02*
X68237636Y-67415676D01*
X68237636Y-67415676D02*
X68332874Y-67510914D01*
X68332874Y-67510914D02*
X68428112Y-67558533D01*
X67475731Y-67368057D02*
X67428112Y-67320438D01*
X67428112Y-67320438D02*
X67332874Y-67272819D01*
X67332874Y-67272819D02*
X67094779Y-67272819D01*
X67094779Y-67272819D02*
X66999541Y-67320438D01*
X66999541Y-67320438D02*
X66951922Y-67368057D01*
X66951922Y-67368057D02*
X66904303Y-67463295D01*
X66904303Y-67463295D02*
X66904303Y-67558533D01*
X66904303Y-67558533D02*
X66951922Y-67701390D01*
X66951922Y-67701390D02*
X67523350Y-68272819D01*
X67523350Y-68272819D02*
X66904303Y-68272819D01*
X66618588Y-67272819D02*
X66285255Y-68272819D01*
X66285255Y-68272819D02*
X65951922Y-67272819D01*
X54921428Y-43954819D02*
X55254761Y-43478628D01*
X55492856Y-43954819D02*
X55492856Y-42954819D01*
X55492856Y-42954819D02*
X55111904Y-42954819D01*
X55111904Y-42954819D02*
X55016666Y-43002438D01*
X55016666Y-43002438D02*
X54969047Y-43050057D01*
X54969047Y-43050057D02*
X54921428Y-43145295D01*
X54921428Y-43145295D02*
X54921428Y-43288152D01*
X54921428Y-43288152D02*
X54969047Y-43383390D01*
X54969047Y-43383390D02*
X55016666Y-43431009D01*
X55016666Y-43431009D02*
X55111904Y-43478628D01*
X55111904Y-43478628D02*
X55492856Y-43478628D01*
X54730952Y-44050057D02*
X53969047Y-44050057D01*
X53159523Y-43859580D02*
X53207142Y-43907200D01*
X53207142Y-43907200D02*
X53349999Y-43954819D01*
X53349999Y-43954819D02*
X53445237Y-43954819D01*
X53445237Y-43954819D02*
X53588094Y-43907200D01*
X53588094Y-43907200D02*
X53683332Y-43811961D01*
X53683332Y-43811961D02*
X53730951Y-43716723D01*
X53730951Y-43716723D02*
X53778570Y-43526247D01*
X53778570Y-43526247D02*
X53778570Y-43383390D01*
X53778570Y-43383390D02*
X53730951Y-43192914D01*
X53730951Y-43192914D02*
X53683332Y-43097676D01*
X53683332Y-43097676D02*
X53588094Y-43002438D01*
X53588094Y-43002438D02*
X53445237Y-42954819D01*
X53445237Y-42954819D02*
X53349999Y-42954819D01*
X53349999Y-42954819D02*
X53207142Y-43002438D01*
X53207142Y-43002438D02*
X53159523Y-43050057D01*
X72524874Y-96954819D02*
X72524874Y-95954819D01*
X72524874Y-95954819D02*
X72286779Y-95954819D01*
X72286779Y-95954819D02*
X72143922Y-96002438D01*
X72143922Y-96002438D02*
X72048684Y-96097676D01*
X72048684Y-96097676D02*
X72001065Y-96192914D01*
X72001065Y-96192914D02*
X71953446Y-96383390D01*
X71953446Y-96383390D02*
X71953446Y-96526247D01*
X71953446Y-96526247D02*
X72001065Y-96716723D01*
X72001065Y-96716723D02*
X72048684Y-96811961D01*
X72048684Y-96811961D02*
X72143922Y-96907200D01*
X72143922Y-96907200D02*
X72286779Y-96954819D01*
X72286779Y-96954819D02*
X72524874Y-96954819D01*
X71572493Y-96669104D02*
X71096303Y-96669104D01*
X71667731Y-96954819D02*
X71334398Y-95954819D01*
X71334398Y-95954819D02*
X71001065Y-96954819D01*
X70810588Y-95954819D02*
X70239160Y-95954819D01*
X70524874Y-96954819D02*
X70524874Y-95954819D01*
X69382017Y-96954819D02*
X69953445Y-96954819D01*
X69667731Y-96954819D02*
X69667731Y-95954819D01*
X69667731Y-95954819D02*
X69762969Y-96097676D01*
X69762969Y-96097676D02*
X69858207Y-96192914D01*
X69858207Y-96192914D02*
X69953445Y-96240533D01*
X69191541Y-97050057D02*
X68429636Y-97050057D01*
X68191540Y-96954819D02*
X68191540Y-95954819D01*
X67715350Y-96954819D02*
X67715350Y-95954819D01*
X67715350Y-95954819D02*
X67143922Y-96954819D01*
X67143922Y-96954819D02*
X67143922Y-95954819D01*
X66810588Y-95954819D02*
X66477255Y-96954819D01*
X66477255Y-96954819D02*
X66143922Y-95954819D01*
X98563220Y-79181009D02*
X98229887Y-79181009D01*
X98087030Y-79704819D02*
X98563220Y-79704819D01*
X98563220Y-79704819D02*
X98563220Y-78704819D01*
X98563220Y-78704819D02*
X98087030Y-78704819D01*
X97658458Y-79704819D02*
X97658458Y-78704819D01*
X97658458Y-78704819D02*
X97325125Y-79419104D01*
X97325125Y-79419104D02*
X96991792Y-78704819D01*
X96991792Y-78704819D02*
X96991792Y-79704819D01*
X96563220Y-79419104D02*
X96087030Y-79419104D01*
X96658458Y-79704819D02*
X96325125Y-78704819D01*
X96325125Y-78704819D02*
X95991792Y-79704819D01*
X95087030Y-79609580D02*
X95134649Y-79657200D01*
X95134649Y-79657200D02*
X95277506Y-79704819D01*
X95277506Y-79704819D02*
X95372744Y-79704819D01*
X95372744Y-79704819D02*
X95515601Y-79657200D01*
X95515601Y-79657200D02*
X95610839Y-79561961D01*
X95610839Y-79561961D02*
X95658458Y-79466723D01*
X95658458Y-79466723D02*
X95706077Y-79276247D01*
X95706077Y-79276247D02*
X95706077Y-79133390D01*
X95706077Y-79133390D02*
X95658458Y-78942914D01*
X95658458Y-78942914D02*
X95610839Y-78847676D01*
X95610839Y-78847676D02*
X95515601Y-78752438D01*
X95515601Y-78752438D02*
X95372744Y-78704819D01*
X95372744Y-78704819D02*
X95277506Y-78704819D01*
X95277506Y-78704819D02*
X95134649Y-78752438D01*
X95134649Y-78752438D02*
X95087030Y-78800057D01*
X94896554Y-79800057D02*
X94134649Y-79800057D01*
X93896553Y-79704819D02*
X93896553Y-78704819D01*
X93896553Y-78704819D02*
X93563220Y-79419104D01*
X93563220Y-79419104D02*
X93229887Y-78704819D01*
X93229887Y-78704819D02*
X93229887Y-79704819D01*
X92753696Y-79704819D02*
X92753696Y-78704819D01*
X92753696Y-78704819D02*
X92515601Y-78704819D01*
X92515601Y-78704819D02*
X92372744Y-78752438D01*
X92372744Y-78752438D02*
X92277506Y-78847676D01*
X92277506Y-78847676D02*
X92229887Y-78942914D01*
X92229887Y-78942914D02*
X92182268Y-79133390D01*
X92182268Y-79133390D02*
X92182268Y-79276247D01*
X92182268Y-79276247D02*
X92229887Y-79466723D01*
X92229887Y-79466723D02*
X92277506Y-79561961D01*
X92277506Y-79561961D02*
X92372744Y-79657200D01*
X92372744Y-79657200D02*
X92515601Y-79704819D01*
X92515601Y-79704819D02*
X92753696Y-79704819D01*
X91753696Y-79704819D02*
X91753696Y-78704819D01*
X91087030Y-78704819D02*
X90896554Y-78704819D01*
X90896554Y-78704819D02*
X90801316Y-78752438D01*
X90801316Y-78752438D02*
X90706078Y-78847676D01*
X90706078Y-78847676D02*
X90658459Y-79038152D01*
X90658459Y-79038152D02*
X90658459Y-79371485D01*
X90658459Y-79371485D02*
X90706078Y-79561961D01*
X90706078Y-79561961D02*
X90801316Y-79657200D01*
X90801316Y-79657200D02*
X90896554Y-79704819D01*
X90896554Y-79704819D02*
X91087030Y-79704819D01*
X91087030Y-79704819D02*
X91182268Y-79657200D01*
X91182268Y-79657200D02*
X91277506Y-79561961D01*
X91277506Y-79561961D02*
X91325125Y-79371485D01*
X91325125Y-79371485D02*
X91325125Y-79038152D01*
X91325125Y-79038152D02*
X91277506Y-78847676D01*
X91277506Y-78847676D02*
X91182268Y-78752438D01*
X91182268Y-78752438D02*
X91087030Y-78704819D01*
X108885713Y-29204819D02*
X108552380Y-30204819D01*
X108552380Y-30204819D02*
X108219047Y-29204819D01*
X107933332Y-30157200D02*
X107790475Y-30204819D01*
X107790475Y-30204819D02*
X107552380Y-30204819D01*
X107552380Y-30204819D02*
X107457142Y-30157200D01*
X107457142Y-30157200D02*
X107409523Y-30109580D01*
X107409523Y-30109580D02*
X107361904Y-30014342D01*
X107361904Y-30014342D02*
X107361904Y-29919104D01*
X107361904Y-29919104D02*
X107409523Y-29823866D01*
X107409523Y-29823866D02*
X107457142Y-29776247D01*
X107457142Y-29776247D02*
X107552380Y-29728628D01*
X107552380Y-29728628D02*
X107742856Y-29681009D01*
X107742856Y-29681009D02*
X107838094Y-29633390D01*
X107838094Y-29633390D02*
X107885713Y-29585771D01*
X107885713Y-29585771D02*
X107933332Y-29490533D01*
X107933332Y-29490533D02*
X107933332Y-29395295D01*
X107933332Y-29395295D02*
X107885713Y-29300057D01*
X107885713Y-29300057D02*
X107838094Y-29252438D01*
X107838094Y-29252438D02*
X107742856Y-29204819D01*
X107742856Y-29204819D02*
X107504761Y-29204819D01*
X107504761Y-29204819D02*
X107361904Y-29252438D01*
X106980951Y-30157200D02*
X106838094Y-30204819D01*
X106838094Y-30204819D02*
X106599999Y-30204819D01*
X106599999Y-30204819D02*
X106504761Y-30157200D01*
X106504761Y-30157200D02*
X106457142Y-30109580D01*
X106457142Y-30109580D02*
X106409523Y-30014342D01*
X106409523Y-30014342D02*
X106409523Y-29919104D01*
X106409523Y-29919104D02*
X106457142Y-29823866D01*
X106457142Y-29823866D02*
X106504761Y-29776247D01*
X106504761Y-29776247D02*
X106599999Y-29728628D01*
X106599999Y-29728628D02*
X106790475Y-29681009D01*
X106790475Y-29681009D02*
X106885713Y-29633390D01*
X106885713Y-29633390D02*
X106933332Y-29585771D01*
X106933332Y-29585771D02*
X106980951Y-29490533D01*
X106980951Y-29490533D02*
X106980951Y-29395295D01*
X106980951Y-29395295D02*
X106933332Y-29300057D01*
X106933332Y-29300057D02*
X106885713Y-29252438D01*
X106885713Y-29252438D02*
X106790475Y-29204819D01*
X106790475Y-29204819D02*
X106552380Y-29204819D01*
X106552380Y-29204819D02*
X106409523Y-29252438D01*
X90734398Y-56502438D02*
X90829636Y-56454819D01*
X90829636Y-56454819D02*
X90972493Y-56454819D01*
X90972493Y-56454819D02*
X91115350Y-56502438D01*
X91115350Y-56502438D02*
X91210588Y-56597676D01*
X91210588Y-56597676D02*
X91258207Y-56692914D01*
X91258207Y-56692914D02*
X91305826Y-56883390D01*
X91305826Y-56883390D02*
X91305826Y-57026247D01*
X91305826Y-57026247D02*
X91258207Y-57216723D01*
X91258207Y-57216723D02*
X91210588Y-57311961D01*
X91210588Y-57311961D02*
X91115350Y-57407200D01*
X91115350Y-57407200D02*
X90972493Y-57454819D01*
X90972493Y-57454819D02*
X90877255Y-57454819D01*
X90877255Y-57454819D02*
X90734398Y-57407200D01*
X90734398Y-57407200D02*
X90686779Y-57359580D01*
X90686779Y-57359580D02*
X90686779Y-57026247D01*
X90686779Y-57026247D02*
X90877255Y-57026247D01*
X90258207Y-57454819D02*
X90258207Y-56454819D01*
X90258207Y-56454819D02*
X89686779Y-57454819D01*
X89686779Y-57454819D02*
X89686779Y-56454819D01*
X89210588Y-57454819D02*
X89210588Y-56454819D01*
X89210588Y-56454819D02*
X88972493Y-56454819D01*
X88972493Y-56454819D02*
X88829636Y-56502438D01*
X88829636Y-56502438D02*
X88734398Y-56597676D01*
X88734398Y-56597676D02*
X88686779Y-56692914D01*
X88686779Y-56692914D02*
X88639160Y-56883390D01*
X88639160Y-56883390D02*
X88639160Y-57026247D01*
X88639160Y-57026247D02*
X88686779Y-57216723D01*
X88686779Y-57216723D02*
X88734398Y-57311961D01*
X88734398Y-57311961D02*
X88829636Y-57407200D01*
X88829636Y-57407200D02*
X88972493Y-57454819D01*
X88972493Y-57454819D02*
X89210588Y-57454819D01*
X73122744Y-56704819D02*
X72932268Y-56704819D01*
X72932268Y-56704819D02*
X72837030Y-56752438D01*
X72837030Y-56752438D02*
X72741792Y-56847676D01*
X72741792Y-56847676D02*
X72694173Y-57038152D01*
X72694173Y-57038152D02*
X72694173Y-57371485D01*
X72694173Y-57371485D02*
X72741792Y-57561961D01*
X72741792Y-57561961D02*
X72837030Y-57657200D01*
X72837030Y-57657200D02*
X72932268Y-57704819D01*
X72932268Y-57704819D02*
X73122744Y-57704819D01*
X73122744Y-57704819D02*
X73217982Y-57657200D01*
X73217982Y-57657200D02*
X73313220Y-57561961D01*
X73313220Y-57561961D02*
X73360839Y-57371485D01*
X73360839Y-57371485D02*
X73360839Y-57038152D01*
X73360839Y-57038152D02*
X73313220Y-56847676D01*
X73313220Y-56847676D02*
X73217982Y-56752438D01*
X73217982Y-56752438D02*
X73122744Y-56704819D01*
X72265601Y-57704819D02*
X72265601Y-56704819D01*
X72265601Y-56704819D02*
X71884649Y-56704819D01*
X71884649Y-56704819D02*
X71789411Y-56752438D01*
X71789411Y-56752438D02*
X71741792Y-56800057D01*
X71741792Y-56800057D02*
X71694173Y-56895295D01*
X71694173Y-56895295D02*
X71694173Y-57038152D01*
X71694173Y-57038152D02*
X71741792Y-57133390D01*
X71741792Y-57133390D02*
X71789411Y-57181009D01*
X71789411Y-57181009D02*
X71884649Y-57228628D01*
X71884649Y-57228628D02*
X72265601Y-57228628D01*
X71408458Y-56704819D02*
X70837030Y-56704819D01*
X71122744Y-57704819D02*
X71122744Y-56704819D01*
X70313220Y-56704819D02*
X70122744Y-56704819D01*
X70122744Y-56704819D02*
X70027506Y-56752438D01*
X70027506Y-56752438D02*
X69932268Y-56847676D01*
X69932268Y-56847676D02*
X69884649Y-57038152D01*
X69884649Y-57038152D02*
X69884649Y-57371485D01*
X69884649Y-57371485D02*
X69932268Y-57561961D01*
X69932268Y-57561961D02*
X70027506Y-57657200D01*
X70027506Y-57657200D02*
X70122744Y-57704819D01*
X70122744Y-57704819D02*
X70313220Y-57704819D01*
X70313220Y-57704819D02*
X70408458Y-57657200D01*
X70408458Y-57657200D02*
X70503696Y-57561961D01*
X70503696Y-57561961D02*
X70551315Y-57371485D01*
X70551315Y-57371485D02*
X70551315Y-57038152D01*
X70551315Y-57038152D02*
X70503696Y-56847676D01*
X70503696Y-56847676D02*
X70408458Y-56752438D01*
X70408458Y-56752438D02*
X70313220Y-56704819D01*
X69694173Y-57800057D02*
X68932268Y-57800057D01*
X68694172Y-57704819D02*
X68694172Y-56704819D01*
X68217982Y-57704819D02*
X68217982Y-56704819D01*
X68217982Y-56704819D02*
X67646554Y-57704819D01*
X67646554Y-57704819D02*
X67646554Y-56704819D01*
X79469819Y-88233333D02*
X78993628Y-87900000D01*
X79469819Y-87661905D02*
X78469819Y-87661905D01*
X78469819Y-87661905D02*
X78469819Y-88042857D01*
X78469819Y-88042857D02*
X78517438Y-88138095D01*
X78517438Y-88138095D02*
X78565057Y-88185714D01*
X78565057Y-88185714D02*
X78660295Y-88233333D01*
X78660295Y-88233333D02*
X78803152Y-88233333D01*
X78803152Y-88233333D02*
X78898390Y-88185714D01*
X78898390Y-88185714D02*
X78946009Y-88138095D01*
X78946009Y-88138095D02*
X78993628Y-88042857D01*
X78993628Y-88042857D02*
X78993628Y-87661905D01*
X78803152Y-89090476D02*
X79469819Y-89090476D01*
X78422200Y-88852381D02*
X79136485Y-88614286D01*
X79136485Y-88614286D02*
X79136485Y-89233333D01*
X55254819Y-61629905D02*
X54254819Y-61629905D01*
X54254819Y-61629905D02*
X54254819Y-61868000D01*
X54254819Y-61868000D02*
X54302438Y-62010857D01*
X54302438Y-62010857D02*
X54397676Y-62106095D01*
X54397676Y-62106095D02*
X54492914Y-62153714D01*
X54492914Y-62153714D02*
X54683390Y-62201333D01*
X54683390Y-62201333D02*
X54826247Y-62201333D01*
X54826247Y-62201333D02*
X55016723Y-62153714D01*
X55016723Y-62153714D02*
X55111961Y-62106095D01*
X55111961Y-62106095D02*
X55207200Y-62010857D01*
X55207200Y-62010857D02*
X55254819Y-61868000D01*
X55254819Y-61868000D02*
X55254819Y-61629905D01*
X55254819Y-63153714D02*
X55254819Y-62582286D01*
X55254819Y-62868000D02*
X54254819Y-62868000D01*
X54254819Y-62868000D02*
X54397676Y-62772762D01*
X54397676Y-62772762D02*
X54492914Y-62677524D01*
X54492914Y-62677524D02*
X54540533Y-62582286D01*
X80644077Y-42126819D02*
X80310744Y-43126819D01*
X80310744Y-43126819D02*
X79977411Y-42126819D01*
X79786934Y-42126819D02*
X79215506Y-42126819D01*
X79501220Y-43126819D02*
X79501220Y-42126819D01*
X78358363Y-43126819D02*
X78929791Y-43126819D01*
X78644077Y-43126819D02*
X78644077Y-42126819D01*
X78644077Y-42126819D02*
X78739315Y-42269676D01*
X78739315Y-42269676D02*
X78834553Y-42364914D01*
X78834553Y-42364914D02*
X78929791Y-42412533D01*
X77453601Y-42126819D02*
X77929791Y-42126819D01*
X77929791Y-42126819D02*
X77977410Y-42603009D01*
X77977410Y-42603009D02*
X77929791Y-42555390D01*
X77929791Y-42555390D02*
X77834553Y-42507771D01*
X77834553Y-42507771D02*
X77596458Y-42507771D01*
X77596458Y-42507771D02*
X77501220Y-42555390D01*
X77501220Y-42555390D02*
X77453601Y-42603009D01*
X77453601Y-42603009D02*
X77405982Y-42698247D01*
X77405982Y-42698247D02*
X77405982Y-42936342D01*
X77405982Y-42936342D02*
X77453601Y-43031580D01*
X77453601Y-43031580D02*
X77501220Y-43079200D01*
X77501220Y-43079200D02*
X77596458Y-43126819D01*
X77596458Y-43126819D02*
X77834553Y-43126819D01*
X77834553Y-43126819D02*
X77929791Y-43079200D01*
X77929791Y-43079200D02*
X77977410Y-43031580D01*
X72524874Y-99954819D02*
X72524874Y-98954819D01*
X72524874Y-98954819D02*
X72286779Y-98954819D01*
X72286779Y-98954819D02*
X72143922Y-99002438D01*
X72143922Y-99002438D02*
X72048684Y-99097676D01*
X72048684Y-99097676D02*
X72001065Y-99192914D01*
X72001065Y-99192914D02*
X71953446Y-99383390D01*
X71953446Y-99383390D02*
X71953446Y-99526247D01*
X71953446Y-99526247D02*
X72001065Y-99716723D01*
X72001065Y-99716723D02*
X72048684Y-99811961D01*
X72048684Y-99811961D02*
X72143922Y-99907200D01*
X72143922Y-99907200D02*
X72286779Y-99954819D01*
X72286779Y-99954819D02*
X72524874Y-99954819D01*
X71572493Y-99669104D02*
X71096303Y-99669104D01*
X71667731Y-99954819D02*
X71334398Y-98954819D01*
X71334398Y-98954819D02*
X71001065Y-99954819D01*
X70810588Y-98954819D02*
X70239160Y-98954819D01*
X70524874Y-99954819D02*
X70524874Y-98954819D01*
X69715350Y-98954819D02*
X69620112Y-98954819D01*
X69620112Y-98954819D02*
X69524874Y-99002438D01*
X69524874Y-99002438D02*
X69477255Y-99050057D01*
X69477255Y-99050057D02*
X69429636Y-99145295D01*
X69429636Y-99145295D02*
X69382017Y-99335771D01*
X69382017Y-99335771D02*
X69382017Y-99573866D01*
X69382017Y-99573866D02*
X69429636Y-99764342D01*
X69429636Y-99764342D02*
X69477255Y-99859580D01*
X69477255Y-99859580D02*
X69524874Y-99907200D01*
X69524874Y-99907200D02*
X69620112Y-99954819D01*
X69620112Y-99954819D02*
X69715350Y-99954819D01*
X69715350Y-99954819D02*
X69810588Y-99907200D01*
X69810588Y-99907200D02*
X69858207Y-99859580D01*
X69858207Y-99859580D02*
X69905826Y-99764342D01*
X69905826Y-99764342D02*
X69953445Y-99573866D01*
X69953445Y-99573866D02*
X69953445Y-99335771D01*
X69953445Y-99335771D02*
X69905826Y-99145295D01*
X69905826Y-99145295D02*
X69858207Y-99050057D01*
X69858207Y-99050057D02*
X69810588Y-99002438D01*
X69810588Y-99002438D02*
X69715350Y-98954819D01*
X69191541Y-100050057D02*
X68429636Y-100050057D01*
X68191540Y-99954819D02*
X68191540Y-98954819D01*
X67715350Y-99954819D02*
X67715350Y-98954819D01*
X67715350Y-98954819D02*
X67143922Y-99954819D01*
X67143922Y-99954819D02*
X67143922Y-98954819D01*
X66810588Y-98954819D02*
X66477255Y-99954819D01*
X66477255Y-99954819D02*
X66143922Y-98954819D01*
X62705999Y-52143866D02*
X61944095Y-52143866D01*
X62325047Y-52524819D02*
X62325047Y-51762914D01*
X61563142Y-51524819D02*
X60944095Y-51524819D01*
X60944095Y-51524819D02*
X61277428Y-51905771D01*
X61277428Y-51905771D02*
X61134571Y-51905771D01*
X61134571Y-51905771D02*
X61039333Y-51953390D01*
X61039333Y-51953390D02*
X60991714Y-52001009D01*
X60991714Y-52001009D02*
X60944095Y-52096247D01*
X60944095Y-52096247D02*
X60944095Y-52334342D01*
X60944095Y-52334342D02*
X60991714Y-52429580D01*
X60991714Y-52429580D02*
X61039333Y-52477200D01*
X61039333Y-52477200D02*
X61134571Y-52524819D01*
X61134571Y-52524819D02*
X61420285Y-52524819D01*
X61420285Y-52524819D02*
X61515523Y-52477200D01*
X61515523Y-52477200D02*
X61563142Y-52429580D01*
X60515523Y-52429580D02*
X60467904Y-52477200D01*
X60467904Y-52477200D02*
X60515523Y-52524819D01*
X60515523Y-52524819D02*
X60563142Y-52477200D01*
X60563142Y-52477200D02*
X60515523Y-52429580D01*
X60515523Y-52429580D02*
X60515523Y-52524819D01*
X60134571Y-51524819D02*
X59515524Y-51524819D01*
X59515524Y-51524819D02*
X59848857Y-51905771D01*
X59848857Y-51905771D02*
X59706000Y-51905771D01*
X59706000Y-51905771D02*
X59610762Y-51953390D01*
X59610762Y-51953390D02*
X59563143Y-52001009D01*
X59563143Y-52001009D02*
X59515524Y-52096247D01*
X59515524Y-52096247D02*
X59515524Y-52334342D01*
X59515524Y-52334342D02*
X59563143Y-52429580D01*
X59563143Y-52429580D02*
X59610762Y-52477200D01*
X59610762Y-52477200D02*
X59706000Y-52524819D01*
X59706000Y-52524819D02*
X59991714Y-52524819D01*
X59991714Y-52524819D02*
X60086952Y-52477200D01*
X60086952Y-52477200D02*
X60134571Y-52429580D01*
X59229809Y-51524819D02*
X58896476Y-52524819D01*
X58896476Y-52524819D02*
X58563143Y-51524819D01*
%TO.C,TP19*%
D11*
X72300000Y-47500000D02*
G75*
G02*
X70400000Y-47500000I-950000J0D01*
G01*
X70400000Y-47500000D02*
G75*
G02*
X72300000Y-47500000I950000J0D01*
G01*
%TO.C,R3*%
X71677500Y-88245276D02*
X71677500Y-88754724D01*
X72722500Y-88245276D02*
X72722500Y-88754724D01*
%TO.C,TP16*%
X105320000Y-70150000D02*
G75*
G02*
X103420000Y-70150000I-950000J0D01*
G01*
X103420000Y-70150000D02*
G75*
G02*
X105320000Y-70150000I950000J0D01*
G01*
%TO.C,TP7*%
X72070000Y-81788000D02*
G75*
G02*
X70170000Y-81788000I-950000J0D01*
G01*
X70170000Y-81788000D02*
G75*
G02*
X72070000Y-81788000I950000J0D01*
G01*
%TO.C,TP13*%
X58250000Y-34300000D02*
G75*
G02*
X54750000Y-34300000I-1750000J0D01*
G01*
X54750000Y-34300000D02*
G75*
G02*
X58250000Y-34300000I1750000J0D01*
G01*
%TO.C,TP15*%
X62050000Y-38100000D02*
G75*
G02*
X58550000Y-38100000I-1750000J0D01*
G01*
X58550000Y-38100000D02*
G75*
G02*
X62050000Y-38100000I1750000J0D01*
G01*
%TO.C,TP8*%
X72832000Y-84328000D02*
G75*
G02*
X70932000Y-84328000I-950000J0D01*
G01*
X70932000Y-84328000D02*
G75*
G02*
X72832000Y-84328000I950000J0D01*
G01*
%TO.C,TP11*%
X100800000Y-79250000D02*
G75*
G02*
X98900000Y-79250000I-950000J0D01*
G01*
X98900000Y-79250000D02*
G75*
G02*
X100800000Y-79250000I950000J0D01*
G01*
%TO.C,TP5*%
X95438000Y-98298000D02*
G75*
G02*
X93538000Y-98298000I-950000J0D01*
G01*
X93538000Y-98298000D02*
G75*
G02*
X95438000Y-98298000I950000J0D01*
G01*
%TO.C,TP4*%
X93050000Y-90000000D02*
G75*
G02*
X91150000Y-90000000I-950000J0D01*
G01*
X91150000Y-90000000D02*
G75*
G02*
X93050000Y-90000000I950000J0D01*
G01*
%TO.C,TP6*%
X63434000Y-62738000D02*
G75*
G02*
X61534000Y-62738000I-950000J0D01*
G01*
X61534000Y-62738000D02*
G75*
G02*
X63434000Y-62738000I950000J0D01*
G01*
%TO.C,TP3*%
X65758000Y-67818000D02*
G75*
G02*
X62258000Y-67818000I-1750000J0D01*
G01*
X62258000Y-67818000D02*
G75*
G02*
X65758000Y-67818000I1750000J0D01*
G01*
%TO.C,TP14*%
X59850000Y-43500000D02*
G75*
G02*
X56350000Y-43500000I-1750000J0D01*
G01*
X56350000Y-43500000D02*
G75*
G02*
X59850000Y-43500000I1750000J0D01*
G01*
%TO.C,TP9*%
X65950000Y-96500000D02*
G75*
G02*
X64050000Y-96500000I-950000J0D01*
G01*
X64050000Y-96500000D02*
G75*
G02*
X65950000Y-96500000I950000J0D01*
G01*
%TO.C,TP12*%
X103450000Y-79200000D02*
G75*
G02*
X101550000Y-79200000I-950000J0D01*
G01*
X101550000Y-79200000D02*
G75*
G02*
X103450000Y-79200000I950000J0D01*
G01*
%TO.C,TP17*%
X105550000Y-29750000D02*
G75*
G02*
X103650000Y-29750000I-950000J0D01*
G01*
X103650000Y-29750000D02*
G75*
G02*
X105550000Y-29750000I950000J0D01*
G01*
%TO.C,TP1*%
X88350000Y-57000000D02*
G75*
G02*
X84850000Y-57000000I-1750000J0D01*
G01*
X84850000Y-57000000D02*
G75*
G02*
X88350000Y-57000000I1750000J0D01*
G01*
%TO.C,TP20*%
X75550000Y-57250000D02*
G75*
G02*
X73650000Y-57250000I-950000J0D01*
G01*
X73650000Y-57250000D02*
G75*
G02*
X75550000Y-57250000I950000J0D01*
G01*
%TO.C,R4*%
X76977500Y-88554724D02*
X76977500Y-88045276D01*
X78022500Y-88554724D02*
X78022500Y-88045276D01*
%TO.C,D1*%
X50420000Y-58863000D02*
X50420000Y-65873000D01*
X50420000Y-58863000D02*
X53720000Y-58863000D01*
X53720000Y-58863000D02*
X53720000Y-65873000D01*
%TO.C,TP18*%
X82738000Y-42672000D02*
G75*
G02*
X80838000Y-42672000I-950000J0D01*
G01*
X80838000Y-42672000D02*
G75*
G02*
X82738000Y-42672000I950000J0D01*
G01*
%TO.C,TP10*%
X65950000Y-99500000D02*
G75*
G02*
X64050000Y-99500000I-950000J0D01*
G01*
X64050000Y-99500000D02*
G75*
G02*
X65950000Y-99500000I950000J0D01*
G01*
%TO.C,TP2*%
X66520000Y-52070000D02*
G75*
G02*
X63020000Y-52070000I-1750000J0D01*
G01*
X63020000Y-52070000D02*
G75*
G02*
X66520000Y-52070000I1750000J0D01*
G01*
%TD*%
M02*
