M48
; DRILL file {KiCad 9.0.2} date 2025-06-24T15:52:52+0200
; FORMAT={-:-/ absolute / metric / decimal}
; #@! TF.CreationDate,2025-06-24T15:52:52+02:00
; #@! TF.GenerationSoftware,Kicad,Pcbnew,9.0.2
; #@! TF.FileFunction,Plated,1,2,PTH
FMAT,2
METRIC
; #@! TA.AperFunction,Plated,PTH,ViaDrill
T1C0.400
; #@! TA.AperFunction,Plated,PTH,ComponentDrill
T2C0.400
; #@! TA.AperFunction,Plated,PTH,ComponentDrill
T3C0.500
; #@! TA.AperFunction,Plated,PTH,ComponentDrill
T4C0.900
; #@! TA.AperFunction,Plated,PTH,ComponentDrill
T5C1.000
; #@! TA.AperFunction,Plated,PTH,ComponentDrill
T6C1.100
; #@! TA.AperFunction,Plated,PTH,ComponentDrill
T7C1.300
; #@! TA.AperFunction,Plated,PTH,ComponentDrill
T8C1.630
; #@! TA.AperFunction,Plated,PTH,ComponentDrill
T9C3.200
%
G90
G05
T1
X4.25Y-28.5
X4.5Y-32.163
X5.25Y-62.0
X6.25Y-62.5
X7.75Y-41.5
X8.0Y-37.25
X8.0Y-43.75
X11.75Y-68.25
X12.75Y-49.25
X12.75Y-67.5
X14.0Y-54.25
X14.5Y-42.0
X15.2Y-27.6
X15.5Y-32.25
X15.83Y-59.859
X16.75Y-48.5
X17.25Y-37.75
X18.25Y-48.5
X18.25Y-53.25
X21.5Y-45.75
X22.25Y-52.25
X23.4Y-45.5
X23.75Y-39.25
X24.0Y-59.691
X24.5Y-51.5
X24.75Y-23.75
X25.75Y-55.5
X26.2Y-53.2
X26.25Y-33.5
X26.25Y-57.0
X27.0Y-58.5
X27.6Y-50.3
X28.1Y-41.0
X28.5Y-21.0
X29.0Y-31.0
X29.0Y-34.75
X29.5Y-14.5
X30.0Y-17.5
X30.25Y-44.25
X30.5Y-57.45
X32.0Y-18.8
X32.0Y-20.2
X33.0Y-8.4
X33.25Y-2.5
X34.343Y-50.264
X34.5Y-40.75
X35.4Y-30.4
X35.5Y-7.75
X36.2Y-22.6
X36.3Y-10.5
X36.725Y-52.637
X36.8Y-18.6
X37.0Y-3.0
X37.0Y-7.0
X37.0Y-47.0
X37.1Y-58.3
X38.0Y-44.75
X38.75Y-56.75
X39.0Y-6.0
X39.0Y-17.0
X39.25Y-52.25
X39.25Y-65.25
X39.75Y-48.5
X40.25Y-63.0
X40.5Y-58.5
X40.7Y-10.0
X41.0Y-30.0
X42.25Y-59.75
X42.75Y-16.25
X43.126Y-7.599
X43.75Y-37.75
X43.9Y-10.5
X43.9Y-14.4
X44.0Y-72.0
X44.5Y-62.25
X45.0Y-18.5
X45.0Y-52.0
X46.0Y-2.0
X46.0Y-16.5
X46.3Y-7.9
X46.414Y-60.952
X47.25Y-61.5
X48.137Y-70.75
X48.25Y-31.75
X49.41Y-3.467
X49.5Y-39.75
X50.0Y-14.0
X51.0Y-52.0
X51.0Y-54.75
X51.8Y-8.8
X52.0Y-34.5
X52.0Y-36.75
X52.25Y-42.25
X52.45Y-51.704
X52.75Y-50.75
X52.9Y-45.325
X53.475Y-69.35
X53.749Y-47.251
X53.75Y-30.475
X54.4Y-33.649
X55.0Y-29.75
X55.0Y-45.5
X55.0Y-70.5
X55.005Y-46.505
X55.05Y-42.0
X55.175Y-35.175
X55.3Y-63.9
X55.4Y-67.6
X56.4Y-29.7
X57.0Y-37.0
X57.25Y-13.75
X57.5Y-51.5
X57.5Y-52.75
X57.75Y-72.0
X57.8Y-8.0
X58.0Y-38.0
X58.152Y-41.99
X58.4Y-45.6
X59.0Y-37.0
X59.0Y-38.75
X59.0Y-69.0
X59.38Y-45.02
X59.4Y-64.0
X59.5Y-30.25
X59.946Y-43.433
X60.2Y-44.4
X61.0Y-2.0
X61.0Y-43.6
X61.2Y-46.3
X61.5Y-31.75
X61.805Y-40.195
X62.0Y-41.75
X62.0Y-67.6
X62.5Y-69.75
X62.7Y-59.4
X63.2Y-61.6
X63.5Y-44.25
X63.5Y-67.75
X64.0Y-29.75
X64.1Y-36.999
X64.6Y-64.2
X65.0Y-33.25
X65.0Y-43.0
X65.0Y-50.25
X65.25Y-60.75
X66.0Y-46.25
X66.5Y-25.5
X67.0Y-62.4
X67.5Y-68.5
X67.75Y-52.0
X68.0Y-19.0
X68.5Y-22.0
X68.5Y-30.0
X69.0Y-28.5
X69.25Y-39.75
X69.5Y-37.5
X69.5Y-62.5
X70.21Y-64.28
X70.5Y-49.675
X70.6Y-35.0
X72.0Y-52.5
X72.0Y-57.75
X72.0Y-61.5
X72.25Y-64.5
X73.2Y-30.0
X73.5Y-42.5
T2
X64.585Y-55.557
X64.585Y-57.082
X65.347Y-54.795
X65.347Y-56.32
X65.347Y-57.845
X66.11Y-55.557
X66.11Y-57.082
X66.873Y-54.795
X66.873Y-56.32
X66.873Y-57.845
X67.635Y-55.557
X67.635Y-57.082
T3
X1.6Y-4.0
X1.6Y-71.0
X2.303Y-2.303
X2.303Y-5.697
X2.303Y-69.303
X2.303Y-72.697
X4.0Y-1.6
X4.0Y-6.4
X4.0Y-68.6
X4.0Y-73.4
X5.697Y-2.303
X5.697Y-5.697
X5.697Y-69.303
X5.697Y-72.697
X6.4Y-4.0
X6.4Y-71.0
X68.6Y-71.0
X69.303Y-69.303
X69.303Y-72.697
X71.0Y-68.6
X71.0Y-73.4
X72.697Y-69.303
X72.697Y-72.697
X73.4Y-71.0
T4
X59.91Y-15.555
X59.91Y-18.095
X59.91Y-20.635
X59.91Y-23.175
X59.91Y-25.715
X62.45Y-14.285
X62.45Y-16.825
X62.45Y-19.365
X62.45Y-21.905
X62.45Y-24.445
T5
X11.0Y-19.0
X23.0Y-19.0
X33.825Y-13.6
X33.825Y-16.14
X33.825Y-18.68
X33.825Y-21.22
X33.825Y-56.7
X33.825Y-59.24
X33.825Y-61.78
X52.0Y-73.5
X54.54Y-73.5
X57.08Y-73.5
X59.62Y-73.5
X62.16Y-73.5
X64.7Y-73.5
T6
X3.6Y-35.56
X3.6Y-38.1
X3.6Y-40.64
X3.6Y-43.18
X3.6Y-45.72
X3.6Y-48.26
X4.0Y-12.0
X4.0Y-14.54
X72.89Y-13.371
X72.89Y-15.911
X72.89Y-24.089
X72.89Y-26.629
T7
X10.95Y-6.75
X16.95Y-20.95
X23.0Y-6.8
T8
X65.752Y-12.253
X65.752Y-27.747
T9
X4.0Y-4.0
X4.0Y-71.0
X71.0Y-71.0
M30
