%TF.GenerationSoftware,KiCad,Pcbnew,(7.0.0)*%
%TF.CreationDate,2023-03-14T22:36:42+01:00*%
%TF.ProjectId,Zamkonator,5a616d6b-6f6e-4617-946f-722e6b696361,rev?*%
%TF.SameCoordinates,Original*%
%TF.FileFunction,Soldermask,Bot*%
%TF.FilePolarity,Negative*%
%FSLAX46Y46*%
G04 Gerber Fmt 4.6, Leading zero omitted, Abs format (unit mm)*
G04 Created by KiCad (PCBNEW (7.0.0)) date 2023-03-14 22:36:42*
%MOMM*%
%LPD*%
G01*
G04 APERTURE LIST*
G04 Aperture macros list*
%AMRoundRect*
0 Rectangle with rounded corners*
0 $1 Rounding radius*
0 $2 $3 $4 $5 $6 $7 $8 $9 X,Y pos of 4 corners*
0 Add a 4 corners polygon primitive as box body*
4,1,4,$2,$3,$4,$5,$6,$7,$8,$9,$2,$3,0*
0 Add four circle primitives for the rounded corners*
1,1,$1+$1,$2,$3*
1,1,$1+$1,$4,$5*
1,1,$1+$1,$6,$7*
1,1,$1+$1,$8,$9*
0 Add four rect primitives between the rounded corners*
20,1,$1+$1,$2,$3,$4,$5,0*
20,1,$1+$1,$4,$5,$6,$7,0*
20,1,$1+$1,$6,$7,$8,$9,0*
20,1,$1+$1,$8,$9,$2,$3,0*%
%AMFreePoly0*
4,1,19,0.500000,-0.750000,0.000000,-0.750000,0.000000,-0.744911,-0.071157,-0.744911,-0.207708,-0.704816,-0.327430,-0.627875,-0.420627,-0.520320,-0.479746,-0.390866,-0.500000,-0.250000,-0.500000,0.250000,-0.479746,0.390866,-0.420627,0.520320,-0.327430,0.627875,-0.207708,0.704816,-0.071157,0.744911,0.000000,0.744911,0.000000,0.750000,0.500000,0.750000,0.500000,-0.750000,0.500000,-0.750000,
$1*%
%AMFreePoly1*
4,1,19,0.000000,0.744911,0.071157,0.744911,0.207708,0.704816,0.327430,0.627875,0.420627,0.520320,0.479746,0.390866,0.500000,0.250000,0.500000,-0.250000,0.479746,-0.390866,0.420627,-0.520320,0.327430,-0.627875,0.207708,-0.704816,0.071157,-0.744911,0.000000,-0.744911,0.000000,-0.750000,-0.500000,-0.750000,-0.500000,0.750000,0.000000,0.750000,0.000000,0.744911,0.000000,0.744911,
$1*%
G04 Aperture macros list end*
%ADD10C,3.000000*%
%ADD11C,2.500000*%
%ADD12C,3.250000*%
%ADD13R,1.500000X1.500000*%
%ADD14C,1.500000*%
%ADD15C,1.600000*%
%ADD16C,2.029000*%
%ADD17C,0.800000*%
%ADD18C,6.400000*%
%ADD19R,1.700000X1.700000*%
%ADD20O,1.700000X1.700000*%
%ADD21C,1.100000*%
%ADD22R,2.200000X2.200000*%
%ADD23C,2.200000*%
%ADD24RoundRect,0.237500X-0.237500X0.250000X-0.237500X-0.250000X0.237500X-0.250000X0.237500X0.250000X0*%
%ADD25FreePoly0,0.000000*%
%ADD26FreePoly1,0.000000*%
%ADD27RoundRect,0.237500X0.237500X-0.250000X0.237500X0.250000X-0.237500X0.250000X-0.237500X-0.250000X0*%
G04 APERTURE END LIST*
D10*
%TO.C,K1*%
X16950000Y-20950000D03*
D11*
X23000000Y-19000000D03*
D10*
X23000000Y-6800000D03*
X10950000Y-6750000D03*
D11*
X11000000Y-19000000D03*
%TD*%
D12*
%TO.C,RJ1*%
X64000000Y-14300000D03*
X64000000Y-25700000D03*
D13*
X72889999Y-14284999D03*
D14*
X70350000Y-15555000D03*
X72890000Y-16825000D03*
X70350000Y-18095000D03*
X72890000Y-19365000D03*
X70350000Y-20635000D03*
X72890000Y-21905000D03*
X70350000Y-23175000D03*
X72890000Y-24445000D03*
X70350000Y-25715000D03*
D15*
X59910000Y-13371000D03*
X59910000Y-15911000D03*
X59910000Y-24089000D03*
X59910000Y-26629000D03*
D16*
X67048000Y-12253000D03*
X67048000Y-27747000D03*
%TD*%
D17*
%TO.C,H3*%
X1600000Y-71000000D03*
X5697056Y-69302944D03*
X2302944Y-69302944D03*
X2302944Y-72697056D03*
D18*
X4000000Y-71000000D03*
D17*
X4000000Y-73400000D03*
X6400000Y-71000000D03*
X4000000Y-68600000D03*
X5697056Y-72697056D03*
%TD*%
D19*
%TO.C,J3*%
X64624999Y-72749999D03*
D20*
X62084999Y-72749999D03*
X59544999Y-72749999D03*
X57004999Y-72749999D03*
X54464999Y-72749999D03*
X51924999Y-72749999D03*
X49384999Y-72749999D03*
X46844999Y-72749999D03*
%TD*%
D21*
%TO.C,J_LATCH1*%
X1460000Y-14540000D03*
X1460000Y-12000000D03*
D22*
X3999999Y-11999999D03*
D23*
X4000000Y-14540000D03*
%TD*%
D17*
%TO.C,H4*%
X1600000Y-4000000D03*
X6400000Y-4000000D03*
X5697056Y-2302944D03*
X4000000Y-1600000D03*
X5697056Y-5697056D03*
D18*
X4000000Y-4000000D03*
D17*
X4000000Y-6400000D03*
X2302944Y-2302944D03*
X2302944Y-5697056D03*
%TD*%
%TO.C,H2*%
X72697056Y-69302944D03*
X68600000Y-71000000D03*
X71000000Y-73400000D03*
X72697056Y-72697056D03*
D18*
X71000000Y-71000000D03*
D17*
X71000000Y-68600000D03*
X69302944Y-69302944D03*
X69302944Y-72697056D03*
X73400000Y-71000000D03*
%TD*%
D19*
%TO.C,J4*%
X27149999Y-72524999D03*
D20*
X27149999Y-69984999D03*
X29689999Y-72524999D03*
X29689999Y-69984999D03*
X32229999Y-72524999D03*
X32229999Y-69984999D03*
X34769999Y-72524999D03*
X34769999Y-69984999D03*
X37309999Y-72524999D03*
X37309999Y-69984999D03*
X39849999Y-72524999D03*
X39849999Y-69984999D03*
%TD*%
D17*
%TO.C,H1*%
X73400000Y-4000000D03*
D18*
X71000000Y-4000000D03*
D17*
X69302944Y-2302944D03*
X72697056Y-2302944D03*
X71000000Y-6400000D03*
X72697056Y-5697056D03*
X68600000Y-4000000D03*
X71000000Y-1600000D03*
X69302944Y-5697056D03*
%TD*%
D19*
%TO.C,J5*%
X33824999Y-13599999D03*
D20*
X33824999Y-16139999D03*
X33824999Y-18679999D03*
X33824999Y-21219999D03*
%TD*%
D19*
%TO.C,J6*%
X33824999Y-56699999D03*
D20*
X33824999Y-59239999D03*
X33824999Y-61779999D03*
%TD*%
D22*
%TO.C,J1*%
X3599999Y-35559999D03*
D23*
X3600000Y-38100000D03*
X3600000Y-40640000D03*
X3600000Y-43180000D03*
X3600000Y-45720000D03*
X3600000Y-48260000D03*
%TD*%
D24*
%TO.C,R34*%
X31100000Y-60087500D03*
X31100000Y-61912500D03*
%TD*%
D14*
%TO.C,TP5*%
X63270000Y-42650000D03*
%TD*%
%TO.C,TP10*%
X26600000Y-60800000D03*
%TD*%
%TO.C,TP8*%
X51200000Y-52600000D03*
%TD*%
D10*
%TO.C,TP13*%
X15400000Y-6800000D03*
%TD*%
%TO.C,TP12*%
X19200000Y-10600000D03*
%TD*%
%TO.C,TP6*%
X15200000Y-39600000D03*
%TD*%
D25*
%TO.C,JP1*%
X21850000Y-72750000D03*
D26*
X23150000Y-72750000D03*
%TD*%
D14*
%TO.C,TP7*%
X55200000Y-52800000D03*
%TD*%
D10*
%TO.C,TP14*%
X17000000Y-16000000D03*
%TD*%
D14*
%TO.C,TP9*%
X33200000Y-66400000D03*
%TD*%
D10*
%TO.C,TP1*%
X39400000Y-59400000D03*
%TD*%
D27*
%TO.C,R35*%
X36400000Y-61712500D03*
X36400000Y-59887500D03*
%TD*%
D14*
%TO.C,TP11*%
X24000000Y-65000000D03*
%TD*%
%TO.C,TP3*%
X62600000Y-52600000D03*
%TD*%
D10*
%TO.C,TP2*%
X29400000Y-48000000D03*
%TD*%
D14*
%TO.C,TP4*%
X22600000Y-35200000D03*
%TD*%
M02*
