%TF.GenerationSoftware,KiCad,Pcbnew,10.0.3*%
%TF.CreationDate,2026-05-26T13:40:20+02:00*%
%TF.ProjectId,Zamkonator,5a616d6b-6f6e-4617-946f-722e6b696361,rev?*%
%TF.SameCoordinates,Original*%
%TF.FileFunction,Paste,Top*%
%TF.FilePolarity,Positive*%
%FSLAX46Y46*%
G04 Gerber Fmt 4.6, Leading zero omitted, Abs format (unit mm)*
G04 Created by KiCad (PCBNEW 10.0.3) date 2026-05-26 13:40:20*
%MOMM*%
%LPD*%
G01*
G04 APERTURE LIST*
G04 Aperture macros list*
%AMRoundRect*
0 Rectangle with rounded corners*
0 $1 Rounding radius*
0 $2 $3 $4 $5 $6 $7 $8 $9 X,Y pos of 4 corners*
0 Add a 4 corners polygon primitive as box body*
4,1,4,$2,$3,$4,$5,$6,$7,$8,$9,$2,$3,0*
0 Add four circle primitives for the rounded corners*
1,1,$1+$1,$2,$3*
1,1,$1+$1,$4,$5*
1,1,$1+$1,$6,$7*
1,1,$1+$1,$8,$9*
0 Add four rect primitives between the rounded corners*
20,1,$1+$1,$2,$3,$4,$5,0*
20,1,$1+$1,$4,$5,$6,$7,0*
20,1,$1+$1,$6,$7,$8,$9,0*
20,1,$1+$1,$8,$9,$2,$3,0*%
%AMOutline4P*
0 Free polygon, 4 corners , with rotation*
0 The origin of the aperture is its center*
0 number of corners: always 4*
0 $1 to $8 corner X, Y*
0 $9 Rotation angle, in degrees counterclockwise*
0 create outline with 4 corners*
4,1,4,$1,$2,$3,$4,$5,$6,$7,$8,$1,$2,$9*%
G04 Aperture macros list end*
%ADD10R,0.600000X1.150000*%
%ADD11R,0.300000X1.150000*%
%ADD12R,1.500000X1.500000*%
%ADD13RoundRect,0.218750X-0.218750X-0.256250X0.218750X-0.256250X0.218750X0.256250X-0.218750X0.256250X0*%
%ADD14RoundRect,0.112500X0.187500X0.112500X-0.187500X0.112500X-0.187500X-0.112500X0.187500X-0.112500X0*%
%ADD15RoundRect,0.225000X0.225000X0.250000X-0.225000X0.250000X-0.225000X-0.250000X0.225000X-0.250000X0*%
%ADD16RoundRect,0.237500X-0.250000X-0.237500X0.250000X-0.237500X0.250000X0.237500X-0.250000X0.237500X0*%
%ADD17RoundRect,0.112500X0.112500X-0.187500X0.112500X0.187500X-0.112500X0.187500X-0.112500X-0.187500X0*%
%ADD18RoundRect,0.237500X0.250000X0.237500X-0.250000X0.237500X-0.250000X-0.237500X0.250000X-0.237500X0*%
%ADD19RoundRect,0.237500X0.237500X-0.300000X0.237500X0.300000X-0.237500X0.300000X-0.237500X-0.300000X0*%
%ADD20RoundRect,0.218750X0.218750X0.256250X-0.218750X0.256250X-0.218750X-0.256250X0.218750X-0.256250X0*%
%ADD21RoundRect,0.112500X-0.187500X-0.112500X0.187500X-0.112500X0.187500X0.112500X-0.187500X0.112500X0*%
%ADD22RoundRect,0.237500X-0.300000X-0.237500X0.300000X-0.237500X0.300000X0.237500X-0.300000X0.237500X0*%
%ADD23RoundRect,0.237500X-0.237500X0.300000X-0.237500X-0.300000X0.237500X-0.300000X0.237500X0.300000X0*%
%ADD24RoundRect,0.237500X0.237500X-0.250000X0.237500X0.250000X-0.237500X0.250000X-0.237500X-0.250000X0*%
%ADD25R,1.800000X3.500000*%
%ADD26RoundRect,0.150000X-0.587500X-0.150000X0.587500X-0.150000X0.587500X0.150000X-0.587500X0.150000X0*%
%ADD27RoundRect,0.237500X0.300000X0.237500X-0.300000X0.237500X-0.300000X-0.237500X0.300000X-0.237500X0*%
%ADD28RoundRect,0.250000X1.000000X-1.950000X1.000000X1.950000X-1.000000X1.950000X-1.000000X-1.950000X0*%
%ADD29RoundRect,0.200000X-0.275000X0.200000X-0.275000X-0.200000X0.275000X-0.200000X0.275000X0.200000X0*%
%ADD30RoundRect,0.150000X-0.675000X-0.150000X0.675000X-0.150000X0.675000X0.150000X-0.675000X0.150000X0*%
%ADD31RoundRect,0.250000X-0.450000X0.325000X-0.450000X-0.325000X0.450000X-0.325000X0.450000X0.325000X0*%
%ADD32RoundRect,0.237500X-0.237500X0.250000X-0.237500X-0.250000X0.237500X-0.250000X0.237500X0.250000X0*%
%ADD33R,0.650000X2.000000*%
%ADD34RoundRect,0.225000X-0.225000X-0.250000X0.225000X-0.250000X0.225000X0.250000X-0.225000X0.250000X0*%
%ADD35R,0.900000X1.200000*%
%ADD36RoundRect,0.150000X0.675000X0.150000X-0.675000X0.150000X-0.675000X-0.150000X0.675000X-0.150000X0*%
%ADD37Outline4P,-2.150000X-1.800000X2.150000X-0.800000X2.150000X0.800000X-2.150000X1.800000X180.000000*%
%ADD38Outline4P,-2.150000X-1.800000X2.150000X-0.800000X2.150000X0.800000X-2.150000X1.800000X0.000000*%
%ADD39RoundRect,0.250000X1.500000X0.650000X-1.500000X0.650000X-1.500000X-0.650000X1.500000X-0.650000X0*%
%ADD40R,1.000000X0.900000*%
%ADD41RoundRect,0.165000X-0.165000X0.165000X-0.165000X-0.165000X0.165000X-0.165000X0.165000X0.165000X0*%
%ADD42RoundRect,0.062500X-0.062500X0.325000X-0.062500X-0.325000X0.062500X-0.325000X0.062500X0.325000X0*%
%ADD43RoundRect,0.062500X-0.325000X0.062500X-0.325000X-0.062500X0.325000X-0.062500X0.325000X0.062500X0*%
%ADD44RoundRect,0.222500X-0.222500X0.222500X-0.222500X-0.222500X0.222500X-0.222500X0.222500X0.222500X0*%
%ADD45RoundRect,0.062500X-0.062500X0.375000X-0.062500X-0.375000X0.062500X-0.375000X0.062500X0.375000X0*%
%ADD46RoundRect,0.062500X-0.375000X0.062500X-0.375000X-0.062500X0.375000X-0.062500X0.375000X0.062500X0*%
%ADD47R,0.700000X1.600000*%
%ADD48R,1.200000X1.500000*%
%ADD49R,1.200000X2.200000*%
%ADD50R,1.600000X1.500000*%
%ADD51RoundRect,0.250000X-0.315000X0.315000X-0.315000X-0.315000X0.315000X-0.315000X0.315000X0.315000X0*%
%ADD52RoundRect,0.062500X-0.062500X0.362500X-0.062500X-0.362500X0.062500X-0.362500X0.062500X0.362500X0*%
%ADD53RoundRect,0.062500X-0.362500X0.062500X-0.362500X-0.062500X0.362500X-0.062500X0.362500X0.062500X0*%
%ADD54RoundRect,0.250000X0.275000X-0.275000X0.275000X0.275000X-0.275000X0.275000X-0.275000X-0.275000X0*%
%ADD55RoundRect,0.062500X0.062500X-0.350000X0.062500X0.350000X-0.062500X0.350000X-0.062500X-0.350000X0*%
%ADD56RoundRect,0.062500X0.350000X-0.062500X0.350000X0.062500X-0.350000X0.062500X-0.350000X-0.062500X0*%
%ADD57RoundRect,0.150000X0.150000X-0.587500X0.150000X0.587500X-0.150000X0.587500X-0.150000X-0.587500X0*%
%ADD58RoundRect,0.200000X0.275000X-0.200000X0.275000X0.200000X-0.275000X0.200000X-0.275000X-0.200000X0*%
%ADD59RoundRect,0.250000X-0.550000X1.500000X-0.550000X-1.500000X0.550000X-1.500000X0.550000X1.500000X0*%
%ADD60RoundRect,0.250000X-0.650000X0.412500X-0.650000X-0.412500X0.650000X-0.412500X0.650000X0.412500X0*%
%ADD61RoundRect,0.150000X0.150000X-0.675000X0.150000X0.675000X-0.150000X0.675000X-0.150000X-0.675000X0*%
%ADD62RoundRect,0.250000X-1.500000X-0.650000X1.500000X-0.650000X1.500000X0.650000X-1.500000X0.650000X0*%
%ADD63R,0.900000X1.500000*%
%ADD64R,1.500000X0.900000*%
%ADD65R,1.050000X1.050000*%
%ADD66RoundRect,0.150000X-0.150000X0.512500X-0.150000X-0.512500X0.150000X-0.512500X0.150000X0.512500X0*%
%ADD67R,1.270000X2.540000*%
%ADD68RoundRect,0.150000X-0.150000X0.587500X-0.150000X-0.587500X0.150000X-0.587500X0.150000X0.587500X0*%
%ADD69R,2.844800X2.057400*%
G04 APERTURE END LIST*
D10*
%TO.C,USB1*%
X93795000Y-121500000D03*
X94595000Y-121500000D03*
X100195000Y-121500000D03*
X99395000Y-121500000D03*
D11*
X98745000Y-121500000D03*
X95245000Y-121500000D03*
X97745000Y-121500000D03*
X97245000Y-121500000D03*
X96745000Y-121500000D03*
X96245000Y-121500000D03*
X95745000Y-121500000D03*
X98245000Y-121500000D03*
D12*
X91875000Y-122070000D03*
X102115000Y-122070000D03*
X102115000Y-126000000D03*
X91875000Y-126000000D03*
%TD*%
D13*
%TO.C,D3*%
X50675750Y-126249250D03*
X52250750Y-126249250D03*
%TD*%
D14*
%TO.C,D12*%
X87650000Y-87750000D03*
X85550000Y-87750000D03*
%TD*%
D15*
%TO.C,C39*%
X104775000Y-114000000D03*
X103225000Y-114000000D03*
%TD*%
D16*
%TO.C,R19*%
X78687500Y-38150000D03*
X80512500Y-38150000D03*
%TD*%
D17*
%TO.C,D11*%
X72350000Y-75800000D03*
X72350000Y-73700000D03*
%TD*%
D18*
%TO.C,R22*%
X84612500Y-30000000D03*
X82787500Y-30000000D03*
%TD*%
D19*
%TO.C,C34*%
X107350000Y-73112500D03*
X107350000Y-71387500D03*
%TD*%
D20*
%TO.C,L3*%
X95529500Y-38100000D03*
X93954500Y-38100000D03*
%TD*%
D21*
%TO.C,D19*%
X52200000Y-82250000D03*
X54300000Y-82250000D03*
%TD*%
D16*
%TO.C,R30*%
X82907500Y-79009667D03*
X84732500Y-79009667D03*
%TD*%
%TO.C,R20*%
X82757500Y-31856165D03*
X84582500Y-31856165D03*
%TD*%
D21*
%TO.C,D15*%
X52036000Y-103296800D03*
X54136000Y-103296800D03*
%TD*%
D22*
%TO.C,C10*%
X103487500Y-57500000D03*
X105212500Y-57500000D03*
%TD*%
%TO.C,C9*%
X103487500Y-62750000D03*
X105212500Y-62750000D03*
%TD*%
%TO.C,C19*%
X88637500Y-40700000D03*
X90362500Y-40700000D03*
%TD*%
D23*
%TO.C,C23*%
X75100000Y-59837500D03*
X75100000Y-61562500D03*
%TD*%
D24*
%TO.C,R7*%
X53749250Y-119999750D03*
X53749250Y-118174750D03*
%TD*%
D25*
%TO.C,D10*%
X86850000Y-72750000D03*
X86850000Y-67750000D03*
%TD*%
D26*
%TO.C,Q2*%
X83625000Y-114050000D03*
X83625000Y-115950000D03*
X85500000Y-115000000D03*
%TD*%
D22*
%TO.C,C7*%
X95737500Y-57500000D03*
X97462500Y-57500000D03*
%TD*%
D21*
%TO.C,D13*%
X52002000Y-108844000D03*
X54102000Y-108844000D03*
%TD*%
D23*
%TO.C,C25*%
X89600000Y-71137500D03*
X89600000Y-72862500D03*
%TD*%
%TO.C,C17*%
X81100000Y-29887500D03*
X81100000Y-31612500D03*
%TD*%
%TO.C,C20*%
X92202000Y-39269500D03*
X92202000Y-40994500D03*
%TD*%
D27*
%TO.C,C32*%
X84682500Y-77343000D03*
X82957500Y-77343000D03*
%TD*%
D22*
%TO.C,C6*%
X103487500Y-61000000D03*
X105212500Y-61000000D03*
%TD*%
D28*
%TO.C,C16*%
X72100000Y-39200000D03*
X72100000Y-30800000D03*
%TD*%
D24*
%TO.C,R24*%
X68200000Y-57512500D03*
X68200000Y-55687500D03*
%TD*%
%TO.C,R6*%
X51971250Y-119999750D03*
X51971250Y-118174750D03*
%TD*%
D29*
%TO.C,R50*%
X89500000Y-122675000D03*
X89500000Y-124325000D03*
%TD*%
D30*
%TO.C,U10*%
X56311000Y-99958500D03*
X56311000Y-101228500D03*
X62561000Y-101228500D03*
X62561000Y-99958500D03*
%TD*%
D22*
%TO.C,C31*%
X82957500Y-82343000D03*
X84682500Y-82343000D03*
%TD*%
D20*
%TO.C,L1*%
X105137500Y-66500000D03*
X103562500Y-66500000D03*
%TD*%
D18*
%TO.C,R28*%
X68312500Y-62100000D03*
X66487500Y-62100000D03*
%TD*%
D26*
%TO.C,Q3*%
X83625000Y-109050000D03*
X83625000Y-110950000D03*
X85500000Y-110000000D03*
%TD*%
D31*
%TO.C,L4*%
X83700000Y-66975000D03*
X83700000Y-69025000D03*
%TD*%
D32*
%TO.C,R23*%
X91440000Y-35663500D03*
X91440000Y-37488500D03*
%TD*%
D22*
%TO.C,C8*%
X103487500Y-64500000D03*
X105212500Y-64500000D03*
%TD*%
%TO.C,C35*%
X99737500Y-69250000D03*
X101462500Y-69250000D03*
%TD*%
D33*
%TO.C,D6*%
X105300000Y-69250000D03*
X103400000Y-69250000D03*
X104350000Y-72670000D03*
%TD*%
D18*
%TO.C,R9*%
X101512500Y-67500000D03*
X99687500Y-67500000D03*
%TD*%
D22*
%TO.C,C18*%
X82807500Y-33856165D03*
X84532500Y-33856165D03*
%TD*%
D32*
%TO.C,R25*%
X89600000Y-67337500D03*
X89600000Y-69162500D03*
%TD*%
D23*
%TO.C,C4*%
X107350000Y-67887500D03*
X107350000Y-69612500D03*
%TD*%
D16*
%TO.C,R18*%
X79175000Y-36300000D03*
X81000000Y-36300000D03*
%TD*%
D18*
%TO.C,R13*%
X97512500Y-54000000D03*
X95687500Y-54000000D03*
%TD*%
D34*
%TO.C,C41*%
X103225000Y-118000000D03*
X104775000Y-118000000D03*
%TD*%
D35*
%TO.C,D9*%
X80200000Y-42500000D03*
X83500000Y-42500000D03*
%TD*%
D18*
%TO.C,R34*%
X68412500Y-109000000D03*
X66587500Y-109000000D03*
%TD*%
D27*
%TO.C,C2*%
X69162500Y-73900000D03*
X67437500Y-73900000D03*
%TD*%
D18*
%TO.C,R12*%
X97512500Y-48750000D03*
X95687500Y-48750000D03*
%TD*%
D16*
%TO.C,R1*%
X95353500Y-94996000D03*
X97178500Y-94996000D03*
%TD*%
D32*
%TO.C,R33*%
X86847500Y-93385500D03*
X86847500Y-95210500D03*
%TD*%
D22*
%TO.C,C1*%
X67437500Y-85500000D03*
X69162500Y-85500000D03*
%TD*%
D27*
%TO.C,C30*%
X75712500Y-80250000D03*
X73987500Y-80250000D03*
%TD*%
D36*
%TO.C,U9*%
X62561000Y-105092250D03*
X62561000Y-103822250D03*
X56311000Y-103822250D03*
X56311000Y-105092250D03*
%TD*%
D37*
%TO.C,D7*%
X105900000Y-32900000D03*
D38*
X99500000Y-32900000D03*
%TD*%
D18*
%TO.C,R29*%
X84732500Y-80676333D03*
X82907500Y-80676333D03*
%TD*%
D30*
%TO.C,U11*%
X56311000Y-96079750D03*
X56311000Y-97349750D03*
X62561000Y-97349750D03*
X62561000Y-96079750D03*
%TD*%
D16*
%TO.C,R17*%
X79175000Y-39900000D03*
X81000000Y-39900000D03*
%TD*%
D18*
%TO.C,R11*%
X97512500Y-50500000D03*
X95687500Y-50500000D03*
%TD*%
%TO.C,R37*%
X53976000Y-100743200D03*
X52151000Y-100743200D03*
%TD*%
D39*
%TO.C,D20*%
X63700000Y-52600000D03*
X58700000Y-52600000D03*
%TD*%
D17*
%TO.C,D17*%
X54102000Y-70392000D03*
X54102000Y-68292000D03*
%TD*%
D30*
%TO.C,U14*%
X56311000Y-85230000D03*
X56311000Y-86500000D03*
X62561000Y-86500000D03*
X62561000Y-85230000D03*
%TD*%
D40*
%TO.C,X1*%
X82360000Y-95623000D03*
X84510000Y-95623000D03*
X84510000Y-94073000D03*
X82360000Y-94073000D03*
%TD*%
D14*
%TO.C,D14*%
X54091000Y-106070400D03*
X51991000Y-106070400D03*
%TD*%
D41*
%TO.C,U1*%
X67657500Y-76930000D03*
X66837500Y-76930000D03*
X66017500Y-76930000D03*
X67657500Y-77750000D03*
X66837500Y-77750000D03*
X66017500Y-77750000D03*
X67657500Y-78570000D03*
X66837500Y-78570000D03*
X66017500Y-78570000D03*
D42*
X68087500Y-75762500D03*
X67587500Y-75762500D03*
X67087500Y-75762500D03*
X66587500Y-75762500D03*
X66087500Y-75762500D03*
X65587500Y-75762500D03*
D43*
X64850000Y-76500000D03*
X64850000Y-77000000D03*
X64850000Y-77500000D03*
X64850000Y-78000000D03*
X64850000Y-78500000D03*
X64850000Y-79000000D03*
D42*
X65587500Y-79737500D03*
X66087500Y-79737500D03*
X66587500Y-79737500D03*
X67087500Y-79737500D03*
X67587500Y-79737500D03*
X68087500Y-79737500D03*
D43*
X68825000Y-79000000D03*
X68825000Y-78500000D03*
X68825000Y-78000000D03*
X68825000Y-77500000D03*
X68825000Y-77000000D03*
X68825000Y-76500000D03*
%TD*%
D36*
%TO.C,U8*%
X62561000Y-108971000D03*
X62561000Y-107701000D03*
X56311000Y-107701000D03*
X56311000Y-108971000D03*
%TD*%
D16*
%TO.C,R43*%
X57253500Y-56642000D03*
X59078500Y-56642000D03*
%TD*%
D44*
%TO.C,U2*%
X100200000Y-61712500D03*
X99100000Y-61712500D03*
X98000000Y-61712500D03*
X100200000Y-62812500D03*
X99100000Y-62812500D03*
X98000000Y-62812500D03*
X100200000Y-63912500D03*
X99100000Y-63912500D03*
X98000000Y-63912500D03*
D45*
X100850000Y-60375000D03*
X100350000Y-60375000D03*
X99850000Y-60375000D03*
X99350000Y-60375000D03*
X98850000Y-60375000D03*
X98350000Y-60375000D03*
X97850000Y-60375000D03*
X97350000Y-60375000D03*
D46*
X96662500Y-61062500D03*
X96662500Y-61562500D03*
X96662500Y-62062500D03*
X96662500Y-62562500D03*
X96662500Y-63062500D03*
X96662500Y-63562500D03*
X96662500Y-64062500D03*
X96662500Y-64562500D03*
D45*
X97350000Y-65250000D03*
X97850000Y-65250000D03*
X98350000Y-65250000D03*
X98850000Y-65250000D03*
X99350000Y-65250000D03*
X99850000Y-65250000D03*
X100350000Y-65250000D03*
X100850000Y-65250000D03*
D46*
X101537500Y-64562500D03*
X101537500Y-64062500D03*
X101537500Y-63562500D03*
X101537500Y-63062500D03*
X101537500Y-62562500D03*
X101537500Y-62062500D03*
X101537500Y-61562500D03*
X101537500Y-61062500D03*
%TD*%
D24*
%TO.C,R32*%
X80247500Y-95810500D03*
X80247500Y-93985500D03*
%TD*%
D35*
%TO.C,D8*%
X89280000Y-43688000D03*
X85980000Y-43688000D03*
%TD*%
D16*
%TO.C,R44*%
X57253500Y-58674000D03*
X59078500Y-58674000D03*
%TD*%
D23*
%TO.C,C21*%
X78300000Y-42037500D03*
X78300000Y-43762500D03*
%TD*%
D32*
%TO.C,R38*%
X63500000Y-91087500D03*
X63500000Y-92912500D03*
%TD*%
D47*
%TO.C,J3*%
X66000000Y-112400000D03*
X64900000Y-112400000D03*
X63800000Y-112400000D03*
X62700000Y-112400000D03*
X61600000Y-112400000D03*
X60500000Y-112400000D03*
X59400000Y-112400000D03*
X58300000Y-112400000D03*
X57200000Y-112400000D03*
D48*
X56000000Y-113400000D03*
D49*
X56000000Y-123000000D03*
D50*
X70600000Y-113400000D03*
D49*
X71500000Y-123000000D03*
%TD*%
D18*
%TO.C,R16*%
X115012500Y-57750000D03*
X113187500Y-57750000D03*
%TD*%
D24*
%TO.C,R36*%
X67000000Y-92912500D03*
X67000000Y-91087500D03*
%TD*%
D22*
%TO.C,C33*%
X85737500Y-85250000D03*
X87462500Y-85250000D03*
%TD*%
D21*
%TO.C,D18*%
X51500000Y-77500000D03*
X53600000Y-77500000D03*
%TD*%
D24*
%TO.C,R40*%
X51816000Y-70254500D03*
X51816000Y-68429500D03*
%TD*%
D16*
%TO.C,R27*%
X66487500Y-59800000D03*
X68312500Y-59800000D03*
%TD*%
%TO.C,R10*%
X103437500Y-59250000D03*
X105262500Y-59250000D03*
%TD*%
D18*
%TO.C,R35*%
X68412500Y-105000000D03*
X66587500Y-105000000D03*
%TD*%
D22*
%TO.C,C37*%
X82322500Y-97598000D03*
X84047500Y-97598000D03*
%TD*%
D24*
%TO.C,R8*%
X94600000Y-61662500D03*
X94600000Y-59837500D03*
%TD*%
D51*
%TO.C,U3*%
X85620000Y-37556165D03*
X84320000Y-37556165D03*
X85620000Y-38856165D03*
X84320000Y-38856165D03*
D52*
X85970000Y-36281165D03*
X85470000Y-36281165D03*
X84970000Y-36281165D03*
X84470000Y-36281165D03*
X83970000Y-36281165D03*
D53*
X83045000Y-37206165D03*
X83045000Y-37706165D03*
X83045000Y-38206165D03*
X83045000Y-38706165D03*
X83045000Y-39206165D03*
D52*
X83970000Y-40131165D03*
X84470000Y-40131165D03*
X84970000Y-40131165D03*
X85470000Y-40131165D03*
X85970000Y-40131165D03*
D53*
X86895000Y-39206165D03*
X86895000Y-38706165D03*
X86895000Y-38206165D03*
X86895000Y-37706165D03*
X86895000Y-37206165D03*
%TD*%
D29*
%TO.C,R49*%
X87000000Y-111675000D03*
X87000000Y-113325000D03*
%TD*%
D22*
%TO.C,C24*%
X69337500Y-63800000D03*
X71062500Y-63800000D03*
%TD*%
D32*
%TO.C,R21*%
X88646000Y-35409500D03*
X88646000Y-37234500D03*
%TD*%
D21*
%TO.C,D16*%
X52036000Y-98189600D03*
X54136000Y-98189600D03*
%TD*%
D18*
%TO.C,R41*%
X53912500Y-72500000D03*
X52087500Y-72500000D03*
%TD*%
D30*
%TO.C,U13*%
X56311000Y-72465500D03*
X56311000Y-73735500D03*
X62561000Y-73735500D03*
X62561000Y-72465500D03*
%TD*%
D27*
%TO.C,C27*%
X83362500Y-71700000D03*
X81637500Y-71700000D03*
%TD*%
D18*
%TO.C,R39*%
X53976000Y-95636000D03*
X52151000Y-95636000D03*
%TD*%
D23*
%TO.C,C15*%
X86900000Y-31637500D03*
X86900000Y-33362500D03*
%TD*%
D54*
%TO.C,U15*%
X98095000Y-114587500D03*
X99395000Y-114587500D03*
X98095000Y-113287500D03*
X99395000Y-113287500D03*
D55*
X97495000Y-115875000D03*
X97995000Y-115875000D03*
X98495000Y-115875000D03*
X98995000Y-115875000D03*
X99495000Y-115875000D03*
X99995000Y-115875000D03*
D56*
X100682500Y-115187500D03*
X100682500Y-114687500D03*
X100682500Y-114187500D03*
X100682500Y-113687500D03*
X100682500Y-113187500D03*
X100682500Y-112687500D03*
D55*
X99995000Y-112000000D03*
X99495000Y-112000000D03*
X98995000Y-112000000D03*
X98495000Y-112000000D03*
X97995000Y-112000000D03*
X97495000Y-112000000D03*
D56*
X96807500Y-112687500D03*
X96807500Y-113187500D03*
X96807500Y-113687500D03*
X96807500Y-114187500D03*
X96807500Y-114687500D03*
X96807500Y-115187500D03*
%TD*%
D34*
%TO.C,C40*%
X104775000Y-116000000D03*
X103225000Y-116000000D03*
%TD*%
D23*
%TO.C,C5*%
X94600000Y-66837500D03*
X94600000Y-68562500D03*
%TD*%
D57*
%TO.C,Q1*%
X60978000Y-57393500D03*
X62878000Y-57393500D03*
X61928000Y-55518500D03*
%TD*%
D31*
%TO.C,L5*%
X77216000Y-66793000D03*
X77216000Y-68843000D03*
%TD*%
D13*
%TO.C,D2*%
X50675750Y-123151250D03*
X52250750Y-123151250D03*
%TD*%
D22*
%TO.C,C36*%
X99737500Y-71000000D03*
X101462500Y-71000000D03*
%TD*%
%TO.C,C11*%
X95737500Y-55750000D03*
X97462500Y-55750000D03*
%TD*%
D29*
%TO.C,R51*%
X104000000Y-122175000D03*
X104000000Y-123825000D03*
%TD*%
D58*
%TO.C,R48*%
X81500000Y-113325000D03*
X81500000Y-111675000D03*
%TD*%
D59*
%TO.C,C29*%
X77100000Y-72050000D03*
X77100000Y-77450000D03*
%TD*%
D20*
%TO.C,L2*%
X95529500Y-41148000D03*
X93954500Y-41148000D03*
%TD*%
D18*
%TO.C,R14*%
X97512500Y-52250000D03*
X95687500Y-52250000D03*
%TD*%
D60*
%TO.C,C22*%
X75500000Y-51737500D03*
X75500000Y-54862500D03*
%TD*%
D24*
%TO.C,R26*%
X75100000Y-65412500D03*
X75100000Y-63587500D03*
%TD*%
D61*
%TO.C,U4*%
X70865000Y-57162500D03*
X72135000Y-57162500D03*
X72135000Y-50912500D03*
X70865000Y-50912500D03*
%TD*%
D27*
%TO.C,C12*%
X97462500Y-47000000D03*
X95737500Y-47000000D03*
%TD*%
D18*
%TO.C,R2*%
X84709000Y-75565000D03*
X82884000Y-75565000D03*
%TD*%
%TO.C,R31*%
X97178500Y-96774000D03*
X95353500Y-96774000D03*
%TD*%
%TO.C,R15*%
X115012500Y-59500000D03*
X113187500Y-59500000D03*
%TD*%
D27*
%TO.C,C26*%
X81462500Y-70000000D03*
X79737500Y-70000000D03*
%TD*%
%TO.C,C28*%
X81462500Y-67100000D03*
X79737500Y-67100000D03*
%TD*%
D62*
%TO.C,D4*%
X91500000Y-105000000D03*
X96500000Y-105000000D03*
%TD*%
D63*
%TO.C,U7*%
X107360000Y-75500000D03*
X106090000Y-75500000D03*
X104820000Y-75500000D03*
X103550000Y-75500000D03*
X102280000Y-75500000D03*
X101010000Y-75500000D03*
X99740000Y-75500000D03*
X98470000Y-75500000D03*
X97200000Y-75500000D03*
X95930000Y-75500000D03*
X94660000Y-75500000D03*
X93390000Y-75500000D03*
X92120000Y-75500000D03*
X90850000Y-75500000D03*
D64*
X89600000Y-78540000D03*
X89600000Y-79810000D03*
X89600000Y-81080000D03*
X89600000Y-82350000D03*
X89600000Y-83620000D03*
X89600000Y-84890000D03*
X89600000Y-86160000D03*
X89600000Y-87430000D03*
X89600000Y-88700000D03*
X89600000Y-89970000D03*
D63*
X90850000Y-93000000D03*
X92120000Y-93000000D03*
X93390000Y-93000000D03*
X94660000Y-93000000D03*
X95930000Y-93000000D03*
X97200000Y-93000000D03*
X98470000Y-93000000D03*
X99740000Y-93000000D03*
X101010000Y-93000000D03*
X102280000Y-93000000D03*
X103550000Y-93000000D03*
X104820000Y-93000000D03*
X106090000Y-93000000D03*
X107360000Y-93000000D03*
D65*
X101545000Y-82045000D03*
X100020000Y-82045000D03*
X98495000Y-82045000D03*
X101545000Y-83570000D03*
X100020000Y-83570000D03*
X98495000Y-83570000D03*
X101545000Y-85095000D03*
X100020000Y-85095000D03*
X98495000Y-85095000D03*
%TD*%
D30*
%TO.C,U12*%
X56311000Y-68701000D03*
X56311000Y-69971000D03*
X62561000Y-69971000D03*
X62561000Y-68701000D03*
%TD*%
D66*
%TO.C,U6*%
X81050000Y-79862500D03*
X80100000Y-79862500D03*
X79150000Y-79862500D03*
X79150000Y-82137500D03*
X80100000Y-82137500D03*
X81050000Y-82137500D03*
%TD*%
D21*
%TO.C,D5*%
X53052000Y-64770000D03*
X55152000Y-64770000D03*
%TD*%
D18*
%TO.C,R5*%
X73429500Y-91821000D03*
X71604500Y-91821000D03*
%TD*%
%TO.C,R42*%
X53912500Y-85000000D03*
X52087500Y-85000000D03*
%TD*%
D23*
%TO.C,C3*%
X94600000Y-63387500D03*
X94600000Y-65112500D03*
%TD*%
%TO.C,C14*%
X90678000Y-31649500D03*
X90678000Y-33374500D03*
%TD*%
D67*
%TO.C,T1*%
X79920000Y-47815000D03*
X82410000Y-47815000D03*
X84900000Y-47815000D03*
X87390000Y-47815000D03*
X89880000Y-47815000D03*
X89880000Y-63185000D03*
X87390000Y-63185000D03*
X84900000Y-63185000D03*
X82410000Y-63185000D03*
X79920000Y-63185000D03*
%TD*%
D68*
%TO.C,U5*%
X72150000Y-59862500D03*
X70250000Y-59862500D03*
X71200000Y-61737500D03*
%TD*%
D19*
%TO.C,C13*%
X97282000Y-40994500D03*
X97282000Y-39269500D03*
%TD*%
D22*
%TO.C,C38*%
X82322500Y-91848000D03*
X84047500Y-91848000D03*
%TD*%
D69*
%TO.C,L6*%
X80350000Y-84929900D03*
X80350000Y-89070100D03*
%TD*%
M02*
