%TF.GenerationSoftware,KiCad,Pcbnew,10.0.3*%
%TF.CreationDate,2026-05-26T13:40:20+02:00*%
%TF.ProjectId,Zamkonator,5a616d6b-6f6e-4617-946f-722e6b696361,rev?*%
%TF.SameCoordinates,Original*%
%TF.FileFunction,Soldermask,Bot*%
%TF.FilePolarity,Negative*%
%FSLAX46Y46*%
G04 Gerber Fmt 4.6, Leading zero omitted, Abs format (unit mm)*
G04 Created by KiCad (PCBNEW 10.0.3) date 2026-05-26 13:40:20*
%MOMM*%
%LPD*%
G01*
G04 APERTURE LIST*
G04 Aperture macros list*
%AMRoundRect*
0 Rectangle with rounded corners*
0 $1 Rounding radius*
0 $2 $3 $4 $5 $6 $7 $8 $9 X,Y pos of 4 corners*
0 Add a 4 corners polygon primitive as box body*
4,1,4,$2,$3,$4,$5,$6,$7,$8,$9,$2,$3,0*
0 Add four circle primitives for the rounded corners*
1,1,$1+$1,$2,$3*
1,1,$1+$1,$4,$5*
1,1,$1+$1,$6,$7*
1,1,$1+$1,$8,$9*
0 Add four rect primitives between the rounded corners*
20,1,$1+$1,$2,$3,$4,$5,0*
20,1,$1+$1,$4,$5,$6,$7,0*
20,1,$1+$1,$6,$7,$8,$9,0*
20,1,$1+$1,$8,$9,$2,$3,0*%
G04 Aperture macros list end*
%ADD10C,0.650000*%
%ADD11C,3.000000*%
%ADD12C,2.500000*%
%ADD13C,3.250000*%
%ADD14R,1.500000X1.500000*%
%ADD15C,1.500000*%
%ADD16C,1.600000*%
%ADD17C,2.029000*%
%ADD18C,1.800000*%
%ADD19R,1.700000X1.700000*%
%ADD20C,1.700000*%
%ADD21RoundRect,0.250000X-0.725000X0.600000X-0.725000X-0.600000X0.725000X-0.600000X0.725000X0.600000X0*%
%ADD22O,1.950000X1.700000*%
%ADD23C,0.800000*%
%ADD24C,6.400000*%
%ADD25O,1.700000X1.700000*%
%ADD26C,1.200000*%
%ADD27C,3.200000*%
%ADD28RoundRect,0.237500X-0.237500X0.250000X-0.237500X-0.250000X0.237500X-0.250000X0.237500X0.250000X0*%
%ADD29RoundRect,0.237500X0.237500X-0.250000X0.237500X0.250000X-0.237500X0.250000X-0.237500X-0.250000X0*%
%ADD30RoundRect,0.250000X-0.650000X1.500000X-0.650000X-1.500000X0.650000X-1.500000X0.650000X1.500000X0*%
G04 APERTURE END LIST*
D10*
%TO.C,USB1*%
X99885000Y-122570000D03*
X94105000Y-122570000D03*
%TD*%
D11*
%TO.C,K1*%
X58300000Y-48450000D03*
D12*
X64350000Y-46500000D03*
D11*
X64350000Y-34300000D03*
X52300000Y-34250000D03*
D12*
X52350000Y-46500000D03*
%TD*%
D13*
%TO.C,RJ1*%
X109900000Y-53200000D03*
X109900000Y-41800000D03*
D14*
X101010000Y-53215000D03*
D15*
X103550000Y-51945000D03*
X101010000Y-50675000D03*
X103550000Y-49405000D03*
X101010000Y-48135000D03*
X103550000Y-46865000D03*
X101010000Y-45595000D03*
X103550000Y-44325000D03*
X101010000Y-43055000D03*
X103550000Y-41785000D03*
D16*
X113990000Y-54129000D03*
X113990000Y-51589000D03*
X113990000Y-43411000D03*
X113990000Y-40871000D03*
D17*
X106852000Y-55247000D03*
X106852000Y-39753000D03*
%TD*%
D18*
%TO.C,J8*%
X47435000Y-39250000D03*
X42435000Y-42750000D03*
X47435000Y-46250000D03*
X42435000Y-49750000D03*
X47435000Y-53250000D03*
X42435000Y-56750000D03*
%TD*%
D19*
%TO.C,J4*%
X57912000Y-65786000D03*
D20*
X57912000Y-63246000D03*
X60452000Y-65786000D03*
X60452000Y-63246000D03*
%TD*%
D21*
%TO.C,J7*%
X47335000Y-96750000D03*
D22*
X47335000Y-99250000D03*
X47335000Y-101750000D03*
X47335000Y-104250000D03*
X47335000Y-106750000D03*
X47335000Y-109250000D03*
X47335000Y-111750000D03*
X47335000Y-114250000D03*
%TD*%
D23*
%TO.C,H3*%
X42700000Y-123500000D03*
X43402944Y-121802944D03*
X43402944Y-125197056D03*
X45100000Y-121100000D03*
D24*
X45100000Y-123500000D03*
D23*
X45100000Y-125900000D03*
X46797056Y-121802944D03*
X46797056Y-125197056D03*
X47500000Y-123500000D03*
%TD*%
D19*
%TO.C,J5*%
X93100000Y-101000000D03*
D25*
X95640000Y-101000000D03*
X98180000Y-101000000D03*
X100720000Y-101000000D03*
X103260000Y-101000000D03*
X105800000Y-101000000D03*
%TD*%
D18*
%TO.C,J9*%
X47500000Y-63520833D03*
X42500000Y-67020833D03*
%TD*%
%TO.C,J11*%
X47500000Y-84062500D03*
X42500000Y-87562500D03*
%TD*%
D26*
%TO.C,J3*%
X58800000Y-123400000D03*
X66800000Y-123400000D03*
%TD*%
D23*
%TO.C,H4*%
X42700000Y-31500000D03*
X43402944Y-29802944D03*
X43402944Y-33197056D03*
X45100000Y-29100000D03*
D24*
X45100000Y-31500000D03*
D23*
X45100000Y-33900000D03*
X46797056Y-29802944D03*
X46797056Y-33197056D03*
X47500000Y-31500000D03*
%TD*%
D27*
%TO.C,H2*%
X112100000Y-123500000D03*
%TD*%
%TO.C,H1*%
X112100000Y-31500000D03*
%TD*%
D19*
%TO.C,J1*%
X74925000Y-41100000D03*
D25*
X74925000Y-43640000D03*
X74925000Y-46180000D03*
X74925000Y-48720000D03*
%TD*%
D18*
%TO.C,J10*%
X47500000Y-73791667D03*
X42500000Y-77291667D03*
%TD*%
D19*
%TO.C,J2*%
X74925000Y-84200000D03*
D25*
X74925000Y-86740000D03*
X74925000Y-89280000D03*
%TD*%
D19*
%TO.C,J6*%
X52070000Y-52324000D03*
D20*
X52070000Y-54864000D03*
X52070000Y-57404000D03*
%TD*%
D15*
%TO.C,TP19*%
X71350000Y-47500000D03*
%TD*%
D28*
%TO.C,R3*%
X72200000Y-87587500D03*
X72200000Y-89412500D03*
%TD*%
D15*
%TO.C,TP16*%
X104370000Y-70150000D03*
%TD*%
%TO.C,TP7*%
X71120000Y-81788000D03*
%TD*%
D11*
%TO.C,TP13*%
X56500000Y-34300000D03*
%TD*%
%TO.C,TP15*%
X60300000Y-38100000D03*
%TD*%
D15*
%TO.C,TP8*%
X71882000Y-84328000D03*
%TD*%
%TO.C,TP11*%
X99850000Y-79250000D03*
%TD*%
%TO.C,TP5*%
X94488000Y-98298000D03*
%TD*%
%TO.C,TP4*%
X92100000Y-90000000D03*
%TD*%
%TO.C,TP6*%
X62484000Y-62738000D03*
%TD*%
D11*
%TO.C,TP3*%
X64008000Y-67818000D03*
%TD*%
%TO.C,TP14*%
X58100000Y-43500000D03*
%TD*%
D15*
%TO.C,TP9*%
X65000000Y-96500000D03*
%TD*%
%TO.C,TP12*%
X102500000Y-79200000D03*
%TD*%
%TO.C,TP17*%
X104600000Y-29750000D03*
%TD*%
D11*
%TO.C,TP1*%
X86600000Y-57000000D03*
%TD*%
D15*
%TO.C,TP20*%
X74600000Y-57250000D03*
%TD*%
D29*
%TO.C,R4*%
X77500000Y-89212500D03*
X77500000Y-87387500D03*
%TD*%
D30*
%TO.C,D1*%
X52070000Y-60873000D03*
X52070000Y-65873000D03*
%TD*%
D15*
%TO.C,TP18*%
X81788000Y-42672000D03*
%TD*%
%TO.C,TP10*%
X65000000Y-99500000D03*
%TD*%
D11*
%TO.C,TP2*%
X64770000Y-52070000D03*
%TD*%
M02*
